<svg width="161" height="154" viewBox="0 0 161 154" fill="none" xmlns="http://www.w3.org/2000/svg">
<path d="M95.6939 54.5674H52.1308L29.9922 67.4221H102.121L95.6939 54.5674Z" fill="#6B6C75" stroke="#6B6C75" stroke-width="0.128891"/>
<path d="M21.1821 0L0 13.1416L26.4561 67.6963L47.6382 54.6413L21.1821 0Z" fill="#9A9BA8"/>
<path d="M131.755 67.6963H26.4492V153.203H131.755V67.6963Z" fill="#9A9BA8"/>
<path d="M152.681 139.974L131.758 153.289V67.6958L152.681 54.4678V139.974Z" fill="#9A9BA8"/>
<path d="M131.762 149.14C131.416 149.14 131.07 148.881 131.07 148.448V73.6624C131.07 73.3165 131.33 72.9707 131.762 72.9707C132.194 72.9707 132.454 73.2301 132.454 73.6624V148.448C132.454 148.881 132.194 149.14 131.762 149.14Z" fill="white"/>
<path d="M58.6115 67.6963V67.8692C58.6115 90.2617 44.346 100.982 26.4492 101.588V67.7828H58.6115V67.6963Z" fill="#6B6C75"/>
<path d="M49.7981 97.0908L42.4492 103.056L51.5273 107.033L49.7981 97.0908Z" fill="#6B6C75"/>
<path d="M119.307 86.6309H67.6914V91.8183H119.307V86.6309Z" fill="white"/>
<path d="M98.647 101.59H89.6554C88.6179 101.59 87.8398 100.726 87.8398 99.7746C87.8398 98.7371 88.7044 97.959 89.6554 97.959H98.647C99.6845 97.959 100.463 98.8236 100.463 99.7746C100.549 100.726 99.6845 101.59 98.647 101.59Z" fill="#6B6C75"/>
<path d="M108.502 101.585H105.476C104.438 101.585 103.66 100.721 103.66 99.7697C103.66 98.7323 104.525 97.9541 105.476 97.9541H108.502C109.539 97.9541 110.317 98.8187 110.317 99.7697C110.404 100.721 109.539 101.585 108.502 101.585Z" fill="#6B6C75"/>
<path d="M117.4 101.586H114.374C113.337 101.586 112.559 100.722 112.559 99.7707C112.559 98.7332 113.423 97.9551 114.374 97.9551H117.4C118.438 97.9551 119.216 98.8197 119.216 99.7707C119.216 100.722 118.438 101.586 117.4 101.586Z" fill="#6B6C75"/>
<path d="M152.677 54.4697L141.006 61.9051L131.841 67.7842H26.4492L47.2855 54.4697H52.3L35.7866 64.4988L37.3429 67.0925H101.062L93.3674 54.4697H152.677Z" fill="#6B6C75"/>
<path d="M101.41 67.093C107.722 63.2024 116.281 61.2139 126.829 61.2139C129.941 61.2139 133.227 61.3868 136.685 61.7326C137.722 61.8191 138.587 61.992 139.365 62.1649L131.584 67.093H101.41Z" fill="white"/>
<path d="M126.834 60.6104V61.9072C129.946 61.9072 133.232 62.0802 136.604 62.426C136.949 62.426 137.295 62.5124 137.641 62.5124L131.503 66.403H103.923C109.888 63.377 117.583 61.8208 126.834 61.8208V60.6104ZM126.834 60.6104C116.286 60.6104 106.516 62.5125 99.2539 67.7864H131.848L141.013 61.9937C139.975 61.6479 138.592 61.3885 136.776 61.1291C133.405 60.7833 130.119 60.6104 126.834 60.6104Z" fill="#6B6C75"/>
<path d="M160.639 21.0947L139.802 34.3227L131.762 67.8683L152.684 54.6403L160.639 21.0947Z" fill="#9A9BA8"/>
<path d="M134.187 66.9189C134.014 66.9189 133.755 66.8324 133.668 66.6595C133.495 66.4001 133.582 65.9678 133.841 65.7949L149.922 55.5929C150.181 55.42 150.614 55.5064 150.787 55.7658C150.96 56.0252 150.873 56.4575 150.614 56.6304L134.533 66.8324C134.446 66.8324 134.273 66.9189 134.187 66.9189Z" fill="white"/>
</svg>
