<svg width="262" height="264" viewBox="0 0 262 264" fill="none" xmlns="http://www.w3.org/2000/svg">
<path d="M207.562 125.563L191.218 135.975L178.385 144.086H30.8086L59.9849 125.563H67.0066L43.8835 139.607L46.0626 143.239H135.166L124.512 125.563H207.562Z" fill="#23384D"/>
<path d="M178.264 144.086H30.8086V263.818H178.264V144.086Z" fill="#E92453"/>
<path d="M207.563 245.296L178.266 263.818V144.086L207.563 125.563V245.296Z" fill="#E92453"/>
<path d="M178.265 258.129C177.781 258.129 177.297 257.766 177.297 257.16V152.44C177.297 151.956 177.66 151.472 178.265 151.472C178.871 151.472 179.234 151.835 179.234 152.44V257.16C179.234 257.645 178.871 258.129 178.265 258.129Z" fill="white"/>
<path d="M75.8443 144.086V144.328C75.8443 175.684 55.8688 190.696 30.8086 191.543V144.207H75.8443V144.086Z" fill="#23384D"/>
<path d="M63.4975 185.248L53.207 193.48L65.9187 199.17L63.4975 185.248Z" fill="#23384D"/>
<path d="M160.83 170.478H88.5547V177.741H160.83V170.478Z" fill="white"/>
<path d="M131.899 191.423H119.308C117.855 191.423 116.766 190.212 116.766 188.88C116.766 187.427 117.976 186.338 119.308 186.338H131.899C133.351 186.338 134.441 187.548 134.441 188.88C134.562 190.333 133.351 191.423 131.899 191.423Z" fill="#23384D"/>
<path d="M145.698 191.423H141.46C140.008 191.423 138.918 190.212 138.918 188.88C138.918 187.427 140.129 186.338 141.46 186.338H145.698C147.15 186.338 148.24 187.548 148.24 188.88C148.361 190.333 147.15 191.423 145.698 191.423Z" fill="#23384D"/>
<path d="M158.166 191.423H153.808C152.355 191.423 151.266 190.212 151.266 188.88C151.266 187.427 152.476 186.338 153.808 186.338H158.045C159.498 186.338 160.587 187.548 160.587 188.88C160.709 190.333 159.619 191.423 158.166 191.423Z" fill="#23384D"/>
<path d="M115.917 218.662H31.7773V262.85H115.917V218.662Z" fill="white"/>
<path d="M114.948 219.63V262.003H32.6246V219.63H114.948ZM116.764 217.814H30.8086V263.819H116.764V217.814Z" fill="#23384D"/>
<path d="M90.1311 262.729C89.889 262.729 89.7679 262.729 89.6469 262.608L32.1415 220.599C31.7784 220.357 31.6573 219.752 31.8994 219.389C32.1415 219.025 32.7468 218.904 33.11 219.146L90.6154 261.156C90.9786 261.398 91.0996 262.003 90.8575 262.366C90.7364 262.608 90.3733 262.729 90.1311 262.729Z" fill="#23384D"/>
<path d="M57.3229 262.729C57.0808 262.729 56.7176 262.608 56.5965 262.366C56.3544 262.003 56.3544 261.398 56.8387 261.156L113.86 219.146C114.223 218.904 114.828 218.904 115.07 219.388C115.312 219.752 115.312 220.357 114.828 220.599L57.8072 262.608C57.6861 262.729 57.565 262.729 57.3229 262.729Z" fill="#23384D"/>
<path d="M135.773 143.238C144.611 137.79 156.596 135.006 171.366 135.006C175.725 135.006 180.325 135.248 185.168 135.732C186.62 135.853 187.831 136.095 188.92 136.338L178.025 143.238H135.773Z" fill="white"/>
<path d="M171.365 134.038V135.854C175.724 135.854 180.324 136.096 185.046 136.58C185.53 136.58 186.014 136.702 186.498 136.702L177.903 142.149H139.284C147.637 137.912 158.412 135.733 171.365 135.733V134.038ZM171.365 134.038C156.596 134.038 142.915 136.701 132.746 144.086H178.387L191.22 135.975C189.767 135.491 187.83 135.128 185.288 134.764C180.566 134.401 175.966 134.038 171.365 134.038Z" fill="#23384D"/>
<path d="M63.5 125L30.5 144H177.5L205 125H63.5Z" fill="#E92453" stroke="white" stroke-width="2"/>
<path d="M109 144L133 126" stroke="white" stroke-width="2" stroke-linecap="round"/>
<path d="M129.539 101.7C129.055 101.7 128.691 101.336 128.57 100.852L128.449 92.1356C128.449 91.6513 128.812 91.167 129.297 91.167C129.781 91.167 130.265 91.5302 130.265 92.0145L130.386 100.731C130.507 101.215 130.144 101.7 129.539 101.7C129.66 101.7 129.539 101.7 129.539 101.7Z" fill="#E92453"/>
<path d="M134.864 105.331C134.743 105.331 134.622 105.331 134.501 105.21C134.016 104.967 133.895 104.483 134.016 103.999L137.043 97.4615C137.285 96.9772 137.769 96.8562 138.254 96.9773C138.738 97.2194 138.859 97.7036 138.738 98.1879L135.711 104.725C135.59 105.088 135.227 105.331 134.864 105.331Z" fill="#E92453"/>
<path d="M70.218 103.878C67.5546 103.878 64.407 102.91 61.6225 99.641C60.8961 98.6725 60.1697 97.704 59.4433 96.7355C56.6588 92.6193 54.6008 89.7138 47.7002 92.9825C47.2159 93.2246 46.7317 92.9825 46.4895 92.4983C46.2474 92.014 46.4895 91.5298 46.9737 91.2876C55.2061 87.4136 58.1116 91.6508 60.8961 95.6459C61.5014 96.6144 62.2278 97.5829 62.9542 98.4304C68.0389 104.484 74.4553 101.094 74.6974 100.973C75.1816 100.731 75.6659 100.852 75.908 101.336C76.1502 101.82 76.0291 102.304 75.5448 102.547C75.6659 102.547 73.3657 103.878 70.218 103.878Z" fill="#030047"/>
<path d="M68.6439 110.052C65.9804 110.052 62.8327 109.084 60.0483 105.815C59.3219 104.846 58.5955 103.878 57.8691 102.909C55.0847 98.7932 53.0266 95.8877 46.1259 99.1564C45.6417 99.3986 45.1574 99.1564 44.9153 98.6721C44.6732 98.1879 44.9153 97.7036 45.3996 97.4615C53.6319 93.5875 56.5375 97.7037 59.3219 101.82C59.9272 102.788 60.6536 103.757 61.38 104.604C66.4647 110.657 72.8811 107.268 73.1232 107.147C73.6075 106.904 74.0917 107.026 74.3339 107.51C74.576 107.994 74.4549 108.478 73.9706 108.72C74.0917 108.72 71.6704 110.052 68.6439 110.052Z" fill="#030047"/>
<path d="M56.9017 55.6953L53.9961 68.1649L65.7393 63.8066L56.9017 55.6953Z" fill="white"/>
<path d="M52.7852 69.6172L56.296 54L67.4339 64.1693L52.7852 69.6172ZM57.3856 57.3898L55.3275 66.7117L64.0442 63.443L57.3856 57.3898Z" fill="#030047"/>
<path d="M15.4919 107.814L8.38672 100.709L1.28158 107.814L8.38672 114.919L15.4919 107.814Z" fill="white"/>
<path d="M8.35343 116.105L0 107.752L8.35343 99.3984L16.7068 107.752L8.35343 116.105ZM2.54231 107.752L8.35343 113.563L14.1645 107.752L8.35343 101.941L2.54231 107.752Z" fill="#030047"/>
<path d="M132.203 151.214C131.96 151.214 131.839 151.093 131.597 150.972L127.723 147.582C127.36 147.219 127.239 146.735 127.602 146.25C127.965 145.887 128.45 145.766 128.934 146.129L132.808 149.519C133.171 149.882 133.292 150.367 132.929 150.851C132.687 151.093 132.445 151.214 132.203 151.214Z" fill="#E92453"/>
<path d="M75.1795 82.813C75.0584 82.813 74.9373 82.813 74.8163 82.6919C74.332 82.4498 74.211 81.9655 74.4531 81.4813L78.4482 73.37C78.6903 72.8858 79.1746 72.7647 79.6588 73.0068C80.1431 73.2489 80.2641 73.7332 80.022 74.2174L76.0269 82.3287C75.9059 82.6919 75.5426 82.813 75.1795 82.813Z" fill="#E92453"/>
<path d="M161.499 99.1559C161.257 99.1559 161.015 99.0348 160.893 98.9138C160.53 98.5506 160.53 97.9453 160.893 97.5821L168.52 89.955C168.884 89.5918 169.489 89.5918 169.852 89.955C170.215 90.3182 170.215 90.9236 169.852 91.2868L162.225 98.9138C161.862 99.0348 161.741 99.1559 161.499 99.1559Z" fill="#E92453"/>
<path d="M146.972 120.705C146.488 120.705 146.125 120.342 146.125 119.858L145.641 115.258C145.641 114.773 146.004 114.289 146.488 114.289C146.972 114.289 147.457 114.652 147.457 115.137L147.941 119.737C147.941 120.221 147.578 120.705 146.972 120.705Z" fill="#E92453"/>
<path d="M173.848 108.6L179.901 103.879L181.111 112.111L173.848 108.6Z" fill="white"/>
<path d="M131.574 47.6996C132.059 47.6996 132.422 47.3364 132.543 46.8521L132.664 38.1356C132.664 37.6513 132.301 37.167 131.817 37.167C131.332 37.167 130.848 37.5302 130.848 38.0145L130.727 46.7311C130.606 47.2153 130.969 47.6996 131.574 47.6996C131.453 47.6996 131.574 47.6996 131.574 47.6996Z" fill="#E92453"/>
<path d="M126.249 51.3306C126.371 51.3306 126.492 51.3307 126.613 51.2096C127.097 50.9675 127.218 50.4832 127.097 49.999L124.07 43.4615C123.828 42.9772 123.344 42.8562 122.86 42.9773C122.375 43.2194 122.254 43.7036 122.376 44.1879L125.402 50.7253C125.523 51.0885 125.886 51.3306 126.249 51.3306Z" fill="#E92453"/>
<path d="M190.895 49.8782C193.559 49.8782 196.706 48.9097 199.491 45.641C200.217 44.6725 200.944 43.704 201.67 42.7355C204.454 38.6193 206.512 35.7138 213.413 38.9825C213.897 39.2246 214.382 38.9825 214.624 38.4983C214.866 38.014 214.624 37.5298 214.14 37.2876C205.907 33.4136 203.002 37.6508 200.217 41.6459C199.612 42.6144 198.885 43.5829 198.159 44.4304C193.074 50.4836 186.658 47.0938 186.416 46.9727C185.932 46.7306 185.447 46.8517 185.205 47.3359C184.963 47.8202 185.084 48.3044 185.568 48.5466C185.447 48.5466 187.748 49.8782 190.895 49.8782Z" fill="#030047"/>
<path d="M192.469 56.0522C195.133 56.0522 198.281 55.0837 201.065 51.8149C201.791 50.8464 202.518 49.8779 203.244 48.9094C206.029 44.7932 208.087 41.8877 214.987 45.1564C215.472 45.3986 215.956 45.1564 216.198 44.6721C216.44 44.1879 216.198 43.7036 215.714 43.4615C207.481 39.5875 204.576 43.7037 201.791 47.8199C201.186 48.7884 200.46 49.7569 199.733 50.6043C194.649 56.6575 188.232 53.2677 187.99 53.1466C187.506 52.9045 187.022 53.0255 186.779 53.5098C186.537 53.994 186.658 54.4783 187.143 54.7204C187.022 54.7204 189.443 56.0522 192.469 56.0522Z" fill="#030047"/>
<path d="M204.212 1.69531L207.117 14.1649L195.374 9.8066L204.212 1.69531Z" fill="white"/>
<path d="M208.328 15.6172L204.817 0L193.679 10.1693L208.328 15.6172ZM203.728 3.38977L205.786 12.7117L197.069 9.44296L203.728 3.38977Z" fill="#030047"/>
<path d="M245.621 53.8141L252.727 46.709L259.832 53.8141L252.727 60.9193L245.621 53.8141Z" fill="white"/>
<path d="M252.76 62.1052L261.113 53.7518L252.76 45.3984L244.406 53.7518L252.76 62.1052ZM258.571 53.7518L252.76 59.5628L246.949 53.7518L252.76 47.9407L258.571 53.7518Z" fill="#030047"/>
<path d="M128.911 97.2142C129.153 97.2142 129.274 97.0931 129.516 96.972L133.39 93.5822C133.753 93.2191 133.874 92.7348 133.511 92.2505C133.148 91.8873 132.664 91.7663 132.179 92.1295L128.305 95.5192C127.942 95.8824 127.821 96.3667 128.184 96.851C128.427 97.0931 128.669 97.2142 128.911 97.2142Z" fill="#E92453"/>
<path d="M185.934 28.813C186.055 28.813 186.176 28.813 186.297 28.6919C186.781 28.4498 186.902 27.9655 186.66 27.4813L182.665 19.37C182.423 18.8858 181.939 18.7647 181.454 19.0068C180.97 19.2489 180.849 19.7332 181.091 20.2174L185.086 28.3287C185.207 28.6919 185.571 28.813 185.934 28.813Z" fill="#E92453"/>
<path d="M99.6145 45.1559C99.8566 45.1559 100.099 45.0348 100.22 44.9138C100.583 44.5506 100.583 43.9453 100.22 43.5821L92.5928 35.955C92.2296 35.5918 91.6243 35.5918 91.2611 35.955C90.8979 36.3182 90.8979 36.9236 91.2611 37.2868L98.8881 44.9138C99.2513 45.0348 99.3723 45.1559 99.6145 45.1559Z" fill="#E92453"/>
<path d="M114.141 66.7054C114.625 66.7054 114.988 66.3422 114.988 65.858L115.473 61.2576C115.473 60.7733 115.109 60.2891 114.625 60.2891C114.141 60.2891 113.657 60.6523 113.657 61.1365L113.172 65.7369C113.172 66.2212 113.536 66.7054 114.141 66.7054Z" fill="#E92453"/>
<path d="M87.2656 54.6004L81.2124 49.8789L80.0018 58.1113L87.2656 54.6004Z" fill="white"/>
</svg>
