<svg width="367" height="221" viewBox="0 0 367 221" fill="none" xmlns="http://www.w3.org/2000/svg">
<path d="M365.09 175.746C362.654 185.955 353.605 194.307 341.657 194.307H117.305C101.297 194.307 86.3321 187.347 75.8917 175.746C73.1076 172.73 70.7876 169.25 68.6995 165.654L4.08529 47.9099C3.15725 46.1698 2.46124 44.4298 1.99722 42.6897C-2.17892 27.8412 8.84145 12.1807 25.314 12.1807H249.55C264.05 12.1807 277.739 17.8648 287.947 27.6092L278.435 42.6897L271.706 53.3621L295.951 68.7906L305.348 54.0581L362.886 158.578C365.786 164.146 366.366 170.178 365.09 175.746Z" fill="white"/>
<path d="M341.657 195.118H117.305C101.296 195.118 85.9838 188.274 75.3114 176.21C72.5274 173.078 70.0913 169.598 68.0032 165.885L3.27299 48.3735C2.34496 46.6334 1.53293 44.7773 1.06891 43.0373C-1.01916 35.613 0.604894 27.4927 5.24505 21.2285C10.0012 14.9643 17.1935 11.3682 25.0817 11.3682H249.317C263.934 11.3682 277.854 16.9364 288.295 27.0287L288.759 27.4927L272.518 53.0136L295.371 67.5141L305.115 52.2016L363.349 158.113C366.365 163.565 367.177 169.946 365.785 175.862C363.233 187.23 353.257 195.118 341.657 195.118ZM25.1977 12.9922C17.8895 12.9922 11.1613 16.3564 6.75311 22.1566C2.34496 27.9568 0.836904 35.497 2.80897 42.4572C3.27299 44.1973 3.96901 45.8214 4.89705 47.4454L69.6273 165.189C71.5993 168.786 73.9194 172.15 76.7035 175.166C87.0278 186.766 101.876 193.494 117.421 193.494H341.657C352.445 193.494 361.725 186.186 364.277 175.63C365.669 169.946 364.857 164.261 362.073 159.041L305.347 55.7977L296.299 70.0662L270.546 53.7096L286.903 27.8407C276.81 18.3284 263.586 13.1082 249.665 13.1082H25.1977V12.9922Z" fill="#23384D"/>
<path d="M287.946 27.6092L278.434 42.6897H1.88003C-2.29611 27.8412 8.72427 12.1807 25.1968 12.1807H249.432C264.049 12.1807 277.737 17.8648 287.946 27.6092Z" fill="#23384D"/>
<path d="M365.089 175.747C362.652 185.955 353.604 194.307 341.656 194.307H117.304C101.295 194.307 86.331 187.347 75.8906 175.747H365.089Z" fill="#23384D"/>
<path d="M70.7881 33.41H34.1308C31.6947 33.41 29.7227 31.438 29.7227 29.0019C29.7227 26.5658 31.6947 24.5938 34.1308 24.5938H70.9041C73.3401 24.5938 75.3122 26.5658 75.3122 29.0019C75.3122 31.438 73.3402 33.41 70.7881 33.41Z" fill="white"/>
<path d="M247.231 33.41H229.135C226.699 33.41 224.727 31.438 224.727 29.0019C224.727 26.5658 226.699 24.5938 229.135 24.5938H247.231C249.667 24.5938 251.639 26.5658 251.639 29.0019C251.755 31.438 249.783 33.41 247.231 33.41Z" fill="white"/>
<path d="M159.761 96.2837C155.701 96.2837 151.409 95.9358 147.001 95.3557C131.456 93.1517 120.9 86.6554 114.752 81.5512C113.012 80.1592 112.2 77.9551 112.316 75.751C112.548 73.547 113.708 71.5749 115.68 70.5309C123.22 66.2387 136.328 61.0186 155.353 61.0186C162.545 61.0186 170.086 61.7146 177.858 63.2226C183.078 64.2667 189.69 67.7468 192.358 72.6189C193.866 75.287 193.982 78.1871 192.938 81.0872C189.342 90.5995 176.814 96.2837 159.761 96.2837Z" fill="white"/>
<path d="M155.35 61.9461C162.542 61.9461 169.966 62.6421 177.738 64.1502C182.727 65.0782 189.107 68.4423 191.659 73.0825C193.051 75.5186 193.167 78.0707 192.123 80.7388C189.455 87.815 179.478 95.3553 159.642 95.3553C155.698 95.3553 151.406 95.0072 146.997 94.4272C131.569 92.3392 121.245 85.843 115.212 80.8548C113.704 79.5787 113.008 77.7227 113.124 75.8666C113.24 73.8945 114.4 72.2705 116.024 71.3424C123.681 67.0503 136.557 61.9461 155.35 61.9461ZM155.35 60.2061C136.093 60.2061 122.869 65.5423 115.328 69.8344C110.688 72.5025 110.108 78.8827 114.168 82.2468C120.316 87.467 130.989 94.0792 146.765 96.2833C151.406 96.8633 155.698 97.2113 159.642 97.2113C179.014 97.2113 190.383 90.1351 193.747 81.4348C197.691 71.1105 185.627 63.9182 178.086 62.4101C169.734 60.7861 162.194 60.2061 155.35 60.2061Z" fill="#23384D"/>
<path d="M173.217 92.4558C172.173 89.6717 172.637 86.5395 173.217 83.6394C173.797 80.8554 175.189 78.8833 173.681 76.4472C169.157 69.1389 156.629 69.951 149.668 69.139C145.376 68.6749 137.14 66.5868 132.5 62.9907C125.076 64.9628 119.275 67.5149 115.215 69.835C110.691 72.5031 110.111 78.7673 114.171 82.2474C120.319 87.4676 130.992 94.0798 146.768 96.2839C158.253 97.9079 167.649 97.3279 174.957 95.4718C174.261 94.5438 173.681 93.4998 173.217 92.4558Z" fill="#E92453"/>
<path d="M141.318 141.177C141.202 141.177 141.202 141.177 141.086 141.177C128.21 137.349 114.173 121.224 116.029 106.956C116.145 106.492 116.493 106.144 116.957 106.26C117.421 106.376 117.769 106.724 117.653 107.188C116.029 120.296 129.37 135.841 141.55 139.553C142.014 139.669 142.246 140.133 142.13 140.597C142.014 140.945 141.666 141.177 141.318 141.177Z" fill="#23384D"/>
<path d="M107.444 87.8154C107.328 87.8154 107.096 87.8154 106.98 87.6994C102.92 85.1473 100.136 81.0871 99.6721 77.027C99.2081 73.1989 100.716 69.3707 103.964 66.0066C104.312 65.6586 104.892 65.6586 105.24 66.0066C105.588 66.3546 105.588 66.9347 105.24 67.2827C102.34 70.1828 101.064 73.5469 101.528 76.795C101.992 80.3911 104.428 83.9872 108.024 86.3073C108.372 86.5393 108.604 87.1193 108.256 87.4673C108.024 87.6994 107.676 87.8154 107.444 87.8154Z" fill="#23384D"/>
<path d="M111.505 98.8362C111.389 98.8362 111.389 98.8362 111.505 98.8362C106.749 98.4882 98.2804 95.2401 94.1043 87.9318C93.8723 87.4678 93.9883 87.0038 94.4523 86.7718C94.9163 86.5398 95.3803 86.6558 95.6123 87.1198C99.4405 93.848 107.213 96.7481 111.505 97.0961C111.969 97.0961 112.317 97.5601 112.317 98.0242C112.317 98.4882 111.969 98.8362 111.505 98.8362Z" fill="#23384D"/>
<path d="M107.444 151.85C107.328 151.85 107.328 151.85 107.212 151.85C107.096 151.85 97.9313 149.646 96.6553 140.597C96.5393 140.133 96.8873 139.669 97.3513 139.669C97.8153 139.553 98.2794 139.901 98.2794 140.365C99.3234 148.254 107.444 150.226 107.444 150.226C107.908 150.342 108.256 150.806 108.14 151.27C108.14 151.502 107.792 151.85 107.444 151.85Z" fill="#23384D"/>
<path d="M274.26 133.869C273.912 133.869 273.448 133.637 273.448 133.173C273.332 132.709 273.68 132.245 274.144 132.129C285.861 129.693 292.705 120.645 295.141 113.685C295.257 113.221 295.837 112.989 296.301 113.105C296.765 113.221 296.997 113.801 296.881 114.265C293.517 124.009 284.817 131.781 274.608 133.869C274.376 133.869 274.376 133.869 274.26 133.869Z" fill="#23384D"/>
<path d="M272.518 144.657C272.17 144.657 271.706 144.425 271.706 143.961C271.59 143.497 271.938 143.033 272.402 142.917C280.29 141.293 286.323 138.393 291.195 133.869C291.543 133.521 292.123 133.521 292.471 133.869C292.819 134.217 292.819 134.797 292.471 135.145C287.367 139.901 280.986 143.033 272.866 144.657C272.634 144.657 272.634 144.657 272.518 144.657Z" fill="#23384D"/>
<path d="M241.66 105.332L199.898 127.024L237.252 142.221L275.881 122.732L241.66 105.332Z" fill="#23384D"/>
<path d="M250.943 99.5317C250.363 88.9754 239.342 70.2987 208.137 67.5146C208.369 69.4867 207.093 71.5748 206.745 73.5468C205.817 77.955 204.077 82.1311 201.293 84.7992C211.385 85.7273 224.378 91.8755 227.394 98.4877C227.626 99.0677 227.858 99.7637 228.09 100.344C223.914 103.244 221.362 109.276 223.218 111.248C225.074 113.336 228.09 108.348 228.09 108.348L228.902 108.232C228.786 112.408 227.974 115.54 230.062 116.7C232.962 118.324 234.238 115.54 234.238 115.54C238.646 117.976 251.523 110.436 250.943 99.5317Z" fill="white"/>
<path d="M231.684 117.976C230.988 117.976 230.292 117.744 229.596 117.396C227.392 116.236 227.624 113.452 227.856 110.32C227.856 110.204 227.856 110.088 227.856 110.088C227.044 111.132 225.652 112.524 224.376 112.64C223.68 112.756 222.984 112.408 222.52 111.828C221.824 111.132 221.592 109.972 221.708 108.58C222.056 105.68 224.26 102.083 226.928 99.9954C226.812 99.5314 226.58 99.1834 226.464 98.8354C223.564 92.3391 210.688 86.5389 201.059 85.6109L199.203 85.3789L200.595 84.1028C203.031 81.8988 204.771 78.1866 205.815 73.3145C205.931 72.5024 206.279 71.6904 206.511 70.9944C206.975 69.7184 207.323 68.5583 207.207 67.5143L207.091 66.4702L208.135 66.5862C238.992 69.2543 251.173 87.699 251.753 99.4154C252.101 106.26 247.461 111.712 242.937 114.496C239.689 116.468 236.556 117.164 234.468 116.468C234.12 116.932 233.54 117.512 232.728 117.744C232.496 117.976 232.148 117.976 231.684 117.976ZM229.712 107.188V108.232C229.712 109.044 229.596 109.74 229.596 110.436C229.364 113.452 229.364 115.192 230.408 115.888C231.104 116.236 231.684 116.352 232.148 116.236C232.96 116.004 233.308 115.192 233.424 115.192L233.888 114.38L234.7 114.844C236.208 115.656 239.224 115.076 242.125 113.22C246.185 110.668 250.361 105.912 250.013 99.7634C249.433 88.743 237.948 71.5744 208.947 68.6743C208.831 69.7184 208.483 70.7624 208.135 71.8064C207.903 72.5024 207.671 73.1985 207.439 73.8945C206.511 78.3026 205.003 81.7828 202.915 84.3349C212.776 85.7269 224.956 91.5271 227.972 98.3713C228.204 98.9513 228.436 99.5314 228.668 100.343L228.9 100.923L228.32 101.271C225.42 103.359 223.564 106.84 223.216 109.044C223.1 109.856 223.216 110.552 223.564 110.9C223.796 111.132 223.912 111.132 224.028 111.132C224.956 111.016 226.348 109.276 227.044 108.116L227.276 107.768L229.712 107.188Z" fill="#23384D"/>
<path d="M229.481 104.752C229.365 105.448 229.133 106.144 229.017 106.84C228.901 107.536 229.945 107.884 230.177 107.188L230.641 105.216C230.757 104.288 229.597 104.056 229.481 104.752Z" fill="#23384D"/>
<path d="M235.397 105.448C234.933 108 234.469 110.552 234.121 113.104C234.005 113.801 235.165 114.148 235.281 113.452C235.745 110.9 236.21 108.348 236.558 105.796C236.674 105.1 235.629 104.752 235.397 105.448Z" fill="#23384D"/>
<path d="M275.883 122.732L237.254 142.221V100.111C237.254 98.8352 237.95 97.5592 239.226 96.9791L274.143 79.4625C276.463 78.3025 279.247 80.0426 279.247 82.5947V117.512C279.247 119.716 277.971 121.688 275.883 122.732Z" fill="#23384D"/>
<path d="M261.381 110.667C258.713 110.667 256.625 108.579 256.625 105.911C256.625 103.243 258.713 100.227 261.381 100.227C264.165 100.227 266.137 102.547 266.137 105.911C266.137 108.579 264.049 110.667 261.381 110.667ZM261.381 101.967C259.757 101.967 258.365 104.171 258.365 105.911C258.365 107.535 259.757 108.927 261.381 108.927C263.005 108.927 264.397 107.535 264.397 105.911C264.397 103.475 263.237 101.967 261.381 101.967Z" fill="white"/>
<path d="M237.252 137.001C236.788 137.001 236.324 136.653 236.324 136.073V117.744C236.324 117.28 236.672 116.816 237.252 116.816C237.832 116.816 238.18 117.164 238.18 117.744V136.073C238.18 136.653 237.716 137.001 237.252 137.001Z" fill="white"/>
<path d="M215.326 124.589C214.978 124.589 214.746 124.473 214.514 124.125C214.282 123.661 214.398 123.197 214.862 122.965L220.083 120.18C220.547 119.948 221.011 120.064 221.243 120.529C221.475 120.993 221.359 121.457 220.895 121.689L215.674 124.473C215.558 124.589 215.442 124.589 215.326 124.589Z" fill="white"/>
<path d="M223.795 124.589C223.447 124.589 223.215 124.473 222.983 124.125C222.751 123.661 222.867 123.197 223.331 122.965L225.999 121.573C226.463 121.341 226.927 121.457 227.159 121.921C227.391 122.385 227.275 122.849 226.811 123.081L224.143 124.473C224.143 124.589 224.027 124.589 223.795 124.589Z" fill="white"/>
<path d="M226.35 131.549C226.002 131.549 225.77 131.433 225.538 131.085C225.306 130.621 225.422 130.157 225.886 129.925L230.062 127.72C230.526 127.488 230.99 127.605 231.222 128.069C231.454 128.533 231.338 128.997 230.874 129.229L226.698 131.433C226.698 131.549 226.466 131.549 226.35 131.549Z" fill="white"/>
<path d="M138.769 75.2869C127.401 80.739 127.401 88.6273 131.925 91.8755C136.449 95.1236 162.55 97.5596 168.35 89.6713C174.15 81.7831 170.554 74.1268 159.302 72.1548C154.893 71.3427 144.569 72.5028 138.769 75.2869Z" fill="white"/>
<path d="M144.453 75.0547C113.248 97.2114 126.356 135.725 174.498 140.249C183.314 141.061 188.998 135.029 193.871 137.813C196.539 139.321 200.831 136.073 202.455 137.117C207.791 140.365 209.067 134.913 209.067 134.913C209.995 135.145 212.663 132.361 211.271 130.157C211.271 130.157 214.055 128.185 211.155 124.588C205.239 117.164 187.722 115.54 178.558 113.568C169.394 111.596 151.065 110.088 158.141 96.7474C160.229 92.6873 164.29 87.5831 164.29 87.4671" fill="white"/>
<path d="M176.12 141.178C175.54 141.178 174.96 141.177 174.38 141.061C149.903 138.741 132.039 127.141 127.631 110.784C124.151 97.676 130.183 83.9875 143.871 74.2432C144.219 74.0112 144.799 74.0112 145.031 74.4752C145.263 74.8232 145.263 75.4033 144.799 75.6353C131.691 84.9156 125.891 97.908 129.139 110.32C133.315 125.981 150.599 137.001 174.38 139.321C178.44 139.669 181.804 138.509 184.821 137.581C188.301 136.421 191.201 135.377 194.101 137.001C195.261 137.697 197.001 137.117 198.625 136.537C200.249 136.073 201.641 135.609 202.685 136.189C204.077 137.001 205.237 137.349 206.165 136.885C207.557 136.305 208.021 134.565 208.021 134.449L208.253 133.637L209.065 133.869C209.181 133.869 209.993 133.173 210.341 132.245C210.689 131.549 210.573 130.969 210.225 130.389L209.761 129.693L210.457 129.229C210.457 129.229 211.154 128.649 211.27 127.721C211.386 126.909 211.037 125.981 210.225 124.937C205.701 119.253 193.405 117.049 184.357 115.425C182.037 114.961 179.948 114.613 178.092 114.265C176.932 114.033 175.772 113.801 174.38 113.569C167.42 112.177 158.604 110.552 156.052 105.216C154.892 102.664 155.124 99.6481 156.98 96.168C158.256 93.7319 160.344 90.5998 163.128 87.0036L163.244 86.7716C163.476 86.4236 164.056 86.3076 164.404 86.5396C164.752 86.7716 164.868 87.3517 164.636 87.6997C164.636 87.6997 164.52 87.8157 164.404 87.9317C161.04 92.3398 159.3 95.2399 158.488 96.864C156.864 99.8801 156.632 102.316 157.56 104.288C159.764 108.812 168.348 110.436 174.612 111.712C176.004 111.944 177.164 112.177 178.324 112.409C180.064 112.757 182.269 113.221 184.589 113.569C194.333 115.309 206.513 117.513 211.502 123.661C212.662 125.053 213.126 126.445 212.894 127.721C212.778 128.649 212.314 129.345 211.966 129.809C212.43 130.969 212.198 132.361 211.27 133.637C210.806 134.333 210.109 135.029 209.297 135.261C208.949 136.073 208.253 137.581 206.629 138.277C205.237 138.857 203.497 138.625 201.525 137.349C201.177 137.117 199.901 137.581 198.857 137.813C197.001 138.393 194.797 139.089 192.941 138.045C190.737 136.885 188.301 137.697 185.053 138.741C182.733 140.249 179.716 141.178 176.12 141.178Z" fill="#23384D"/>
<path d="M207.79 134.217C205.817 131.781 202.685 130.389 199.553 130.737C198.857 130.853 198.857 132.013 199.553 131.897C202.453 131.665 205.121 132.825 206.978 135.029C207.442 135.609 208.254 134.797 207.79 134.217Z" fill="#23384D"/>
<path d="M210.11 128.301C208.254 126.213 205.586 124.937 202.686 124.821C201.99 124.821 201.99 125.981 202.686 125.981C205.238 126.097 207.558 127.141 209.298 129.113C209.878 129.693 210.69 128.765 210.11 128.301Z" fill="#23384D"/>
<path d="M215.329 104.056C215.097 104.056 214.865 103.94 214.749 103.824L209.761 98.4877C209.413 98.1397 209.413 97.5597 209.761 97.2117C210.109 96.8637 210.689 96.8637 211.037 97.2117L216.025 102.548C216.373 102.896 216.373 103.476 216.025 103.824C215.677 104.056 215.561 104.056 215.329 104.056Z" fill="#E92453"/>
<path d="M220.548 101.968C220.2 101.968 219.968 101.851 219.852 101.503L214.632 92.6872C214.4 92.2232 214.516 91.7591 214.98 91.5271C215.444 91.2951 215.908 91.4111 216.14 91.8752L221.36 100.691C221.592 101.155 221.476 101.619 221.012 101.851C220.78 101.967 220.664 101.968 220.548 101.968Z" fill="#E92453"/>
<path d="M340.042 12.8043L321.727 1.1792L306.993 24.3915L325.308 36.0166L340.042 12.8043Z" fill="white"/>
<path d="M325.533 37.1213L305.812 24.5929L321.473 0L341.194 12.5284L325.533 37.1213ZM308.249 24.1288L325.069 34.8012L338.874 13.1084L322.053 2.43609L308.249 24.1288Z" fill="#23384D"/>
<path d="M344.21 148.136L303.957 122.615L336.322 71.5732L353.259 82.3616C366.135 90.5979 369.963 107.65 361.843 120.527L344.21 148.136Z" fill="white"/>
<path d="M344.558 149.297L302.797 122.848L336.09 70.2979L353.723 81.5502C367.063 90.0185 371.007 107.651 362.539 120.876L344.558 149.297ZM305.117 122.268L343.978 146.86L361.147 119.832C369.035 107.303 365.323 90.7145 352.911 82.8263L336.67 72.5019L305.117 122.268Z" fill="#23384D"/>
<path d="M112.766 194.72L93.6523 151.043L38.2851 175.273L57.399 218.95L112.766 194.72Z" fill="white"/>
<path d="M56.8679 220.176L37.0312 174.934L93.9892 149.993L113.826 195.235L56.8679 220.176ZM39.3513 175.746L57.7959 217.855L111.622 194.307L93.1772 152.197L39.3513 175.746Z" fill="#23384D"/>
<path d="M86.7969 200.454L108.258 169.597L121.83 200.454H86.7969Z" fill="white"/>
<path d="M123.105 201.382H85.1719L108.373 167.741L123.105 201.382ZM88.42 199.642H120.437L108.025 171.337L88.42 199.642Z" fill="#23384D"/>
<path d="M55.1301 186.186C54.8981 186.186 54.6661 186.07 54.5501 185.954C54.2021 185.606 54.2021 185.026 54.5501 184.678L63.1344 176.094C63.4824 175.746 64.0624 175.746 64.4104 176.094C64.7584 176.442 64.7584 177.022 64.4104 177.37L55.8261 185.954C55.5941 186.186 55.3621 186.186 55.1301 186.186Z" fill="#E92453"/>
<path d="M63.7144 186.186C63.4824 186.186 63.2504 186.07 63.1344 185.954L54.5501 177.37C54.2021 177.022 54.2021 176.442 54.5501 176.094C54.8981 175.746 55.4781 175.746 55.8261 176.094L64.4104 184.678C64.7584 185.026 64.7584 185.606 64.4104 185.954C64.1784 186.186 63.9464 186.186 63.7144 186.186Z" fill="#E92453"/>
<path d="M354.535 108.696C354.419 108.696 354.187 108.696 354.071 108.58L336.322 97.3274C335.974 97.0954 335.742 96.5153 336.09 96.1673C336.322 95.8193 336.902 95.5873 337.25 95.9353L354.999 107.188C355.347 107.42 355.579 108 355.231 108.348C355.115 108.58 354.883 108.696 354.535 108.696Z" fill="#E92453"/>
<path d="M350.59 114.381C350.474 114.381 350.242 114.381 350.126 114.265L345.486 111.364C345.138 111.132 344.906 110.552 345.254 110.204C345.486 109.74 346.066 109.624 346.414 109.972L351.054 112.872C351.402 113.104 351.634 113.684 351.286 114.033C351.17 114.149 350.938 114.381 350.59 114.381Z" fill="#E92453"/>
<path d="M341.308 108.463C341.192 108.463 340.96 108.463 340.844 108.347L332.26 102.895C331.912 102.663 331.68 102.083 332.028 101.735C332.26 101.271 332.84 101.155 333.188 101.503L341.772 106.955C342.12 107.187 342.352 107.767 342.004 108.115C341.888 108.347 341.656 108.463 341.308 108.463Z" fill="#E92453"/>
<path d="M344.441 119.368C344.325 119.368 344.093 119.368 343.977 119.252L328.549 109.391C328.201 109.159 327.969 108.579 328.317 108.231C328.549 107.883 329.129 107.651 329.477 107.999L344.905 117.86C345.253 118.092 345.485 118.672 345.137 119.02C345.021 119.252 344.789 119.368 344.441 119.368Z" fill="#E92453"/>
<path d="M187.141 58.8142C177.281 50.5779 166.956 49.1859 162.316 60.0902C162.316 60.0902 150.716 60.5543 155.704 69.6026C155.704 69.6026 147.816 76.9108 160.692 82.827C173.453 88.8592 185.981 70.6466 185.981 70.6466L187.141 58.8142Z" fill="#23384D"/>
<path d="M195.375 86.0751C193.867 86.0751 192.243 85.8431 190.503 85.2631C187.023 84.219 184.007 81.8989 181.919 78.6508L181.571 78.1868L180.991 78.3028C180.411 78.4188 179.831 78.5348 179.25 78.5348C176.002 78.5348 173.334 76.3307 172.058 74.2427C171.246 72.8506 171.246 71.2266 172.058 69.9505C172.986 68.3265 174.842 67.3984 177.278 67.3984C177.742 67.3984 178.322 67.3985 178.786 67.5145L179.598 67.6304L179.715 66.8184V66.7024C181.339 59.1622 187.371 53.71 194.215 53.71C195.143 53.71 195.955 53.826 196.883 53.942C202.567 55.102 206.975 60.3222 207.787 66.7024C208.019 68.5585 207.903 70.5306 207.555 72.5026C206.511 77.3748 204.771 80.9709 202.335 83.291C200.595 85.263 198.159 86.0751 195.375 86.0751Z" fill="white"/>
<path d="M194.449 54.7547C195.261 54.7547 196.073 54.8707 196.885 54.9867C202.221 56.1467 206.397 60.9029 207.093 66.9351C207.325 68.6752 207.209 70.5312 206.861 72.3873C205.817 77.1435 204.193 80.6236 201.989 82.7116C200.249 84.3357 198.045 85.1477 195.493 85.1477C194.101 85.1477 192.477 84.9157 190.852 84.4517C187.604 83.4077 184.704 81.2036 182.732 78.3035L182.036 77.2595L180.876 77.4915C180.412 77.6075 179.832 77.7235 179.368 77.7235C176.468 77.7235 174.032 75.7514 172.988 73.8954C172.292 72.7353 172.292 71.4593 172.988 70.4152C173.8 69.0232 175.424 68.3272 177.396 68.3272C177.86 68.3272 178.324 68.3272 178.788 68.4432L180.412 68.6752L180.76 67.0511V66.9351C182.152 59.8589 187.952 54.7547 194.449 54.7547ZM194.449 53.0146C187.256 53.0146 180.76 58.5828 179.02 66.7031V66.8191C178.44 66.7031 177.86 66.7031 177.396 66.7031C171.944 66.7031 169.392 71.2273 171.48 74.8234C172.988 77.3755 176.004 79.5795 179.368 79.5795C179.948 79.5795 180.644 79.4635 181.34 79.3475C183.428 82.7116 186.676 85.1477 190.388 86.3078C192.245 86.8878 193.985 87.1198 195.493 87.1198C198.741 87.1198 201.177 85.9598 203.149 84.2197C205.933 81.5516 207.673 77.4915 208.601 72.9673C209.065 70.8792 209.065 68.9072 208.833 66.9351C208.021 60.3229 203.613 54.7547 197.233 53.4787C196.305 53.0146 195.377 53.0146 194.449 53.0146Z" fill="#23384D"/>
<path d="M207.557 62.2954C205.933 57.7712 201.989 54.2911 197.116 53.2471C188.996 51.507 179.6 56.6112 178.672 68.4436C190.504 70.4157 200.481 68.2116 207.557 62.2954Z" fill="#E92453"/>
<path d="M197.776 71.0838C198.139 70.5561 198.006 69.8338 197.478 69.4704C196.951 69.1071 196.228 69.2404 195.865 69.7681C195.502 70.2958 195.635 71.0182 196.163 71.3815C196.69 71.7448 197.413 71.6115 197.776 71.0838Z" fill="#E92453"/>
<path d="M181.688 73.3157C180.412 70.8796 177.627 69.7196 174.959 70.4156C174.263 70.6476 174.495 71.8076 175.191 71.5756C177.279 70.9956 179.599 71.8076 180.644 73.7797C180.992 74.3597 182.036 73.8957 181.688 73.3157Z" fill="#23384D"/>
<path d="M204.076 76.9108C204.308 74.3587 204.076 71.6906 203.496 69.1385C203.38 68.4425 202.22 68.6745 202.336 69.3705C202.916 71.8066 203.032 74.2427 202.916 76.7948C202.8 77.6068 203.96 77.7228 204.076 76.9108Z" fill="#23384D"/>
</svg>
