<svg width="307" height="355" viewBox="0 0 307 355" fill="none" xmlns="http://www.w3.org/2000/svg">
<path d="M130.568 317.551C131.9 324.572 134.321 329.536 137.106 333.289C137.348 333.652 137.59 333.894 137.832 334.258C138.437 334.984 139.043 335.589 139.648 336.195C140.011 336.558 140.253 336.8 140.617 337.042C143.885 339.948 147.396 341.642 150.423 342.974C158.05 346.243 158.413 354.596 158.413 354.596L98.6074 354.233C99.3338 344.306 99.3338 325.541 99.3338 325.541C111.924 321.909 117.857 319.609 130.568 317.551Z" fill="#23384D"/>
<path d="M137.227 333.289C137.469 333.652 137.711 333.894 137.953 334.258C135.532 335.347 133.11 336.558 130.689 337.647C129.963 338.011 129.357 336.921 130.084 336.679C132.505 335.589 134.805 334.379 137.227 333.289Z" fill="white"/>
<path d="M139.767 336.194C140.131 336.557 140.373 336.799 140.736 337.041C138.072 338.373 135.288 339.584 132.625 340.915C131.898 341.279 131.293 340.189 132.019 339.947C134.562 338.615 137.225 337.404 139.767 336.194Z" fill="white"/>
<path d="M47.6387 312.103C42.0698 316.582 38.801 321.061 36.864 325.299C36.7429 325.662 36.5008 326.025 36.3798 326.388C36.0166 327.236 35.7745 328.083 35.5323 328.931C35.4113 329.294 35.2902 329.778 35.1691 330.141C34.2006 334.378 34.3217 338.374 34.5638 341.642C35.1691 349.875 28.0264 354.112 28.0264 354.112L0.423828 300.965C8.77723 295.154 16.7674 289.706 23.1838 283.29C32.2636 292.611 39.8906 301.691 47.6387 312.103Z" fill="#23384D"/>
<path d="M136.62 187.771C136.62 187.771 122.214 181.717 110.349 180.144C111.076 169.732 111.318 162.832 111.318 162.832L73.0616 165.374C68.9455 188.981 67.2506 223.242 49.8174 253.387C41.9482 267.067 28.3891 277.963 14.2246 290.191C22.0938 300.965 34.6844 315.13 42.6746 325.904C44.9748 322.151 79.1148 304.113 96.548 257.746C96.0637 294.912 94.732 332.926 94.732 332.926L138.073 330.142C138.073 330.142 144.005 251.571 136.62 187.771Z" fill="white"/>
<path d="M93.7632 333.894V332.925C93.7632 332.562 94.9738 297.938 95.5792 262.708C81.2936 297.091 58.0494 314.887 48.0011 322.635C45.8219 324.33 43.8849 325.783 43.5217 326.388L42.7954 327.599L41.9479 326.509C38.1949 321.424 33.2313 315.492 28.5098 309.802C23.183 303.265 17.6141 296.606 13.3768 290.795L12.8926 290.069L13.4979 289.464C14.9507 288.253 16.4034 286.921 17.8562 285.711C30.2047 275.057 41.8268 265.009 48.8485 252.902C62.892 228.568 66.6449 201.571 69.7926 179.78C70.519 174.574 71.2453 169.61 71.9717 165.131L72.0928 164.405L112.044 161.741V162.71C112.044 162.831 111.802 169.368 111.075 179.174C122.819 180.869 136.62 186.68 136.741 186.801L137.225 187.044L137.346 187.528C144.61 250.602 138.799 329.172 138.799 330.02V330.867L93.7632 333.894ZM97.5162 252.539L97.3951 257.745C96.9109 291.158 95.8213 325.662 95.5792 331.957L137.104 329.294C137.709 320.94 142.431 247.939 135.651 188.496C132.988 187.407 120.518 182.443 110.107 181.111L109.259 180.99L109.38 180.143C109.986 172.153 110.228 166.099 110.349 163.92L73.7877 166.342C73.0613 170.7 72.456 175.3 71.7296 180.264C68.5819 202.177 64.829 229.416 50.6645 253.992C43.5217 266.34 31.7785 276.51 19.3089 287.284C18.0983 288.374 16.8877 289.464 15.556 290.432C19.6722 296.001 24.999 302.417 30.0837 308.592C34.563 314.039 39.1634 319.608 42.9164 324.451C43.7638 323.725 45.0956 322.635 47.0326 321.182C57.4441 313.192 82.02 294.306 95.9423 257.382L97.5162 252.539Z" fill="#23384D"/>
<path d="M36.8642 325.177C36.7432 325.54 36.5011 325.903 36.38 326.266C34.2008 324.693 32.1428 322.998 29.9636 321.424C29.3583 320.94 29.9636 319.85 30.5689 320.334C32.627 322.15 34.8062 323.603 36.8642 325.177Z" fill="white"/>
<path d="M35.5321 328.809C35.411 329.172 35.2899 329.656 35.1689 330.02C32.7476 328.204 30.3263 326.509 28.0261 324.693C27.4208 324.209 28.0261 323.119 28.6314 323.603C30.9317 325.419 33.2319 327.114 35.5321 328.809Z" fill="white"/>
<path d="M99.3331 251.813C99.212 251.813 99.0909 251.813 98.9698 251.692C98.4856 251.571 98.2435 250.966 98.4856 250.482C107.081 228.206 110.35 202.298 110.35 202.056L110.471 201.33H111.197C111.318 201.33 117.977 200.967 122.456 199.756C122.941 199.635 123.425 199.877 123.546 200.361C123.667 200.846 123.425 201.33 122.941 201.451C119.188 202.419 113.982 202.904 112.045 203.025C111.439 207.504 108.05 230.748 100.18 251.087C100.059 251.571 99.6963 251.813 99.3331 251.813Z" fill="#23384D"/>
<path d="M306.233 0H165.678V188.738H306.233V0Z" fill="#E92453"/>
<path d="M252.117 20.5806H194.732V56.6576H252.117V20.5806Z" fill="white"/>
<path d="M229.479 141.523L288.073 108.109C288.073 108.109 304.417 137.77 275.967 153.024C251.149 166.341 229.479 141.523 229.479 141.523Z" fill="white"/>
<path d="M261.076 113.074C265.489 113.074 269.066 109.496 269.066 105.084C269.066 100.671 265.489 97.0933 261.076 97.0933C256.663 97.0933 253.086 100.671 253.086 105.084C253.086 109.496 256.663 113.074 261.076 113.074Z" fill="white"/>
<path d="M256.717 25.9074C256.475 25.9074 256.233 25.7864 256.112 25.6653L247.032 16.5855C246.669 16.2223 246.669 15.617 247.032 15.2538C247.395 14.8906 248.001 14.8906 248.364 15.2538L257.444 24.3336C257.807 24.6968 257.807 25.3021 257.444 25.6653C257.08 25.9074 256.838 25.9074 256.717 25.9074Z" fill="#23384D"/>
<path d="M247.637 25.9074C247.395 25.9074 247.153 25.7864 247.032 25.6653C246.669 25.3021 246.669 24.6968 247.032 24.3336L256.112 15.2538C256.475 14.8906 257.08 14.8906 257.444 15.2538C257.807 15.617 257.807 16.2223 257.444 16.5855L248.364 25.6653C248.122 25.9074 247.88 25.9074 247.637 25.9074Z" fill="#23384D"/>
<path d="M213.306 123.693L195.68 130.473L202.46 148.099L220.086 141.319L213.306 123.693Z" fill="white"/>
<path d="M306.354 33.8975H299.938V89.4657H306.354V33.8975Z" fill="#23384D"/>
<path d="M232.384 34.8663H205.144C204.66 34.8663 204.176 34.5031 204.176 33.8978C204.176 33.2924 204.539 32.9292 205.144 32.9292H232.384C232.868 32.9292 233.352 33.2924 233.352 33.8978C233.352 34.5031 232.868 34.8663 232.384 34.8663Z" fill="#23384D"/>
<path d="M215.92 79.6595C215.799 79.6595 215.799 79.6595 215.678 79.6595C215.193 79.5385 214.83 79.0542 214.951 78.5699L217.857 65.7372C217.978 65.2529 218.462 64.8897 218.946 65.0108C219.431 65.1318 219.794 65.6161 219.673 66.1004L216.767 78.9331C216.646 79.2963 216.283 79.6595 215.92 79.6595Z" fill="#23384D"/>
<path d="M205.629 68.7641L224.394 44.6724L229.478 74.212L205.629 68.7641Z" fill="white"/>
<path d="M230.568 75.3014L203.934 69.2482L224.878 42.4932L230.568 75.3014ZM207.202 68.1587L228.389 72.8802L223.909 46.8514L207.202 68.1587Z" fill="#23384D"/>
<path d="M183.715 80.6278C191.826 72.5165 196.911 64.042 201.996 67.0686C201.996 67.0686 208.291 66.1001 207.807 69.3689C212.165 65.858 213.739 61.6207 216.644 63.1946C221.487 65.7369 207.08 84.0176 207.08 84.0176H211.196C211.196 84.0176 214.465 76.9959 217.855 77.4802C221.245 77.9644 217.613 90.7971 208.654 95.7608C201.511 99.7559 192.068 105.083 192.068 105.083L183.715 80.6278Z" fill="white"/>
<path d="M191.463 106.415L182.625 80.3862L182.988 80.023C184.925 78.086 186.741 76.0279 188.436 74.2119C193.642 68.5219 197.637 63.9215 202.116 66.2217C203.206 66.1006 206.475 65.8585 207.927 67.3113C208.048 67.4324 208.169 67.5534 208.291 67.7956C209.259 66.9481 209.985 66.1006 210.712 65.2532C212.649 63.074 214.465 61.137 216.886 62.4687C217.612 62.8319 218.097 63.5583 218.218 64.4057C219.186 68.764 211.68 79.1755 208.654 83.1706H210.349C211.317 81.3547 214.223 76.149 217.734 76.6332C218.339 76.7543 219.307 77.1175 219.671 78.8124C220.276 82.5653 216.765 92.2505 208.896 96.6087C201.753 100.604 192.31 105.931 192.31 105.931L191.463 106.415ZM184.804 80.8705L192.552 103.751C195.095 102.299 202.358 98.1825 208.169 94.9138C214.949 91.1608 218.702 82.3232 218.097 79.0545C218.097 78.8124 217.976 78.3281 217.734 78.3281C215.675 77.9649 213.012 82.2021 212.043 84.3813L211.801 84.8655H205.264L206.475 83.4128C210.833 77.8438 217.491 67.9166 216.765 64.6479C216.644 64.1636 216.523 64.0426 216.281 63.9215C215.191 63.3162 214.344 64.0426 212.286 66.3428C211.196 67.5534 209.985 68.8851 208.412 70.0957L206.596 71.5485L206.959 69.2483C207.08 68.764 206.959 68.643 206.838 68.5219C206.111 67.7955 203.69 67.7955 202.237 68.0376H201.874L201.632 67.9166C198.484 66.1006 195.337 69.3694 189.889 75.4226C188.315 77.1175 186.62 79.0545 184.804 80.8705Z" fill="#23384D"/>
<path d="M183.716 80.6274C177.057 87.0438 166.767 98.9081 156.961 102.782C144.733 107.625 123.184 81.2327 107.93 82.8066L111.804 109.32C111.804 109.32 124.637 135.833 148.365 141.038C172.094 146.244 196.306 104.719 196.427 104.598C193.28 97.4553 189.285 85.3489 183.716 80.6274Z" fill="#23384D"/>
<path d="M152.602 142.492C151.149 142.492 149.696 142.371 148.244 142.007C124.394 136.681 111.198 110.047 111.077 109.804L110.956 109.562L106.961 82.0808L107.929 81.9597C115.678 81.2333 124.757 87.1655 133.474 92.8555C142.433 98.7876 150.907 104.235 156.718 101.935C164.466 98.9087 172.456 90.6764 178.994 84.1389C180.447 82.5651 181.899 81.2334 183.231 79.9017L183.836 79.2964L184.442 79.7806C189.042 83.7757 192.553 92.3713 195.459 99.2719C196.185 100.967 196.79 102.541 197.396 103.993L197.638 104.599L197.153 105.083C193.037 111.863 173.183 142.492 152.602 142.492ZM112.651 109.078C113.619 111.015 126.331 135.228 148.486 140.191C169.309 144.792 190.979 111.62 195.338 104.478C194.732 103.146 194.127 101.693 193.522 100.119C190.858 93.7029 187.71 85.7127 183.594 81.8387C182.505 82.9283 181.294 84.1389 180.083 85.3496C173.546 92.0081 165.314 100.361 157.202 103.509C150.423 106.173 141.585 100.361 132.263 94.1872C124.152 88.8604 115.799 83.2915 108.898 83.5336L112.651 109.078Z" fill="#23384D"/>
<path d="M207.202 69.3692C205.507 70.943 204.175 72.6379 202.964 74.696C202.601 75.4223 203.57 76.0277 204.054 75.3013C205.144 73.3643 206.475 71.6694 208.049 70.2167C208.654 69.7324 207.807 68.8849 207.202 69.3692Z" fill="#23384D"/>
<path d="M200.905 67.3111C199.695 68.6428 198.484 69.9745 197.273 71.3062C196.789 71.9115 197.637 72.759 198.121 72.1536C199.332 70.8219 200.542 69.4903 201.753 68.1586C202.237 67.6743 201.39 66.8268 200.905 67.3111Z" fill="#23384D"/>
<path d="M97.5191 80.3864L95.582 85.4711L118.342 88.1346L119.432 77.481L97.5191 80.3864Z" fill="#23384D"/>
<path d="M115.436 86.1973C102.603 76.2701 76.2115 93.4612 71.9742 108.11C67.737 122.759 62.6523 193.823 62.6523 193.823L140.496 192.733C140.496 192.733 134.201 115.979 125.121 103.025C116.163 89.9503 119.794 89.466 115.436 86.1973Z" fill="#23384D"/>
<path d="M132.506 127.48C132.143 127.48 131.659 127.238 131.659 126.754C131.659 126.632 130.085 119.49 126.816 108.352C126.695 107.868 126.937 107.383 127.421 107.262C127.906 107.141 128.39 107.383 128.511 107.868C131.901 119.127 133.353 126.269 133.353 126.39C133.475 126.875 133.111 127.359 132.627 127.48H132.506Z" fill="white"/>
<path d="M122.578 57.7474C118.583 48.9098 108.898 44.6726 101.029 48.3045C93.1596 51.9364 89.891 61.9847 93.8861 70.8224C93.8861 70.8224 93.8861 70.8224 93.8861 70.9434C93.0386 71.3066 92.3122 71.7908 91.828 72.2751C87.8329 75.6649 88.6803 80.6286 92.5543 82.3235C95.9441 83.7762 100.666 83.5341 103.571 80.0232C107.445 81.476 111.682 81.5971 115.435 80.2654C127.179 76.1492 126.573 66.5851 122.578 57.7474Z" fill="white"/>
<path d="M96.6703 84.0183C95.0965 84.0183 93.5226 83.6551 92.1909 83.0498C90.1328 82.0813 88.8012 80.3864 88.438 78.2072C88.0748 75.7859 89.1643 73.3647 91.3435 71.4277C91.8277 71.0645 92.312 70.7013 92.9173 70.3381C89.1643 61.1372 92.5541 50.9679 100.786 47.3359C109.14 43.583 119.309 48.0623 123.546 57.2632C126.452 63.6796 126.936 69.0064 125.241 73.2436C123.789 76.7545 120.641 79.4178 116.041 80.9917C112.288 82.3234 108.05 82.3234 104.055 80.9917C101.876 83.1708 99.2126 84.0183 96.6703 84.0183ZM106.961 47.9413C105.024 47.9413 103.208 48.3045 101.392 49.1519C93.8858 52.5417 90.9802 62.1057 94.7332 70.4591L95.0965 71.1855L94.3701 71.6697C93.6437 72.0329 92.9173 72.5172 92.4331 72.8804C90.7382 74.3331 89.8907 76.1491 90.2539 77.9651C90.4961 79.5389 91.4645 80.7495 92.9173 81.3549C95.8228 82.6866 100.181 82.5655 102.966 79.2968L103.329 78.8125L103.934 79.0547C107.566 80.5074 111.561 80.6285 115.193 79.2968C119.309 77.8441 122.094 75.5438 123.425 72.5172C124.999 68.7642 124.515 63.9217 121.852 57.9895C118.946 51.8153 112.893 47.9413 106.961 47.9413Z" fill="#23384D"/>
<path d="M111.379 64.1902C112.048 64.1704 112.574 63.6125 112.554 62.9442C112.534 62.2758 111.976 61.7501 111.308 61.7699C110.639 61.7896 110.114 62.3475 110.133 63.0158C110.153 63.6842 110.711 64.2099 111.379 64.1902Z" fill="#E92453"/>
<path d="M121.367 64.0429C119.914 61.7427 118.219 59.6847 116.161 57.8687C115.556 57.3845 114.708 58.2319 115.314 58.7162C117.251 60.4111 118.946 62.4691 120.398 64.6483C120.762 65.3746 121.851 64.6483 121.367 64.0429Z" fill="#23384D"/>
<path d="M110.956 50.6048C108.292 53.5103 95.0962 60.0478 100.06 66.5852C101.27 68.2801 102.723 68.8854 101.391 70.5803C99.8176 72.0331 98.3649 70.2171 98.3649 70.2171C95.9436 70.8224 93.2802 71.6698 91.9485 72.8805C85.5321 67.3115 85.5322 60.2898 88.4377 57.9896C88.4377 57.9896 105.387 33.6558 113.256 40.0722C120.156 45.8833 110.956 50.6048 110.956 50.6048Z" fill="#23384D"/>
<path d="M100.301 74.697C97.7586 73.4863 94.6109 74.2127 92.795 76.3919C92.3107 76.9972 93.1582 77.8447 93.6424 77.2394C95.0952 75.4234 97.5165 74.697 99.6956 75.7866C100.422 76.1498 101.027 75.0602 100.301 74.697Z" fill="#23384D"/>
<path d="M185.653 173.726H86.3809V213.435H185.653V173.726Z" fill="white"/>
<path d="M186.5 214.404H85.4121V172.879H186.5V214.404ZM87.3491 212.588H184.805V174.695H87.3491V212.588Z" fill="#23384D"/>
<path d="M155.75 184.985H116.162V193.823H155.75V184.985Z" fill="#E92453"/>
<path d="M170.156 184.985H161.318V193.823H170.156V184.985Z" fill="#E92453"/>
<path d="M181.174 184.985H172.336V193.823H181.174V184.985Z" fill="#E92453"/>
<path d="M170.156 196.849H161.318V205.687H170.156V196.849Z" fill="#E92453"/>
<path d="M108.293 196.849H99.4551V205.687H108.293V196.849Z" fill="#E92453"/>
<path d="M120.642 196.849H111.805V205.687H120.642V196.849Z" fill="#E92453"/>
<path d="M127.421 164.405C126.331 160.652 110.351 149.635 109.503 145.882C104.297 148.788 99.2128 150.604 94.6123 149.03C81.9006 144.672 77.1791 121.427 91.8279 109.926C106.477 98.4254 107.808 82.8081 107.808 82.8081C84.6851 83.7766 62.4093 97.699 52.1189 125.786C40.4968 157.747 55.6298 173.969 67.6151 179.659C79.4794 185.228 112.893 183.17 112.893 183.17C113.256 183.775 116.162 178.691 116.767 178.206C120.036 173.848 128.994 169.611 127.421 164.405Z" fill="#23384D"/>
<path d="M127.421 158.957C127.3 158.957 127.058 158.957 126.937 158.836C126.816 158.715 114.952 151.572 88.681 147.819C85.0491 147.335 82.3857 145.398 80.8119 142.372C77.7853 136.318 79.3591 126.27 85.0491 115.374C85.2912 114.89 85.7755 114.769 86.2597 115.011C86.744 115.253 86.8651 115.738 86.623 116.222C81.1751 126.391 79.6012 136.197 82.3857 141.645C83.7174 144.188 85.8965 145.761 88.9231 146.125C115.678 149.999 127.421 157.02 127.906 157.384C128.39 157.626 128.511 158.231 128.148 158.594C128.027 158.715 127.785 158.957 127.421 158.957Z" fill="white"/>
<path d="M84.6846 183.655C84.6846 183.655 84.5636 183.655 84.6846 183.655C78.2683 183.171 72.3361 182.202 67.4936 180.628C67.0093 180.507 66.7672 179.902 66.8883 179.539C67.0093 179.176 67.6146 178.812 67.9778 178.933C72.6993 180.507 78.5104 181.476 84.6846 181.96C85.1689 181.96 85.5321 182.444 85.5321 182.929C85.5321 183.292 85.1689 183.655 84.6846 183.655Z" fill="white"/>
<path d="M128.752 160.652C122.336 165.373 118.946 174.453 114.588 181.596C115.556 183.896 116.162 184.017 121.367 184.744C130.81 185.954 130.568 192.492 135.29 192.492C140.011 192.371 140.132 189.828 140.132 189.828C145.822 189.828 147.517 185.712 147.517 185.712C160.834 180.87 137.106 161.015 128.752 160.652Z" fill="white"/>
<path d="M135.169 193.218C132.747 193.218 131.416 191.765 130.084 190.312C128.268 188.375 126.21 186.196 121.246 185.591C115.919 184.864 114.951 184.743 113.861 181.959L113.74 181.475L113.982 181.111C115.193 179.174 116.283 177.116 117.372 175.058C120.399 169.368 123.546 163.557 128.389 160.046L128.631 159.804H128.994C135.532 160.167 151.27 171.668 152.481 179.901C152.723 181.959 152.239 184.743 148.365 186.317C147.759 187.407 145.701 190.433 140.98 190.675C140.374 191.644 139.043 193.218 135.169 193.218C135.29 193.218 135.169 193.218 135.169 193.218ZM115.556 181.596C116.162 182.927 116.646 183.048 121.367 183.654C127.057 184.38 129.479 187.044 131.294 188.981C132.626 190.433 133.474 191.402 135.048 191.402C138.8 191.402 139.043 189.586 139.043 189.586L139.164 188.738H140.011C140.011 188.738 140.011 188.738 140.132 188.738C144.975 188.738 146.549 185.228 146.549 185.106L146.67 184.743L147.033 184.622C149.575 183.775 150.665 182.201 150.302 180.143C149.333 173.121 134.805 162.225 128.752 161.62C124.394 165.01 121.488 170.458 118.583 175.906C117.735 177.722 116.767 179.78 115.556 181.596Z" fill="#23384D"/>
<path d="M140.011 187.771C138.195 184.381 135.895 181.233 133.11 178.57C132.505 178.086 131.658 178.933 132.263 179.417C135.047 181.96 137.227 184.986 139.043 188.376C139.406 189.102 140.374 188.497 140.011 187.771Z" fill="#23384D"/>
<path d="M147.517 184.138C146.185 179.296 143.279 176.027 139.526 172.879C138.921 172.395 138.074 173.243 138.679 173.727C142.19 176.754 144.974 179.901 146.306 184.502C146.548 185.228 147.638 184.986 147.517 184.138Z" fill="#23384D"/>
</svg>
