<svg width="307" height="378" viewBox="0 0 307 378" fill="none" xmlns="http://www.w3.org/2000/svg">
<g filter="url(#filter0_d)">
<path d="M155.195 328.203L154.348 363.795L216.09 364.401C216.09 364.401 216.453 357.137 204.71 351.689C192.967 346.241 190.546 324.692 190.546 324.692L155.195 328.203Z" fill="#E92453"/>
<path d="M216.937 365.249L153.379 364.643L154.226 327.356L191.272 323.724L191.393 324.571C191.393 324.813 193.935 345.636 205.073 350.842C217.18 356.411 217.059 364.038 217.059 364.401L216.937 365.249ZM155.195 362.827L215 363.433C214.637 361.496 212.942 356.532 204.226 352.537C193.451 347.573 190.303 329.898 189.698 325.782L156.042 329.172L155.195 362.827Z" fill="#E92453"/>
<path d="M44.0592 313.192L30.8633 346.243L88.4896 368.276C88.4896 368.276 91.2741 361.618 82.1943 352.417C73.1145 343.216 78.3202 322.151 78.3202 322.151L44.0592 313.192Z" fill="#E92453"/>
<path d="M89.0947 369.486L29.7734 346.726L43.5747 312.102L79.5306 321.545L79.2886 322.392C79.2886 322.635 74.325 343.094 82.9205 351.811C92.3635 361.254 89.4579 368.397 89.3369 368.639L89.0947 369.486ZM32.0737 345.637L87.8841 367.065C88.2473 365.128 88.3683 359.801 81.5887 353.022C73.2353 344.547 76.383 326.993 77.2305 322.877L44.5432 314.281L32.0737 345.637Z" fill="#E92453"/>
<path d="M88.6108 168.279C78.5625 184.985 74.3252 231.595 63.1874 255.445C52.0495 279.294 38.9746 317.792 38.9746 317.792L84.7368 337.163C84.7368 337.163 115.85 267.551 119.361 231.232C122.872 194.913 122.024 163.436 122.024 163.436L88.6108 168.279Z" fill="#23384D"/>
<path d="M107.98 186.438C108.949 205.808 133.767 242.369 137.762 268.519C141.757 294.669 152.169 341.763 152.169 341.763L200.958 332.562C200.958 332.562 194.541 259.439 173.355 214.282C157.859 181.232 135.583 159.319 135.583 159.319L107.98 186.438Z" fill="#23384D"/>
<path d="M118.151 217.914C117.787 217.914 117.545 217.793 117.303 217.43L114.277 211.982L105.197 208.713C104.712 208.592 104.47 207.987 104.591 207.502C104.712 207.018 105.318 206.776 105.802 206.897L115.487 210.287L118.756 216.34C118.998 216.824 118.877 217.309 118.393 217.551C118.514 217.914 118.393 217.914 118.151 217.914Z" fill="white"/>
<path d="M78.1995 340.551C76.3836 341.52 74.4466 342.61 72.6306 343.578C71.9043 343.941 72.5096 345.031 73.236 344.668C75.0519 343.699 76.9889 342.61 78.8049 341.641C79.4102 341.157 78.8049 340.067 78.1995 340.551Z" fill="#23384D"/>
<path d="M79.0465 344.305C77.5937 345.516 76.0199 346.606 74.5671 347.816C73.9618 348.3 74.5671 349.39 75.1725 348.906L79.6518 345.395C80.2572 344.911 79.6518 343.821 79.0465 344.305Z" fill="#23384D"/>
<path d="M196.842 342.852C196.116 344.426 195.389 345.878 194.542 347.452C194.179 348.179 195.268 348.784 195.631 348.058L197.932 343.457C198.295 342.731 197.205 342.125 196.842 342.852Z" fill="#23384D"/>
<path d="M200.352 346.969C199.625 348.542 198.899 349.995 198.052 351.569C197.688 352.295 198.778 352.901 199.141 352.174L201.441 347.574C201.684 346.847 200.715 346.242 200.352 346.969Z" fill="#23384D"/>
<path d="M191.514 331.11C191.03 331.11 190.667 330.746 190.667 330.262C188.73 260.045 146.963 183.654 146.6 182.927C146.357 182.443 146.479 181.959 146.963 181.717C147.447 181.475 147.931 181.596 148.173 182.08C148.537 182.806 190.425 259.561 192.483 330.262C192.362 330.625 191.998 331.11 191.514 331.11Z" fill="white"/>
<path d="M154.952 198.544C154.831 198.544 154.71 198.544 154.589 198.544C154.105 198.423 153.863 197.818 154.105 197.334C156.405 191.159 153.621 182.685 153.621 182.564C153.5 182.079 153.742 181.595 154.226 181.353C154.71 181.232 155.195 181.474 155.437 181.958C155.558 182.322 158.584 191.159 155.921 197.939C155.679 198.302 155.316 198.544 154.952 198.544Z" fill="white"/>
<path d="M148.659 62.2278C152.412 71.1865 152.654 80.7505 140.911 84.5035C132.921 87.0458 123.357 83.2929 119.604 74.3342C115.851 65.3754 119.362 55.4482 127.352 52.0584C135.342 48.6686 144.906 53.2691 148.659 62.2278Z" fill="white"/>
<path d="M135.826 86.1983C128.684 86.1983 121.662 81.84 118.756 74.6972C116.819 70.2179 116.698 65.2543 118.151 60.7749C119.725 56.2955 122.873 52.9057 126.989 51.2108C135.463 47.7 145.512 52.4214 149.507 61.8644C152.17 68.2808 152.533 73.7287 150.717 77.8449C149.143 81.3557 145.875 83.777 141.274 85.3508C139.458 85.9562 137.642 86.1983 135.826 86.1983ZM132.921 51.9373C131.226 51.9373 129.41 52.3004 127.715 53.0268C124.083 54.6006 121.299 57.5061 119.967 61.5013C118.635 65.4964 118.756 69.9757 120.451 74.0919C124.204 82.9296 133.647 85.9561 140.669 83.6559C144.906 82.3242 147.691 80.1451 149.022 77.1185C150.717 73.4866 150.354 68.523 147.812 62.5909C145.148 56.0534 138.974 51.9373 132.921 51.9373Z" fill="#23384D"/>
<path d="M142 62.5902C142.668 62.5902 143.21 62.0482 143.21 61.3796C143.21 60.711 142.668 60.1689 142 60.1689C141.331 60.1689 140.789 60.711 140.789 61.3796C140.789 62.0482 141.331 62.5902 142 62.5902Z" fill="#E92453"/>
<path d="M142.969 50.1208C142.969 42.1306 129.773 51.0892 127.472 52.1788C120.33 53.5105 114.034 62.9535 116.213 71.3069C118.029 78.4497 126.262 86.9241 130.62 84.866C137.763 80.6288 138.852 73.6071 135.584 66.9486C136.794 65.4958 135.342 63.3167 135.947 61.6218C136.673 58.8374 142.969 52.9052 142.969 50.1208Z" fill="#23384D"/>
<path d="M133.041 66.222C119.724 65.0113 121.298 75.6649 126.261 78.0862C130.377 80.0232 136.673 79.2969 139.215 73.2437C141.757 67.3115 133.041 66.222 133.041 66.222Z" fill="white"/>
<path d="M134.252 70.8228C131.71 69.4911 128.562 70.0964 126.746 72.3966C126.262 73.0019 127.109 73.8494 127.594 73.2441C129.046 71.4281 131.589 70.8228 133.647 71.9124C134.252 72.2756 134.857 71.186 134.252 70.8228Z" fill="#23384D"/>
<path d="M149.748 65.2539C148.416 62.9537 146.721 60.7745 144.663 58.9586C144.058 58.4743 143.21 59.3218 143.816 59.806C145.753 61.622 147.327 63.559 148.658 65.8592C149.021 66.4645 150.111 65.8592 149.748 65.2539Z" fill="#23384D"/>
<path d="M91.8806 183.169H91.1542C90.67 183.169 80.3795 182.685 68.2731 172.515L67.1836 171.668L99.1444 156.172L91.8806 183.169ZM70.4523 172.031C79.8952 179.537 88.1276 180.99 90.4278 181.232L96.2389 159.441L70.4523 172.031Z" fill="#23384D"/>
<path d="M54.3492 121.789C49.5067 138.011 53.2596 163.435 66.2135 172.636C66.2135 172.636 82.5571 166.946 86.4311 167.793C90.5473 160.771 95.2688 154.234 99.6271 147.333C94.0582 145.154 89.0945 143.459 88.005 137.164C84.8573 120.215 104.954 123.847 118.271 127.842C121.54 114.767 122.75 94.3073 122.75 94.3073C90.4262 86.0749 62.0973 96.2442 54.3492 121.789Z" fill="#E92453"/>
<path d="M66.0931 173.726L65.7299 173.484C52.655 164.162 48.5388 138.375 53.5024 121.547C61.1294 96.003 88.9742 84.744 122.872 93.4606L123.598 93.7028V94.4291C123.598 94.6713 122.388 115.131 119.119 128.085L118.877 129.053L117.908 128.811C104.228 124.695 94.9063 124.453 90.9111 127.964C88.8531 129.901 88.1267 132.927 88.8531 137.044C89.9426 142.734 94.3009 144.428 99.7488 146.487L100.838 146.85L100.354 147.818C98.9013 150.118 97.3275 152.419 95.8747 154.719C92.9692 159.077 89.9426 163.678 87.2792 168.278L86.9161 168.883L86.3107 168.762C83.6473 168.157 73.1148 171.305 66.6984 173.605L66.0931 173.726ZM55.3184 122.153C50.4758 138.133 54.2288 162.588 66.4562 171.789C69.3618 170.82 81.5893 166.704 85.9476 166.946C88.611 162.467 91.5165 158.109 94.3009 153.871C95.6326 151.934 96.9643 149.997 98.175 147.939C92.8482 145.881 88.1267 143.823 87.0371 137.407C86.1896 132.564 87.0371 128.932 89.5795 126.632C94.0588 122.637 103.381 122.637 117.424 126.753C120.088 115.373 121.298 98.7874 121.661 95.0345C89.2163 86.9232 62.5822 97.8189 55.3184 122.153Z" fill="#E92453"/>
<path d="M101.928 167.917H69.4829C66.2142 167.917 63.4297 165.254 63.4297 161.864V115.739C63.4297 112.47 66.0931 109.686 69.4829 109.686H101.928C105.197 109.686 107.981 112.349 107.981 115.739V161.864C107.981 165.254 105.318 167.917 101.928 167.917Z" fill="white"/>
<path d="M101.928 168.764H69.4827C65.7297 168.764 62.582 165.616 62.582 161.863V115.738C62.582 111.985 65.7297 108.837 69.4827 108.837H101.928C105.681 108.837 108.828 111.985 108.828 115.738V161.863C108.828 165.737 105.802 168.764 101.928 168.764ZM69.6038 110.653C66.8193 110.653 64.5191 112.954 64.5191 115.738V161.863C64.5191 164.648 66.8193 166.948 69.6038 166.948H102.049C104.833 166.948 107.134 164.648 107.134 161.863V115.738C107.134 112.954 104.833 110.653 102.049 110.653H69.6038Z" fill="#23384D"/>
<path d="M72.2654 109.685H69.602C66.3333 109.685 63.5488 112.348 63.5488 115.738V161.864C63.5488 165.132 66.2122 167.917 69.602 167.917H72.2654V109.685Z" fill="#23384D"/>
<path d="M67.908 158.11H63.1865C61.0073 158.11 59.1914 156.294 59.1914 154.115V153.389C59.1914 151.209 61.0073 149.394 63.1865 149.394H67.908V158.11Z" fill="#23384D"/>
<path d="M11.3708 358.228C10.8866 358.228 10.4023 357.865 10.4023 357.26V271.426C10.4023 262.467 17.6662 255.203 26.6249 255.203H32.9202C40.9104 255.203 47.3268 248.787 47.3268 240.797V168.764C47.3268 159.805 54.5907 152.541 63.5494 152.541C64.0336 152.541 64.5179 152.904 64.5179 153.51C64.5179 154.115 64.1547 154.478 63.5494 154.478C55.5592 154.478 49.1428 160.894 49.1428 168.885V240.918C49.1428 249.876 41.8789 257.14 32.9202 257.14H26.6249C18.6347 257.14 12.2183 263.557 12.2183 271.547V357.381C12.2183 357.865 11.8551 358.228 11.3708 358.228Z" fill="#23384D"/>
<path d="M18.393 359.44H4.34961V352.418C4.34961 348.544 7.49725 345.396 11.3713 345.396C15.2453 345.396 18.393 348.544 18.393 352.418V359.44Z" fill="#23384D"/>
<path d="M132.315 94.5522C113.429 90.4361 105.802 99.3949 99.0227 126.997C92.2431 154.6 80.1367 170.58 80.1367 170.58C80.1367 170.58 135.1 186.077 158.465 182.687C158.465 182.808 172.508 103.269 132.315 94.5522Z" fill="#E92453"/>
<path d="M150.595 184.26C125.051 184.26 81.8313 172.153 79.8942 171.548L78.5625 171.185L79.41 170.095C79.531 169.974 91.5163 153.873 98.1749 126.755C105.318 97.5782 113.671 89.4669 132.557 93.583C149.385 97.215 159.312 113.922 161.37 141.766C162.823 162.589 159.433 182.686 159.312 182.807L159.191 183.412L158.586 183.533C156.164 184.139 153.501 184.26 150.595 184.26ZM81.5891 170.216C89.8214 172.396 136.431 184.744 157.617 182.081C158.828 174.454 168.997 103.51 132.194 95.5201C114.397 91.6461 106.891 99.0309 99.9908 127.36C94.1797 150.846 84.3736 166.1 81.5891 170.216Z" fill="#E92453"/>
<path d="M117.303 97.8208L119.24 88.2568L145.026 91.1623L141.879 102.784L117.303 97.8208Z" fill="#E92453"/>
<path d="M142.605 103.873L116.334 98.4254L118.634 87.1665L146.237 90.3141L142.605 103.873ZM118.392 97.0938L141.273 101.815L143.815 92.0091L119.966 89.3456L118.392 97.0938Z" fill="#E92453"/>
<path d="M232.314 78.8124C231.951 72.6382 227.35 71.5486 227.35 71.5486C226.987 67.9167 221.781 66.8272 221.781 66.8272C223.234 59.9265 225.413 57.6263 224.324 55.5682C222.75 52.4206 219.844 54.5997 216.455 61.5003C215.728 60.895 214.639 60.895 212.702 62.3478C208.343 65.6165 206.527 74.4542 207.859 84.7446C207.859 84.7446 207.859 84.7446 207.859 84.8656C207.496 85.7131 207.133 86.4395 206.77 87.0448L223.113 108.473C223.113 108.473 226.866 106.173 227.835 98.5459C228.44 94.3087 229.166 88.1344 229.772 84.9867C233.404 85.471 232.556 81.839 232.314 78.8124Z" fill="white"/>
<path d="M222.992 109.684L205.801 87.0449L206.043 86.5606C206.406 85.9553 206.769 85.35 207.011 84.6236C205.559 74.0911 207.617 65.0113 212.217 61.6215C213.791 60.5319 215.002 60.0476 216.091 60.2898C218.512 55.5683 220.571 53.2681 222.508 53.2681C223.234 53.2681 224.324 53.6312 225.05 55.2051C225.776 56.7789 225.292 58.2317 224.445 60.5319C223.96 61.9847 223.234 63.8006 222.75 66.3429C224.324 66.8272 227.471 68.1589 228.076 71.0645C229.408 71.6698 232.798 73.4857 233.04 78.9336C233.04 79.4179 233.161 79.781 233.161 80.2653C233.282 82.3234 233.524 84.3814 232.314 85.471C231.829 85.9553 231.224 86.0763 230.498 86.0763C230.014 88.4976 229.529 92.1296 229.166 95.2772C229.045 96.4879 228.803 97.6985 228.682 98.667C227.592 106.657 223.718 109.2 223.476 109.321L222.992 109.684ZM207.98 86.9238L223.355 107.141C224.324 106.173 226.382 103.51 227.108 98.4249C227.229 97.3353 227.35 96.2457 227.592 95.0351C228.077 91.4032 228.561 87.1659 229.166 84.8657L229.408 84.0183L230.256 84.1393C230.619 84.2604 231.224 84.2604 231.466 84.0183C231.951 83.5341 231.829 81.7181 231.708 80.2653C231.708 79.781 231.587 79.2968 231.587 78.9336C231.345 73.6068 227.471 72.5172 227.35 72.5172L226.745 72.3961L226.624 71.7908C226.382 68.8853 221.781 67.9168 221.781 67.7957L220.934 67.5536L221.176 66.7061C221.781 63.6795 222.629 61.5004 223.113 59.8055C223.839 57.7475 224.202 56.7789 223.718 55.9315C223.355 55.3262 223.113 54.963 222.75 54.963C222.387 54.963 220.692 55.3261 217.544 61.8636L217.06 62.9532L216.212 62.1057C215.607 61.6215 214.275 62.59 213.67 62.9532C209.675 65.9798 207.859 74.5753 209.191 84.5025V84.7447L209.069 84.9868C208.585 85.7132 208.222 86.3185 207.98 86.9238Z" fill="#23384D"/>
<path d="M217.299 60.5317L199.987 77.965C197.929 80.023 201.197 83.2917 203.982 80.5073L214.03 70.58C214.514 67.3113 215.241 64.0426 217.299 60.5317Z" fill="#23384D"/>
<path d="M227.105 53.8734C226.62 53.3892 225.047 53.8734 223.715 54.4788C224.925 56.0526 224.441 58.3528 223.957 60.2898L225.289 58.9581C226.378 57.8686 227.952 54.7209 227.105 53.8734Z" fill="#23384D"/>
<path d="M220.691 68.8851L219.843 71.3064C219.601 72.0327 220.691 72.3959 221.054 71.6695C221.296 70.8221 221.659 70.0957 221.901 69.2483C222.144 68.5219 220.933 68.2798 220.691 68.8851Z" fill="#23384D"/>
<path d="M231.343 79.0541C231.222 78.3278 230.011 78.5699 230.132 79.4173C230.253 80.3858 230.132 81.3544 229.769 82.3229C229.527 83.0493 230.617 83.4124 230.98 82.686C231.464 81.4754 231.464 80.2648 231.343 79.0541Z" fill="#23384D"/>
<path d="M216.09 61.621C214.637 64.4054 213.063 69.0058 212.579 72.1535C212.458 72.8798 213.668 73.2431 213.789 72.5167C214.274 69.4901 215.726 65.0107 217.179 62.3473C217.542 61.4999 216.453 60.8946 216.09 61.621Z" fill="#23384D"/>
<path d="M226.015 72.5175C225.773 73.0018 225.652 73.6071 225.41 74.0913C225.168 74.8177 226.257 75.1809 226.62 74.4545C226.863 73.9703 226.984 73.365 227.226 72.8807C227.468 72.1543 226.378 71.7911 226.015 72.5175Z" fill="#23384D"/>
<path d="M207.373 86.0767C200.957 98.9094 196.841 103.631 189.214 105.81C177.713 109.2 150.231 94.0669 133.04 96.8514L128.924 132.081C128.924 132.081 153.863 148.303 182.676 146.003C207.615 143.945 224.201 118.401 227.228 105.81C224.201 97.5778 214.153 90.6771 207.373 86.0767Z" fill="#E92453"/>
<path d="M176.865 147.214C150.594 147.214 128.56 133.05 128.318 132.928L127.834 132.565L132.071 96.1251L132.798 96.004C141.877 94.4301 153.5 97.82 164.637 100.968C174.323 103.752 183.523 106.415 188.85 104.842C196.114 102.784 200.109 98.4253 206.525 85.5925L207.01 84.624L207.857 85.2293C214.637 89.8298 224.927 96.7303 228.075 105.447L228.196 105.689L228.075 105.931C224.927 118.764 207.978 144.793 182.797 146.851C180.739 147.093 178.802 147.214 176.865 147.214ZM129.892 131.718C133.403 133.897 156.526 147.335 182.555 145.156C206.768 143.219 223.111 118.401 226.259 105.931C223.353 98.1831 214.274 91.8878 207.736 87.4085C201.441 99.9991 197.083 104.478 189.456 106.658C183.644 108.352 174.201 105.568 164.153 102.784C153.984 99.8781 142.483 96.4883 133.766 97.6989L129.892 131.718Z" fill="#E92453"/>
<path d="M155.8 143.702C155.679 143.702 155.558 143.702 155.437 143.581C155.437 143.581 151.2 141.765 147.084 141.765C146.6 141.765 146.236 141.402 146.115 140.918C146.115 140.434 146.6 139.949 147.084 139.949C151.563 139.949 155.921 141.765 156.164 141.886C156.648 142.128 156.89 142.613 156.648 143.097C156.406 143.46 156.164 143.702 155.8 143.702Z" fill="#23384D"/>
<path d="M264.639 55.6895H226.14C225.656 55.6895 225.172 55.3263 225.172 54.721C225.172 54.1157 225.535 53.7525 226.14 53.7525H262.823V4.47953H211.25V29.0555C211.25 29.5397 210.886 30.024 210.281 30.024C209.676 30.024 209.312 29.6608 209.312 29.0555V2.66357H264.639V55.6895Z" fill="#23384D"/>
<path d="M250.836 12.9545C249.625 12.3492 248.173 12.7124 247.567 13.923L235.945 35.3514L228.803 27.8454C227.955 26.9979 226.623 26.7558 225.655 27.3611C224.323 28.2085 224.202 29.9034 225.171 30.993L233.403 39.8307L235.219 41.7677C236.066 42.6152 237.398 42.4941 238.003 41.4045L239.335 39.1043L251.805 16.2233C252.41 15.0126 251.926 13.5599 250.836 12.9545Z" fill="#E92453"/>
<path d="M267.299 0H259.914V7.38486H267.299V0Z" fill="#23384D"/>
<path d="M236.645 145.027L225.305 170.591L250.868 181.931L262.208 156.367L236.645 145.027Z" fill="white"/>
<path d="M251.442 183.169L224.203 171.063L236.31 143.824L263.549 155.93L251.442 183.169ZM226.503 170.095L250.474 180.748L261.128 156.778L237.157 146.124L226.503 170.095Z" fill="#23384D"/>
<path d="M232.555 116.1L258.826 138.739C258.826 138.739 268.995 122.154 258.826 112.832C246.114 101.21 232.555 116.1 232.555 116.1Z" fill="white"/>
<path d="M259.067 140.192L231.344 116.222L231.949 115.495C232.191 115.132 238.971 107.868 247.566 107.505C251.925 107.263 255.92 108.837 259.431 112.106C270.084 121.791 260.036 138.498 259.552 139.224L259.067 140.192ZM233.886 116.101L258.583 137.408C260.52 133.897 266.331 121.064 258.22 113.558C254.951 110.653 251.44 109.2 247.687 109.321C241.271 109.684 235.702 114.285 233.886 116.101Z" fill="#23384D"/>
<path d="M247.932 142.009C252.01 142.009 255.317 138.702 255.317 134.624C255.317 130.545 252.01 127.239 247.932 127.239C243.853 127.239 240.547 130.545 240.547 134.624C240.547 138.702 243.853 142.009 247.932 142.009Z" fill="white"/>
<path d="M247.932 142.856C243.331 142.856 239.699 139.103 239.699 134.623C239.699 130.144 243.452 126.391 247.932 126.391C252.411 126.391 256.164 130.144 256.164 134.623C256.164 139.103 252.532 142.856 247.932 142.856ZM247.932 128.207C244.421 128.207 241.515 131.113 241.515 134.623C241.515 138.134 244.421 141.04 247.932 141.04C251.442 141.04 254.348 138.134 254.348 134.623C254.348 131.113 251.563 128.207 247.932 128.207Z" fill="#23384D"/>
<path d="M267.783 188.739C267.541 188.739 267.178 188.618 267.056 188.376L262.94 182.807C262.698 182.444 262.698 181.839 263.182 181.597C263.546 181.354 264.151 181.354 264.393 181.839L268.509 187.408C268.751 187.771 268.751 188.376 268.267 188.618C268.146 188.739 267.904 188.739 267.783 188.739Z" fill="#23384D"/>
<path d="M182.071 168.764C181.829 168.764 181.587 168.643 181.345 168.522C180.982 168.158 180.982 167.553 181.466 167.19L190.909 158.715C191.272 158.352 191.877 158.352 192.241 158.837C192.604 159.2 192.604 159.805 192.119 160.168L182.677 168.643C182.434 168.764 182.313 168.764 182.071 168.764Z" fill="#23384D"/>
<path d="M218.39 151.331C218.148 151.331 217.906 151.21 217.664 150.967L214.274 146.851C213.911 146.488 214.032 145.883 214.395 145.52C214.758 145.156 215.364 145.277 215.727 145.641L219.117 149.757C219.48 150.12 219.359 150.725 218.995 151.089C218.753 151.331 218.632 151.331 218.39 151.331Z" fill="#23384D"/>
<path d="M263.668 71.9115C263.426 71.9115 263.305 71.7904 263.063 71.6694C262.7 71.3062 262.579 70.8219 262.942 70.3376L267.058 65.374C267.421 65.0108 267.906 64.8898 268.39 65.253C268.753 65.6162 268.874 66.1004 268.511 66.5847L264.395 71.5483C264.153 71.7904 263.91 71.9115 263.668 71.9115Z" fill="#23384D"/>
<path d="M301.924 117.068C301.682 117.068 301.44 116.947 301.198 116.705L292.723 106.536C292.36 106.173 292.481 105.567 292.844 105.204C293.207 104.841 293.813 104.962 294.176 105.325L302.65 115.495C303.014 115.858 302.893 116.463 302.529 116.826C302.287 117.068 302.166 117.068 301.924 117.068Z" fill="#23384D"/>
<path d="M199.262 30.1451C199.14 30.1451 199.14 30.1451 199.019 30.1451L191.271 28.3292C190.787 28.2081 190.424 27.7238 190.545 27.2396C190.666 26.7553 191.15 26.3921 191.635 26.5132L199.383 28.3292C199.867 28.4502 200.23 28.9344 200.109 29.4187C199.988 29.903 199.625 30.1451 199.262 30.1451Z" fill="#23384D"/>
<path d="M278.924 82.0811H241.031V119.974H278.924V82.0811Z" fill="white"/>
<path d="M279.771 120.822H240.062V81.1128H279.771V120.822ZM241.878 119.006H277.955V82.9288H241.878V119.006Z" fill="#23384D"/>
<path d="M255.435 172.758H198.535V229.658H255.435V172.758Z" fill="white"/>
<path d="M256.403 230.627H197.688V171.911H256.403V230.627ZM199.382 228.811H254.466V173.727H199.382V228.811Z" fill="#23384D"/>
<path d="M267.784 109.805C267.542 109.805 267.3 109.684 267.179 109.563L251.44 93.8243C251.077 93.4611 251.077 92.8558 251.44 92.4926C251.804 92.1294 252.409 92.1294 252.772 92.4926L268.389 108.11C268.752 108.473 268.752 109.078 268.389 109.442C268.268 109.684 268.026 109.805 267.784 109.805Z" fill="#23384D"/>
<path d="M252.046 109.805C251.804 109.805 251.561 109.684 251.44 109.563C251.077 109.2 251.077 108.595 251.44 108.231L267.058 92.6142C267.421 92.251 268.026 92.251 268.389 92.6142C268.752 92.9774 268.752 93.5827 268.389 93.9459L252.772 109.563C252.53 109.684 252.288 109.805 252.046 109.805Z" fill="#23384D"/>
<path d="M239.576 192.249H215C214.515 192.249 214.031 191.886 214.031 191.281C214.031 190.676 214.394 190.312 215 190.312H239.576C240.06 190.312 240.544 190.676 240.544 191.281C240.544 191.886 240.06 192.249 239.576 192.249Z" fill="#23384D"/>
<path d="M239.576 199.998H215C214.515 199.998 214.031 199.635 214.031 199.03C214.031 198.424 214.394 198.061 215 198.061H239.576C240.06 198.061 240.544 198.424 240.544 199.03C240.544 199.635 240.06 199.998 239.576 199.998Z" fill="#23384D"/>
<path d="M239.577 207.625H234.613C234.129 207.625 233.645 207.262 233.645 206.656C233.645 206.051 234.008 205.688 234.613 205.688H239.577C240.061 205.688 240.545 206.051 240.545 206.656C240.545 207.262 240.061 207.625 239.577 207.625Z" fill="#23384D"/>
<path d="M230.012 207.625H215C214.515 207.625 214.031 207.262 214.031 206.656C214.031 206.051 214.394 205.688 215 205.688H230.012C230.496 205.688 230.98 206.051 230.98 206.656C230.98 207.262 230.496 207.625 230.012 207.625Z" fill="#23384D"/>
</g>
<defs>
<filter id="filter0_d" x="0.349609" y="0" width="306.52" height="377.486" filterUnits="userSpaceOnUse" color-interpolation-filters="sRGB">
<feFlood flood-opacity="0" result="BackgroundImageFix"/>
<feColorMatrix in="SourceAlpha" type="matrix" values="0 0 0 0 0 0 0 0 0 0 0 0 0 0 0 0 0 0 127 0"/>
<feOffset dy="4"/>
<feGaussianBlur stdDeviation="2"/>
<feColorMatrix type="matrix" values="0 0 0 0 0 0 0 0 0 0 0 0 0 0 0 0 0 0 0.25 0"/>
<feBlend mode="normal" in2="BackgroundImageFix" result="effect1_dropShadow"/>
<feBlend mode="normal" in="SourceGraphic" in2="effect1_dropShadow" result="shape"/>
</filter>
</defs>
</svg>
