<svg width="42" height="46" viewBox="0 0 42 46" fill="none" xmlns="http://www.w3.org/2000/svg">
<path fill-rule="evenodd" clip-rule="evenodd" d="M41.9034 13.3763V32.0103C41.9033 32.6203 41.7433 33.2197 41.4395 33.7487C41.1356 34.2777 40.6985 34.7178 40.1716 35.0253L23.5849 44.6784C22.7855 45.143 21.8774 45.3877 20.9528 45.3877C20.0282 45.3877 19.1201 45.143 18.3207 44.6784L1.73397 35.0253C1.70313 35.0074 1.6726 34.989 1.64238 34.9701C4.97921 36.1555 8.49958 36.756 12.048 36.7411C16.0794 36.7242 20.0681 35.9135 23.7862 34.3551C27.5043 32.7968 30.8791 30.5213 33.7178 27.6587C36.5566 24.7961 38.8037 21.4024 40.3308 17.6714C40.9748 16.0982 41.4854 14.4779 41.8594 12.8279C41.8884 13.0086 41.9032 13.192 41.9034 13.3763ZM41.268 11.3721C39.9496 14.0979 38.1649 16.6555 35.9135 18.9259C26.177 28.7442 10.9946 29.8789 0 22.2896V13.3763C0.00074381 12.7664 0.161211 12.1674 0.465429 11.6388C0.769647 11.1102 1.20701 10.6705 1.73397 10.3634L18.3186 0.710362C19.1177 0.245111 20.0259 0 20.9506 0C21.8753 0 22.7835 0.245111 23.5827 0.710362L40.1695 10.3634C40.6051 10.6172 40.9795 10.9617 41.268 11.3721Z" fill="#23384D"/>
<rect width="23.1964" height="6.08964" transform="matrix(0.866025 -0.5 0.866025 0.5 8.45117 15.2188)" fill="#3C6085"/>
<rect width="6.1923" height="6.08964" transform="matrix(0.866025 0.5 -2.20305e-08 1 8.04297 15.5518)" fill="#3C6085"/>
</svg>
