<svg width="82" height="83" viewBox="0 0 82 83" fill="none" xmlns="http://www.w3.org/2000/svg">
<g clip-path="url(#clip0)">
<path d="M22.1925 70.8171L23.5214 71.4817C29.0592 74.8041 35.261 76.3547 41.4632 76.3547C60.9552 76.3547 76.9032 60.4067 76.9032 40.9146C76.9032 31.6117 73.1375 22.5302 66.4927 15.8851C59.8476 9.23997 50.9874 5.47461 41.4632 5.47461C21.9711 5.47461 6.02283 21.4226 6.24447 41.1363C6.24447 47.7811 8.23797 54.2049 11.5604 59.7421L12.4463 61.0713L8.90258 74.1398L22.1925 70.8171Z" fill="#00E676"/>
<path d="M70.2621 12.3399C62.7311 4.58755 52.3206 0.378906 41.6885 0.378906C19.0957 0.378906 0.932579 18.7634 1.1539 41.1348C1.1539 48.2229 3.1474 55.0897 6.47011 61.2915L0.710938 82.334L22.1965 76.7965C28.177 80.1192 34.8218 81.6698 41.4672 81.6698C63.8386 81.6698 82.0018 63.285 82.0018 40.9138C82.0018 30.0601 77.7931 19.8709 70.2624 12.3399H70.2621ZM41.6885 74.8033C35.708 74.8033 29.7275 73.2531 24.6329 70.152L23.304 69.4874L10.4571 72.8098L13.7795 60.1845L12.8936 58.8553C3.1474 43.129 7.79901 22.3074 23.747 12.5612C39.695 2.81537 60.2946 7.46698 70.0408 23.415C79.7866 39.363 75.135 59.9626 59.1874 69.7088C54.0925 73.0312 47.8906 74.803 41.6885 74.803V74.8033ZM61.1805 50.217L58.7441 49.1095C58.7441 49.1095 55.2004 47.5589 52.9852 46.4514C52.7636 46.4514 52.5423 46.2297 52.3206 46.2297C51.656 46.2297 51.213 46.4514 50.7701 46.673C50.7701 46.673 50.5487 46.8943 47.4477 50.4384C47.226 50.8813 46.7831 51.103 46.3401 51.103H46.1185C45.8971 51.103 45.4542 50.8813 45.2325 50.66L44.125 50.217C41.6885 49.1095 39.4737 47.7803 37.7015 46.0084C37.2585 45.5654 36.5939 45.1225 36.151 44.6795C34.6004 43.129 33.0499 41.3568 31.9426 39.3633L31.721 38.9203C31.4997 38.6987 31.4997 38.4774 31.278 38.0344C31.278 37.5914 31.278 37.1485 31.4997 36.9268C31.4997 36.9268 32.3856 35.8193 33.0499 35.155C33.4932 34.7117 33.7145 34.0474 34.1575 33.6044C34.6004 32.9398 34.8221 32.0539 34.6004 31.3893C34.3791 30.2817 31.721 24.3012 31.0567 22.9723C30.6134 22.3077 30.1708 22.0864 29.5062 21.8648H27.0697C26.6264 21.8648 26.1838 22.0864 25.7405 22.0864L25.5189 22.3077C25.0759 22.5294 24.6329 22.9723 24.19 23.1937C23.747 23.6369 23.5254 24.0796 23.0824 24.5229C21.5319 26.5164 20.6459 28.9528 20.6459 31.3893C20.6459 33.1612 21.0889 34.9333 21.7535 36.4839L21.9751 37.1485C23.9686 41.3568 26.6264 45.1225 30.1708 48.4449L31.0567 49.3308C31.721 49.9954 32.3856 50.4384 32.8286 51.1026C37.4802 55.09 42.7961 57.9694 48.7766 59.5199C49.4412 59.7413 50.3271 59.7413 50.9917 59.9629H53.2065C54.3141 59.9629 55.643 59.5199 56.5293 59.077C57.1935 58.634 57.6365 58.634 58.0795 58.191L58.5228 57.7478C58.9657 57.3048 59.4087 57.0835 59.8516 56.6405C60.2946 56.1975 60.7376 55.7546 60.9592 55.3113C61.4022 54.4254 61.6235 53.3178 61.8451 52.2105V50.66C61.8451 50.66 61.6235 50.4384 61.1805 50.217Z" fill="white"/>
</g>
<defs>
<clipPath id="clip0">
<rect width="81.2896" height="82.2422" fill="white" transform="translate(0.710938 0.378906)"/>
</clipPath>
</defs>
</svg>
