<svg width="32" height="32" viewBox="0 0 32 32" fill="none" xmlns="http://www.w3.org/2000/svg">
<path d="M16.0003 2.66663C8.64033 2.66663 2.66699 8.63996 2.66699 16C2.66699 23.36 8.64033 29.3333 16.0003 29.3333C23.3603 29.3333 29.3337 23.36 29.3337 16C29.3337 8.63996 23.3603 2.66663 16.0003 2.66663ZM16.0003 22.6666C15.267 22.6666 14.667 22.0666 14.667 21.3333V16C14.667 15.2666 15.267 14.6666 16.0003 14.6666C16.7337 14.6666 17.3337 15.2666 17.3337 16V21.3333C17.3337 22.0666 16.7337 22.6666 16.0003 22.6666ZM17.3337 12H14.667V9.33329H17.3337V12Z" fill="#23384D"/>
</svg>
