<svg width="32" height="32" viewBox="0 0 32 32" fill="none" xmlns="http://www.w3.org/2000/svg">
<path d="M8.072 4.97999L21.294 10.644L16 12.912L2.854 7.27799C3.15 6.97599 3.512 6.73199 3.924 6.57399L8.072 4.97799V4.97999ZM10.748 3.94999L13.848 2.75799C15.2339 2.2252 16.7681 2.2252 18.154 2.75799L28.078 6.57399C28.488 6.73399 28.85 6.97399 29.146 7.27799L23.834 9.55399L10.748 3.94999ZM29.988 9.09399L17 14.66V29.56C17.392 29.494 17.78 29.388 18.154 29.244L28.078 25.426C28.6438 25.2081 29.1303 24.824 29.4734 24.3241C29.8165 23.8243 30.0001 23.2323 30 22.626V9.37399C30 9.27999 29.996 9.18599 29.986 9.09399H29.988ZM15 29.56V14.66L2.014 9.09399C2.00499 9.18705 2.00032 9.28049 2 9.37399V22.626C2.00008 23.2325 2.18399 23.8247 2.52746 24.3246C2.87094 24.8244 3.35786 25.2085 3.924 25.426L13.846 29.244C14.222 29.388 14.608 29.494 15 29.56Z" fill="#23384D"/>
</svg>
