<svg width="112" height="112" viewBox="0 0 112 112" fill="none" xmlns="http://www.w3.org/2000/svg">
<path d="M71.866 79.3328L77.9327 99.8661H72.7993L60.666 79.3328H46.666C44.0993 79.3328 41.9993 77.2328 41.9993 74.6661C41.9993 72.0995 44.0993 69.9995 46.666 69.9995H60.666L72.7993 49.4661H77.9327L71.866 69.9995H85.166L88.666 65.3328H93.3327L90.5327 74.6661L93.3327 83.9995H88.666L85.166 79.3328H71.866ZM26.8327 32.6661L23.3327 27.9995H18.666L21.466 37.3328L18.666 46.6661H23.3327L26.8327 41.9995H40.1327L34.066 62.5328H39.1993L51.3327 41.9995H65.3327C67.8993 41.9995 69.9993 39.8995 69.9993 37.3328C69.9993 34.7661 67.8993 32.6661 65.3327 32.6661H51.3327L39.1993 12.1328H34.066L40.1327 32.6661H26.8327Z" fill="#E92453"/>
</svg>
