<svg width="198" height="198" viewBox="0 0 198 198" fill="none" xmlns="http://www.w3.org/2000/svg">
<path d="M147.78 57.6554C147.678 57.6727 147.604 57.7325 147.559 57.8347C147.513 57.937 147.502 58.0595 147.527 58.2024L147.693 59.1822C147.717 59.3251 147.767 59.4373 147.844 59.5188C147.921 59.6003 148.011 59.6324 148.113 59.6151L152.332 60.5377L154.594 64.2177C154.612 64.3197 154.671 64.3936 154.774 64.4393C154.876 64.4849 154.998 64.4957 155.141 64.4714L156.121 64.3053C156.264 64.2811 156.376 64.2306 156.458 64.1538C156.539 64.077 156.571 63.9875 156.554 63.8855L155.962 60.3948L163.189 50.2553L168.203 61.2492C168.248 61.5146 168.384 61.7278 168.611 61.8888C168.837 62.0499 169.083 62.1079 169.349 62.0629L171.308 61.7307C171.594 61.6823 171.813 61.5455 171.963 61.3204C172.114 61.0954 172.167 60.8501 172.122 60.5848L168.987 42.0906L173.569 35.6753C173.99 35.0581 174.385 33.8937 174.757 32.1823C175.128 30.4709 175.092 29.4532 174.649 29.1294C174.205 28.8056 173.232 29.1019 171.728 30.0183C170.225 30.9347 169.263 31.7015 168.842 32.3187L164.26 38.734L145.766 41.8692C145.5 41.9142 145.287 42.0501 145.126 42.2769C144.965 42.5037 144.907 42.7498 144.952 43.0151L145.284 44.9748C145.329 45.2401 145.465 45.4534 145.692 45.6144C145.919 45.7754 146.165 45.8335 146.43 45.7885L158.462 46.8987L151.21 57.074L147.78 57.6554Z" fill="#E92453"/>
<path fill-rule="evenodd" clip-rule="evenodd" d="M148.596 71.3632V128.27C148.596 130.133 148.107 131.964 147.179 133.579C146.251 135.195 144.916 136.539 143.307 137.478L92.652 166.958C90.2108 168.377 87.4375 169.125 84.6138 169.125C81.7902 169.125 79.0169 168.377 76.5756 166.958L25.9205 137.478C25.827 137.424 25.7345 137.368 25.6429 137.311C35.8319 140.93 46.5813 142.763 57.4162 142.718C69.7281 142.666 81.9092 140.19 93.2642 135.431C104.619 130.672 114.926 123.723 123.595 114.981C132.264 106.238 139.127 95.8741 143.791 84.4797C145.758 79.673 147.318 74.7227 148.46 69.681C148.55 70.2353 148.595 70.7977 148.596 71.3632ZM146.654 65.24C142.627 73.5654 137.176 81.3772 130.3 88.3115C100.566 118.295 54.2017 121.761 20.625 98.5862V71.3632C20.6273 69.5006 21.1173 67.6711 22.0464 66.0568C22.9755 64.4425 24.3111 63.0997 25.9205 62.162L76.569 32.682C79.0095 31.2611 81.7831 30.5126 84.6072 30.5126C87.4312 30.5126 90.2048 31.2611 92.6453 32.682L143.301 62.162C144.63 62.9366 145.773 63.9877 146.654 65.24Z" fill="#E92453"/>
<rect width="70.8406" height="18.5974" transform="matrix(0.866025 -0.5 0.866025 0.5 46.4326 76.9902)" fill="#23384D"/>
<rect width="18.911" height="18.5975" transform="matrix(0.866025 0.5 -2.20305e-08 1 45.1914 78.0073)" fill="#23384D"/>
</svg>
