<svg width="64" height="64" viewBox="0 0 64 64" fill="none" xmlns="http://www.w3.org/2000/svg">
<path d="M10.668 10.6663V53.333C10.668 54.7475 11.2299 56.104 12.2301 57.1042C13.2303 58.1044 14.5868 58.6663 16.0013 58.6663H48.0013C49.4158 58.6663 50.7723 58.1044 51.7725 57.1042C52.7727 56.104 53.3346 54.7475 53.3346 53.333V22.245C53.3346 21.5345 53.1925 20.8312 52.9168 20.1763C52.6411 19.5215 52.2374 18.9283 51.7293 18.4317L39.8893 6.85301C38.8929 5.87876 37.5548 5.33318 36.1613 5.33301H16.0013C14.5868 5.33301 13.2303 5.89491 12.2301 6.8951C11.2299 7.8953 10.668 9.25185 10.668 10.6663V10.6663Z" stroke="#23384D" stroke-width="5.58333" stroke-linecap="round" stroke-linejoin="round"/>
<path d="M24 34.666H40" stroke="#23384D" stroke-width="5.58333" stroke-linecap="round" stroke-linejoin="round"/>
<path d="M24 45.333H32" stroke="#23384D" stroke-width="5.58333" stroke-linecap="round" stroke-linejoin="round"/>
<path d="M37.3359 5.33301V15.9997C37.3359 17.4142 37.8978 18.7707 38.898 19.7709C39.8982 20.7711 41.2548 21.333 42.6693 21.333H53.3359" stroke="#23384D" stroke-width="5.58333" stroke-linejoin="round"/>
</svg>
