<svg width="348" height="175" viewBox="0 0 348 175" fill="none" xmlns="http://www.w3.org/2000/svg">
<path d="M346.071 155.769C343.764 165.436 335.196 173.345 323.881 173.345H111.539C96.3795 173.345 82.2088 166.864 72.3222 155.769C69.6857 152.913 67.4887 149.617 65.5114 146.212L4.21454 34.7129C3.33574 33.0651 2.67664 31.4173 2.23724 29.7696C-1.7174 15.7087 8.71842 0.878784 24.3173 0.878784H236.659C237.318 0.878784 238.087 0.878784 238.746 0.878784C255.554 1.53789 270.603 11.2048 278.952 25.8149L343.984 139.511C346.84 144.784 347.389 150.496 346.071 155.769Z" fill="white"/>
<path d="M323.879 174.114H111.537C96.3779 174.114 81.8776 167.633 71.7713 156.208C69.1349 153.242 66.828 149.947 64.8507 146.431L3.55383 35.0425C2.67502 33.3947 1.90604 31.6371 1.46664 29.9893C-0.510682 22.9589 1.02727 15.2693 5.42131 9.33734C9.9252 3.40538 16.7359 0 24.2058 0H236.548C237.207 0 237.976 0 238.635 0C255.332 0.659106 270.931 10.326 279.5 25.3756L344.531 139.071C347.387 144.234 348.156 150.276 346.838 155.988C344.312 166.644 334.865 174.114 323.879 174.114ZM24.3156 1.64777C17.395 1.64777 11.0237 4.83347 6.84936 10.326C2.67502 15.8186 1.24693 22.9589 3.1144 29.5499C3.55381 31.1977 4.2129 32.7356 5.09171 34.2735L66.3886 145.772C68.2561 149.178 70.4531 152.363 73.0895 155.219C82.8662 166.205 96.9271 172.576 111.647 172.576H323.989C334.205 172.576 342.993 165.655 345.41 155.659C346.728 150.276 345.959 144.893 343.323 139.95L278.401 26.2544C270.162 11.7541 255.003 2.41673 238.855 1.75762C238.196 1.75762 237.536 1.75762 236.877 1.75762H24.3156V1.64777Z" fill="#23384D"/>
<path d="M281.149 29.7696H2.23724C-1.7174 15.7087 8.71842 0.878784 24.3173 0.878784C24.3173 0.878784 238.087 0.878784 238.746 0.878784C255.554 1.53789 270.603 11.2048 278.952 25.8149L281.149 29.7696Z" fill="#23384D"/>
<path d="M346.069 155.769C343.762 165.436 335.194 173.345 323.879 173.345H111.537C96.3777 173.345 82.2069 166.754 72.3203 155.769H346.069Z" fill="#23384D"/>
<path d="M67.4893 20.9817H32.6665C30.3596 20.9817 28.4922 19.1143 28.4922 16.8074C28.4922 14.5005 30.3596 12.6331 32.6665 12.6331H67.4893C69.7962 12.6331 71.6636 14.5005 71.6636 16.8074C71.6636 19.1143 69.7962 20.9817 67.4893 20.9817Z" fill="white"/>
<path d="M234.571 20.9817H217.434C215.127 20.9817 213.26 19.1143 213.26 16.8074C213.26 14.5005 215.127 12.6331 217.434 12.6331H234.571C236.878 12.6331 238.745 14.5005 238.745 16.8074C238.745 19.1143 236.878 20.9817 234.571 20.9817Z" fill="white"/>
<path d="M134.165 123.033C134.056 123.033 134.056 123.033 133.946 123.033C121.752 119.408 108.46 104.138 110.218 90.6268C110.328 90.1874 110.657 89.8579 111.097 89.9677C111.536 90.0776 111.866 90.4071 111.756 90.8465C110.218 103.26 122.851 117.98 134.385 121.495C134.825 121.605 135.044 122.044 134.934 122.484C134.825 122.813 134.495 123.033 134.165 123.033Z" fill="#23384D"/>
<path d="M102.09 72.5017C101.98 72.5017 101.761 72.5017 101.651 72.3919C97.8061 69.9751 95.1697 66.1303 94.7302 62.2856C94.2908 58.6605 95.7189 55.0354 98.7947 51.8497C99.1243 51.5202 99.6735 51.5202 100.003 51.8497C100.333 52.1793 100.333 52.7285 100.003 53.0581C97.2568 55.8043 96.0484 58.99 96.4878 62.0658C96.9272 65.4712 99.2342 68.8766 102.64 71.0736C102.969 71.2933 103.189 71.8426 102.859 72.1721C102.639 72.282 102.42 72.5017 102.09 72.5017Z" fill="#23384D"/>
<path d="M105.935 82.938C101.431 82.6085 93.4121 79.5327 89.4575 72.612C89.2378 72.1726 89.3476 71.7332 89.7871 71.5135C90.2265 71.2938 90.6659 71.4037 90.8856 71.8431C94.5106 78.2145 101.871 80.9607 105.935 81.2903C106.375 81.2903 106.704 81.7297 106.704 82.1691C106.704 82.6085 106.375 82.938 105.935 82.938Z" fill="#23384D"/>
<path d="M102.091 133.029C101.981 133.029 101.981 133.029 101.871 133.029C101.761 133.029 93.0832 130.942 91.8748 122.374C91.765 121.934 92.0945 121.495 92.534 121.495C92.9734 121.385 93.4127 121.715 93.4127 122.154C94.4014 129.624 101.761 131.382 102.091 131.491C102.53 131.601 102.86 132.041 102.75 132.48C102.86 132.81 102.53 133.029 102.091 133.029Z" fill="#23384D"/>
<path d="M151.635 81.4001C147.79 81.4001 143.725 81.0705 139.551 80.5213C124.831 78.4341 114.835 72.2825 109.013 67.449C107.365 66.1308 106.596 64.0436 106.706 61.9565C106.925 59.8693 108.024 58.0018 109.891 57.0132C117.032 52.9487 129.445 48.0054 147.46 48.0054C154.271 48.0054 161.411 48.6645 168.771 50.0925C173.715 51.0812 179.976 54.3767 182.503 58.9905C183.931 61.517 184.041 64.2633 183.052 67.0096C179.647 76.0174 167.893 81.4001 151.635 81.4001Z" fill="white"/>
<path d="M147.461 48.8838C154.272 48.8838 161.302 49.543 168.662 50.971C173.386 51.8499 179.427 55.0355 181.844 59.4296C183.162 61.7364 183.272 64.1532 182.284 66.6797C179.757 73.3806 170.31 80.521 151.525 80.521C147.79 80.521 143.726 80.1914 139.552 79.6421C124.941 77.6648 115.165 71.5132 109.452 66.7896C108.024 65.5812 107.365 63.8236 107.475 62.066C107.585 60.1985 108.683 58.6606 110.221 57.7818C117.471 53.7173 129.665 48.8838 147.461 48.8838ZM147.461 47.2361C129.226 47.2361 116.703 52.2893 109.562 56.3537C105.168 58.8803 104.619 64.9221 108.464 68.1078C114.286 73.0511 124.392 79.3126 139.332 81.3998C143.726 81.949 147.79 82.2786 151.525 82.2786C169.87 82.2786 180.636 75.5777 183.821 67.3388C187.556 57.5621 176.132 50.7513 168.992 49.3233C161.082 47.8952 153.942 47.2361 147.461 47.2361Z" fill="#23384D"/>
<path d="M164.486 77.7752C163.497 75.1388 163.936 72.1728 164.486 69.4265C165.035 66.7901 166.353 64.9226 164.925 62.6157C160.641 55.6951 148.777 56.4641 142.186 55.6951C138.121 55.2557 130.322 53.2784 125.928 49.873C118.897 51.7405 113.405 54.1572 109.56 56.3542C105.276 58.8808 104.727 64.8128 108.571 68.1083C114.394 73.0516 124.5 79.3131 139.44 81.4003C150.315 82.9382 159.213 82.3889 166.133 80.6313C165.364 79.7525 164.815 78.8737 164.486 77.7752Z" fill="#E92453"/>
<path d="M294.876 37.02H250.496V81.3998H294.876V37.02Z" fill="#E92453"/>
<path d="M286.749 74.3692C286.53 74.3692 286.31 74.2593 286.2 74.1495L257.858 45.8079C257.529 45.4784 257.529 44.9291 257.858 44.5996C258.188 44.27 258.737 44.27 259.067 44.5996L287.408 72.9412C287.738 73.2707 287.738 73.8199 287.408 74.1495C287.189 74.2593 286.969 74.3692 286.749 74.3692Z" fill="white"/>
<path d="M258.408 74.3692C258.188 74.3692 257.968 74.2593 257.858 74.1495C257.529 73.8199 257.529 73.2707 257.858 72.9412L286.2 44.5996C286.53 44.27 287.079 44.27 287.408 44.5996C287.738 44.9291 287.738 45.4784 287.408 45.8079L259.067 74.1495C258.847 74.2593 258.627 74.3692 258.408 74.3692Z" fill="white"/>
<path d="M294.768 93.0441H270.82V116.992H294.768V93.0441Z" fill="#E92453"/>
<path d="M324.866 62.2862H304.433C303.994 62.2862 303.555 61.9566 303.555 61.4074C303.555 60.8581 303.884 60.5286 304.433 60.5286H324.866C325.305 60.5286 325.745 60.8581 325.745 61.4074C325.745 61.9566 325.305 62.2862 324.866 62.2862Z" fill="#23384D"/>
<path d="M288.946 105.896H276.533C276.094 105.896 275.654 105.567 275.654 105.017C275.654 104.468 275.984 104.139 276.533 104.139H288.946C289.386 104.139 289.825 104.468 289.825 105.017C289.825 105.567 289.495 105.896 288.946 105.896Z" fill="#23384D"/>
<path d="M235.338 88.9795C235.118 88.9795 234.789 88.8696 234.679 88.6499C234.459 88.3204 234.569 87.7711 234.898 87.5514L243.137 81.949C243.467 81.7293 244.016 81.8392 244.236 82.1687C244.456 82.4983 244.346 83.0475 244.016 83.2672L235.777 88.8696C235.667 88.8696 235.448 88.9795 235.338 88.9795Z" fill="#23384D"/>
<path d="M245.774 95.1315C245.554 95.1315 245.445 95.1315 245.225 94.9118C244.895 94.5822 244.785 94.1428 245.115 93.7034L249.839 87.4419C250.168 87.1123 250.608 87.0025 251.047 87.332C251.377 87.6616 251.486 88.101 251.157 88.5404L246.433 94.8019C246.214 95.0216 245.994 95.1315 245.774 95.1315Z" fill="#23384D"/>
<path d="M194.035 134.018C191.398 134.018 188.652 133.689 185.686 133.029C185.247 132.92 184.917 132.48 185.027 132.041C185.137 131.601 185.576 131.272 186.016 131.382C202.164 134.897 213.039 127.317 216.115 121.825C216.335 121.385 216.884 121.275 217.213 121.495C217.653 121.715 217.763 122.264 217.543 122.594C214.797 127.647 206.448 134.018 194.035 134.018Z" fill="#23384D"/>
<path d="M189.75 127.318C187.114 127.318 184.697 126.989 182.72 126.329C182.28 126.22 182.061 125.78 182.171 125.341C182.28 124.901 182.72 124.682 183.159 124.792C188.542 126.439 197.55 126 203.811 121.606C204.141 121.386 204.69 121.386 204.91 121.826C205.129 122.155 205.129 122.704 204.69 122.924C200.406 126 194.803 127.318 189.75 127.318Z" fill="#23384D"/>
<path d="M272.579 59.0996C272.579 55.5844 264.12 57.5617 264.12 57.5617C264.12 54.5957 259.397 54.0464 259.397 54.0464C257.859 51.41 253.904 50.3115 240.722 54.4858C228.199 58.4405 208.865 56.0237 194.804 53.2775C194.804 56.0237 189.971 62.1754 185.796 64.0429V64.1527C184.698 66.4596 183.819 68.9862 182.281 71.0733C194.255 75.5772 236.658 80.9599 250.279 69.9748C257.2 72.6113 264.889 70.0847 265.548 67.3384C266.317 63.7133 258.408 65.8005 258.408 65.8005L256.87 64.3724C262.582 62.505 272.579 62.1754 272.579 59.0996Z" fill="white"/>
<path d="M273.457 59.0998C273.457 58.3309 273.127 57.5619 272.468 57.1225C270.711 55.6944 266.646 56.2437 264.779 56.6831C264.12 54.3762 260.934 53.6072 259.835 53.3875C257.528 49.9822 251.816 50.092 240.392 53.7171C230.615 56.7929 215.236 56.4634 194.804 52.5087L193.815 52.289V53.2777C193.815 54.7057 191.728 58.3308 188.542 61.0771C186.675 62.7249 184.917 63.7135 183.489 63.8234C183.159 64.9219 182.72 66.0204 182.281 67.1189C181.731 68.547 180.962 69.8652 180.193 71.1834C186.125 74.0395 203.811 77.3351 220.619 77.3351C232.592 77.3351 244.127 75.6873 250.278 70.9637C255.441 72.7213 260.824 71.8425 263.68 70.3046C265.108 69.5356 265.987 68.547 266.207 67.5583C266.426 66.35 265.987 65.6909 265.658 65.2515C264.12 63.7136 260.055 64.4825 258.517 64.812L258.297 64.5924C259.945 64.153 261.813 63.8234 263.68 63.384C268.953 62.7249 273.457 61.8461 273.457 59.0998ZM256.54 63.7135L255.222 64.153L258.078 66.8992L258.517 66.7894C260.495 66.2401 263.79 65.9106 264.559 66.6795C264.669 66.7894 264.779 66.8992 264.669 67.4485C264.559 67.9977 263.9 68.547 263.021 69.0963C260.385 70.5243 255.331 71.2933 250.498 69.5357L250.059 69.4258L249.729 69.7553C236.217 80.6306 192.167 75.0282 181.512 70.3046C181.731 69.7553 182.171 68.7667 182.5 68.1076C182.94 67.1189 183.269 66.35 183.489 65.9106C185.906 65.8007 188.432 63.9332 189.75 62.7249C192.277 60.5279 194.913 57.0126 195.463 54.5959C215.785 58.3308 231.054 58.6604 240.941 55.5846C254.562 51.3004 257.529 52.9482 258.627 54.8156L258.847 55.1452L259.286 55.255C259.286 55.255 263.351 55.9141 263.351 58.0013V59.0998L264.339 58.8801C266.426 58.3308 270.271 57.8914 271.48 58.8801C271.699 59.0998 271.809 59.3195 271.809 59.6491C271.809 60.9673 266.976 61.8461 263.46 62.5052C261.044 62.5052 258.517 62.9446 256.54 63.7135Z" fill="#23384D"/>
<path d="M258.078 54.4866C256.43 54.2669 254.892 54.4866 253.354 55.1457C252.695 55.4752 253.244 56.354 253.903 56.1343C255.112 55.5851 256.43 55.3654 257.748 55.5851C258.407 55.6949 258.737 54.5964 258.078 54.4866Z" fill="#23384D"/>
<path d="M262.033 58.1107C260.275 58.3304 258.408 58.66 256.65 58.9895C255.991 59.0994 256.211 60.1979 256.98 60.088C258.627 59.7585 260.385 59.4289 262.033 59.2092C262.692 59.0994 262.692 58.0009 262.033 58.1107Z" fill="#23384D"/>
<path d="M131.75 61.5172C120.985 66.6802 120.985 74.1501 125.269 77.2259C129.553 80.3017 154.27 82.6086 159.762 75.1387C165.255 67.6689 161.849 60.4187 151.194 58.5512C147.02 57.7823 137.353 58.8808 131.75 61.5172Z" fill="white"/>
<path d="M137.134 61.4071C107.584 82.3886 119.997 118.859 165.586 123.143C173.934 123.912 179.317 118.2 183.931 120.836C186.457 122.265 190.522 119.189 192.06 120.177C197.113 123.253 198.321 118.09 198.321 118.09C199.2 118.31 201.727 115.564 200.408 113.586C200.408 113.586 203.045 111.719 200.298 108.313C194.696 101.283 178.109 99.8549 169.43 97.8776C160.752 95.9003 143.396 94.5821 150.097 81.9492C152.074 78.1044 155.919 73.271 155.919 73.1611" fill="white"/>
<path d="M167.122 124.022C166.573 124.022 166.024 124.022 165.474 123.912C142.296 121.715 125.379 110.73 121.204 95.2413C117.909 82.8281 123.621 69.8657 136.584 60.6382C136.913 60.4185 137.462 60.4185 137.682 60.8579C137.902 61.1875 137.902 61.7367 137.462 61.9564C125.049 70.7445 119.557 83.0478 122.632 94.8019C126.587 109.632 142.955 120.068 165.474 122.265C169.319 122.594 172.505 121.496 175.361 120.617C178.656 119.518 181.403 118.53 184.149 120.068C185.248 120.727 186.895 120.177 188.433 119.628C189.971 119.189 191.289 118.749 192.278 119.299C193.596 120.068 194.695 120.397 195.574 119.958C196.892 119.408 197.331 117.761 197.331 117.651L197.551 116.882L198.32 117.102C198.43 117.102 199.199 116.443 199.528 115.564C199.858 114.905 199.748 114.355 199.418 113.806L198.979 113.147L199.638 112.708C199.638 112.708 200.297 112.158 200.407 111.279C200.517 110.511 200.187 109.632 199.418 108.643C195.134 103.26 183.49 101.173 174.922 99.6353C172.725 99.1959 170.747 98.8664 168.99 98.5368C167.891 98.3171 166.793 98.0974 165.474 97.8777C158.883 96.5595 150.535 95.0216 148.118 89.9684C147.019 87.5517 147.239 84.6956 148.997 81.4C149.875 79.8621 151.523 77.006 154.819 72.7218L154.929 72.5021C155.148 72.1725 155.698 72.0627 156.027 72.2824C156.357 72.5021 156.467 73.0514 156.247 73.3809C156.247 73.3809 156.137 73.4908 156.027 73.6006C152.841 77.7749 151.194 80.5212 150.425 82.0592C148.887 84.9153 148.667 87.2221 149.546 89.0896C151.633 93.3738 159.762 94.9117 165.694 96.1201C167.012 96.3398 168.111 96.5595 169.209 96.7792C170.857 97.1087 172.944 97.5481 175.141 97.8777C184.369 99.5255 195.903 101.613 200.627 107.435C201.725 108.753 202.165 110.071 201.945 111.279C201.835 112.158 201.396 112.817 201.066 113.257C201.505 114.355 201.286 115.674 200.407 116.882C199.968 117.541 199.308 118.2 198.54 118.42C198.21 119.189 197.551 120.617 196.013 121.276C194.695 121.825 193.047 121.606 191.179 120.397C190.85 120.177 189.642 120.617 188.653 120.837C186.895 121.386 184.808 122.045 183.05 121.056C180.963 119.958 178.656 120.727 175.581 121.715C173.493 123.034 170.527 124.022 167.122 124.022Z" fill="#23384D"/>
<path d="M197.112 117.321C195.245 115.014 192.279 113.696 189.313 114.025C188.654 114.135 188.654 115.234 189.313 115.124C192.059 114.904 194.586 116.003 196.343 118.09C196.783 118.639 197.552 117.87 197.112 117.321Z" fill="#23384D"/>
<path d="M199.31 111.719C197.552 109.742 195.026 108.534 192.279 108.424C191.62 108.424 191.62 109.522 192.279 109.522C194.696 109.632 196.893 110.621 198.541 112.488C199.09 113.038 199.859 112.269 199.31 111.719Z" fill="#23384D"/>
<path d="M173.053 44.5993C161.409 41.1939 151.961 43.8303 151.961 55.0351C151.961 55.0351 142.075 59.7587 149.874 65.8005C149.874 65.8005 145.81 75.028 159.212 75.4674C172.613 75.9068 176.568 55.3647 176.568 55.3647L173.053 44.5993Z" fill="#23384D"/>
<path d="M184.367 66.4599C181.401 66.4599 178.545 65.5811 176.018 63.8235L175.579 63.4939L175.139 63.8235C173.931 64.7023 172.393 65.2516 170.855 65.2516C169.097 65.2516 167.34 64.7023 165.912 63.6038C164.593 62.6151 164.044 61.0772 164.264 59.5393C164.703 57.562 166.461 55.9142 169.207 55.2551L169.976 55.0354L169.866 54.2665V54.1566C168.987 49.9823 169.756 45.5882 172.063 42.1828C174.041 39.3267 176.787 37.3494 180.082 36.6903C180.851 36.5804 181.73 36.4706 182.499 36.4706C187.223 36.4706 191.727 39.2169 194.363 43.7208C195.242 45.2587 195.901 47.0163 196.34 48.8837C197.329 53.4975 197.109 57.3423 195.901 60.1984C194.363 63.7136 191.068 65.8008 186.234 66.3501C185.465 66.4599 184.916 66.4599 184.367 66.4599Z" fill="white"/>
<path d="M182.28 37.3491C186.674 37.3491 190.958 39.9855 193.375 44.1598C194.253 45.5879 194.913 47.2357 195.242 48.9933C196.121 53.4972 196.011 57.1223 194.803 59.7587C193.375 63.0542 190.409 64.9217 185.795 65.4709C185.246 65.5808 184.806 65.5808 184.257 65.5808C181.511 65.5808 178.764 64.702 176.458 63.164L175.469 62.505L174.48 63.164C173.382 63.933 172.064 64.3724 170.635 64.3724C169.098 64.3724 167.45 63.8232 166.241 62.9444C165.143 62.1754 164.704 60.9671 164.923 59.7587C165.253 58.1109 166.901 56.6828 169.207 56.0237L170.745 55.5843L170.416 54.0464V53.9366C169.647 49.9819 170.306 45.8076 172.503 42.6219C174.261 39.8757 177.007 38.0082 179.973 37.4589C180.852 37.4589 181.511 37.3491 182.28 37.3491ZM182.28 35.7013C181.401 35.7013 180.522 35.8112 179.643 35.921C171.954 37.4589 167.12 45.8076 168.878 54.376V54.4858C162.726 56.1336 161.847 61.736 165.363 64.2626C166.791 65.3611 168.768 66.0202 170.745 66.0202C172.393 66.0202 174.041 65.5808 175.579 64.4823C178.215 66.2399 181.291 67.2285 184.367 67.2285C184.916 67.2285 185.465 67.2285 186.125 67.1187C191.727 66.4596 194.913 63.933 196.45 60.4178C197.879 57.0124 197.769 52.8381 196.89 48.6637C196.451 46.6864 195.791 44.9288 194.803 43.281C192.166 38.6673 187.333 35.7013 182.28 35.7013Z" fill="#23384D"/>
<path d="M192.166 39.8761C189.09 36.4708 184.256 35.0427 179.753 35.9215C172.063 37.4594 167.23 44.5997 169.427 56.0242C174.04 55.2553 188.431 48.115 192.166 39.8761Z" fill="#E92453"/>
<path d="M187.921 52.3254C188.244 51.8114 188.088 51.1335 187.574 50.8114C187.06 50.4892 186.382 50.6448 186.06 51.1588C185.738 51.6729 185.893 52.3508 186.407 52.6729C186.921 52.9951 187.599 52.8395 187.921 52.3254Z" fill="#23384D"/>
<path d="M173.711 59.2098C171.624 57.6718 168.768 57.562 166.791 59.2098C166.241 59.6492 166.9 60.528 167.45 60.0885C169.098 58.7703 171.404 58.6605 173.052 59.9787C173.492 60.4181 174.26 59.6492 173.711 59.2098Z" fill="#23384D"/>
<path d="M194.144 57.6719C194.254 55.2552 193.924 52.7286 193.265 50.4218C193.045 49.7627 192.057 49.9824 192.167 50.6415C192.826 52.9483 193.045 55.2552 192.936 57.6719C193.045 58.331 194.144 58.4409 194.144 57.6719Z" fill="#23384D"/>
</svg>
