<svg width="289" height="80" viewBox="0 0 289 80" fill="none" xmlns="http://www.w3.org/2000/svg">
<path d="M130.197 10.9729V37.8966H126.656V17.8205L117.707 37.8966H115.217L106.23 17.7816V37.8966H102.689V10.9729H106.502L116.462 33.2278L126.423 10.9729H130.197ZM134.878 27.1583C134.878 24.9795 135.319 23.073 136.201 21.4389C137.083 19.7789 138.289 18.4949 139.819 17.5871C141.376 16.6792 143.101 16.2253 144.994 16.2253C146.862 16.2253 148.483 16.6274 149.858 17.4315C151.232 18.2355 152.257 19.2471 152.931 20.4662V16.5755H156.511V37.8966H152.931V33.9281C152.231 35.1731 151.18 36.2107 149.78 37.0407C148.405 37.8448 146.797 38.2468 144.955 38.2468C143.062 38.2468 141.35 37.7799 139.819 36.8462C138.289 35.9124 137.083 34.6025 136.201 32.9165C135.319 31.2305 134.878 29.3111 134.878 27.1583ZM152.931 27.1972C152.931 25.589 152.607 24.1883 151.959 22.9952C151.31 21.802 150.428 20.8942 149.313 20.2717C148.223 19.6232 147.017 19.299 145.694 19.299C144.372 19.299 143.165 19.6103 142.076 20.2328C140.987 20.8553 140.118 21.7631 139.469 22.9563C138.821 24.1494 138.497 25.5501 138.497 27.1583C138.497 28.7924 138.821 30.219 139.469 31.4381C140.118 32.6312 140.987 33.552 142.076 34.2005C143.165 34.823 144.372 35.1342 145.694 35.1342C147.017 35.1342 148.223 34.823 149.313 34.2005C150.428 33.552 151.31 32.6312 151.959 31.4381C152.607 30.219 152.931 28.8053 152.931 27.1972ZM166.034 20.0382C166.657 18.8191 167.539 17.8724 168.68 17.198C169.847 16.5236 171.261 16.1864 172.921 16.1864V19.8437H171.987C168.019 19.8437 166.034 21.9966 166.034 26.3023V37.8966H162.494V16.5755H166.034V20.0382ZM178.837 13.1128C178.162 13.1128 177.592 12.8793 177.125 12.4124C176.658 11.9455 176.424 11.3749 176.424 10.7005C176.424 10.0261 176.658 9.45547 177.125 8.98859C177.592 8.5217 178.162 8.28826 178.837 8.28826C179.485 8.28826 180.03 8.5217 180.471 8.98859C180.938 9.45547 181.171 10.0261 181.171 10.7005C181.171 11.3749 180.938 11.9455 180.471 12.4124C180.03 12.8793 179.485 13.1128 178.837 13.1128ZM180.549 16.5755V37.8966H177.008V16.5755H180.549ZM185.26 27.1583C185.26 24.9795 185.701 23.073 186.583 21.4389C187.465 19.7789 188.671 18.4949 190.201 17.5871C191.758 16.6792 193.482 16.2253 195.376 16.2253C197.243 16.2253 198.865 16.6274 200.239 17.4315C201.614 18.2355 202.639 19.2471 203.313 20.4662V16.5755H206.892V37.8966H203.313V33.9281C202.613 35.1731 201.562 36.2107 200.162 37.0407C198.787 37.8448 197.179 38.2468 195.337 38.2468C193.444 38.2468 191.732 37.7799 190.201 36.8462C188.671 35.9124 187.465 34.6025 186.583 32.9165C185.701 31.2305 185.26 29.3111 185.26 27.1583ZM203.313 27.1972C203.313 25.589 202.989 24.1883 202.34 22.9952C201.692 21.802 200.81 20.8942 199.695 20.2717C198.605 19.6232 197.399 19.299 196.076 19.299C194.753 19.299 193.547 19.6103 192.458 20.2328C191.368 20.8553 190.5 21.7631 189.851 22.9563C189.203 24.1494 188.878 25.5501 188.878 27.1583C188.878 28.7924 189.203 30.219 189.851 31.4381C190.5 32.6312 191.368 33.552 192.458 34.2005C193.547 34.823 194.753 35.1342 196.076 35.1342C197.399 35.1342 198.605 34.823 199.695 34.2005C200.81 33.552 201.692 32.6312 202.34 31.4381C202.989 30.219 203.313 28.8053 203.313 27.1972ZM133.893 42.4671V69.8966H126.267V54.7617L121.092 69.8966H114.712L109.498 54.645V69.8966H101.872V42.4671H111.093L117.98 60.2866L124.711 42.4671H133.893ZM159.088 58.7303C159.088 59.3269 159.049 59.9234 158.971 60.52H144.537C144.614 61.7132 144.939 62.608 145.509 63.2046C146.106 63.7752 146.858 64.0606 147.766 64.0606C149.037 64.0606 149.945 63.4899 150.489 62.3486H158.621C158.284 63.8531 157.622 65.2018 156.637 66.395C155.677 67.5622 154.458 68.483 152.98 69.1574C151.501 69.8318 149.867 70.169 148.077 70.169C145.924 70.169 144.005 69.7151 142.319 68.8072C140.659 67.8994 139.349 66.6025 138.389 64.9165C137.456 63.2305 136.989 61.2463 136.989 58.9637C136.989 56.6812 137.456 54.7099 138.389 53.0498C139.323 51.3638 140.62 50.0669 142.28 49.1591C143.966 48.2513 145.898 47.7973 148.077 47.7973C150.23 47.7973 152.137 48.2383 153.797 49.1202C155.457 50.0021 156.754 51.2731 157.687 52.9331C158.621 54.5672 159.088 56.4996 159.088 58.7303ZM151.307 56.8238C151.307 55.8901 150.995 55.1638 150.373 54.645C149.75 54.1003 148.972 53.828 148.038 53.828C147.105 53.828 146.339 54.0873 145.743 54.6061C145.146 55.0989 144.757 55.8382 144.576 56.8238H151.307ZM177.282 48.5755V53.0498H186.036V58.847H177.282V63.7882H187.203V69.8966H169.656V42.4671H187.203V48.5755H177.282ZM205.25 47.8752C207.766 47.8752 209.763 48.7182 211.242 50.4041C212.72 52.0642 213.46 54.3208 213.46 57.174V69.8966H205.834V58.1856C205.834 56.9405 205.51 55.9679 204.861 55.2675C204.213 54.5413 203.344 54.1781 202.254 54.1781C201.113 54.1781 200.218 54.5413 199.57 55.2675C198.921 55.9679 198.597 56.9405 198.597 58.1856V69.8966H190.971V48.0697H198.597V51.1823C199.271 50.1966 200.179 49.4055 201.321 48.8089C202.462 48.1864 203.772 47.8752 205.25 47.8752ZM228.11 62.6988L232.195 48.0697H240.327L232.818 69.8966H223.324L215.815 48.0697H223.947L228.11 62.6988ZM246.763 46.0465C245.414 46.0465 244.324 45.6834 243.494 44.9571C242.69 44.2049 242.288 43.2711 242.288 42.1558C242.288 41.0145 242.69 40.0678 243.494 39.3156C244.324 38.5634 245.414 38.1873 246.763 38.1873C248.085 38.1873 249.149 38.5634 249.953 39.3156C250.783 40.0678 251.198 41.0145 251.198 42.1558C251.198 43.2711 250.783 44.2049 249.953 44.9571C249.149 45.6834 248.085 46.0465 246.763 46.0465ZM250.537 48.0697V69.8966H242.911V48.0697H250.537ZM253.634 58.9637C253.634 56.7071 254.036 54.7358 254.84 53.0498C255.67 51.3638 256.786 50.0669 258.186 49.1591C259.613 48.2513 261.195 47.7973 262.933 47.7973C264.438 47.7973 265.734 48.0956 266.824 48.6922C267.913 49.2888 268.756 50.0929 269.353 51.1045V48.0697H276.979V69.8966H269.353V66.8619C268.756 67.8735 267.9 68.6776 266.785 69.2741C265.696 69.8707 264.412 70.169 262.933 70.169C261.195 70.169 259.613 69.7151 258.186 68.8072C256.786 67.8994 255.67 66.6025 254.84 64.9165C254.036 63.2046 253.634 61.2203 253.634 58.9637ZM269.353 58.9637C269.353 57.5631 268.964 56.4607 268.186 55.6566C267.433 54.8525 266.5 54.4505 265.384 54.4505C264.243 54.4505 263.296 54.8525 262.544 55.6566C261.792 56.4348 261.416 57.5371 261.416 58.9637C261.416 60.3644 261.792 61.4797 262.544 62.3097C263.296 63.1138 264.243 63.5159 265.384 63.5159C266.5 63.5159 267.433 63.1138 268.186 62.3097C268.964 61.5057 269.353 60.3903 269.353 58.9637Z" fill="#F8F8FA"/>
<path d="M72.5306 16.4167C72.4724 16.4265 72.4303 16.4606 72.4042 16.519C72.3782 16.5773 72.3721 16.6472 72.3859 16.7287L72.4806 17.2876C72.4945 17.3691 72.5233 17.4331 72.5671 17.4796C72.6109 17.526 72.6619 17.5443 72.7201 17.5345L75.1272 18.0607L76.4174 20.1599C76.4272 20.2181 76.4613 20.2602 76.5196 20.2863C76.578 20.3123 76.6479 20.3184 76.7294 20.3046L77.2883 20.2099C77.3698 20.196 77.4338 20.1672 77.4803 20.1234C77.5267 20.0796 77.545 20.0286 77.5352 19.9704L77.1976 17.9793L81.32 12.1956L84.1798 18.4666C84.2055 18.618 84.283 18.7396 84.4124 18.8315C84.5418 18.9233 84.6821 18.9564 84.8335 18.9308L85.9513 18.7413C86.1143 18.7136 86.2388 18.6356 86.3249 18.5072C86.4109 18.3789 86.4411 18.239 86.4155 18.0876L84.6271 7.53831L87.2409 3.87898C87.4807 3.52689 87.7065 2.86274 87.9183 1.88652C88.1301 0.910304 88.1096 0.329837 87.8567 0.145121C87.6038 -0.0395939 87.0485 0.129408 86.1908 0.652128C85.3331 1.17485 84.7844 1.61225 84.5446 1.96434L81.9308 5.62367L71.3815 7.41203C71.2301 7.4377 71.1085 7.51521 71.0166 7.64458C70.9247 7.77395 70.8916 7.91432 70.9173 8.06569L71.1068 9.18349C71.1325 9.33486 71.21 9.45648 71.3393 9.54834C71.4687 9.64021 71.6091 9.67331 71.7605 9.64765L78.6237 10.2809L74.4868 16.0851L72.5306 16.4167Z" fill="#F8F8FA"/>
<path fill-rule="evenodd" clip-rule="evenodd" d="M72.9961 24.2358V56.6963C72.9959 57.759 72.7172 58.8031 72.1879 59.7246C71.6586 60.6462 70.8971 61.4129 69.9793 61.9486L41.085 78.7643C39.6925 79.5737 38.1106 80 36.5 80C34.8893 80 33.3074 79.5737 31.9149 78.7643L3.02059 61.9486C2.96731 61.9176 2.91455 61.8857 2.86233 61.8531C8.67448 63.9177 14.8063 64.9634 20.9868 64.9375C28.0097 64.9081 34.9579 63.4958 41.4349 60.7811C47.9119 58.0664 53.7908 54.1026 58.7359 49.1159C63.681 44.1292 67.5955 38.2174 70.2558 31.7179C71.3779 28.9767 72.2676 26.1535 72.9191 23.2783C72.9698 23.5938 72.9957 23.914 72.9961 24.2358ZM71.8884 20.7433C69.5916 25.4921 66.4825 29.948 62.5602 33.9032C45.5995 51.0065 19.1526 52.9834 0 39.7638V24.2358C0.00129572 23.1734 0.280831 22.1298 0.810781 21.209C1.34073 20.2882 2.10262 19.5222 3.02059 18.9873L31.9111 2.17163C33.3032 1.36115 34.8853 0.93417 36.4962 0.93417C38.107 0.93417 39.6891 1.36115 41.0812 2.17163L69.9755 18.9873C70.7339 19.4293 71.3858 20.0289 71.8884 20.7433Z" fill="#E92453"/>
<rect width="40.4083" height="10.6082" transform="matrix(0.866025 -0.5 0.866025 0.5 14.7207 27.4453)" fill="#BA1D42"/>
<rect width="10.787" height="10.6082" transform="matrix(0.866025 0.5 -2.20305e-08 1 14.0117 28.0255)" fill="#BA1D42"/>
</svg>
