<svg width="78" height="68" viewBox="0 0 78 68" fill="none" xmlns="http://www.w3.org/2000/svg">
<path d="M61.651 13.9542C61.6015 13.9626 61.5657 13.9915 61.5435 14.0411C61.5214 14.0907 61.5162 14.1501 61.5279 14.2194L61.6085 14.6945C61.6202 14.7637 61.6447 14.8181 61.6819 14.8576C61.7192 14.8971 61.7625 14.9127 61.812 14.9043L63.858 15.3516L64.9547 17.1359C64.9631 17.1854 64.992 17.2212 65.0416 17.2433C65.0912 17.2655 65.1506 17.2707 65.2199 17.2589L65.6949 17.1784C65.7642 17.1666 65.8186 17.1421 65.8581 17.1049C65.8976 17.0677 65.9132 17.0243 65.9048 16.9748L65.6179 15.2824L69.1219 10.3662L71.5528 15.6966C71.5746 15.8253 71.6405 15.9287 71.7504 16.0067C71.8604 16.0848 71.9797 16.113 72.1084 16.0911L73.0585 15.9301C73.1971 15.9066 73.3029 15.8403 73.3761 15.7312C73.4492 15.622 73.4748 15.5031 73.453 15.3745L71.9329 6.40756L74.1547 3.29713C74.3585 2.99786 74.5504 2.43333 74.7305 1.60354C74.9105 0.773758 74.8931 0.280361 74.6781 0.123353C74.4631 -0.0336548 73.9911 0.109997 73.2621 0.554309C72.533 0.998621 72.0666 1.37041 71.8628 1.66969L69.6411 4.78011L60.6741 6.30023C60.5455 6.32204 60.4421 6.38793 60.364 6.49789C60.2859 6.60785 60.2578 6.72717 60.2796 6.85583L60.4407 7.80597C60.4625 7.93463 60.5284 8.03801 60.6383 8.11609C60.7483 8.19418 60.8676 8.22231 60.9963 8.2005L66.83 8.73879L63.3137 13.6723L61.651 13.9542Z" fill="#E92453"/>
<path fill-rule="evenodd" clip-rule="evenodd" d="M62.0467 20.6005V48.1919C62.0465 49.0952 61.8096 49.9826 61.3597 50.7659C60.9098 51.5492 60.2626 52.201 59.4824 52.6563L34.9223 66.9497C33.7386 67.6376 32.394 68 31.025 68C29.6559 68 28.3113 67.6376 27.1277 66.9497L2.5675 52.6563C2.52237 52.63 2.47768 52.6031 2.43345 52.5755C7.37352 54.3302 12.5852 55.2189 17.8384 55.1969C23.8078 55.1719 29.7139 53.9714 35.2193 51.6639C40.7248 49.3565 45.7218 45.9872 49.9251 41.7485C54.1285 37.5099 57.4558 32.4848 59.7171 26.9602C60.6709 24.6298 61.4272 22.2299 61.9811 19.7856C62.0243 20.0541 62.0464 20.3266 62.0467 20.6005ZM61.1049 17.6315C59.1526 21.6681 56.5098 25.4557 53.1758 28.8177C38.7593 43.3554 16.2796 45.0359 0 33.7995V20.6005C0.00110137 19.6974 0.238706 18.8104 0.689164 18.0277C1.13962 17.245 1.78722 16.5939 2.5675 16.1393L27.1244 1.84589C28.3077 1.15699 29.6525 0.794052 31.0217 0.794052C32.391 0.794052 33.7357 1.15699 34.919 1.84589L59.4792 16.1393C60.1237 16.5148 60.6778 17.0244 61.1049 17.6315Z" fill="#E92453"/>
<rect width="34.347" height="9.01696" transform="matrix(0.866025 -0.5 0.866025 0.5 12.5117 23.3285)" fill="#23384D"/>
<rect width="9.16898" height="9.01696" transform="matrix(0.866025 0.5 -2.20305e-08 1 11.9102 23.8217)" fill="#23384D"/>
</svg>
