<svg width="53" height="46" viewBox="0 0 53 46" fill="none" xmlns="http://www.w3.org/2000/svg">
<path d="M41.6368 9.42399C41.6034 9.42966 41.5792 9.44923 41.5643 9.48271C41.5493 9.51619 41.5458 9.55632 41.5537 9.60311L41.6081 9.92395C41.616 9.97074 41.6326 10.0075 41.6577 10.0341C41.6829 10.0608 41.7122 10.0713 41.7456 10.0657L43.1274 10.3678L43.868 11.5728C43.8736 11.6062 43.8932 11.6304 43.9267 11.6453C43.9602 11.6603 44.0003 11.6638 44.0471 11.6559L44.3679 11.6015C44.4147 11.5935 44.4515 11.577 44.4781 11.5518C44.5048 11.5267 44.5153 11.4974 44.5097 11.464L44.3159 10.321L46.6823 7.00087L48.324 10.6008C48.3388 10.6877 48.3833 10.7575 48.4575 10.8102C48.5318 10.8629 48.6124 10.8819 48.6993 10.8672L49.3409 10.7584C49.4345 10.7426 49.506 10.6978 49.5554 10.6241C49.6048 10.5504 49.6221 10.4701 49.6074 10.3832L48.5808 4.32737L50.0812 2.22673C50.2189 2.02461 50.3485 1.64336 50.4701 1.08296C50.5917 0.52256 50.5799 0.189343 50.4347 0.0833069C50.2895 -0.0227289 49.9708 0.0742869 49.4784 0.374354C48.9861 0.674422 48.6711 0.925514 48.5334 1.12763L47.033 3.22827L40.9771 4.25488C40.8902 4.26961 40.8204 4.31411 40.7677 4.38837C40.7149 4.46264 40.6959 4.54321 40.7107 4.63011L40.8195 5.27179C40.8342 5.35868 40.8787 5.42849 40.9529 5.48123C41.0272 5.53396 41.1078 5.55297 41.1947 5.53823L45.1345 5.90177L42.7598 9.23363L41.6368 9.42399Z" fill="#F8F8FA"/>
<path fill-rule="evenodd" clip-rule="evenodd" d="M41.9034 13.9126V32.5465C41.9033 33.1566 41.7433 33.7559 41.4395 34.2849C41.1356 34.8139 40.6985 35.2541 40.1716 35.5616L23.5849 45.2147C22.7855 45.6793 21.8774 45.924 20.9528 45.924C20.0282 45.924 19.1201 45.6793 18.3207 45.2147L1.73397 35.5616C1.70313 35.5436 1.6726 35.5252 1.64238 35.5063C4.97921 36.6918 8.49958 37.2922 12.048 37.2774C16.0794 37.2605 20.0681 36.4497 23.7862 34.8914C27.5043 33.333 30.8791 31.0576 33.7178 28.195C36.5566 25.3324 38.8037 21.9387 40.3308 18.2076C40.9748 16.6344 41.4854 15.0142 41.8594 13.3641C41.8884 13.5448 41.9032 13.7282 41.9034 13.9126ZM41.268 11.9084C39.9496 14.6342 38.1649 17.1918 35.9135 19.4621C26.177 29.2805 10.9946 30.4152 0 22.8258V13.9126C0.00074381 13.3027 0.161211 12.7036 0.465429 12.175C0.769647 11.6464 1.20701 11.2067 1.73397 10.8997L18.3186 1.24662C19.1177 0.781366 20.0259 0.536255 20.9506 0.536255C21.8753 0.536255 22.7835 0.781366 23.5827 1.24662L40.1695 10.8997C40.6051 11.1535 40.9795 11.498 41.268 11.9084Z" fill="#23384D"/>
<rect width="23.1964" height="6.08964" transform="matrix(0.866025 -0.5 0.866025 0.5 8.45117 15.755)" fill="#3C6085"/>
<rect width="6.1923" height="6.08964" transform="matrix(0.866025 0.5 -2.20305e-08 1 8.04395 16.0881)" fill="#3C6085"/>
</svg>
