<svg width="289" height="80" viewBox="0 0 289 80" fill="none" xmlns="http://www.w3.org/2000/svg">
<path d="M130.197 10.9727V37.8965H126.656V17.8204L117.707 37.8965H115.217L106.23 17.7815V37.8965H102.689V10.9727H106.502L116.462 33.2276L126.423 10.9727H130.197ZM134.878 27.1581C134.878 24.9793 135.319 23.0728 136.201 21.4387C137.083 19.7787 138.289 18.4948 139.819 17.5869C141.376 16.6791 143.101 16.2252 144.994 16.2252C146.862 16.2252 148.483 16.6272 149.858 17.4313C151.232 18.2354 152.257 19.247 152.931 20.4661V16.5753H156.511V37.8965H152.931V33.9279C152.231 35.173 151.18 36.2105 149.78 37.0405C148.405 37.8446 146.797 38.2466 144.955 38.2466C143.062 38.2466 141.35 37.7798 139.819 36.846C138.289 35.9122 137.083 34.6023 136.201 32.9164C135.319 31.2304 134.878 29.311 134.878 27.1581ZM152.931 27.197C152.931 25.5888 152.607 24.1882 151.959 22.995C151.31 21.8019 150.428 20.894 149.313 20.2715C148.223 19.6231 147.017 19.2988 145.694 19.2988C144.372 19.2988 143.165 19.6101 142.076 20.2326C140.987 20.8551 140.118 21.763 139.469 22.9561C138.821 24.1493 138.497 25.5499 138.497 27.1581C138.497 28.7922 138.821 30.2188 139.469 31.4379C140.118 32.631 140.987 33.5518 142.076 34.2003C143.165 34.8228 144.372 35.1341 145.694 35.1341C147.017 35.1341 148.223 34.8228 149.313 34.2003C150.428 33.5518 151.31 32.631 151.959 31.4379C152.607 30.2188 152.931 28.8052 152.931 27.197ZM166.034 20.0381C166.657 18.819 167.539 17.8722 168.68 17.1978C169.847 16.5235 171.261 16.1863 172.921 16.1863V19.8435H171.987C168.019 19.8435 166.034 21.9964 166.034 26.3021V37.8965H162.494V16.5753H166.034V20.0381ZM178.837 13.1126C178.162 13.1126 177.592 12.8791 177.125 12.4123C176.658 11.9454 176.424 11.3747 176.424 10.7003C176.424 10.0259 176.658 9.45531 177.125 8.98842C177.592 8.52154 178.162 8.28809 178.837 8.28809C179.485 8.28809 180.03 8.52154 180.471 8.98842C180.938 9.45531 181.171 10.0259 181.171 10.7003C181.171 11.3747 180.938 11.9454 180.471 12.4123C180.03 12.8791 179.485 13.1126 178.837 13.1126ZM180.549 16.5753V37.8965H177.008V16.5753H180.549ZM185.26 27.1581C185.26 24.9793 185.701 23.0728 186.583 21.4387C187.465 19.7787 188.671 18.4948 190.201 17.5869C191.758 16.6791 193.482 16.2252 195.376 16.2252C197.243 16.2252 198.865 16.6272 200.239 17.4313C201.614 18.2354 202.639 19.247 203.313 20.4661V16.5753H206.892V37.8965H203.313V33.9279C202.613 35.173 201.562 36.2105 200.162 37.0405C198.787 37.8446 197.179 38.2466 195.337 38.2466C193.444 38.2466 191.732 37.7798 190.201 36.846C188.671 35.9122 187.465 34.6023 186.583 32.9164C185.701 31.2304 185.26 29.311 185.26 27.1581ZM203.313 27.197C203.313 25.5888 202.989 24.1882 202.34 22.995C201.692 21.8019 200.81 20.894 199.695 20.2715C198.605 19.6231 197.399 19.2988 196.076 19.2988C194.753 19.2988 193.547 19.6101 192.458 20.2326C191.368 20.8551 190.5 21.763 189.851 22.9561C189.203 24.1493 188.878 25.5499 188.878 27.1581C188.878 28.7922 189.203 30.2188 189.851 31.4379C190.5 32.631 191.368 33.5518 192.458 34.2003C193.547 34.8228 194.753 35.1341 196.076 35.1341C197.399 35.1341 198.605 34.8228 199.695 34.2003C200.81 33.5518 201.692 32.631 202.34 31.4379C202.989 30.2188 203.313 28.8052 203.313 27.197ZM133.893 42.4669V69.8965H126.267V54.7616L121.092 69.8965H114.712L109.498 54.6449V69.8965H101.872V42.4669H111.093L117.98 60.2864L124.711 42.4669H133.893ZM159.088 58.7301C159.088 59.3267 159.049 59.9233 158.971 60.5198H144.537C144.614 61.713 144.939 62.6079 145.509 63.2044C146.106 63.7751 146.858 64.0604 147.766 64.0604C149.037 64.0604 149.945 63.4898 150.489 62.3485H158.621C158.284 63.8529 157.622 65.2017 156.637 66.3948C155.677 67.5621 154.458 68.4829 152.98 69.1572C151.501 69.8316 149.867 70.1688 148.077 70.1688C145.924 70.1688 144.005 69.7149 142.319 68.8071C140.659 67.8992 139.349 66.6023 138.389 64.9164C137.456 63.2304 136.989 61.2461 136.989 58.9636C136.989 56.681 137.456 54.7097 138.389 53.0497C139.323 51.3637 140.62 50.0668 142.28 49.1589C143.966 48.2511 145.898 47.7972 148.077 47.7972C150.23 47.7972 152.137 48.2381 153.797 49.12C155.457 50.0019 156.754 51.2729 157.687 52.9329C158.621 54.567 159.088 56.4994 159.088 58.7301ZM151.307 56.8237C151.307 55.8899 150.995 55.1636 150.373 54.6449C149.75 54.1002 148.972 53.8278 148.038 53.8278C147.105 53.8278 146.339 54.0872 145.743 54.6059C145.146 55.0988 144.757 55.838 144.576 56.8237H151.307ZM177.282 48.5753V53.0497H186.036V58.8468H177.282V63.7881H187.203V69.8965H169.656V42.4669H187.203V48.5753H177.282ZM205.25 47.875C207.766 47.875 209.763 48.718 211.242 50.404C212.72 52.064 213.46 54.3206 213.46 57.1738V69.8965H205.834V58.1854C205.834 56.9404 205.51 55.9677 204.861 55.2674C204.213 54.5411 203.344 54.178 202.254 54.178C201.113 54.178 200.218 54.5411 199.57 55.2674C198.921 55.9677 198.597 56.9404 198.597 58.1854V69.8965H190.971V48.0695H198.597V51.1821C199.271 50.1965 200.179 49.4053 201.321 48.8088C202.462 48.1863 203.772 47.875 205.25 47.875ZM228.11 62.6986L232.195 48.0695H240.327L232.818 69.8965H223.324L215.815 48.0695H223.947L228.11 62.6986ZM246.763 46.0464C245.414 46.0464 244.324 45.6832 243.494 44.957C242.69 44.2048 242.288 43.271 242.288 42.1556C242.288 41.0144 242.69 40.0676 243.494 39.3154C244.324 38.5632 245.414 38.1871 246.763 38.1871C248.085 38.1871 249.149 38.5632 249.953 39.3154C250.783 40.0676 251.198 41.0144 251.198 42.1556C251.198 43.271 250.783 44.2048 249.953 44.957C249.149 45.6832 248.085 46.0464 246.763 46.0464ZM250.537 48.0695V69.8965H242.911V48.0695H250.537ZM253.634 58.9636C253.634 56.7069 254.036 54.7356 254.84 53.0497C255.67 51.3637 256.786 50.0668 258.186 49.1589C259.613 48.2511 261.195 47.7972 262.933 47.7972C264.438 47.7972 265.734 48.0955 266.824 48.6921C267.913 49.2886 268.756 50.0927 269.353 51.1043V48.0695H276.979V69.8965H269.353V66.8617C268.756 67.8733 267.9 68.6774 266.785 69.274C265.696 69.8705 264.412 70.1688 262.933 70.1688C261.195 70.1688 259.613 69.7149 258.186 68.8071C256.786 67.8992 255.67 66.6023 254.84 64.9164C254.036 63.2044 253.634 61.2202 253.634 58.9636ZM269.353 58.9636C269.353 57.5629 268.964 56.4605 268.186 55.6564C267.433 54.8524 266.5 54.4503 265.384 54.4503C264.243 54.4503 263.296 54.8524 262.544 55.6564C261.792 56.4346 261.416 57.537 261.416 58.9636C261.416 60.3642 261.792 61.4796 262.544 62.3096C263.296 63.1137 264.243 63.5157 265.384 63.5157C266.5 63.5157 267.433 63.1137 268.186 62.3096C268.964 61.5055 269.353 60.3902 269.353 58.9636Z" fill="#23384D"/>
<path d="M72.5306 16.4167C72.4724 16.4265 72.4303 16.4606 72.4042 16.519C72.3782 16.5773 72.3721 16.6472 72.3859 16.7287L72.4806 17.2876C72.4945 17.3691 72.5233 17.4331 72.5671 17.4796C72.6109 17.526 72.6619 17.5443 72.7201 17.5345L75.1272 18.0607L76.4174 20.1599C76.4272 20.2181 76.4613 20.2602 76.5196 20.2863C76.578 20.3123 76.6479 20.3184 76.7294 20.3046L77.2883 20.2099C77.3698 20.196 77.4338 20.1672 77.4803 20.1234C77.5267 20.0796 77.545 20.0286 77.5352 19.9704L77.1976 17.9793L81.32 12.1956L84.1798 18.4666C84.2055 18.618 84.283 18.7396 84.4124 18.8315C84.5418 18.9233 84.6821 18.9564 84.8335 18.9308L85.9513 18.7413C86.1143 18.7136 86.2388 18.6356 86.3249 18.5072C86.4109 18.3789 86.4411 18.239 86.4155 18.0876L84.6271 7.53831L87.2409 3.87898C87.4807 3.52689 87.7065 2.86274 87.9183 1.88652C88.1301 0.910304 88.1096 0.329837 87.8567 0.145121C87.6038 -0.0395939 87.0485 0.129408 86.1908 0.652128C85.3331 1.17485 84.7844 1.61225 84.5446 1.96434L81.9308 5.62367L71.3815 7.41203C71.2301 7.4377 71.1085 7.51521 71.0166 7.64458C70.9247 7.77395 70.8916 7.91432 70.9173 8.06569L71.1068 9.18349C71.1325 9.33486 71.21 9.45648 71.3393 9.54834C71.4687 9.64021 71.6091 9.67331 71.7605 9.64765L78.6237 10.2809L74.4868 16.0851L72.5306 16.4167Z" fill="#E92453"/>
<path fill-rule="evenodd" clip-rule="evenodd" d="M72.9961 24.2358V56.6962C72.9959 57.7589 72.7172 58.803 72.1879 59.7245C71.6586 60.6461 70.8971 61.4128 69.9793 61.9485L41.085 78.7642C39.6925 79.5736 38.1106 79.9999 36.5 79.9999C34.8893 79.9999 33.3074 79.5736 31.9149 78.7642L3.02059 61.9485C2.96731 61.9175 2.91455 61.8856 2.86233 61.8531C8.67448 63.9176 14.8063 64.9633 20.9868 64.9375C28.0097 64.9081 34.9579 63.4957 41.4349 60.781C47.9119 58.0663 53.7908 54.1025 58.7359 49.1158C63.681 44.1292 67.5955 38.2173 70.2558 31.7178C71.3779 28.9766 72.2676 26.1534 72.9191 23.2782C72.9698 23.5938 72.9957 23.9139 72.9961 24.2358ZM71.8884 20.7432C69.5916 25.4921 66.4825 29.9479 62.5602 33.9031C45.5995 51.0064 19.1526 52.9833 0 39.7637V24.2358C0.00129572 23.1733 0.280831 22.1298 0.810781 21.2089C1.34073 20.2881 2.10262 19.5221 3.02059 18.9873L31.9111 2.17154C33.3032 1.36107 34.8853 0.934082 36.4962 0.934082C38.107 0.934082 39.6891 1.36107 41.0812 2.17154L69.9755 18.9873C70.7339 19.4292 71.3858 20.0288 71.8884 20.7432Z" fill="#E92453"/>
<rect width="40.4083" height="10.6082" transform="matrix(0.866025 -0.5 0.866025 0.5 14.7207 27.4453)" fill="#23384D"/>
<rect width="10.787" height="10.6082" transform="matrix(0.866025 0.5 -2.20305e-08 1 14.0117 28.0254)" fill="#23384D"/>
</svg>
 