<svg width="248" height="276" viewBox="0 0 248 276" fill="none" xmlns="http://www.w3.org/2000/svg">
<path d="M213.679 136.883L197.335 147.294L184.503 155.406H37.0469L66.1022 136.883H76.0294C74.9398 145.357 74.3345 152.137 74.2135 154.558H105.69C107.264 149.231 109.08 142.936 110.654 136.883H213.679Z" fill="#23384D"/>
<path d="M29.6606 60.6133L0 79.015L37.0455 155.406L66.7062 137.005L29.6606 60.6133Z" fill="#E92453"/>
<path d="M143.823 30.9531C119.248 35.3114 114.042 57.224 96.6086 60.6138C74.9381 64.851 52.9045 61.098 39.7086 71.7517C26.5126 82.4053 33.5343 85.1898 33.5343 85.1898C33.5343 85.1898 33.0501 88.9428 37.8926 90.0323C37.8926 90.0323 37.4084 95.3591 41.8877 94.8749C46.3671 94.3906 49.0305 85.4319 53.8731 85.553C54.7205 85.553 55.5679 85.674 56.2943 85.7951C56.1733 87.49 55.689 89.3059 54.4784 90.2744C51.936 92.2114 49.2726 93.301 50.4833 95.6012C51.6939 97.9015 54.9626 96.2065 60.4105 93.5431C64.4056 91.6061 66.7058 87.3689 67.6743 83.9791C73.2433 82.5264 88.6184 89.427 110.894 79.7419C126.753 72.8413 137.407 66.9091 142.008 57.224C148.303 44.028 143.823 30.9531 143.823 30.9531Z" fill="white"/>
<path d="M52.0564 97.7801C50.9668 97.7801 50.1193 97.2959 49.514 96.2063C48.3034 93.664 50.4825 92.0901 52.4195 90.7584C52.9038 90.3952 53.3881 90.1531 53.8723 89.7899C54.7198 89.1846 55.0829 87.8529 55.204 86.7633C54.7198 86.6423 54.2355 86.6422 53.7512 86.6422C53.7512 86.6422 53.7512 86.6422 53.6302 86.6422C51.5721 86.6422 49.8772 88.8214 48.0612 91.0006C46.2453 93.3008 44.3083 95.601 41.887 95.9642C40.4342 96.0852 39.2236 95.7221 38.3761 94.8746C37.1655 93.664 36.9234 91.848 36.9234 90.8795C33.6547 89.7899 32.6861 87.3687 32.5651 85.7948C31.9598 85.4316 30.9912 84.5842 30.7491 83.1314C30.2649 80.1048 33.0493 76.1097 39.1025 71.1461C47.9402 64.0033 60.6519 63.1559 74.211 62.1874C81.4749 61.7031 88.9808 61.2189 96.4868 59.7661C104.114 58.3134 109.441 52.9865 115.131 47.2965C122.152 40.3958 130.021 32.5268 143.702 30.1055L144.428 29.9844L144.67 30.7108C144.912 31.3161 149.15 44.391 142.733 57.8291C138.012 67.6352 127.963 73.4463 111.135 80.8312C95.2761 87.7318 83.0487 86.2791 74.9374 85.3106C72.153 84.9474 69.8527 84.7052 68.2789 84.9474C67.5525 87.1265 65.4945 92.3322 60.6519 94.5114L59.9255 94.8746C56.5357 96.4485 53.8723 97.7801 52.0564 97.7801ZM53.6302 84.8263H53.7512C54.4776 84.8263 55.3251 84.9473 56.2936 85.0684L57.141 85.1895V86.0369C57.02 88.4582 56.2936 90.2742 54.9619 91.2427C54.4776 91.6059 53.9934 91.969 53.5091 92.3322C51.2089 93.9061 50.7246 94.5114 51.2089 95.4799C51.8142 96.8116 54.3566 95.601 59.1991 93.4218L59.9255 93.0587C64.5259 90.8795 66.3419 85.6737 66.7051 84.0999L66.8261 83.6156L67.3104 83.4946C69.1264 83.0103 71.6687 83.2525 75.0585 83.7367C82.9276 84.7052 94.913 86.0369 110.288 79.3784C126.753 72.2356 136.559 66.5456 141.038 57.2237C146.365 46.2069 143.944 35.1901 143.096 32.2846C130.506 34.827 123.242 41.9697 116.341 48.8704C110.409 54.6814 104.961 60.2503 96.7289 61.8241C89.1019 63.2769 81.5959 63.7612 74.3321 64.2454C61.1361 65.0929 48.6666 65.9403 40.3132 72.7199C33.1704 78.531 32.444 81.6786 32.5651 83.0103C32.8072 84.221 33.7757 84.5842 33.7757 84.5842L34.5021 84.8263L34.381 85.5527C34.381 85.7948 34.1389 88.5793 38.0129 89.4268L38.7393 89.5478L38.6183 90.2741C38.6183 90.8795 38.6183 92.6955 39.5868 93.664C40.071 94.1482 40.6764 94.2693 41.6449 94.2693C43.3398 94.0272 45.0347 91.9691 46.6085 90.0321C48.6666 87.3687 50.7246 84.8263 53.6302 84.8263Z" fill="#23384D"/>
<path d="M143.822 30.9531C119.246 35.3114 114.04 57.224 96.6072 60.6138C88.2538 62.1876 79.9004 62.6719 71.9102 63.2772C72.7576 70.2989 73.9682 83.1317 74.8157 90.1534C82.6848 91.1219 99.3916 91.2429 115.493 84.2212C131.352 77.3206 137.285 67.1513 141.885 57.3451C148.301 44.0281 143.822 30.9531 143.822 30.9531Z" fill="#23384D"/>
<path d="M48.0632 78.5318C43.5838 79.6214 41.4047 83.7376 39.5887 87.6116C39.2255 88.338 40.3151 88.9433 40.6783 88.2169C42.3732 84.7061 44.3102 80.711 48.4264 79.7425C49.1528 79.5003 48.7896 78.2897 48.0632 78.5318Z" fill="#23384D"/>
<path d="M41.8857 74.6571C38.6169 76.8363 35.2272 79.3786 34.864 83.6158C34.7429 84.3422 35.9535 84.3422 36.0746 83.6158C36.4378 79.8628 39.5855 77.5627 42.491 75.6256C43.0963 75.2624 42.491 74.1729 41.8857 74.6571Z" fill="#23384D"/>
<path d="M143.827 30.9528C151.575 28.5315 174.214 22.5994 193.463 54.8023C212.834 87.0053 200.606 114.729 200.606 114.729L143.827 90.153C143.827 90.153 140.801 79.1362 135.595 58.1921C134.384 53.5917 131.479 34.8268 143.827 30.9528Z" fill="#23384D"/>
<path d="M136.199 61.582C135.835 61.582 135.351 61.3399 135.351 60.8556C134.14 55.0446 133.656 47.0544 133.535 46.8122C133.535 46.328 133.898 45.8438 134.383 45.8438C134.867 45.8438 135.351 46.2069 135.351 46.6911C135.351 46.8122 135.835 54.8024 137.046 60.4924C137.167 60.9767 136.804 61.461 136.32 61.582H136.199Z" fill="white"/>
<path d="M202.417 135.915H156.655L155.082 126.473L116.22 113.398V114.608C116.22 116.061 113.557 125.988 110.53 136.763C108.835 142.816 107.019 149.111 105.566 154.438H74.0898C74.332 152.017 74.9373 145.237 75.9058 136.763C76.6322 130.589 77.7218 123.446 78.9324 116.424C81.8379 99.7174 85.712 83.9791 99.3922 75.1414C104.114 72.1148 109.683 70.6621 115.978 70.6621C143.58 70.6621 179.294 98.87 196.364 112.55C197.575 113.519 198.665 114.366 199.633 115.092L202.417 135.915Z" fill="white"/>
<path d="M116.099 71.6304C143.338 71.6304 178.931 99.7172 195.88 113.276C196.969 114.124 197.938 114.971 198.906 115.577L201.328 136.763H157.745L156.05 126.714L155.929 125.625L154.839 125.262L117.673 112.792L115.372 112.066V114.487C115.372 116.787 109.077 139.063 104.961 153.47H75.1792C75.6634 148.022 77.2373 131.92 79.9007 116.545C82.8062 100.08 86.5592 84.5842 99.9973 75.8676C104.477 73.0832 109.924 71.6304 116.099 71.6304ZM116.099 69.8145C109.924 69.8145 104.113 71.2672 99.0287 74.5359C84.9853 83.4946 81.1113 99.4751 78.0847 116.424C74.6949 135.673 73.1211 155.528 73.1211 155.528H106.172C106.172 155.528 117.067 117.998 117.067 114.729L154.234 127.199L155.808 136.884H203.386L200.48 114.729C185.589 102.986 146.123 69.8145 116.099 69.8145Z" fill="#23384D"/>
<path d="M153.87 124.899C153.507 124.899 153.144 124.657 153.023 124.173L150.723 115.093L146.849 109.282C146.606 108.919 146.728 108.313 147.091 108.071C147.454 107.829 148.059 107.95 148.301 108.313L152.418 114.488L154.718 123.81C154.839 124.294 154.597 124.778 154.112 124.899C154.112 124.899 153.991 124.899 153.87 124.899Z" fill="#23384D"/>
<path d="M184.503 155.408H37.0469V275.14H184.503V155.408Z" fill="#E92453"/>
<path d="M213.68 256.617L184.504 275.14V155.408L213.68 136.885V256.617Z" fill="#E92453"/>
<path d="M184.504 269.45C184.019 269.45 183.535 269.087 183.535 268.482V163.761C183.535 163.277 183.898 162.793 184.504 162.793C185.109 162.793 185.472 163.156 185.472 163.761V268.482C185.351 269.087 184.988 269.45 184.504 269.45Z" fill="white"/>
<path d="M81.9615 155.408V155.65C81.9615 187.006 61.986 202.018 36.9258 202.865V155.529H81.9615V155.408Z" fill="#23384D"/>
<path d="M69.7357 196.568L59.3242 204.801L72.157 210.491L69.7357 196.568Z" fill="#23384D"/>
<path d="M166.947 181.92H94.6719V189.184H166.947V181.92Z" fill="white"/>
<path d="M138.137 202.743H125.546C124.093 202.743 123.004 201.532 123.004 200.201C123.004 198.748 124.215 197.658 125.546 197.658H138.137C139.59 197.658 140.679 198.869 140.679 200.201C140.679 201.653 139.59 202.743 138.137 202.743Z" fill="#23384D"/>
<path d="M151.936 202.743H147.578C146.125 202.743 145.035 201.532 145.035 200.201C145.035 198.748 146.246 197.658 147.578 197.658H151.815C153.268 197.658 154.357 198.869 154.357 200.201C154.478 201.653 153.389 202.743 151.936 202.743Z" fill="#23384D"/>
<path d="M164.283 202.743H160.046C158.593 202.743 157.504 201.532 157.504 200.201C157.504 198.748 158.715 197.658 160.046 197.658H164.283C165.736 197.658 166.826 198.869 166.826 200.201C166.947 201.653 165.736 202.743 164.283 202.743Z" fill="#23384D"/>
<path d="M122.034 229.982H37.8945V274.171H122.034V229.982Z" fill="white"/>
<path d="M121.065 230.951V273.323H38.7417V230.951H121.065ZM122.881 229.135H36.9258V275.139H122.881V229.135Z" fill="#23384D"/>
<path d="M95.0378 273.323L38.9853 232.403C38.6221 232.161 38.501 231.556 38.7432 231.192C38.9853 230.829 39.5906 230.708 39.9538 230.95L96.0063 271.87C96.3695 272.112 96.4906 272.717 96.2485 273.08C96.0063 273.565 95.401 273.686 95.0378 273.323Z" fill="#23384D"/>
<path d="M63.5614 273.203C63.3193 272.84 63.3192 272.235 63.8035 271.993L119.372 231.073C119.735 230.831 120.34 230.831 120.582 231.315C120.825 231.678 120.825 232.284 120.34 232.526L64.772 273.445C64.4088 273.688 63.8035 273.567 63.5614 273.203Z" fill="#23384D"/>
<path d="M224.936 172.961H220.215V224.413H224.936V172.961Z" fill="#23384D"/>
<path d="M197.333 147.296L184.5 155.408H138.859C152.176 145.844 171.547 144.149 191.401 146.086C194.065 146.449 195.88 146.812 197.333 147.296Z" fill="white"/>
<path d="M29.7814 125.02H29.6603L15.0116 122.357C14.5273 122.236 14.1641 121.752 14.2852 121.267C14.4062 120.783 14.8905 120.42 15.3748 120.541L30.0235 123.204C30.5077 123.326 30.8709 123.81 30.7499 124.294C30.5077 124.778 30.1445 125.02 29.7814 125.02Z" fill="#23384D"/>
<path d="M21.0662 131.074H20.9451C20.4609 130.953 20.0977 130.469 20.2188 129.985L22.8822 115.336C23.0032 114.852 23.4875 114.488 23.9717 114.609C24.456 114.73 24.8192 115.215 24.6981 115.699L22.0347 130.348C21.9137 130.711 21.5505 131.074 21.0662 131.074Z" fill="#23384D"/>
<path d="M135.228 145.36C140.911 145.36 145.518 140.753 145.518 135.07C145.518 129.386 140.911 124.779 135.228 124.779C129.545 124.779 124.938 129.386 124.938 135.07C124.938 140.753 129.545 145.36 135.228 145.36Z" fill="#E92453"/>
<path d="M53.8745 114.852L51.9375 136.885L70.2181 128.653L53.8745 114.852Z" fill="white"/>
<path d="M50.9688 138.337L53.1479 113.035L71.7917 128.894L50.9688 138.337ZM54.7217 116.667L53.1479 135.432L68.6441 128.41L54.7217 116.667Z" fill="#23384D"/>
<path d="M224.939 90.0332L195.642 108.677L184.504 155.65L213.68 137.006L224.939 90.0332Z" fill="#E92453"/>
<path d="M187.774 154.198C187.532 154.198 187.169 154.077 187.048 153.835C186.806 153.472 186.927 152.867 187.29 152.624L209.808 138.339C210.292 138.097 210.776 138.218 211.018 138.581C211.261 138.944 211.14 139.55 210.776 139.792L188.258 154.077C188.137 154.198 188.016 154.198 187.774 154.198Z" fill="white"/>
<path d="M157.988 27.684C192.855 26.2312 225.3 36.1585 236.559 50.2019C248.907 65.577 242.612 95.8429 227.479 103.712C223.726 105.649 219.489 106.133 217.188 107.223C210.167 110.492 208.593 110.128 206.293 108.312C206.293 108.312 200.482 111.944 198.787 107.465C198.787 107.465 196.608 113.155 192.491 111.702C188.496 110.249 193.339 98.9906 204.356 93.1795C215.494 87.3684 221.063 72.8408 214.888 64.1242C208.593 55.4076 170.458 44.754 170.458 44.754L157.988 27.684Z" fill="white"/>
<path d="M193.944 113.035C193.46 113.035 192.975 112.914 192.37 112.793C191.159 112.429 190.433 111.34 190.312 109.887C189.949 105.287 195.518 97.0542 204.113 92.5749C210.045 89.4272 214.646 83.4951 216.22 77.0787C217.309 72.4783 216.583 68.12 214.283 64.8512C208.229 56.4978 170.821 45.9653 170.336 45.8443L170.094 45.7232L156.293 26.9583L157.988 26.8372C192.249 25.3845 225.541 35.0695 237.406 49.7183C243.459 57.3453 245.638 69.0885 243.096 81.1949C240.796 92.0906 235.227 100.807 228.084 104.56C225.784 105.771 223.362 106.376 221.304 106.981C219.851 107.345 218.641 107.708 217.793 108.071C211.135 111.219 208.956 111.219 206.413 109.403C205.324 110.008 202.781 111.098 200.723 110.371C200.118 110.129 199.513 109.766 199.15 109.282C197.939 111.219 196.244 113.035 193.944 113.035ZM171.184 44.0283C175.058 45.1179 209.682 55.1661 215.735 63.6406C218.399 67.2725 219.125 72.1151 217.914 77.3209C216.341 84.2215 211.256 90.6379 204.84 94.0277C196.486 98.386 191.765 106.013 192.007 109.645C192.128 110.734 192.612 110.856 192.854 110.977C196.002 112.066 197.939 107.466 197.939 107.224L198.786 105.044L199.634 107.224C199.876 108.071 200.36 108.555 201.087 108.676C202.66 109.161 205.082 108.071 205.808 107.587L206.413 107.224L206.898 107.587C208.714 109.04 209.924 109.645 216.825 106.376C217.914 105.892 219.125 105.529 220.578 105.166C222.636 104.56 224.936 103.955 226.994 102.865C233.653 99.3545 238.98 91.1221 241.159 80.8317C243.58 69.2095 241.643 58.0717 235.832 50.8079C224.573 36.7645 192.733 27.5636 159.683 28.5321L171.184 44.0283Z" fill="#23384D"/>
<path d="M215.009 64.2457C218.399 68.8461 218.278 75.2626 215.857 80.9526C223.726 83.8581 235.59 86.6425 243.217 90.1534C249.149 77.6838 249.27 59.4032 239.948 49.597C221.789 30.8321 192.976 26.2317 158.109 27.6845L174.574 56.1345C174.453 56.1345 208.835 55.5291 215.009 64.2457Z" fill="#23384D"/>
<path d="M205.931 97.2965C202.783 99.4756 200.241 102.26 198.546 105.65C198.183 106.376 199.272 106.982 199.635 106.255C201.33 102.986 203.63 100.323 206.657 98.386C207.262 97.9018 206.657 96.9333 205.931 97.2965Z" fill="#23384D"/>
<path d="M212.829 99.4748C210.287 101.291 208.35 103.591 206.897 106.375C206.534 107.102 207.624 107.707 207.987 106.981C209.319 104.438 211.135 102.259 213.435 100.564C214.04 100.08 213.435 98.9906 212.829 99.4748Z" fill="#23384D"/>
<path d="M191.522 58.073C191.401 58.073 191.401 58.073 191.279 58.073L186.316 56.4992C185.832 56.3781 185.589 55.8939 185.711 55.4096C185.832 54.9254 186.316 54.6832 186.8 54.8043L191.764 56.3781C192.248 56.4992 192.49 56.9835 192.369 57.4677C192.248 57.8309 191.885 58.073 191.522 58.073Z" fill="#23384D"/>
<path d="M24.3339 211.337C24.0918 211.337 23.8496 211.216 23.7286 211.095L4.47942 191.846C4.11623 191.483 4.11623 190.878 4.47942 190.515C4.84262 190.151 5.44792 190.151 5.81112 190.515L25.0603 209.764C25.4235 210.127 25.4235 210.732 25.0603 211.095C24.8181 211.216 24.576 211.337 24.3339 211.337Z" fill="#23384D"/>
<path d="M5.08474 211.337C4.84262 211.337 4.60049 211.216 4.47942 211.095C4.11623 210.732 4.11623 210.127 4.47942 209.764L23.7286 190.515C24.0918 190.151 24.6971 190.151 25.0603 190.515C25.4235 190.878 25.4235 191.483 25.0603 191.846L5.81112 211.095C5.56899 211.216 5.32687 211.337 5.08474 211.337Z" fill="#23384D"/>
<path d="M24.3348 227.923H5.0857C4.60145 227.923 4.11719 227.56 4.11719 226.955C4.11719 226.35 4.48038 225.986 5.0857 225.986H24.3348C24.8191 225.986 25.3034 226.35 25.3034 226.955C25.3034 227.56 24.8191 227.923 24.3348 227.923Z" fill="#23384D"/>
<path d="M162.828 14.2456C162.465 13.3982 161.981 12.5508 161.376 11.7033C161.376 11.7033 161.376 11.7033 161.376 11.5822C155.807 3.59199 145.637 1.17072 138.495 6.13433C135.105 8.55561 133.168 12.3086 132.684 16.4248C132.078 20.9041 133.773 25.5046 135.589 29.4997C139.705 38.7006 149.027 42.8167 158.47 34.9476C160.528 33.2527 162.102 31.0735 163.192 28.5311C166.824 27.8048 169.003 25.1414 169.366 21.8726C169.729 18.1197 166.945 13.8824 162.828 14.2456Z" fill="white"/>
<path d="M148.301 40.0322C147.333 40.0322 146.364 39.9111 145.396 39.669C140.916 38.5794 136.921 35.0686 134.621 29.8628C132.926 26.1099 130.989 21.1462 131.716 16.3037C132.321 11.5822 134.5 7.70815 137.89 5.40793C141.28 3.10772 145.517 2.13921 149.754 2.98666C154.597 3.83411 159.076 6.86072 162.103 11.0979C162.587 11.8243 163.071 12.5507 163.434 13.3981C165.129 13.3981 166.703 14.1245 168.035 15.4562C169.73 17.1511 170.577 19.6935 170.214 22.1147C169.73 25.8677 167.308 28.6522 163.797 29.4997C162.708 31.9209 161.013 34.1 158.955 35.7949C155.444 38.5794 151.812 40.0322 148.301 40.0322ZM146.727 4.43944C143.943 4.43944 141.158 5.28689 138.858 6.86072C135.832 8.9188 134.016 12.3086 133.41 16.5458C132.805 20.9041 134.5 25.3834 136.195 29.1364C138.253 33.7368 141.764 37.0056 145.759 37.9741C149.633 38.8216 153.749 37.6109 157.744 34.3422C159.681 32.7684 161.255 30.7103 162.224 28.289L162.466 27.8047L162.95 27.6837C165.977 27.0784 168.035 24.8992 168.398 21.7516C168.64 19.9356 167.914 17.8775 166.703 16.5458C165.977 15.8194 164.766 14.972 162.95 15.093H162.345L162.103 14.4877C161.618 13.5192 161.255 12.7928 160.771 12.0664C157.986 8.07134 153.991 5.40792 149.512 4.56047C148.543 4.56047 147.575 4.43944 146.727 4.43944Z" fill="#23384D"/>
<path d="M146.766 23.0885C147.126 22.5251 146.962 21.7765 146.398 21.4164C145.835 21.0564 145.086 21.2212 144.726 21.7846C144.366 22.348 144.531 23.0966 145.094 23.4566C145.658 23.8167 146.406 23.6518 146.766 23.0885Z" fill="#23384D"/>
<path d="M141.402 31.6788C140.192 29.2575 139.344 26.7152 138.739 24.0518C138.618 23.3254 139.829 23.0833 139.95 23.8097C140.434 26.352 141.281 28.7733 142.492 31.1945C142.855 31.7999 141.766 32.4052 141.402 31.6788Z" fill="#23384D"/>
<path d="M159.2 22.9641C159.442 20.1797 161.621 17.7584 164.527 17.3952C165.253 17.2742 165.616 18.4848 164.769 18.6059C162.469 18.848 160.653 20.6639 160.411 22.9641C160.289 23.8116 159.079 23.8116 159.2 22.9641Z" fill="#23384D"/>
<path d="M157.988 17.5155C157.141 20.542 153.267 16.4259 145.882 14.9731C142.613 14.3678 128.691 19.2103 126.512 14.4889C123.243 7.58822 132.444 3.59308 138.376 6.13542C137.77 3.59308 140.676 -0.159866 144.55 1.77715C154.961 -3.42859 164.404 3.35101 163.194 14.9731C163.194 14.9731 158.957 16.4259 157.988 17.5155Z" fill="#23384D"/>
<path d="M120.458 154.196C120.216 154.196 119.853 154.075 119.732 153.833L114.647 146.69C114.405 146.327 114.405 145.721 114.889 145.479C115.253 145.237 115.858 145.237 116.1 145.721L121.185 152.864C121.427 153.227 121.427 153.833 120.943 154.075C120.822 154.196 120.701 154.196 120.458 154.196Z" fill="white"/>
<path d="M126.996 154.197C126.511 154.197 126.148 153.834 126.148 153.471L124.938 146.328C124.816 145.844 125.18 145.359 125.664 145.238C126.148 145.117 126.632 145.48 126.753 145.965L127.964 153.107C128.085 153.592 127.722 154.076 127.238 154.197C126.996 154.197 126.996 154.197 126.996 154.197Z" fill="white"/>
</svg>
