<svg width="366" height="290" viewBox="0 0 366 290" fill="none" xmlns="http://www.w3.org/2000/svg">
<path d="M346.909 226.58L365.761 249.854L323.285 289.071C323.285 289.071 318.281 283.602 321.54 278.016C323.169 275.107 324.682 269.986 325.031 264.401C325.031 264.051 325.031 263.586 325.147 263.237C325.264 261.84 325.264 260.444 325.147 259.048C325.147 258.698 325.031 258.233 325.031 257.884C324.682 254.742 323.867 251.716 322.471 249.156L346.909 226.58Z" fill="#030047"/>
<path d="M336.087 257.535C332.479 258 328.755 258.582 325.148 259.164C325.148 258.815 325.031 258.349 325.031 258C328.639 257.535 332.246 256.953 335.854 256.487C336.552 256.371 336.785 257.418 336.087 257.535Z" fill="white"/>
<path d="M335.04 264.052C331.782 264.168 328.407 264.284 325.148 264.401C325.148 264.052 325.148 263.586 325.265 263.237C328.523 263.121 331.898 263.004 335.156 262.888C335.855 262.888 335.738 264.052 335.04 264.052Z" fill="white"/>
<path d="M265.565 255.673L263.586 285.58H205.75C205.75 285.58 205.75 278.249 211.918 276.27C215.06 275.339 219.715 272.43 223.788 268.706C224.02 268.474 224.369 268.241 224.602 267.892C225.533 266.961 226.58 265.913 227.395 264.866C227.628 264.517 227.861 264.284 228.093 263.935C229.955 261.375 231.468 258.582 232.05 255.789H265.565V255.673Z" fill="#030047"/>
<path d="M327.357 185.85C321.422 164.903 311.763 106.369 311.763 106.369L278.364 114.049C277.434 110.674 276.735 108.58 276.735 108.58L242.988 121.497C242.988 148.728 227.859 257.186 227.859 257.186L271.615 263.353C271.615 263.353 276.619 215.99 279.877 179.799C292.213 221.925 313.043 252.647 321.422 257.884L353.308 231.7C353.308 231.584 333.175 206.797 327.357 185.85Z" fill="white"/>
<path d="M272.43 264.285L226.812 257.884L226.929 257.07C227.045 256.022 242.057 148.263 242.057 121.497V120.915L277.201 107.416L277.434 108.347C277.434 108.347 278.016 110.209 278.83 113.118L312.345 105.438L312.462 106.369C312.578 106.951 322.237 165.136 328.055 185.85C333.874 206.332 353.773 231.002 353.89 231.235L354.472 231.933L321.422 259.048L320.84 258.699C312.811 253.811 292.911 225.068 280.227 184.454C276.968 219.598 272.43 263.121 272.314 263.586L272.43 264.285ZM228.791 256.371L270.801 262.19C271.499 255.44 275.921 212.616 278.947 179.566L279.412 175.028L280.692 179.45C292.911 220.995 312.927 250.786 321.306 256.604L352.028 231.352C348.77 227.162 331.663 204.935 326.31 185.967C320.84 166.649 312.113 114.748 310.833 107.3L277.55 114.864L277.318 114.049C276.736 111.955 276.27 110.442 276.038 109.511L243.803 122.079C243.57 148.612 230.187 246.131 228.791 256.371Z" fill="#030047"/>
<path d="M302.572 115.213C302.223 115.213 301.874 114.98 301.757 114.631C301.292 113.583 300.826 112.536 300.361 111.489C300.128 111.023 300.361 110.558 300.826 110.325C301.292 110.092 301.757 110.325 301.99 110.79C302.456 111.838 302.921 112.885 303.386 114.049C303.619 114.514 303.387 114.98 302.921 115.213C302.805 115.096 302.688 115.213 302.572 115.213Z" fill="#030047"/>
<path d="M335.739 227.976C335.39 227.976 335.157 227.86 334.924 227.51C333.761 225.532 332.597 223.321 331.433 220.994C331.2 220.528 331.433 220.063 331.782 219.83C332.248 219.597 332.713 219.83 332.946 220.179C334.11 222.507 335.273 224.601 336.437 226.58C336.67 227.045 336.554 227.511 336.088 227.743C335.972 227.86 335.855 227.976 335.739 227.976ZM328.989 214.826C328.64 214.826 328.291 214.593 328.175 214.361C327.127 212.15 326.197 209.938 325.149 207.611C324.916 207.146 325.149 206.68 325.615 206.447C326.08 206.215 326.546 206.447 326.778 206.913C327.709 209.24 328.757 211.451 329.688 213.662C329.92 214.128 329.688 214.593 329.222 214.826C329.222 214.71 329.106 214.826 328.989 214.826ZM323.287 201.211C322.938 201.211 322.589 200.978 322.473 200.629C321.658 198.418 320.96 196.09 320.145 193.53C320.029 193.065 320.262 192.599 320.727 192.483C321.193 192.366 321.658 192.599 321.774 193.065C322.473 195.508 323.287 197.952 323.985 200.047C324.102 200.512 323.869 200.978 323.52 201.211C323.52 201.094 323.404 201.211 323.287 201.211ZM319.214 187.013C318.865 187.013 318.516 186.781 318.4 186.315C317.818 184.104 317.352 181.66 316.77 179.1C316.654 178.635 317.003 178.169 317.469 178.053C317.934 177.936 318.4 178.286 318.516 178.751C319.098 181.311 319.563 183.755 320.145 185.966C320.262 186.432 319.912 186.897 319.447 187.013C319.331 187.013 319.214 187.013 319.214 187.013ZM316.189 172.467C315.723 172.467 315.374 172.118 315.374 171.769C314.908 169.325 314.443 166.997 314.094 164.554C313.978 164.088 314.327 163.623 314.792 163.506C315.258 163.39 315.723 163.739 315.839 164.205C316.305 166.648 316.654 169.092 317.12 171.42C317.236 171.885 316.887 172.351 316.421 172.467C316.305 172.467 316.305 172.467 316.189 172.467ZM313.628 158.037C313.163 158.037 312.814 157.688 312.814 157.339C312.348 154.895 311.883 152.451 311.534 150.124C311.417 149.658 311.766 149.193 312.232 149.076C312.697 148.96 313.163 149.309 313.279 149.775C313.745 152.218 314.21 154.662 314.559 157.106C314.676 157.571 314.327 158.037 313.861 158.153C313.628 157.921 313.628 158.037 313.628 158.037ZM310.836 143.491C310.486 143.491 310.021 143.258 310.021 142.792C309.439 140.232 308.974 137.905 308.392 135.577C308.275 135.112 308.624 134.646 309.09 134.53C309.555 134.414 310.021 134.763 310.137 135.228C310.719 137.556 311.185 139.883 311.767 142.443C311.883 142.909 311.534 143.374 311.068 143.491C310.952 143.491 310.836 143.491 310.836 143.491ZM307.344 129.177C306.995 129.177 306.646 128.944 306.53 128.595C305.832 126.151 305.133 123.824 304.319 121.613C304.202 121.147 304.435 120.682 304.901 120.449C305.366 120.333 305.832 120.565 306.064 121.031C306.763 123.242 307.577 125.686 308.275 128.13C308.392 128.595 308.159 129.06 307.694 129.177C307.577 129.06 307.461 129.177 307.344 129.177Z" fill="#030047"/>
<path d="M341.672 236.936C341.439 236.936 341.206 236.82 340.973 236.704C340.973 236.704 340.159 235.773 338.762 233.794C338.53 233.445 338.53 232.863 338.995 232.631C339.344 232.398 339.926 232.398 340.159 232.863C341.439 234.725 342.137 235.54 342.253 235.54C342.602 235.889 342.486 236.471 342.137 236.82C342.137 236.82 341.904 236.936 341.672 236.936Z" fill="#030047"/>
<path d="M236.589 271.151C233.563 269.056 230.537 266.961 227.512 264.867C227.744 264.518 227.977 264.285 228.21 263.936C231.236 266.03 234.261 268.125 237.171 270.103C237.752 270.569 237.171 271.5 236.589 271.151Z" fill="white"/>
<path d="M231.353 275.107C228.909 272.896 226.349 270.801 223.789 268.59C224.022 268.358 224.371 268.125 224.604 267.776C227.047 269.987 229.608 272.082 232.168 274.176C232.75 274.874 231.935 275.689 231.353 275.107Z" fill="white"/>
<path d="M279.062 171.885C278.713 171.885 278.364 171.653 278.247 171.303C275.804 165.368 273.011 140.232 272.429 135.694C271.265 135.577 268.356 135.112 263.119 134.065C262.654 133.948 262.305 133.483 262.421 133.017C262.537 132.552 263.003 132.203 263.468 132.319C270.567 133.716 273.244 134.065 273.244 134.065L273.942 134.181L274.058 134.879C274.058 135.228 277.317 164.554 279.76 170.722C279.993 171.187 279.76 171.653 279.295 171.885C279.295 171.885 279.178 171.885 279.062 171.885Z" fill="#030047"/>
<path d="M118.702 94.4986C118.353 94.4986 118.004 94.2659 117.887 93.9168L112.185 80.0686C111.952 79.6031 112.185 79.1377 112.651 78.9049C113.116 78.6722 113.582 78.9049 113.814 79.3704L119.516 93.2186C119.749 93.684 119.516 94.1495 119.051 94.3823C118.935 94.4986 118.818 94.4986 118.702 94.4986Z" fill="#030047"/>
<path d="M129.873 92.1707C129.408 92.1707 129.059 91.8215 129.059 91.3561L127.546 79.8353C127.43 79.3699 127.779 78.9044 128.244 78.9044C128.71 78.788 129.175 79.1371 129.175 79.6026L130.688 91.1234C130.804 91.7052 130.455 92.0543 129.873 92.1707Z" fill="#030047"/>
<path d="M143.025 248.458C142.443 248.458 142.094 247.992 142.094 247.527L143.374 227.395C143.374 226.929 143.839 226.58 144.305 226.58C144.77 226.58 145.119 227.046 145.119 227.511L143.839 247.643C143.956 248.109 143.49 248.458 143.025 248.458Z" fill="#030047"/>
<path d="M167.693 238.334C167.344 238.334 167.111 238.217 166.878 237.868L160.245 226.115C160.013 225.649 160.129 225.184 160.594 224.951C161.06 224.718 161.525 224.835 161.758 225.3L168.391 237.053C168.624 237.519 168.508 237.984 168.042 238.217C167.926 238.334 167.809 238.334 167.693 238.334Z" fill="#030047"/>
<path d="M195.158 210.289H10.5935C1.98201 210.289 -2.32372 199.815 3.84396 193.764L58.7712 139.419C60.6331 137.673 62.9605 136.626 65.5207 136.626H250.085C258.697 136.626 263.003 147.099 256.835 153.15L201.908 207.496C200.162 209.358 197.718 210.289 195.158 210.289Z" fill="white"/>
<path d="M195.159 211.219H10.5941C6.2884 211.219 2.56453 208.775 0.818961 204.702C-0.810236 200.629 0.00436208 196.324 3.14638 193.182L58.0736 138.836C60.0519 136.858 62.7285 135.811 65.5214 135.811H250.086C254.392 135.811 258.116 138.254 259.861 142.327C261.49 146.4 260.676 150.706 257.534 153.848L202.607 208.193C200.628 210.172 197.952 211.219 195.159 211.219ZM65.5214 137.556C63.1939 137.556 60.9829 138.487 59.3537 140.116L4.42647 194.462C1.8663 197.022 1.0517 200.629 2.44816 204.004C3.84461 207.379 6.98663 209.474 10.5941 209.474H195.159C197.486 209.474 199.697 208.543 201.327 206.913L256.254 152.568C258.814 150.008 259.629 146.4 258.232 143.026C256.836 139.651 253.694 137.556 250.086 137.556H65.5214Z" fill="#030047"/>
<path d="M180.494 197.138H16.5273L74.1311 140.233H238.098L180.494 197.138Z" fill="#030047"/>
<path d="M90.3103 173.167H62.1484L72.04 163.391H100.202L90.3103 173.167Z" fill="white"/>
<path d="M121.028 191.436H96.125L104.853 182.709H129.873L121.028 191.436Z" fill="white"/>
<path d="M78.2056 190.156H57.957L66.8012 181.545H86.9335L78.2056 190.156Z" fill="white"/>
<path d="M159.666 152.917C142.676 152.917 127.897 148.495 122.66 141.862C122.311 141.513 122.427 140.931 122.776 140.582C123.126 140.233 123.707 140.349 124.056 140.698C128.828 146.75 143.49 151.055 159.666 151.055C179.798 151.055 196.788 144.422 196.788 136.625C196.788 136.16 197.138 135.694 197.719 135.694C198.301 135.694 198.65 136.044 198.65 136.625C198.534 145.819 181.427 152.917 159.666 152.917Z" fill="#E92453"/>
<path d="M126.5 129.992C126.267 129.992 125.918 129.875 125.801 129.643C125.569 129.294 125.569 128.712 126.034 128.479C131.736 124.522 141.279 121.729 152.334 120.915C154.661 120.682 157.105 120.682 159.549 120.682C160.014 120.682 160.48 121.031 160.48 121.613C160.48 122.195 160.131 122.544 159.549 122.544C157.105 122.544 154.778 122.66 152.45 122.777C141.628 123.591 132.434 126.268 126.965 130.108C126.849 129.992 126.732 129.992 126.5 129.992Z" fill="#E92453"/>
<path d="M191.203 157.34C190.854 157.34 190.505 157.107 190.389 156.642C190.272 156.176 190.505 155.711 190.97 155.594C195.625 154.431 199.815 152.918 203.422 151.289C212.383 147.216 217.27 141.979 217.27 136.626C217.27 124.174 191.436 114.05 159.667 114.05C143.607 114.05 128.595 116.61 117.54 121.265C117.075 121.498 116.609 121.265 116.376 120.799C116.144 120.334 116.376 119.868 116.842 119.636C128.13 114.864 143.258 112.304 159.55 112.304C192.832 112.304 218.899 123.01 218.899 136.626C218.899 142.677 213.663 148.379 204.004 152.802C200.28 154.547 195.974 155.944 191.32 157.224C191.32 157.34 191.203 157.34 191.203 157.34Z" fill="#E92453"/>
<path d="M159.666 161.063C156.291 161.063 153.033 160.947 149.774 160.714C121.147 158.736 100.316 148.612 100.316 136.625C100.316 136.16 100.666 135.694 101.247 135.694C101.829 135.694 102.178 136.044 102.178 136.625C102.178 147.448 122.776 157.107 150.007 158.969C153.265 159.201 156.524 159.318 159.782 159.318C160.248 159.318 160.713 159.667 160.713 160.249C160.713 160.831 160.131 161.063 159.666 161.063Z" fill="#E92453"/>
<path d="M169.908 160.715C169.443 160.715 169.094 160.365 169.094 159.9C169.094 159.434 169.443 158.969 169.908 158.969C174.912 158.62 179.916 157.922 184.455 157.107C184.92 156.991 185.386 157.34 185.502 157.805C185.618 158.271 185.269 158.736 184.804 158.853C180.033 159.667 175.145 160.365 169.908 160.715C170.025 160.715 169.908 160.715 169.908 160.715Z" fill="#E92453"/>
<path d="M180.381 168.045C179.915 168.045 179.566 167.696 179.566 167.23C179.566 166.765 179.915 166.299 180.381 166.299C207.495 163.274 228.442 154.779 235.192 143.84C236.588 141.512 237.287 139.185 237.287 136.741C237.287 132.435 235.657 128.595 232.515 126.035C232.166 125.686 232.05 125.22 232.399 124.755C232.748 124.406 233.214 124.289 233.679 124.639C237.17 127.548 239.148 131.854 239.148 136.741C239.148 139.534 238.334 142.211 236.705 144.771C229.606 156.059 208.077 164.903 180.381 168.045C180.381 167.929 180.381 168.045 180.381 168.045Z" fill="#E92453"/>
<path d="M85.4229 127.316C85.1902 127.316 85.0738 127.199 84.8411 127.083C84.492 126.734 84.492 126.268 84.7247 125.803C90.0778 119.635 99.7366 114.398 112.654 110.442C113.119 110.325 113.585 110.558 113.701 111.024C113.818 111.489 113.585 111.955 113.119 112.071C100.435 115.795 91.1251 120.915 86.0048 126.85C85.8884 127.199 85.6557 127.316 85.4229 127.316Z" fill="#E92453"/>
<path d="M116.143 163.856C116.027 163.856 116.027 163.856 115.91 163.856C93.5671 157.921 80.3008 147.797 80.3008 136.741C80.3008 136.276 80.6499 135.81 81.2318 135.81C81.8136 135.81 82.1627 136.159 82.1627 136.741C82.1627 146.866 94.9635 156.408 116.492 162.11C116.958 162.227 117.19 162.692 117.074 163.158C116.841 163.623 116.492 163.856 116.143 163.856Z" fill="#E92453"/>
<path d="M159.665 144.306C170.076 144.306 178.517 140.92 178.517 136.742C178.517 132.565 170.076 129.178 159.665 129.178C149.253 129.178 140.812 132.565 140.812 136.742C140.812 140.92 149.253 144.306 159.665 144.306Z" fill="#E92453"/>
<path d="M254.043 36.313C231.816 43.4116 221.459 71.9226 216.223 79.6031C203.189 98.4552 170.489 100.899 162.343 108.114C154.662 114.864 159.666 118.82 159.666 118.82C159.666 118.82 158.735 122.777 161.645 124.639C161.645 124.639 155.36 131.272 158.386 134.181C161.295 137.091 170.605 124.755 174.678 124.057L175.842 126.85C175.493 128.595 170.838 132.436 173.049 134.647C175.144 136.974 182.94 129.177 185.035 126.617C187.13 124.057 191.086 124.639 195.159 120.799C199.232 116.958 217.852 118.122 230.42 105.088C242.872 92.0548 261.724 52.9541 261.724 52.9541L254.043 36.313Z" fill="white"/>
<path d="M173.863 135.811C173.049 135.811 172.467 135.461 172.118 135.112C170.14 133.018 172.118 130.341 173.514 128.363C173.98 127.781 174.445 127.083 174.678 126.617L173.98 124.872C172.467 125.57 170.14 127.665 168.045 129.527C163.856 133.25 159.899 136.858 157.572 134.53C154.662 131.621 158.502 126.501 160.248 124.522C158.386 122.661 158.502 119.984 158.619 118.937C158.037 118.355 157.222 117.075 157.106 115.213C157.106 112.653 158.619 109.976 161.645 107.3C164.67 104.623 170.954 102.645 178.169 100.201C191.086 96.0116 207.262 90.7749 215.408 78.905C216.455 77.3922 217.735 74.832 219.365 72.0391C225.532 60.5184 235.773 41.0844 253.694 35.3822L254.392 35.1494L262.306 52.7215L262.189 53.0706C261.375 54.6998 243.221 92.5205 230.769 105.438C222.507 114.049 211.684 116.493 203.887 118.355C200.047 119.286 196.789 119.984 195.509 121.148C193.181 123.359 190.854 124.173 188.992 124.872C187.479 125.454 186.315 125.919 185.501 126.85C185.501 127.199 177.936 135.694 173.863 135.811C173.98 135.811 173.863 135.811 173.863 135.811ZM175.144 122.893L176.656 126.501V126.734C176.54 127.432 175.842 128.363 175.144 129.294C173.747 131.272 172.7 132.901 173.514 133.832C173.514 133.832 173.631 133.949 173.98 133.949C176.307 133.949 181.777 128.712 184.221 125.803C185.384 124.523 186.897 123.941 188.526 123.242C190.272 122.544 192.366 121.846 194.345 119.868C195.974 118.355 199.116 117.657 203.538 116.609C211.219 114.864 221.692 112.42 229.605 104.158C241.242 92.0549 258.582 56.5617 260.56 52.6051L253.694 37.2441C236.82 43.0626 227.045 61.6821 221.11 72.8537C219.481 75.8794 218.201 78.3231 217.154 79.9523C208.658 92.2877 192.134 97.6408 178.984 101.947C172.002 104.274 165.95 106.252 163.157 108.696C160.481 111.023 159.084 113.234 159.201 115.213C159.201 116.958 160.481 118.006 160.481 118.006L160.946 118.355L160.83 118.937C160.83 118.937 160.132 122.311 162.343 123.824L163.274 124.406L162.575 125.221C161.063 126.734 157.339 131.621 159.201 133.483C160.364 134.647 164.554 130.807 167.23 128.363C170.023 125.803 172.7 123.475 174.678 123.126L175.144 122.893Z" fill="#030047"/>
<path d="M236.237 88.5643C237.633 89.4952 239.03 90.4262 240.31 91.2408C250.9 74.7161 261.373 52.7219 261.373 52.7219L254.042 36.1972C234.258 42.4813 223.901 65.7555 218.199 76.2289C224.367 80.0691 230.302 84.6076 236.237 88.5643Z" fill="#E92453"/>
<path d="M240.659 92.5205L239.961 92.0551C238.565 91.1241 237.285 90.1931 235.888 89.3785C233.328 87.7493 230.884 86.0037 228.44 84.2582C225.066 81.8144 221.458 79.3706 217.851 77.1596L217.152 76.694L217.501 75.9958C218.083 74.8321 218.782 73.6684 219.48 72.272C225.647 60.7512 235.888 41.3172 253.809 35.615L254.508 35.3823L262.421 52.9543L262.304 53.3035C262.188 53.5362 251.598 75.5303 241.125 91.8223L240.659 92.5205ZM219.363 75.9958C222.738 78.0905 226.113 80.4179 229.255 82.7454C231.699 84.4909 234.259 86.2365 236.703 87.8657C237.866 88.5639 238.914 89.3785 240.077 90.0767C249.62 75.0649 259.046 55.7472 260.442 52.8379L253.577 37.4769C236.703 43.2955 226.928 61.9149 220.993 73.0866C220.411 74.1339 219.945 75.0649 219.363 75.9958Z" fill="#E92453"/>
<path d="M168.16 118.471C165.599 119.635 163.505 121.38 161.643 123.475C161.177 124.057 161.992 124.871 162.457 124.289C164.203 122.195 166.298 120.565 168.742 119.402C169.44 119.169 168.858 118.122 168.16 118.471Z" fill="#030047"/>
<path d="M165.602 113.234C163.158 113.932 161.18 115.445 159.784 117.54C159.435 118.122 160.365 118.703 160.831 118.122C161.995 116.26 163.857 114.863 165.951 114.281C166.533 114.165 166.3 113.001 165.602 113.234Z" fill="#030047"/>
<path d="M254.043 36.313C242.289 40.2696 233.678 46.5537 236.238 80.3013C238.798 114.049 238.333 124.406 238.333 124.406L313.974 113.7C313.974 113.7 291.98 23.6286 254.043 36.313Z" fill="#E92453"/>
<path d="M237.518 125.454V124.406C237.518 124.29 237.867 113.7 235.423 80.4182C232.863 45.5068 242.173 39.4554 253.81 35.4988L254.042 36.3134L253.81 35.4988C260.326 33.2878 266.843 33.986 273.127 37.3608C299.544 51.9072 314.323 110.907 314.905 113.468L315.137 114.399L237.518 125.454ZM261.374 35.9643C259.046 35.9643 256.719 36.3134 254.392 37.128C243.104 40.9683 234.608 46.5541 237.169 80.3017C239.263 107.998 239.38 120.101 239.263 123.476L312.926 113.002C310.948 105.322 296.285 52.1399 272.313 38.99C268.705 37.0116 265.098 35.9643 261.374 35.9643Z" fill="#E92453"/>
<path d="M236.587 86.4688C236.122 86.4688 235.772 86.1197 235.772 85.6542L235.074 65.7547C235.074 65.2892 235.423 64.8237 235.889 64.8237C236.354 64.8237 236.82 65.1729 236.82 65.6383L237.518 85.5378C237.518 86.1196 237.169 86.4688 236.587 86.4688C236.703 86.4688 236.587 86.4688 236.587 86.4688Z" fill="#030047"/>
<path d="M324.098 83.6762C312.112 53.4196 282.438 27.3525 254.043 36.3131C254.043 36.3131 282.554 66.686 295.122 83.3271C304.083 95.1969 311.414 119.402 315.371 133.599C307.69 141.978 310.599 158.037 312.229 158.503C316.883 160.016 317.465 149.775 317.465 149.775L319.211 148.844C319.909 153.033 320.607 158.27 322.469 159.783C325.262 161.994 328.055 158.736 328.055 158.736C331.43 160.248 334.805 157.805 334.805 157.805C350.631 156.757 336.085 113.933 324.098 83.6762Z" fill="white"/>
<path d="M324.566 161.529C323.751 161.529 322.82 161.296 322.006 160.598C320.027 158.969 319.213 154.43 318.631 150.357L318.398 150.474C318.282 152.219 317.584 157.34 315.023 159.085C314.092 159.667 313.045 159.783 311.998 159.434C311.532 159.318 310.834 158.736 310.252 156.292C309.205 152.336 308.041 140.699 314.442 133.367C307.692 109.162 301.059 92.5209 294.542 83.9095C282.207 67.5011 253.812 37.2446 253.579 37.0119L252.648 35.9645L253.929 35.499C282.905 26.3057 312.812 52.6056 325.031 83.3276C340.741 122.777 345.978 146.983 340.741 155.361C339.461 157.34 337.599 158.503 335.156 158.736C334.341 159.202 331.432 160.831 328.406 159.784C327.359 160.714 326.079 161.529 324.566 161.529ZM319.911 147.565L320.144 149.426C320.726 153.034 321.424 158.038 323.053 159.318C325.148 160.947 327.359 158.503 327.359 158.387L327.824 157.922L328.406 158.154C331.199 159.434 334.225 157.34 334.225 157.34L334.457 157.223H334.69C336.668 157.107 338.181 156.176 339.112 154.547C342.487 149.077 342.487 132.436 323.286 84.1422C311.532 54.5839 283.254 29.215 255.674 36.8955C260.794 42.3649 284.767 68.1993 295.822 82.8621C302.455 91.7063 309.321 108.697 316.187 133.367L316.304 133.833L315.954 134.182C308.856 141.862 311.183 156.176 312.58 157.805C313.161 157.922 313.511 157.922 313.976 157.572C315.838 156.292 316.536 151.405 316.536 149.776V149.31L319.911 147.565Z" fill="#030047"/>
<path d="M299.311 71.2252C303.501 68.0832 307.341 64.7084 311.298 61.3336C296.635 42.1324 274.99 29.6807 254.043 36.3138C254.043 36.3138 276.735 60.4027 290.467 77.3928C293.493 75.4145 296.402 73.3199 299.311 71.2252Z" fill="#E92453"/>
<path d="M290.352 78.6731L289.886 78.0913C276.271 61.3338 253.695 37.245 253.462 37.0122L252.531 35.9649L253.811 35.4994C273.013 29.3317 295.356 39.1069 311.997 60.7519L312.462 61.4502L311.881 62.032C311.066 62.7303 310.251 63.4285 309.32 64.1267C306.295 66.8032 303.036 69.4798 299.778 71.9236C297.218 73.9019 294.425 75.8802 290.934 78.2076L290.352 78.6731ZM255.673 36.7795C260.095 41.5507 278.598 61.5665 290.701 76.3457C293.843 74.1346 296.403 72.3891 298.847 70.5271C302.105 68.0833 305.247 65.4068 308.273 62.8466C308.855 62.2647 309.553 61.7993 310.135 61.2174C297.683 45.2746 277.086 30.8445 255.673 36.7795Z" fill="#E92453"/>
<path d="M327.241 145.586C327.008 144.888 325.845 145.12 326.077 145.935C327.241 149.775 327.59 153.616 327.008 157.572C326.892 158.27 328.056 158.27 328.172 157.572C328.87 153.499 328.521 149.543 327.241 145.586Z" fill="#030047"/>
<path d="M334.341 143.84C334.108 143.142 333.061 143.375 333.177 144.189C334.224 148.146 334.457 152.219 334.108 156.292C333.992 156.99 335.155 156.99 335.272 156.292C335.737 151.986 335.388 147.913 334.341 143.84Z" fill="#030047"/>
<path d="M287.21 74.3671C286.977 74.3671 286.628 74.2507 286.512 74.018C280.344 65.872 277.668 61.9153 277.551 61.9153C277.319 61.5662 277.319 60.9844 277.784 60.7516C278.133 60.5189 278.715 60.5189 278.948 60.9844C278.948 60.9844 281.741 64.941 287.792 73.087C288.141 73.4361 288.025 74.018 287.676 74.3671C287.559 74.2507 287.443 74.3671 287.21 74.3671Z" fill="#030047"/>
<path d="M258.466 16.7642C258.35 12.6912 254.277 10.2474 249.738 12.4584C249.04 12.8075 248.458 13.273 247.76 13.8549C247.76 13.8549 247.76 13.8549 247.643 13.7385C241.243 6.98901 231.119 6.05803 225.067 11.7602C219.016 17.4624 220.413 26.6557 225.533 34.4526C230.304 41.4349 240.196 45.1588 248.109 36.4309C250.669 33.5217 252.182 29.6814 252.298 25.7248C256.604 24.4447 258.582 20.3717 258.466 16.7642Z" fill="white"/>
<path d="M237.869 42.4821C237.52 42.4821 237.287 42.4821 236.938 42.4821C232.283 42.133 227.861 39.3401 224.952 35.0343C218.9 26.0738 218.784 16.764 224.603 11.2946C230.887 5.35966 241.244 6.05787 247.877 12.8074C248.342 12.4583 248.924 12.1092 249.39 11.8764C251.833 10.5964 254.394 10.5964 256.372 11.7601C258.117 12.8074 259.281 14.6693 259.281 16.8804C259.398 20.3715 257.536 24.7937 253.114 26.5393C252.881 30.4959 251.368 34.2197 248.808 37.129C244.968 41.4348 240.895 42.4821 237.869 42.4821ZM234.96 8.96717C231.585 8.96717 228.326 10.1309 225.766 12.4583C219.482 18.3932 222.159 27.7029 226.348 33.987C229.025 37.9436 232.981 40.3874 237.054 40.6202C240.895 40.8529 244.502 39.2237 247.528 35.849C249.972 33.1724 251.368 29.5649 251.484 25.7247V25.1428L252.066 24.91C255.906 23.63 257.652 19.7897 257.536 16.7641C257.536 15.2512 256.721 13.8548 255.441 13.1566C253.928 12.2256 251.95 12.3419 250.088 13.2729C249.506 13.622 248.924 13.9711 248.226 14.553L247.644 15.1348L247.062 14.553C243.804 10.8291 239.265 8.96717 234.96 8.96717Z" fill="#030047"/>
<path d="M235.553 26.7654C235.816 26.1788 235.553 25.4904 234.966 25.2277C234.38 24.965 233.691 25.2276 233.429 25.8142C233.166 26.4008 233.429 27.0893 234.015 27.352C234.602 27.6146 235.29 27.352 235.553 26.7654Z" fill="#030047"/>
<path d="M231.7 35.7318C230.187 33.6371 229.023 31.3097 228.092 28.866C227.859 28.1677 228.907 27.7022 229.139 28.4004C229.954 30.7279 231.118 32.9389 232.514 35.0336C233.096 35.6155 232.165 36.3137 231.7 35.7318Z" fill="#030047"/>
<path d="M223.554 21.5343C227.045 20.2543 237.751 10.9446 241.824 17.6941C242.871 19.4397 242.871 20.8361 244.85 20.3706C246.712 19.556 246.363 17.2287 246.363 17.2287C247.759 15.2504 248.225 13.272 249.737 12.4574C253.927 5.70787 243.57 -2.67087 237.751 2.33309C237.751 2.33309 224.834 -0.808918 221.11 7.2207C214.477 9.89723 212.033 15.0176 213.43 19.7888C215.99 27.9348 223.554 21.5343 223.554 21.5343Z" fill="#030047"/>
<path d="M248.923 20.8362C248.807 18.0433 250.553 15.5995 253.229 14.7849C253.927 14.5522 254.393 15.7159 253.695 15.8323C251.6 16.4141 250.087 18.3924 250.204 20.6035C250.204 21.5344 249.04 21.6508 248.923 20.8362Z" fill="#030047"/>
<path d="M160.944 190.971C160.711 190.971 160.478 190.855 160.362 190.738L145.699 176.076C145.35 175.726 145.35 175.145 145.699 174.795C146.048 174.446 146.63 174.446 146.979 174.795L161.642 189.458C161.991 189.807 161.991 190.389 161.642 190.738C161.409 190.855 161.177 190.971 160.944 190.971Z" fill="#E92453"/>
<path d="M146.398 190.971C146.166 190.971 145.933 190.855 145.817 190.738C145.467 190.389 145.467 189.807 145.817 189.458L160.479 174.795C160.828 174.446 161.41 174.446 161.759 174.795C162.108 175.144 162.108 175.726 161.759 176.075L147.097 190.738C146.747 190.855 146.631 190.971 146.398 190.971Z" fill="#E92453"/>
</svg>
