<svg width="284" height="386" viewBox="0 0 284 386" fill="none" xmlns="http://www.w3.org/2000/svg">
<path d="M126.359 344.668L125.512 380.261L187.254 380.866C187.254 380.866 187.617 373.602 175.874 368.154C164.131 362.707 161.71 341.157 161.71 341.157L126.359 344.668Z" fill="#E92453"/>
<path d="M188.101 381.714L124.543 381.109L125.39 343.821L162.436 340.189L162.557 341.037C162.557 341.279 165.099 362.102 176.237 367.307C188.344 372.876 188.223 380.503 188.223 380.867L188.101 381.714ZM126.48 379.293L186.286 379.898C185.922 377.961 184.227 372.997 175.511 369.002C164.736 364.039 161.588 346.363 160.983 342.247L127.327 345.637L126.48 379.293Z" fill="#E92453"/>
<path d="M15.2233 329.658L2.02734 362.708L59.6537 384.742C59.6537 384.742 62.4382 378.083 53.3584 368.883C44.2786 359.682 49.4844 338.617 49.4844 338.617L15.2233 329.658Z" fill="#E92453"/>
<path d="M60.2587 385.952L0.9375 363.192L14.7388 328.567L50.6947 338.01L50.4526 338.858C50.4526 339.1 45.489 359.56 54.0845 368.276C63.5275 377.719 60.6219 384.862 60.5009 385.104L60.2587 385.952ZM3.23771 362.102L59.0481 383.53C59.4113 381.593 59.5324 376.267 52.7528 369.487C44.3994 361.013 47.5471 343.458 48.3945 339.342L15.7073 330.747L3.23771 362.102Z" fill="#E92453"/>
<path d="M59.7729 184.744C49.8457 201.451 45.6084 248.06 34.3495 271.91C23.0905 295.759 10.1367 334.258 10.1367 334.258L55.7778 353.628C55.7778 353.628 86.8912 284.016 90.402 247.697C93.9129 211.378 93.0654 179.901 93.0654 179.901L59.7729 184.744Z" fill="#23384D"/>
<path d="M79.1445 202.903C80.113 222.273 104.931 258.834 108.926 284.984C112.921 311.134 123.333 358.228 123.333 358.228L172.122 349.027C172.122 349.027 165.705 275.904 144.519 230.748C129.023 197.697 106.747 175.785 106.747 175.785L79.1445 202.903Z" fill="#23384D"/>
<path d="M89.4338 234.379C89.0706 234.379 88.8284 234.258 88.5863 233.895L85.5597 228.447L76.4799 225.179C75.9957 225.058 75.7535 224.452 75.8746 223.968C75.9957 223.484 76.601 223.242 77.0852 223.363L86.7703 226.752L90.0391 232.806C90.2812 233.29 90.1602 233.774 89.6759 234.016C89.6759 234.379 89.5548 234.379 89.4338 234.379Z" fill="white"/>
<path d="M49.3617 356.897C47.5457 357.865 45.6087 358.955 43.7927 359.923C43.0664 360.286 43.6717 361.376 44.3981 361.013C46.214 360.044 48.1511 358.955 49.967 357.986C50.6934 357.623 50.0881 356.533 49.3617 356.897Z" fill="#23384D"/>
<path d="M50.3316 360.77C48.8789 361.981 47.3051 363.07 45.8523 364.281C45.247 364.765 45.8523 365.855 46.4576 365.37L50.937 361.859C51.5423 361.254 50.937 360.286 50.3316 360.77Z" fill="#23384D"/>
<path d="M168.127 359.317C167.401 360.891 166.674 362.344 165.827 363.918C165.464 364.644 166.553 365.249 166.917 364.523L169.217 359.923C169.459 359.196 168.369 358.591 168.127 359.317Z" fill="#23384D"/>
<path d="M171.518 363.312C170.791 364.886 170.065 366.338 169.218 367.912C168.854 368.639 169.944 369.244 170.307 368.518L172.607 363.917C172.971 363.312 171.881 362.707 171.518 363.312Z" fill="#23384D"/>
<path d="M162.68 347.453C162.196 347.453 161.833 347.09 161.833 346.605C159.896 276.388 118.129 199.997 117.766 199.271C117.523 198.787 117.645 198.302 118.129 198.06C118.613 197.818 119.097 197.939 119.339 198.423C119.703 199.15 161.591 275.904 163.649 346.605C163.649 347.09 163.165 347.453 162.68 347.453Z" fill="white"/>
<path d="M126.116 215.01C125.995 215.01 125.874 215.01 125.753 215.01C125.269 214.889 125.027 214.283 125.269 213.799C127.569 207.625 124.785 199.15 124.785 199.029C124.664 198.545 124.906 198.061 125.39 197.819C125.874 197.698 126.359 197.94 126.601 198.424C126.722 198.787 129.748 207.625 127.085 214.404C126.843 214.768 126.48 215.01 126.116 215.01Z" fill="white"/>
<path d="M119.94 78.329C123.693 87.2878 123.936 96.8518 112.192 100.605C104.202 103.147 94.6381 99.3941 90.8852 90.4354C87.1322 81.4767 90.643 71.5494 98.6332 68.1596C106.623 64.7699 116.188 69.3703 119.94 78.329Z" fill="white"/>
<path d="M107.107 102.299C99.9644 102.299 92.9427 97.9409 90.0372 90.7981C86.1631 81.3551 89.795 70.9436 98.2695 67.3117C106.744 63.8009 116.792 68.5223 120.787 77.9653C123.451 84.3817 123.814 89.8296 121.998 93.9458C120.424 97.4566 117.155 99.8779 112.555 101.452C110.618 102.057 108.802 102.299 107.107 102.299ZM104.081 68.0381C102.386 68.0381 100.57 68.4013 98.8748 69.1277C91.3688 72.2753 88.1001 81.7183 91.611 90.1928C95.3639 99.0305 104.807 102.057 111.829 99.7568C116.066 98.4251 118.85 96.246 120.182 93.2194C121.877 89.5875 121.514 84.6239 118.971 78.6917C116.308 72.1543 110.255 68.0381 104.081 68.0381Z" fill="#23384D"/>
<path d="M113.285 78.6912C113.953 78.6912 114.495 78.1492 114.495 77.4806C114.495 76.812 113.953 76.27 113.285 76.27C112.616 76.27 112.074 76.812 112.074 77.4806C112.074 78.1492 112.616 78.6912 113.285 78.6912Z" fill="#23384D"/>
<path d="M114.131 66.2216C114.131 58.2314 100.935 67.19 98.6345 68.2796C91.4917 69.6113 85.1964 79.0544 87.3756 87.4078C89.1915 94.5505 97.4239 103.025 101.782 100.967C108.925 96.7296 110.015 89.7079 106.746 83.0494C107.956 81.5967 106.504 79.4176 107.109 77.7227C107.956 74.9382 114.252 69.0061 114.131 66.2216Z" fill="#23384D"/>
<path d="M104.205 82.3229C90.8879 81.1123 92.4617 91.7659 97.4253 94.1872C101.541 96.1242 107.837 95.3978 110.379 89.3446C112.921 83.4125 104.205 82.3229 104.205 82.3229Z" fill="white"/>
<path d="M105.412 86.9238C102.87 85.5921 99.7223 86.1974 97.9063 88.4976C97.4221 89.103 98.2695 89.9504 98.7538 89.3451C100.207 87.5291 102.749 86.9238 104.807 88.0134C105.533 88.3766 106.139 87.287 105.412 86.9238Z" fill="#23384D"/>
<path d="M120.91 81.355C119.578 79.0548 117.883 76.8756 115.825 75.0597C115.22 74.5754 114.372 75.4229 114.978 75.9072C116.915 77.7231 118.489 79.6601 119.82 81.9603C120.305 82.5657 121.273 81.9603 120.91 81.355Z" fill="#23384D"/>
<path d="M211.709 52.7826H172.727V91.7652H211.709V52.7826Z" fill="#E92453"/>
<path d="M212.677 92.7343H171.879V51.8147H212.677V92.7343ZM173.695 90.9183H210.861V53.7517H173.695V90.9183Z" fill="#E92453"/>
<path d="M192.216 81.5964C188.706 81.5964 185.558 79.7805 183.863 76.7539C183.621 76.2696 183.742 75.7854 184.226 75.5432C184.71 75.3011 185.195 75.4222 185.437 75.9065C186.769 78.3278 189.432 79.9016 192.216 79.9016C196.454 79.9016 199.964 76.3907 199.964 72.1535C199.964 67.9162 196.454 64.4054 192.216 64.4054C187.979 64.4054 184.468 67.9162 184.468 72.1535C184.468 72.6377 184.105 73.122 183.5 73.122C182.895 73.122 182.531 72.7588 182.531 72.1535C182.531 66.8267 186.89 62.5895 192.095 62.5895C197.301 62.5895 201.659 66.9477 201.659 72.1535C201.659 77.3592 197.543 81.5964 192.216 81.5964Z" fill="white"/>
<path d="M192.219 86.9231C183.987 86.9231 177.207 80.1435 177.207 71.9112C177.207 63.6788 183.987 56.8993 192.219 56.8993C196.335 56.8993 200.451 58.7152 203.236 61.7418C203.599 62.105 203.599 62.7103 203.236 63.0735C202.873 63.4367 202.267 63.4367 201.904 63.0735C199.362 60.4101 195.851 58.8363 192.219 58.8363C184.955 58.8363 179.023 64.7684 179.023 72.0323C179.023 79.2961 184.955 85.2282 192.219 85.2282C199.483 85.2282 205.415 79.2961 205.415 72.0323C205.415 70.3374 205.052 68.7635 204.446 67.1897C204.204 66.7055 204.446 66.2212 204.931 65.9791C205.415 65.737 205.899 65.979 206.141 66.4633C206.868 68.2792 207.231 70.0952 207.231 72.0323C207.231 80.2646 200.572 86.9231 192.219 86.9231Z" fill="white"/>
<path d="M25.6318 138.254C20.7892 154.477 30.8375 174.089 44.7599 182.564L46.4548 180.142C49.9656 182.079 66.4303 170.699 70.7886 163.92C65.2196 161.741 60.2561 160.046 59.1665 153.751C56.0188 136.802 76.1154 140.434 89.4324 144.429C92.7012 131.354 93.9118 110.894 93.9118 110.894C61.7088 102.541 33.2588 112.71 25.6318 138.254Z" fill="#E92453"/>
<path d="M45.0036 183.774L44.2772 183.29C30.8391 175.057 19.5802 155.324 24.7859 137.891C32.413 112.346 60.2576 101.087 94.1555 109.804L94.8819 110.046V110.773C94.8819 111.015 93.6713 131.474 90.4025 144.428L90.1604 145.397L89.1919 145.155C75.5117 141.038 66.1898 140.796 62.1947 144.307C60.1366 146.244 59.4102 149.271 60.1366 153.387C61.2262 159.077 65.5845 160.772 71.0323 162.83L72.1219 163.193L71.6376 164.162C67.6425 170.336 52.2674 181.716 46.9406 180.99L45.0036 183.774ZM72.364 108.835C49.604 108.835 32.1709 119.61 26.4809 138.496C21.6383 154.84 31.9287 173.241 44.5194 181.353L46.2142 178.931L46.9406 179.295C49.483 180.626 64.1317 171.304 69.4585 164.283C64.2528 162.225 59.5313 160.167 58.3206 153.75C57.4732 148.908 58.3206 145.276 60.8629 142.975C65.3423 138.98 74.6642 138.98 88.7076 143.097C91.371 131.717 92.5817 115.131 92.9448 111.378C85.681 109.683 78.7804 108.835 72.364 108.835Z" fill="#E92453"/>
<path d="M56.8688 184.621C53.7211 183.895 50.5735 182.684 47.5469 181.11C50.3313 177.236 52.6316 172.515 54.9318 167.914C56.6267 164.283 58.3215 161.014 60.2585 157.987L60.3796 157.745C60.985 156.777 62.0745 156.292 63.8905 156.05H64.3747L64.6169 155.566C65.5854 153.629 66.4328 153.266 67.4013 153.266C68.1277 153.266 69.0963 153.508 70.3069 154.113C70.7912 154.355 71.0332 154.597 71.1543 155.082C71.5175 156.655 70.1858 159.682 67.5224 163.556L66.796 164.404L67.6435 164.888C68.1277 165.251 68.733 165.493 69.2173 165.735C67.8856 167.672 66.5539 169.73 65.3432 171.667C62.4377 175.784 59.5322 180.263 56.8688 184.621Z" fill="white"/>
<path d="M67.28 154.234C67.8853 154.234 68.7327 154.476 69.8223 154.961C70.0644 155.082 70.1855 155.203 70.1855 155.324C70.3066 155.687 70.5487 157.624 66.6747 162.951L65.5851 164.525L67.28 165.493C67.5221 165.614 67.7642 165.735 68.0064 165.856C66.9168 167.551 65.7062 169.246 64.6166 170.941C61.9532 175.057 59.1687 179.173 56.6263 183.411C54.084 182.805 51.5417 181.837 49.1204 180.626C51.6627 176.873 53.8419 172.394 55.9 168.157C57.5949 164.646 59.2897 161.256 61.1057 158.35L61.2268 158.108C61.59 157.624 62.0742 157.019 64.0113 156.777L64.9798 156.656L65.464 155.808C66.3115 154.234 66.7957 154.234 67.28 154.234ZM67.28 152.418C65.7062 152.418 64.7376 153.387 63.7691 155.203C61.711 155.445 60.3793 156.171 59.6529 157.382C55.0525 164.767 51.6627 174.573 46.3359 181.474C49.8468 183.411 53.5997 184.863 57.4738 185.711C61.59 178.689 66.3115 172.152 70.6698 165.251C69.9434 165.009 69.0959 164.525 68.2485 164.04C71.033 160.166 73.9385 154.84 70.6698 153.266C69.217 152.66 68.1274 152.418 67.28 152.418Z" fill="#23384D"/>
<path d="M103.6 111.015C84.7145 106.899 77.0875 115.858 70.3079 143.46C63.5283 171.063 51.4219 187.043 51.4219 187.043C51.4219 187.043 106.385 202.54 129.75 199.15C129.629 199.271 143.673 119.732 103.6 111.015Z" fill="#E92453"/>
<path d="M121.76 200.723C96.2151 200.723 52.9953 188.617 51.0583 188.012L49.7266 187.648L50.574 186.559C50.6951 186.438 62.6804 170.336 69.3389 143.218C76.4816 114.042 84.8351 105.93 103.721 110.047C120.549 113.678 130.476 130.385 132.534 158.23C133.987 179.053 130.597 199.15 130.476 199.271L130.355 199.876L129.75 199.997C127.328 200.602 124.665 200.723 121.76 200.723ZM52.7532 186.68C60.9855 188.859 107.595 201.208 128.781 198.544C129.992 190.917 140.161 119.974 103.358 111.984C85.5615 108.11 78.0555 115.494 71.1548 143.823C65.3438 167.189 55.5376 182.564 52.7532 186.68Z" fill="#E92453"/>
<path d="M88.4688 114.163L90.4057 104.72L116.192 107.626L113.166 119.248L88.4688 114.163Z" fill="#E92453"/>
<path d="M113.771 120.337L87.5 114.889L89.8002 103.63L117.403 106.778L113.771 120.337ZM89.5581 113.557L112.439 118.279L114.982 108.473L91.1319 105.809L89.5581 113.557Z" fill="#E92453"/>
<path d="M70.7901 139.223C70.669 139.223 70.548 139.223 70.4269 139.102C69.9427 138.86 69.7005 138.376 69.9426 137.891L74.6642 126.269C74.9063 125.785 75.3905 125.543 75.8748 125.785C76.3591 126.027 76.6012 126.511 76.3591 126.996L71.6376 138.618C71.5165 138.981 71.1533 139.223 70.7901 139.223Z" fill="white"/>
<path d="M203.599 95.1566C203.236 88.9823 198.636 87.8928 198.636 87.8928C198.272 84.2609 193.067 83.1713 193.067 83.1713C194.519 76.2707 196.699 73.9704 195.609 71.9123C193.914 68.6436 190.887 71.0649 187.498 78.5708C187.134 79.4183 186.771 80.2658 186.408 81.1132C185.561 80.5079 184.471 80.629 183.018 82.3239C179.628 86.5611 177.813 91.0404 179.265 101.21C178.902 102.057 178.539 102.784 178.055 103.51L194.398 124.938C194.398 124.938 198.151 122.638 199.12 115.011C199.725 110.774 200.451 104.6 201.057 101.452C204.568 101.936 203.72 98.3043 203.599 95.1566Z" fill="white"/>
<path d="M194.277 126.027L176.965 103.51L177.207 103.025C177.57 102.42 177.933 101.815 178.175 101.088C176.723 90.7979 178.539 86.1974 182.171 81.7181C183.502 80.0232 184.834 79.7811 185.681 79.9021C185.924 79.2968 186.166 78.6915 186.408 78.2072C189.071 72.5172 191.371 69.7328 193.551 69.6117C194.277 69.6117 195.367 69.9749 196.214 71.5487C196.94 73.1225 196.456 74.5753 195.609 76.8755C195.124 78.3283 194.398 80.1442 193.914 82.6866C195.488 83.1708 198.635 84.5026 199.241 87.4081C200.572 88.0134 203.962 89.8294 204.204 95.2772C204.204 95.7615 204.325 96.1247 204.325 96.6089C204.446 98.667 204.688 100.725 203.478 101.815C202.994 102.299 202.388 102.42 201.662 102.42C201.178 104.841 200.693 108.473 200.33 111.621C200.209 112.831 199.967 114.042 199.846 115.132C198.756 123.122 194.882 125.664 194.64 125.785L194.277 126.027ZM179.144 103.267L194.519 123.485C195.488 122.517 197.546 119.853 198.272 114.768C198.393 113.679 198.514 112.589 198.756 111.379C199.241 107.747 199.725 103.51 200.33 101.209L200.572 100.362L201.42 100.483C201.783 100.604 202.388 100.604 202.63 100.362C203.115 99.8776 202.994 98.0617 202.873 96.6089C202.873 96.1247 202.751 95.6404 202.751 95.2772C202.509 89.9504 198.635 88.8608 198.514 88.8608L197.909 88.7398L197.788 88.1344C197.546 85.2289 192.945 84.2604 192.945 84.1394L192.098 83.8972L192.219 83.0497C192.824 80.0232 193.672 77.844 194.156 76.1491C194.882 74.091 195.245 73.1226 194.761 72.2751C194.398 71.6698 194.156 71.3065 193.793 71.3065C193.43 71.3065 191.614 71.6697 188.224 78.8125C187.861 79.66 187.497 80.5075 187.134 81.3549L186.771 82.3234L185.802 81.7181C185.56 81.597 184.955 81.1127 183.623 82.6866C180.355 86.8027 178.66 91.04 180.112 100.846V101.088L179.991 101.33C179.749 102.178 179.507 102.783 179.144 103.267Z" fill="#23384D"/>
<path d="M178.539 102.542C172.123 115.375 168.007 120.096 160.38 122.275C148.879 125.665 121.397 110.532 104.206 113.316L100.09 148.546C100.09 148.546 125.029 164.769 153.842 162.468C178.781 160.41 195.367 134.866 198.394 122.275C195.367 113.922 185.44 107.142 178.539 102.542Z" fill="#E92453"/>
<path d="M148.152 163.678C121.881 163.678 99.8474 149.514 99.6053 149.393L99.1211 149.03L103.358 112.589L104.085 112.468C113.164 110.894 124.787 114.284 135.924 117.432C145.61 120.216 154.81 122.88 160.137 121.306C167.401 119.248 171.396 114.89 177.813 102.057L178.297 101.088L179.144 101.694C185.924 106.294 196.214 113.195 199.362 121.911L199.483 122.153L199.362 122.396C196.214 135.228 179.265 161.257 154.084 163.315C151.905 163.557 149.968 163.678 148.152 163.678ZM101.058 148.061C104.569 150.24 127.692 163.678 153.721 161.499C177.934 159.562 194.277 134.744 197.425 122.274C194.519 114.526 185.44 108.231 178.902 103.752C172.607 116.342 168.249 120.822 160.622 123.001C154.81 124.696 145.367 121.911 135.319 119.127C125.15 116.221 113.649 112.832 104.932 114.042L101.058 148.061Z" fill="#E92453"/>
<path d="M126.966 160.168C126.845 160.168 126.724 160.168 126.603 160.047C126.603 160.047 122.366 158.231 118.25 158.231C117.765 158.231 117.402 157.867 117.281 157.383C117.281 156.899 117.644 156.415 118.25 156.415C122.729 156.415 127.087 158.231 127.33 158.352C127.814 158.594 128.056 159.078 127.814 159.562C127.693 159.925 127.33 160.168 126.966 160.168Z" fill="#23384D"/>
<path d="M192.097 84.2609L191.25 86.6822C191.007 87.4086 192.097 87.7718 192.46 87.0454C192.702 86.1979 193.066 85.4715 193.308 84.6241C193.55 83.7767 192.339 83.5345 192.097 84.2609Z" fill="#23384D"/>
<path d="M202.511 95.5196C202.39 94.7932 201.179 95.0354 201.3 95.8828C201.421 96.8513 201.3 97.8198 200.937 98.7883C200.695 99.5147 201.785 99.8779 202.148 99.1515C202.632 97.8198 202.753 96.7302 202.511 95.5196Z" fill="#23384D"/>
<path d="M185.441 82.8073C183.989 85.5918 183.02 88.4974 182.536 91.6451C182.415 92.3714 183.625 92.7346 183.746 92.0082C184.231 88.9816 185.078 86.1971 186.531 83.4127C186.773 82.6863 185.805 82.081 185.441 82.8073Z" fill="#23384D"/>
<path d="M197.91 88.6188C197.667 89.1031 197.546 89.7084 197.304 90.1927C197.062 90.919 198.152 91.2822 198.515 90.5558C198.757 90.0716 198.878 89.4663 199.12 88.982C199.362 88.2556 198.152 87.8925 197.91 88.6188Z" fill="#23384D"/>
<path d="M256.019 158.957H175.754V209.682H256.019V158.957Z" fill="white"/>
<path d="M256.988 210.53H174.906V157.988H256.988V210.53ZM176.722 208.714H255.172V159.804H176.722V208.714Z" fill="#23384D"/>
<path d="M210.983 0.847656H190.887V20.9443H210.983V0.847656Z" fill="white"/>
<path d="M211.952 21.9125H190.039V0H211.952V21.9125ZM191.855 20.0966H210.136V1.81596H191.855V20.0966Z" fill="#23384D"/>
<path d="M283.015 0.847656H249.844V34.0191H283.015V0.847656Z" fill="white"/>
<path d="M283.862 34.9874H248.875V0H283.862V34.9874ZM250.691 33.1714H282.046V1.81596H250.691V33.1714Z" fill="#23384D"/>
<path d="M283.014 68.2806H229.262V122.033H283.014V68.2806Z" fill="white"/>
<path d="M283.861 123.001H228.293V67.4328H283.861V123.001ZM230.109 121.185H282.045V69.2488H230.109V121.185Z" fill="#23384D"/>
<path d="M180.475 0.847656H141.25V25.0605H180.475V0.847656Z" fill="white"/>
<path d="M181.443 26.0287H140.402V0H181.443V26.0287ZM142.218 24.2128H179.627V1.81596H142.218V24.2128Z" fill="#23384D"/>
<path d="M172.119 13.9228H149.238C148.754 13.9228 148.27 13.5597 148.27 12.9543C148.27 12.349 148.633 11.9858 149.238 11.9858H172.119C172.603 11.9858 173.088 12.349 173.088 12.9543C173.088 13.5597 172.603 13.9228 172.119 13.9228Z" fill="#23384D"/>
<path d="M223.331 16.2224C225.07 16.2224 226.479 14.8132 226.479 13.0748C226.479 11.3364 225.07 9.92719 223.331 9.92719C221.593 9.92719 220.184 11.3364 220.184 13.0748C220.184 14.8132 221.593 16.2224 223.331 16.2224Z" fill="white"/>
<path d="M223.331 17.07C221.152 17.07 219.336 15.254 219.336 13.0749C219.336 10.8957 221.152 9.07977 223.331 9.07977C225.51 9.07977 227.326 10.8957 227.326 13.0749C227.326 15.254 225.51 17.07 223.331 17.07ZM223.331 10.8957C222.12 10.8957 221.152 11.8642 221.152 13.0749C221.152 14.2855 222.12 15.254 223.331 15.254C224.542 15.254 225.51 14.2855 225.51 13.0749C225.51 11.8642 224.542 10.8957 223.331 10.8957Z" fill="#23384D"/>
<path d="M223.331 28.3288C225.07 28.3288 226.479 26.9195 226.479 25.1811C226.479 23.4427 225.07 22.0335 223.331 22.0335C221.593 22.0335 220.184 23.4427 220.184 25.1811C220.184 26.9195 221.593 28.3288 223.331 28.3288Z" fill="white"/>
<path d="M223.331 29.1763C221.152 29.1763 219.336 27.3604 219.336 25.1812C219.336 23.0021 221.152 21.1862 223.331 21.1862C225.51 21.1862 227.326 23.0021 227.326 25.1812C227.326 27.3604 225.51 29.1763 223.331 29.1763ZM223.331 23.0021C222.12 23.0021 221.152 23.9706 221.152 25.1812C221.152 26.3919 222.12 27.3604 223.331 27.3604C224.542 27.3604 225.51 26.3919 225.51 25.1812C225.51 23.9706 224.542 23.0021 223.331 23.0021Z" fill="#23384D"/>
<path d="M233.865 172.395H195.367C194.883 172.395 194.398 172.031 194.398 171.426C194.398 170.821 194.762 170.458 195.367 170.458H233.865C234.349 170.458 234.834 170.821 234.834 171.426C234.834 172.031 234.349 172.395 233.865 172.395Z" fill="#23384D"/>
<path d="M233.865 182.927H210.258C209.773 182.927 209.289 182.564 209.289 181.959C209.289 181.354 209.652 180.99 210.258 180.99H233.865C234.349 180.99 234.833 181.354 234.833 181.959C234.833 182.564 234.349 182.927 233.865 182.927Z" fill="#23384D"/>
<path d="M204.326 182.927H195.367C194.883 182.927 194.398 182.564 194.398 181.959C194.398 181.354 194.762 180.99 195.367 180.99H204.326C204.81 180.99 205.294 181.354 205.294 181.959C205.294 182.564 204.81 182.927 204.326 182.927Z" fill="#23384D"/>
<path d="M248.027 82.8069V109.199L269.456 96.0029L248.027 82.8069Z" fill="white"/>
<path d="M247.059 110.773V81.2333L271.271 96.0031L247.059 110.773ZM248.875 84.5021V107.504L267.76 96.0031L248.875 84.5021Z" fill="#23384D"/>
</svg>
