<svg width="260" height="276" viewBox="0 0 260 276" fill="none" xmlns="http://www.w3.org/2000/svg">
<path d="M158.77 107.345L211.674 102.866L208.648 146.328L162.644 149.355L158.77 107.345Z" fill="white"/>
<path d="M210.706 103.834L207.679 145.48L163.37 148.386L159.617 108.072L210.706 103.834ZM212.764 101.776L157.922 106.498L161.917 150.323L209.495 147.175L212.764 101.776Z" fill="#030047"/>
<path d="M178.986 139.911C178.501 139.911 178.138 139.548 178.138 139.064L176.564 126.715L170.996 124.9C170.511 124.778 170.269 124.173 170.39 123.81C170.511 123.326 171.117 123.084 171.48 123.205L178.017 125.384L179.712 138.822C179.954 139.306 179.591 139.79 178.986 139.911C179.107 139.911 179.107 139.911 178.986 139.911Z" fill="#030047"/>
<path d="M155.864 30.8326C163.612 28.4113 186.251 22.4792 205.5 54.6822C224.871 86.8851 212.643 114.609 212.643 114.609L154.654 111.703C154.654 111.703 152.838 79.016 147.632 58.0719C146.542 53.5926 143.516 34.7066 155.864 30.8326Z" fill="#030047"/>
<path d="M112.037 105.649C119.18 109.887 122.933 120.54 122.933 120.54L116.638 122.114C116.638 122.114 111.916 116.303 108.163 116.303C104.41 116.303 112.037 105.649 112.037 105.649Z" fill="white"/>
<path d="M116.153 123.083L115.79 122.598C114.579 121.025 110.705 117.15 108.042 117.15C106.952 117.15 106.468 116.545 106.347 116.182C105.136 113.882 109.373 107.708 111.31 105.044L111.795 104.318L112.521 104.681C119.785 109.039 123.659 119.572 123.78 119.935L124.143 120.904L116.153 123.083ZM107.921 115.335C107.921 115.335 108.042 115.335 107.921 115.335C111.552 115.335 115.548 119.572 116.879 121.025L121.601 119.814C120.511 117.272 117.364 110.371 112.158 106.86C109.615 110.734 107.678 114.487 107.921 115.335Z" fill="#030047"/>
<path d="M153.563 154.439H64.3393L62.1602 150.807L85.2833 136.763L127.171 111.219L142.789 136.763L153.563 154.439Z" fill="white"/>
<path d="M126.808 112.429L142.183 137.732L151.868 153.47H64.9443L63.4915 151.049L84.4356 138.216L126.808 112.429ZM127.413 110.008L83.4671 136.763L60.9492 150.564L63.8548 155.407H155.137L143.878 136.884L127.413 110.008Z" fill="#030047"/>
<path d="M89.7615 145.722C89.3983 145.722 89.1562 145.601 89.0351 145.238C88.793 144.754 88.9141 144.269 89.3983 144.027L122.086 124.052C122.57 123.81 123.054 123.931 123.296 124.294C123.538 124.778 123.417 125.262 122.933 125.505L90.2458 145.48C90.0036 145.722 89.8825 145.722 89.7615 145.722Z" fill="#030047"/>
<path d="M95.574 155.407C95.2108 155.407 94.9687 155.286 94.8476 154.923C94.6055 154.439 94.7266 153.955 95.2108 153.712L127.898 133.737C128.382 133.495 128.867 133.616 129.109 133.979C129.351 134.463 129.23 134.948 128.745 135.19L96.0583 155.165C95.9372 155.407 95.8161 155.407 95.574 155.407Z" fill="#030047"/>
<path d="M113.731 106.86C113.004 104.681 112.399 101.654 114.699 98.1434C107.072 97.1749 99.5661 96.4486 91.9391 96.0854C87.4598 106.86 88.9125 117.393 90.9706 126.957C94.6025 143.542 100.172 138.579 100.172 138.579C100.172 138.579 103.319 140.758 106.467 137.005C106.467 137.005 111.067 139.91 112.641 135.673C114.215 131.436 107.435 125.02 109.736 120.782C110.341 119.693 111.067 118.724 111.794 117.756" fill="white"/>
<path d="M98.1141 140.153C97.7509 140.153 97.3877 140.153 96.9035 139.91C93.9979 138.942 91.6977 134.705 90.0028 127.078C87.8237 117.151 86.492 106.497 90.9713 95.7222L91.2135 95.1169H91.8188C99.6879 95.4801 107.436 96.3275 114.7 97.175L116.153 97.2961L115.426 98.5067C113.368 101.654 113.852 104.318 114.579 106.497C114.7 106.981 114.458 107.465 113.973 107.708C113.489 107.829 113.005 107.586 112.763 107.102C112.036 104.923 111.431 102.139 113.126 98.8699C106.589 98.0225 99.5669 97.296 92.4241 96.9328C88.429 107.102 89.7607 117.151 91.8188 126.715C93.7558 135.673 96.1771 137.731 97.5088 138.216C98.5984 138.579 99.4458 137.852 99.5669 137.852L100.051 137.368L100.656 137.731C100.899 137.852 103.199 139.305 105.741 136.279L106.225 135.673L106.952 136.037C107.436 136.4 109.131 137.126 110.342 136.763C110.947 136.521 111.431 136.036 111.794 135.189C112.4 133.494 111.31 131.194 110.22 128.773C108.889 125.867 107.436 122.719 108.889 120.177C109.494 118.966 110.342 117.998 111.068 117.029C111.431 116.666 111.915 116.545 112.4 116.908C112.763 117.272 112.884 117.756 112.521 118.24C111.794 119.088 111.068 120.056 110.463 121.146C109.494 122.962 110.705 125.625 111.794 128.167C113.005 130.831 114.216 133.615 113.368 135.915C112.884 137.247 112.036 138.216 110.826 138.579C109.252 139.063 107.436 138.458 106.589 138.095C104.167 140.516 101.625 140.274 100.172 139.668C99.688 139.911 99.0826 140.153 98.1141 140.153Z" fill="#030047"/>
<path d="M100.657 122.599C99.6883 127.078 102.352 130.831 104.894 134.221C105.378 134.826 106.347 134.221 105.863 133.616C103.441 130.589 100.899 127.078 101.746 122.841C102.11 122.115 100.899 121.872 100.657 122.599Z" fill="#030047"/>
<path d="M94.4812 126.352C94.9654 130.347 95.6918 134.463 99.3237 136.764C99.929 137.127 100.534 136.037 99.929 135.674C96.6603 133.737 96.176 129.742 95.6918 126.352C95.5707 125.505 94.3601 125.505 94.4812 126.352Z" fill="#030047"/>
<path d="M87.4622 107.95C87.3411 85.5528 96.0577 53.8341 118.454 39.0643C147.51 19.8151 168.212 28.895 168.212 28.895V55.529C168.212 55.529 142.909 44.9964 127.534 69.8145C115.791 88.7005 119.786 101.896 119.786 101.896L87.4622 107.95Z" fill="#030047"/>
<path d="M147.39 54.439C146.906 54.439 146.543 54.0758 146.543 53.5915L145.695 46.5698C145.574 46.0856 145.937 45.6013 146.543 45.6013C147.027 45.6013 147.511 45.8435 147.511 46.4488L148.358 53.4705C148.358 53.9547 147.995 54.439 147.39 54.439C147.511 54.439 147.39 54.439 147.39 54.439Z" fill="white"/>
<path d="M41.6997 60.4929L12.0391 78.8946L49.0846 155.286L78.7453 137.005L41.6997 60.4929Z" fill="#E92453"/>
<path d="M129.957 99.5972C129.473 99.5972 129.109 99.234 128.988 98.7497L128.867 90.0332C128.867 89.549 129.23 89.0646 129.715 89.0646C130.199 89.0646 130.683 89.4278 130.683 89.9121L130.804 98.6287C130.925 99.113 130.562 99.5972 129.957 99.5972C130.078 99.5972 129.957 99.5972 129.957 99.5972Z" fill="#E92453"/>
<path d="M135.282 103.229C135.161 103.229 135.04 103.229 134.919 103.108C134.434 102.866 134.313 102.381 134.434 101.897L137.461 95.3595C137.703 94.8753 138.187 94.7543 138.672 94.8753C139.156 95.1175 139.277 95.6017 139.156 96.086L136.129 102.623C136.008 102.987 135.645 103.229 135.282 103.229Z" fill="#E92453"/>
<path d="M70.636 101.776C67.9726 101.776 64.8249 100.807 62.0405 97.5385C61.3141 96.57 60.5876 95.6015 59.8613 94.633C57.0768 90.5169 55.0188 87.6113 48.1181 90.88C47.6339 91.1221 47.1496 90.8801 46.9075 90.3958C46.6654 89.9115 46.9075 89.4273 47.3917 89.1852C55.624 85.3111 58.5296 89.5483 61.314 93.5434C61.9194 94.5119 62.6458 95.4804 63.3721 96.3279C68.4568 102.381 74.8732 98.9913 75.1154 98.8703C75.5996 98.6281 76.0839 98.7492 76.326 99.2334C76.5681 99.7177 76.4471 100.202 75.9628 100.444C76.0839 100.444 73.7836 101.776 70.636 101.776Z" fill="#030047"/>
<path d="M69.0618 107.95C66.3984 107.95 63.2507 106.982 60.4662 103.713C59.7399 102.744 59.0135 101.776 58.2871 100.807C55.5026 96.6911 53.4445 93.7856 46.5439 97.0543C46.0596 97.2964 45.5754 97.0543 45.3333 96.57C45.0911 96.0858 45.3333 95.6015 45.8175 95.3594C54.0499 91.4854 56.9554 95.6016 59.7399 99.7177C60.3452 100.686 61.0716 101.655 61.798 102.502C66.8827 108.555 73.2991 105.166 73.5412 105.045C74.0254 104.802 74.5097 104.923 74.7518 105.408C74.994 105.892 74.8728 106.376 74.3886 106.618C74.5096 106.618 72.0884 107.95 69.0618 107.95Z" fill="#030047"/>
<path d="M57.3196 53.5931L54.4141 66.0626L66.1573 61.7044L57.3196 53.5931Z" fill="white"/>
<path d="M53.2031 67.515L56.714 51.8978L67.8519 62.0671L53.2031 67.515ZM57.8036 55.2875L55.7455 64.6095L64.4621 61.3407L57.8036 55.2875Z" fill="#030047"/>
<path d="M15.9098 105.712L8.80469 98.6071L1.69955 105.712L8.80469 112.817L15.9098 105.712Z" fill="white"/>
<path d="M8.7714 114.003L0.417969 105.65L8.7714 97.2967L17.1248 105.65L8.7714 114.003ZM2.96028 105.65L8.7714 111.461L14.5825 105.65L8.7714 99.839L2.96028 105.65Z" fill="#030047"/>
<path d="M132.62 149.112C132.378 149.112 132.257 148.991 132.015 148.87L128.141 145.48C127.778 145.117 127.657 144.633 128.02 144.149C128.383 143.785 128.868 143.664 129.352 144.027L133.226 147.417C133.589 147.78 133.71 148.265 133.347 148.749C133.105 148.991 132.863 149.112 132.62 149.112Z" fill="#E92453"/>
<path d="M75.5974 80.7105C75.4764 80.7105 75.3553 80.7105 75.2342 80.5894C74.75 80.3473 74.6289 79.863 74.8711 79.3788L78.8662 71.2676C79.1083 70.7833 79.5925 70.6622 80.0768 70.9043C80.5611 71.1464 80.6821 71.6307 80.44 72.115L76.4449 80.2262C76.3238 80.5894 75.9606 80.7105 75.5974 80.7105Z" fill="#E92453"/>
<path d="M161.917 97.0542C161.675 97.0542 161.433 96.9331 161.311 96.812C160.948 96.4488 160.948 95.8435 161.311 95.4803L168.938 87.8533C169.302 87.4901 169.907 87.4901 170.27 87.8533C170.633 88.2165 170.633 88.8218 170.27 89.185L162.643 96.812C162.28 96.9331 162.159 97.0542 161.917 97.0542Z" fill="#E92453"/>
<path d="M147.39 118.604C146.906 118.604 146.543 118.24 146.543 117.756L146.059 113.156C146.059 112.672 146.422 112.187 146.906 112.187C147.39 112.187 147.875 112.551 147.875 113.035L148.359 117.635C148.359 118.119 147.996 118.604 147.39 118.604Z" fill="#E92453"/>
<path d="M174.266 106.498L180.319 101.776L181.529 110.009L174.266 106.498Z" fill="white"/>
<path d="M196.542 155.286H49.0859V275.018H196.542V155.286Z" fill="#E92453"/>
<path d="M225.84 256.495L196.543 275.139V155.286L225.84 136.763V256.495Z" fill="#E92453"/>
<path d="M134.194 229.982H50.0547V274.17H134.194V229.982Z" fill="white"/>
<path d="M133.225 230.83V273.202H50.9019V230.83H133.225ZM135.041 229.014H49.0859V275.018H135.041V229.014Z" fill="#030047"/>
<path d="M108.408 273.929C108.166 273.929 108.045 273.929 107.924 273.808L50.4189 231.799C50.0557 231.556 49.9346 230.951 50.1767 230.588C50.4189 230.225 51.0242 230.104 51.3874 230.346L108.893 272.355C109.256 272.597 109.377 273.202 109.135 273.566C109.014 273.808 108.651 273.929 108.408 273.929Z" fill="#030047"/>
<path d="M75.6002 273.929C75.3581 273.929 74.9949 273.808 74.8739 273.566C74.6318 273.202 74.6318 272.597 75.116 272.355L132.137 230.346C132.5 230.104 133.106 230.104 133.348 230.588C133.59 230.951 133.59 231.556 133.106 231.799L76.0845 273.808C75.9635 273.929 75.8424 273.929 75.6002 273.929Z" fill="#030047"/>
<path d="M196.543 269.328C196.058 269.328 195.574 268.965 195.574 268.36V163.64C195.574 163.155 195.937 162.671 196.543 162.671C197.148 162.671 197.511 163.034 197.511 163.64V268.36C197.511 268.965 197.148 269.328 196.543 269.328Z" fill="white"/>
<path d="M94.1217 155.286V155.528C94.1217 186.883 74.1462 201.895 49.0859 202.743V155.407H94.1217V155.286Z" fill="#030047"/>
<path d="M81.7748 196.447L71.4844 204.801L84.1961 210.37L81.7748 196.447Z" fill="#030047"/>
<path d="M179.107 181.799H106.832V189.063H179.107V181.799Z" fill="white"/>
<path d="M150.176 202.743H137.585C136.133 202.743 135.043 201.532 135.043 200.2C135.043 198.748 136.254 197.658 137.585 197.658H150.176C151.629 197.658 152.718 198.869 152.718 200.2C152.839 201.532 151.629 202.743 150.176 202.743Z" fill="#030047"/>
<path d="M163.975 202.743H159.738C158.285 202.743 157.195 201.532 157.195 200.2C157.195 198.748 158.406 197.658 159.738 197.658H163.975C165.428 197.658 166.517 198.869 166.517 200.2C166.638 201.532 165.428 202.743 163.975 202.743Z" fill="#030047"/>
<path d="M176.444 202.743H172.206C170.754 202.743 169.664 201.532 169.664 200.2C169.664 198.748 170.875 197.658 172.206 197.658H176.444C177.896 197.658 178.986 198.869 178.986 200.2C178.986 201.532 177.896 202.743 176.444 202.743Z" fill="#030047"/>
<path d="M236.975 172.84H232.254V224.292H236.975V172.84Z" fill="#030047"/>
<path d="M225.839 136.763L209.496 147.174L196.663 155.407H49.0859L78.2623 136.763H85.284L62.1608 150.806L64.34 154.438H153.564L142.789 136.763H225.839Z" fill="#030047"/>
<path d="M154.047 154.438C162.885 148.99 174.87 146.206 189.64 146.206C193.998 146.206 198.598 146.448 203.441 146.932C204.894 147.053 206.104 147.296 207.194 147.538L196.298 154.438H154.047Z" fill="white"/>
<path d="M189.639 145.358V147.174C193.997 147.174 198.598 147.416 203.319 147.9C203.803 147.9 204.288 148.021 204.772 148.021L196.176 153.469H157.557C165.91 149.232 176.685 147.053 189.639 147.053V145.358ZM189.639 145.358C174.869 145.358 161.189 148.021 151.02 155.406H196.661L209.493 147.295C208.041 146.811 206.104 146.448 203.561 146.084C198.84 145.6 194.239 145.358 189.639 145.358Z" fill="#030047"/>
<path d="M41.8204 125.019H41.6993L27.0506 122.356C26.5663 122.235 26.2032 121.75 26.3242 121.266C26.4453 120.782 26.9295 120.419 27.4138 120.54L42.0625 123.203C42.5468 123.324 42.91 123.808 42.7889 124.293C42.6678 124.656 42.3047 125.019 41.8204 125.019Z" fill="#030047"/>
<path d="M33.2263 130.951H33.1053C32.621 130.83 32.2579 130.346 32.3789 129.862L35.0423 115.213C35.1633 114.729 35.6476 114.365 36.1319 114.486C36.6161 114.608 36.9793 115.092 36.8582 115.576L34.1949 130.225C33.9528 130.588 33.5895 130.951 33.2263 130.951Z" fill="#030047"/>
<path d="M147.388 145.237C153.071 145.237 157.679 140.63 157.679 134.946C157.679 129.263 153.071 124.656 147.388 124.656C141.705 124.656 137.098 129.263 137.098 134.946C137.098 140.63 141.705 145.237 147.388 145.237Z" fill="white"/>
<path d="M147.388 146.206C141.214 146.206 136.129 141.121 136.129 134.947C136.129 128.773 141.214 123.688 147.388 123.688C153.562 123.688 158.647 128.773 158.647 134.947C158.647 141.121 153.562 146.206 147.388 146.206ZM147.388 125.504C142.182 125.504 137.945 129.741 137.945 134.947C137.945 140.153 142.182 144.39 147.388 144.39C152.594 144.39 156.831 140.153 156.831 134.947C156.831 129.741 152.594 125.504 147.388 125.504Z" fill="#030047"/>
<path d="M66.0347 114.729L64.0977 136.762L82.2572 128.53L66.0347 114.729Z" fill="white"/>
<path d="M63.1289 138.215L65.308 112.913L83.9519 128.772L63.1289 138.215ZM66.7608 116.545L65.187 135.31L80.6832 128.288L66.7608 116.545Z" fill="#030047"/>
<path d="M236.978 90.033L207.802 108.556L196.543 155.528L225.84 137.006L236.978 90.033Z" fill="#E92453"/>
<path d="M199.934 154.197C199.692 154.197 199.329 154.076 199.208 153.834C198.966 153.471 199.087 152.865 199.45 152.623L221.968 138.338C222.331 138.096 222.936 138.217 223.179 138.58C223.421 138.943 223.3 139.548 222.936 139.79L200.419 154.076C200.298 154.076 200.055 154.197 199.934 154.197Z" fill="white"/>
<path d="M170.148 27.6853C205.015 26.2325 237.46 36.1597 248.719 50.2031C261.067 65.5782 254.772 95.8442 239.639 103.713C235.886 105.65 231.649 106.135 229.349 107.224C222.327 110.493 220.753 110.13 218.453 108.314C218.453 108.314 212.642 111.946 210.947 107.466C210.947 107.466 208.768 113.156 204.652 111.704C200.657 110.251 205.499 98.9919 216.516 93.1808C227.533 87.3697 233.223 72.8421 227.048 64.1255C220.753 55.4089 182.618 44.7553 182.618 44.7553L170.148 27.6853Z" fill="white"/>
<path d="M205.983 112.914C205.499 112.914 205.014 112.793 204.409 112.672C203.198 112.309 202.472 111.219 202.351 109.766C201.988 105.166 207.557 96.9335 216.152 92.4542C222.084 89.3065 226.685 83.3743 228.259 76.9579C229.348 72.3575 228.622 67.9992 226.322 64.7305C220.268 56.3771 182.86 45.8445 182.375 45.7235L182.133 45.6024L168.332 26.8376L170.027 26.7164C204.288 25.2637 237.581 34.9488 249.445 49.5975C255.498 57.2246 257.677 68.9678 255.135 81.0741C252.835 91.9699 247.266 100.686 240.123 104.439C237.823 105.65 235.401 106.255 233.343 106.861C231.891 107.224 230.68 107.587 229.832 107.95C223.174 111.098 220.995 111.098 218.452 109.282C217.363 109.887 214.821 110.977 212.762 110.25C212.157 110.008 211.552 109.645 211.189 109.161C210.099 111.098 208.283 112.914 205.983 112.914ZM183.344 44.0286C187.218 45.1182 221.842 55.1664 227.895 63.6409C230.559 67.2728 231.285 72.1154 230.075 77.3212C228.501 84.2218 223.416 90.6382 217 94.028C208.646 98.3863 203.925 106.013 204.167 109.645C204.288 110.735 204.772 110.856 205.014 110.977C208.162 112.066 210.099 107.345 210.099 107.224L210.947 105.045L211.794 107.224C212.036 108.071 212.52 108.556 213.247 108.677C214.821 109.161 217.242 108.071 217.968 107.587L218.574 107.224L219.058 107.587C220.874 109.04 222.084 109.645 228.985 106.376C230.075 105.892 231.285 105.529 232.738 105.166C234.796 104.561 237.096 103.955 239.154 102.866C245.813 99.3548 251.14 91.1224 253.319 80.832C255.74 69.2099 253.803 58.072 247.992 50.8082C236.733 36.7648 204.893 27.5639 171.843 28.5324L183.344 44.0286Z" fill="#030047"/>
<path d="M227.17 64.1251C230.559 68.7255 230.438 75.1419 228.017 80.8319C235.886 83.7374 247.75 86.5219 255.377 90.0328C261.31 77.5632 261.431 59.2826 252.109 49.4764C233.949 30.7115 205.136 26.1111 170.27 27.5638L186.734 56.0138C186.613 56.0138 220.874 55.5296 227.17 64.1251Z" fill="#030047"/>
<path d="M218.333 96.8124C215.185 98.9916 212.643 101.776 210.948 105.166C210.585 105.892 211.674 106.498 212.038 105.771C213.733 102.502 216.033 99.839 219.059 97.902C219.544 97.4178 218.938 96.4492 218.333 96.8124Z" fill="#030047"/>
<path d="M224.99 99.3543C222.447 101.17 220.51 103.47 219.057 106.255C218.694 106.981 219.784 107.587 220.147 106.86C221.479 104.318 223.295 102.139 225.595 100.444C226.2 99.9596 225.595 98.9911 224.99 99.3543Z" fill="#030047"/>
<path d="M203.561 57.9508C203.44 57.9508 203.44 57.9508 203.319 57.9508L198.355 56.3769C197.871 56.2558 197.629 55.7716 197.75 55.2874C197.871 54.8031 198.355 54.561 198.839 54.682L203.803 56.2559C204.287 56.3769 204.529 56.8612 204.408 57.3455C204.287 57.7086 203.924 57.9508 203.561 57.9508Z" fill="#030047"/>
<path d="M36.494 211.217C36.2519 211.217 36.0098 211.096 35.8887 210.975L16.6396 191.726C16.2764 191.363 16.2764 190.758 16.6396 190.394C17.0028 190.031 17.6081 190.031 17.9713 190.394L37.2204 209.644C37.5836 210.007 37.5836 210.612 37.2204 210.975C36.9783 211.217 36.7361 211.217 36.494 211.217Z" fill="#030047"/>
<path d="M17.2449 211.217C17.0028 211.217 16.7606 211.096 16.6396 210.975C16.2764 210.612 16.2764 210.007 16.6396 209.644L35.8887 190.394C36.2519 190.031 36.8572 190.031 37.2204 190.394C37.5836 190.758 37.5836 191.363 37.2204 191.726L17.9713 210.975C17.7291 211.217 17.487 211.217 17.2449 211.217Z" fill="#030047"/>
<path d="M36.495 227.804H17.2459C16.7617 227.804 16.2773 227.44 16.2773 226.835C16.2773 226.23 16.6406 225.867 17.2459 225.867H36.495C36.9793 225.867 37.4635 226.23 37.4635 226.835C37.4635 227.44 36.9793 227.804 36.495 227.804Z" fill="#030047"/>
<path d="M174.625 14.3674C174.262 13.5199 173.778 12.6725 173.173 11.825C173.173 11.825 173.173 11.825 173.173 11.704C167.604 3.71376 157.434 1.29248 150.291 6.2561C146.902 8.67737 144.965 12.4304 144.48 16.5465C143.875 21.0259 145.57 25.6263 147.386 29.6214C151.502 38.8223 160.824 42.9384 170.267 35.0693C172.325 33.3744 173.899 31.1952 174.989 28.6529C178.62 27.9265 180.8 25.2631 181.163 21.9944C181.526 18.2414 178.742 14.0042 174.625 14.3674Z" fill="white"/>
<path d="M160.098 40.1538C159.13 40.1538 158.161 40.0327 157.193 39.7906C152.713 38.701 148.718 35.1901 146.418 29.9844C144.723 26.2314 142.786 21.2678 143.512 16.4252C144.118 11.7037 146.297 7.82967 149.687 5.52946C153.076 3.22924 157.314 2.26073 161.551 3.10818C166.393 3.95563 170.873 6.98224 173.899 11.2195C174.384 11.9459 174.868 12.6723 175.231 13.5197C176.926 13.5197 178.5 14.2461 179.832 15.5778C181.526 17.2727 182.374 19.815 182.011 22.2363C181.526 25.9893 179.105 28.7737 175.594 29.6212C174.505 32.0425 172.81 34.2216 170.752 35.9165C167.241 38.701 163.609 40.1538 160.098 40.1538ZM158.524 4.56096C155.74 4.56096 152.955 5.40841 150.655 6.98224C147.629 9.04032 145.813 12.4301 145.207 16.6673C144.602 21.0256 146.297 25.505 147.992 29.258C150.05 33.8584 153.561 37.1271 157.556 38.0956C161.43 38.9431 165.546 37.7325 169.541 34.4637C171.478 32.8899 173.052 30.8318 174.02 28.4105L174.263 27.9263L174.747 27.8052C177.773 27.1999 179.832 25.0207 180.195 21.8731C180.437 20.0571 179.71 17.999 178.5 16.6673C177.773 15.941 176.563 15.0935 174.747 15.2146H174.142L173.899 14.6092C173.415 13.6407 173.052 12.9143 172.568 12.188C169.783 8.19286 165.788 5.52951 161.309 4.68207C160.34 4.68207 159.372 4.56096 158.524 4.56096Z" fill="#030047"/>
<path d="M158.591 23.2136C158.951 22.6503 158.786 21.9017 158.222 21.5416C157.659 21.1816 156.91 21.3464 156.55 21.9098C156.19 22.4732 156.355 23.2217 156.919 23.5818C157.482 23.9418 158.23 23.777 158.591 23.2136Z" fill="#030047"/>
<path d="M153.199 31.8C151.989 29.3788 151.141 26.8364 150.536 24.173C150.415 23.4467 151.625 23.2045 151.746 23.9309C152.231 26.4732 153.078 28.8946 154.289 31.3158C154.652 31.9211 153.562 32.5264 153.199 31.8Z" fill="#030047"/>
<path d="M170.997 23.0839C171.239 20.2995 173.418 17.8782 176.324 17.515C177.05 17.394 177.413 18.6046 176.566 18.7257C174.265 18.9678 172.45 20.7837 172.207 23.0839C172.086 23.9314 170.876 23.8103 170.997 23.0839Z" fill="#030047"/>
<path d="M169.785 17.5155C168.938 20.542 165.063 16.4259 157.679 14.9731C154.41 14.3678 140.488 19.2103 138.308 14.4889C135.04 7.58822 144.24 3.59308 150.173 6.13542C149.567 3.59308 152.473 -0.159866 156.347 1.77715C166.758 -3.42859 176.201 3.35101 174.991 14.9731C174.991 15.0942 170.753 16.5469 169.785 17.5155Z" fill="#030047"/>
</svg>
