<svg width="16" height="15" viewBox="0 0 16 15" fill="none" xmlns="http://www.w3.org/2000/svg">
<path d="M0.661079 11.2484C0.612267 11.2484 0.573218 11.2703 0.543931 11.3143C0.514644 11.3582 0.500001 11.4143 0.500001 11.4827L0.500001 11.9513C0.500001 12.0196 0.514643 12.0757 0.54393 12.1197C0.573217 12.1636 0.612267 12.1856 0.661079 12.1856L2.55009 12.947L3.31155 14.836C3.31155 14.8849 3.33352 14.9239 3.37745 14.9532C3.42138 14.9825 3.47751 14.9971 3.54585 14.9971L4.01444 14.9971C4.08278 14.9971 4.13891 14.9825 4.18284 14.9532C4.22677 14.9239 4.24874 14.8849 4.24874 14.836L4.24874 13.1667L8.40749 9.02257L9.87184 14.5285C9.87184 14.6554 9.91821 14.7653 10.011 14.858C10.1037 14.9507 10.2135 14.9971 10.3404 14.9971L11.2776 14.9971C11.4143 14.9971 11.5266 14.9507 11.6144 14.858C11.7023 14.7653 11.7462 14.6554 11.7462 14.5285L11.7462 5.68385L14.382 3.06267C14.6261 2.80885 14.9019 2.29876 15.2094 1.53242C15.5169 0.766077 15.5804 0.290164 15.3998 0.104679C15.2192 -0.0808051 14.7432 -0.0197905 13.972 0.287723C13.2008 0.595236 12.6932 0.875903 12.4491 1.12972L9.81327 3.75091L0.968593 3.75091C0.841682 3.75091 0.731856 3.79728 0.639114 3.89002C0.546372 3.98277 0.500002 4.09259 0.500002 4.2195L0.500001 5.15669C0.500001 5.2836 0.546372 5.39342 0.639114 5.48617C0.731856 5.57891 0.841682 5.62528 0.968593 5.62528L6.47455 7.08963L2.30115 11.2484L0.661079 11.2484Z" fill="#F8F8FA"/>
</svg>
