<svg width="237" height="225" viewBox="0 0 237 225" fill="none" xmlns="http://www.w3.org/2000/svg">
<path d="M112.037 54.6504C119.18 58.8876 122.933 69.5412 122.933 69.5412L116.638 71.1151C116.638 71.1151 111.916 65.304 108.163 65.304C104.41 65.304 112.037 54.6504 112.037 54.6504Z" fill="white"/>
<path d="M116.153 72.0833L115.79 71.599C114.579 70.0251 110.705 66.1511 108.042 66.1511C106.952 66.1511 106.468 65.5458 106.347 65.1826C105.136 62.8824 109.373 56.7081 111.31 54.0447L111.795 53.3184L112.521 53.6815C119.785 58.0398 123.659 68.5724 123.78 68.9355L124.143 69.9041L116.153 72.0833ZM107.921 64.3351C107.921 64.3351 108.042 64.3351 107.921 64.3351C111.552 64.3351 115.548 68.5724 116.879 70.0252L121.601 68.8145C120.511 66.2722 117.364 59.3715 112.158 55.8607C109.615 59.7347 107.678 63.4877 107.921 64.3351Z" fill="#030047"/>
<path d="M153.563 103.438H64.3393L62.1602 99.8066L85.2833 85.7632L127.171 60.2188L142.789 85.7632L153.563 103.438Z" fill="white"/>
<path d="M126.808 61.4291L142.183 86.7314L151.868 102.47H64.9443L63.4915 100.048L84.4356 87.2157L126.808 61.4291ZM127.413 59.0078L83.4671 85.7629L60.9492 99.5642L63.8548 104.407H155.137L143.878 85.8839L127.413 59.0078Z" fill="#030047"/>
<path d="M89.7615 94.7222C89.3983 94.7222 89.1562 94.6011 89.0351 94.2379C88.793 93.7537 88.9141 93.2694 89.3983 93.0273L122.086 73.0517C122.57 72.8096 123.054 72.9307 123.296 73.2939C123.538 73.7781 123.417 74.2624 122.933 74.5045L90.2458 94.4801C90.0036 94.7222 89.8825 94.7222 89.7615 94.7222Z" fill="#030047"/>
<path d="M95.574 104.408C95.2108 104.408 94.9687 104.287 94.8476 103.923C94.6055 103.439 94.7266 102.955 95.2108 102.713L127.898 82.7373C128.382 82.4952 128.867 82.6162 129.109 82.9794C129.351 83.4637 129.23 83.9479 128.745 84.1901L96.0583 104.166C95.9372 104.408 95.8161 104.408 95.574 104.408Z" fill="#030047"/>
<path d="M41.6997 9.49414L12.0391 27.8959L49.0846 104.287L78.7453 86.0065L41.6997 9.49414Z" fill="#E92453"/>
<path d="M129.957 48.597C129.473 48.597 129.109 48.2338 128.988 47.7496L128.867 39.033C128.867 38.5488 129.23 38.0645 129.715 38.0645C130.199 38.0645 130.683 38.4277 130.683 38.9119L130.804 47.6285C130.925 48.1128 130.562 48.597 129.957 48.597C130.078 48.597 129.957 48.597 129.957 48.597Z" fill="#E92453"/>
<path d="M135.282 52.2291C135.161 52.2291 135.04 52.2291 134.919 52.108C134.434 51.8659 134.313 51.3816 134.434 50.8974L137.461 44.3599C137.703 43.8757 138.187 43.7546 138.672 43.8757C139.156 44.1178 139.277 44.6021 139.156 45.0863L136.129 51.6237C136.008 51.9869 135.645 52.2291 135.282 52.2291Z" fill="#E92453"/>
<path d="M70.636 50.7767C67.9726 50.7767 64.8249 49.8082 62.0405 46.5394C61.3141 45.5709 60.5876 44.6025 59.8613 43.6339C57.0768 39.5178 55.0188 36.6122 48.1181 39.8809C47.6339 40.1231 47.1496 39.881 46.9075 39.3967C46.6654 38.9125 46.9075 38.4282 47.3917 38.1861C55.624 34.312 58.5296 38.5492 61.314 42.5443C61.9194 43.5129 62.6458 44.4814 63.3721 45.3288C68.4568 51.382 74.8732 47.9922 75.1154 47.8712C75.5996 47.6291 76.0839 47.7501 76.326 48.2344C76.5681 48.7186 76.4471 49.2029 75.9628 49.445C76.0839 49.445 73.7836 50.7767 70.636 50.7767Z" fill="#030047"/>
<path d="M69.0618 56.9516C66.3984 56.9516 63.2507 55.9831 60.4662 52.7144C59.7399 51.7458 59.0135 50.7773 58.2871 49.8088C55.5026 45.6926 53.4445 42.7871 46.5439 46.0558C46.0596 46.298 45.5754 46.0558 45.3333 45.5716C45.0911 45.0873 45.3333 44.6031 45.8175 44.3609C54.0499 40.4869 56.9554 44.6031 59.7399 48.7193C60.3452 49.6878 61.0716 50.6563 61.798 51.5037C66.8827 57.5569 73.2991 54.1671 73.5412 54.046C74.0254 53.8039 74.5097 53.925 74.7518 54.4092C74.994 54.8935 74.8728 55.3777 74.3886 55.6198C74.5096 55.6198 72.0884 56.9516 69.0618 56.9516Z" fill="#030047"/>
<path d="M57.3196 2.59375L54.4141 15.0633L66.1573 10.705L57.3196 2.59375Z" fill="white"/>
<path d="M53.2031 16.5156L56.714 0.898438L67.8519 11.0678L53.2031 16.5156ZM57.8036 4.28821L55.7455 13.6101L64.4621 10.3414L57.8036 4.28821Z" fill="#030047"/>
<path d="M15.9098 54.7126L8.80469 47.6074L1.69955 54.7126L8.80469 61.8177L15.9098 54.7126Z" fill="white"/>
<path d="M8.7714 63.0037L0.417969 54.6502L8.7714 46.2969L17.1248 54.6502L8.7714 63.0037ZM2.96028 54.6502L8.7714 60.4613L14.5825 54.6502L8.7714 48.8392L2.96028 54.6502Z" fill="#030047"/>
<path d="M132.62 98.1126C132.378 98.1126 132.257 97.9915 132.015 97.8705L128.141 94.4807C127.778 94.1175 127.657 93.6332 128.02 93.1489C128.383 92.7857 128.868 92.6647 129.352 93.0279L133.226 96.4177C133.589 96.7809 133.71 97.2652 133.347 97.7494C133.105 97.9915 132.863 98.1126 132.62 98.1126Z" fill="#E92453"/>
<path d="M75.5974 29.7105C75.4764 29.7105 75.3553 29.7104 75.2342 29.5894C74.75 29.3472 74.6289 28.863 74.8711 28.3787L78.8662 20.2675C79.1083 19.7832 79.5925 19.6621 80.0768 19.9043C80.5611 20.1464 80.6821 20.6306 80.44 21.1149L76.4449 29.2262C76.3238 29.5894 75.9606 29.7105 75.5974 29.7105Z" fill="#E92453"/>
<path d="M161.917 46.0553C161.675 46.0553 161.433 45.9342 161.311 45.8132C160.948 45.45 160.948 44.8447 161.311 44.4815L168.938 36.8544C169.302 36.4912 169.907 36.4912 170.27 36.8544C170.633 37.2176 170.633 37.823 170.27 38.1862L162.643 45.8132C162.28 45.9342 162.159 46.0553 161.917 46.0553Z" fill="#E92453"/>
<path d="M147.39 67.6039C146.906 67.6039 146.543 67.2407 146.543 66.7564L146.059 62.156C146.059 61.6717 146.422 61.1875 146.906 61.1875C147.39 61.1875 147.875 61.5507 147.875 62.035L148.359 66.6354C148.359 67.1196 147.996 67.6039 147.39 67.6039Z" fill="#E92453"/>
<path d="M174.266 55.4989L180.319 50.7773L181.529 59.0097L174.266 55.4989Z" fill="white"/>
<path d="M196.542 104.287H49.0859V224.019H196.542V104.287Z" fill="#E92453"/>
<path d="M225.84 205.496L196.543 224.14V104.286L225.84 85.7637V205.496Z" fill="#E92453"/>
<path d="M134.194 178.982H50.0547V223.171H134.194V178.982Z" fill="white"/>
<path d="M133.225 179.83V222.202H50.9019V179.83H133.225ZM135.041 178.014H49.0859V224.018H135.041V178.014Z" fill="#030047"/>
<path d="M108.408 222.93C108.166 222.93 108.045 222.93 107.924 222.809L50.4189 180.799C50.0557 180.557 49.9346 179.952 50.1767 179.589C50.4189 179.226 51.0242 179.105 51.3874 179.347L108.893 221.356C109.256 221.598 109.377 222.203 109.135 222.566C109.014 222.809 108.651 222.93 108.408 222.93Z" fill="#030047"/>
<path d="M75.6002 222.93C75.3581 222.93 74.9949 222.808 74.8739 222.566C74.6318 222.203 74.6318 221.598 75.116 221.356L132.137 179.347C132.5 179.104 133.106 179.104 133.348 179.589C133.59 179.952 133.59 180.557 133.106 180.799L76.0845 222.808C75.9635 222.93 75.8424 222.93 75.6002 222.93Z" fill="#030047"/>
<path d="M196.543 218.329C196.058 218.329 195.574 217.966 195.574 217.361V112.64C195.574 112.156 195.937 111.672 196.543 111.672C197.148 111.672 197.511 112.035 197.511 112.64V217.361C197.511 217.966 197.148 218.329 196.543 218.329Z" fill="white"/>
<path d="M94.1217 104.287V104.529C94.1217 135.885 74.1462 150.897 49.0859 151.744V104.408H94.1217V104.287Z" fill="#030047"/>
<path d="M81.7748 145.447L71.4844 153.801L84.1961 159.37L81.7748 145.447Z" fill="#030047"/>
<path d="M179.107 130.799H106.832V138.063H179.107V130.799Z" fill="white"/>
<path d="M150.176 151.743H137.585C136.133 151.743 135.043 150.532 135.043 149.201C135.043 147.748 136.254 146.658 137.585 146.658H150.176C151.629 146.658 152.718 147.869 152.718 149.201C152.839 150.532 151.629 151.743 150.176 151.743Z" fill="#030047"/>
<path d="M163.975 151.743H159.738C158.285 151.743 157.195 150.532 157.195 149.201C157.195 147.748 158.406 146.658 159.738 146.658H163.975C165.428 146.658 166.517 147.869 166.517 149.201C166.638 150.532 165.428 151.743 163.975 151.743Z" fill="#030047"/>
<path d="M176.444 151.743H172.206C170.754 151.743 169.664 150.532 169.664 149.201C169.664 147.748 170.875 146.658 172.206 146.658H176.444C177.896 146.658 178.986 147.869 178.986 149.201C178.986 150.532 177.896 151.743 176.444 151.743Z" fill="#030047"/>
<path d="M236.975 121.84H232.254V173.292H236.975V121.84Z" fill="#030047"/>
<path d="M225.839 85.7637L209.496 96.1751L196.663 104.408H49.0859L78.2623 85.7637H85.284L62.1608 99.807L64.34 103.439H153.564L142.789 85.7637H225.839Z" fill="#030047"/>
<path d="M154.047 103.439C162.885 97.9915 174.87 95.207 189.64 95.207C193.998 95.207 198.598 95.4492 203.441 95.9335C204.894 96.0545 206.104 96.2967 207.194 96.5388L196.298 103.439H154.047Z" fill="white"/>
<path d="M189.639 94.3594V96.1753C193.997 96.1753 198.598 96.4175 203.319 96.9018C203.803 96.9018 204.288 97.0228 204.772 97.0228L196.176 102.471H157.557C165.91 98.2334 176.685 96.0543 189.639 96.0543V94.3594ZM189.639 94.3594C174.869 94.3594 161.189 97.0228 151.02 104.408H196.661L209.493 96.2964C208.041 95.8122 206.104 95.449 203.561 95.0858C198.84 94.6015 194.239 94.3594 189.639 94.3594Z" fill="#030047"/>
<path d="M41.8204 74.0204H41.6993L27.0506 71.357C26.5663 71.2359 26.2032 70.7517 26.3242 70.2675C26.4453 69.7832 26.9295 69.42 27.4138 69.541L42.0625 72.2045C42.5468 72.3255 42.91 72.8098 42.7889 73.2941C42.6678 73.6573 42.3047 74.0204 41.8204 74.0204Z" fill="#030047"/>
<path d="M33.2263 79.953H33.1053C32.621 79.832 32.2579 79.3477 32.3789 78.8634L35.0423 64.2147C35.1633 63.7305 35.6476 63.3672 36.1319 63.4883C36.6161 63.6094 36.9793 64.0937 36.8582 64.5779L34.1949 79.2266C33.9528 79.5898 33.5895 79.953 33.2263 79.953Z" fill="#030047"/>
<path d="M147.388 94.2391C153.071 94.2391 157.679 89.6319 157.679 83.9486C157.679 78.2654 153.071 73.6582 147.388 73.6582C141.705 73.6582 137.098 78.2654 137.098 83.9486C137.098 89.6319 141.705 94.2391 147.388 94.2391Z" fill="white"/>
<path d="M147.388 95.2073C141.214 95.2073 136.129 90.1226 136.129 83.9484C136.129 77.7741 141.214 72.6895 147.388 72.6895C153.562 72.6895 158.647 77.7741 158.647 83.9484C158.647 90.1226 153.562 95.2073 147.388 95.2073ZM147.388 74.5054C142.182 74.5054 137.945 78.7426 137.945 83.9484C137.945 89.1541 142.182 93.3913 147.388 93.3913C152.594 93.3913 156.831 89.1541 156.831 83.9484C156.831 78.7426 152.594 74.5054 147.388 74.5054Z" fill="#030047"/>
<path d="M66.0347 63.7305L64.0977 85.7641L82.2572 77.5318L66.0347 63.7305Z" fill="white"/>
<path d="M63.1289 87.2164L65.308 61.9141L83.9519 77.7735L63.1289 87.2164ZM66.7608 65.546L65.187 84.3109L80.6832 77.2892L66.7608 65.546Z" fill="#030047"/>
<path d="M236.978 39.0332L207.802 57.556L196.543 104.529L225.84 86.006L236.978 39.0332Z" fill="#E92453"/>
<path d="M199.934 103.198C199.692 103.198 199.329 103.077 199.208 102.835C198.966 102.472 199.087 101.867 199.45 101.624L221.968 87.3389C222.331 87.0967 222.936 87.2178 223.179 87.581C223.421 87.9442 223.3 88.5495 222.936 88.7916L200.419 103.077C200.298 103.077 200.055 103.198 199.934 103.198Z" fill="white"/>
<path d="M36.494 160.218C36.2519 160.218 36.0098 160.097 35.8887 159.976L16.6396 140.727C16.2764 140.364 16.2764 139.759 16.6396 139.395C17.0028 139.032 17.6081 139.032 17.9713 139.395L37.2204 158.645C37.5836 159.008 37.5836 159.613 37.2204 159.976C36.9783 160.218 36.7361 160.218 36.494 160.218Z" fill="#030047"/>
<path d="M17.2449 160.218C17.0028 160.218 16.7606 160.097 16.6396 159.976C16.2764 159.613 16.2764 159.008 16.6396 158.645L35.8887 139.395C36.2519 139.032 36.8572 139.032 37.2204 139.395C37.5836 139.759 37.5836 140.364 37.2204 140.727L17.9713 159.976C17.7291 160.218 17.487 160.218 17.2449 160.218Z" fill="#030047"/>
<path d="M36.495 176.804H17.2459C16.7617 176.804 16.2773 176.441 16.2773 175.836C16.2773 175.23 16.6406 174.867 17.2459 174.867H36.495C36.9793 174.867 37.4635 175.23 37.4635 175.836C37.4635 176.441 36.9793 176.804 36.495 176.804Z" fill="#030047"/>
</svg>
