<svg width="372" height="346" viewBox="0 0 372 346" fill="none" xmlns="http://www.w3.org/2000/svg">
<path d="M131.039 308.35C132.371 315.371 134.792 320.335 137.576 324.088C137.819 324.451 138.061 324.693 138.303 325.056C138.908 325.783 139.513 326.388 140.119 326.993C140.482 327.357 140.724 327.599 141.087 327.841C144.356 330.746 147.867 332.441 150.893 333.773C158.52 337.042 158.884 345.395 158.884 345.395L99.0781 345.032C99.8045 335.105 99.8045 316.34 99.8045 316.34C112.274 312.587 118.327 310.287 131.039 308.35Z" fill="#23384D"/>
<path d="M137.697 323.967C137.939 324.33 138.181 324.572 138.424 324.935C136.002 326.025 133.581 327.236 131.16 328.325C130.433 328.688 129.828 327.599 130.554 327.357C132.855 326.267 135.276 325.177 137.697 323.967Z" fill="white"/>
<path d="M140.238 326.873C140.601 327.236 140.843 327.478 141.207 327.721C138.543 329.052 135.759 330.263 133.095 331.594C132.369 331.958 131.764 330.868 132.49 330.626C135.032 329.294 137.696 328.084 140.238 326.873Z" fill="white"/>
<path d="M48.1094 302.782C42.5405 307.261 39.2718 311.741 37.3348 315.978C37.2137 316.341 36.9716 316.704 36.8505 317.067C36.4873 317.915 36.2452 318.762 36.003 319.61C35.882 319.973 35.7609 320.457 35.6399 320.821C34.6714 325.058 34.7924 329.053 35.0345 332.322C35.6399 340.554 28.4971 344.791 28.4971 344.791L0.894531 291.765C9.24794 285.954 17.2381 280.506 23.6545 274.09C32.6132 283.291 40.3613 292.37 48.1094 302.782Z" fill="#23384D"/>
<path d="M137.091 178.449C137.091 178.449 122.684 172.396 110.82 170.822C111.546 160.41 111.789 153.51 111.789 153.51L73.5323 156.052C69.4161 179.66 67.7212 213.921 50.288 244.065C42.4189 257.746 28.8598 268.641 14.6953 280.869C22.5645 291.644 35.1551 305.808 43.1453 316.583C45.4455 312.83 79.5855 294.791 97.0187 248.424C96.5345 285.59 95.2028 323.604 95.2028 323.604L138.544 320.82C138.544 320.82 144.476 242.25 137.091 178.449Z" fill="white"/>
<path d="M94.234 324.573V323.604C94.234 323.241 95.4446 288.617 96.0499 253.387C81.7644 287.769 58.5201 305.566 48.4718 313.314C46.2926 315.009 44.3557 316.461 43.9925 317.067L43.2661 318.277L42.4186 317.188C38.6656 312.103 33.702 306.171 28.9805 300.481C23.6537 293.944 18.0848 287.285 13.8476 281.474L13.3633 280.748L13.9686 280.142C15.4214 278.932 16.8742 277.6 18.3269 276.389C30.6755 265.736 42.2975 255.687 49.3192 243.581C63.3627 219.247 67.1156 192.25 70.2633 170.458C70.9897 165.253 71.7161 160.289 72.4425 155.81L72.5635 155.083L112.515 152.42V153.388C112.515 153.51 112.272 160.047 111.546 169.853C123.289 171.548 137.091 177.359 137.212 177.48L137.696 177.722L137.817 178.207C145.081 241.281 139.27 319.851 139.27 320.699V321.546L94.234 324.573ZM97.9869 243.218L97.8659 248.424C97.3816 281.837 96.2921 316.34 96.0499 322.636L137.575 319.972C138.18 311.619 142.902 238.617 136.122 179.175C133.459 178.085 120.989 173.122 110.578 171.79L109.73 171.669L109.851 170.822C110.456 162.831 110.699 156.778 110.82 154.599L74.2584 157.02C73.5321 161.379 72.9267 165.979 72.2003 170.943C69.0527 192.855 65.2997 220.095 51.1352 244.671C43.9924 257.019 32.2493 267.188 19.7797 277.963C18.5691 279.053 17.3584 280.142 16.0267 281.111C20.1429 286.68 25.4697 293.096 30.5544 299.27C35.0337 304.718 39.6342 310.287 43.3872 315.13C44.2346 314.403 45.5663 313.314 47.5033 311.861C57.9148 303.871 82.4908 284.985 96.4131 248.06L97.9869 243.218Z" fill="#23384D"/>
<path d="M37.335 315.978C37.2139 316.341 36.9718 316.704 36.8507 317.067C34.6715 315.493 32.6135 313.798 30.4343 312.225C29.829 311.74 30.4343 310.651 31.0396 311.135C33.0977 312.83 35.1558 314.404 37.335 315.978Z" fill="white"/>
<path d="M36.0028 319.61C35.8817 319.973 35.7607 320.458 35.6396 320.821C33.2183 319.005 30.797 317.31 28.4968 315.494C27.8915 315.01 28.4968 313.92 29.1021 314.405C31.4024 316.099 33.7026 317.794 36.0028 319.61Z" fill="white"/>
<path d="M99.8038 242.491C99.6827 242.491 99.5617 242.491 99.4406 242.37C98.9563 242.249 98.7142 241.643 98.9563 241.159C107.552 218.883 110.821 192.976 110.821 192.733L110.942 192.007H111.668C111.789 192.007 118.448 191.644 122.927 190.433C123.411 190.312 123.895 190.554 124.017 191.039C124.138 191.523 123.895 192.007 123.411 192.128C119.658 193.097 114.452 193.581 112.515 193.702C111.91 198.181 108.52 221.426 100.651 241.764C100.409 242.249 100.167 242.491 99.8038 242.491Z" fill="#23384D"/>
<path d="M223.773 172.153C219.899 174.937 215.299 176.39 210.819 173.969C203.676 169.974 206.824 161.499 210.698 156.172L205.977 150.24L174.379 175.906L200.044 207.503L231.642 181.838L223.773 172.153Z" fill="#E92453"/>
<path d="M271.473 287.525L237.454 296.242L216.026 301.811L201.74 246.364L217.842 242.247C216.026 235.347 220.263 228.325 227.164 226.63C235.275 224.572 241.086 229.051 242.781 235.952L257.308 232.199L261.062 246.727L271.473 287.525Z" fill="white"/>
<path d="M215.299 302.902L200.529 245.639L216.631 241.523C216.025 238.133 216.631 234.864 218.326 231.959C220.142 228.811 223.168 226.511 226.8 225.663C230.674 224.695 234.427 225.058 237.333 226.874C240.117 228.569 242.175 231.353 243.265 234.743L257.792 230.99L272.562 288.253L215.299 302.902ZM202.829 246.97L216.631 300.723L270.383 286.922L256.582 233.169L242.175 236.922L241.933 236.196C240.965 232.685 239.149 230.022 236.485 228.448C233.943 226.874 230.795 226.632 227.284 227.479C224.137 228.327 221.594 230.264 220.021 232.927C218.447 235.712 217.962 238.859 218.689 242.007L218.931 242.854L218.084 243.096L202.829 246.97Z" fill="#23384D"/>
<path d="M226.92 265.978L219.777 267.915L215.298 269.004L212.271 257.382L224.015 254.355L224.741 257.382L226.92 265.978Z" fill="#E92453"/>
<path d="M241.571 262.345L234.428 264.282L229.948 265.371L226.922 253.749L238.665 250.723L239.391 253.749L241.571 262.345Z" fill="#E92453"/>
<path d="M271.474 287.527L237.455 296.244C236.607 292.854 236.244 289.343 236.244 285.832C236.244 268.52 246.292 253.508 261.062 246.486L271.474 287.527Z" fill="white"/>
<path d="M236.728 297.333L236.486 296.485C235.639 293.096 235.154 289.464 235.154 285.832C235.154 268.762 245.082 253.024 260.457 245.76L261.425 245.275L272.442 288.253L236.728 297.333ZM260.336 247.818C246.171 255.082 237.091 269.851 237.091 285.832C237.091 288.979 237.455 292.127 238.181 295.154L270.384 286.921L260.336 247.818Z" fill="#23384D"/>
<path d="M370.503 184.26L362.634 202.299C354.038 198.546 344.716 200.967 340.358 211.015C336.605 219.611 340.6 229.538 349.196 233.291L340.479 253.267L271.473 223.243L291.932 176.27L301.496 154.236L325.467 164.648L333.457 168.159L360.333 179.902L370.503 184.26Z" fill="white"/>
<path d="M340.963 254.477L270.262 223.727L301.012 153.025L371.713 183.776L363.239 203.388L362.27 203.146C358.033 201.33 353.554 201.088 349.801 202.541C346.048 203.993 343.142 207.141 341.205 211.499C337.694 219.611 341.447 228.932 349.437 232.564L350.406 232.806L350.043 233.775L340.963 254.477ZM272.683 222.879L340.116 252.177L348.106 233.896C339.631 229.78 335.878 219.489 339.631 210.773C341.689 205.93 345.079 202.54 349.195 200.846C353.19 199.272 357.791 199.393 362.27 201.209L369.413 184.744L301.98 155.447L272.683 222.879Z" fill="#23384D"/>
<path d="M333.336 196.851C333.336 210.168 324.619 216.342 313.845 216.342C303.07 216.342 294.354 207.625 294.354 196.851C294.354 186.076 303.07 177.359 313.845 177.359C324.619 177.359 333.336 186.076 333.336 196.851Z" fill="white"/>
<path d="M313.845 217.31C302.586 217.31 293.506 208.109 293.506 196.972C293.506 185.834 302.707 176.633 313.845 176.633C324.982 176.633 334.183 185.834 334.183 196.972C334.183 209.441 326.435 217.31 313.845 217.31ZM313.845 178.328C303.554 178.328 295.322 186.681 295.322 196.85C295.322 207.02 303.675 215.373 313.845 215.373C325.467 215.373 332.367 208.473 332.367 196.85C332.367 186.681 324.014 178.328 313.845 178.328Z" fill="#23384D"/>
<path d="M307.792 206.173L304.887 192.251C304.766 191.766 305.129 191.282 305.613 191.161C306.097 191.04 306.582 191.403 306.703 191.887L309.003 203.025L325.225 191.282C325.589 191.04 326.194 191.04 326.436 191.524C326.678 191.887 326.678 192.493 326.194 192.735L307.792 206.173Z" fill="#E92453"/>
<path d="M360.333 179.901C357.549 181.959 354.038 183.17 350.285 183.17C341.568 183.17 334.426 176.633 333.457 168.158L360.333 179.901Z" fill="white"/>
<path d="M350.285 184.017C341.205 184.017 333.578 177.238 332.609 168.279L332.367 166.705L362.149 179.659L360.817 180.627C357.791 182.807 354.038 184.017 350.285 184.017ZM334.546 169.732C336.12 176.996 342.658 182.322 350.164 182.322C353.069 182.322 355.854 181.596 358.275 180.143L334.546 169.732Z" fill="#23384D"/>
<path d="M245.807 23.8493L260.455 14.5273L261.908 31.1131L245.807 23.8493Z" fill="white"/>
<path d="M262.876 32.5654L243.869 23.9699L261.302 12.9531L262.876 32.5654ZM247.622 23.7278L260.818 29.6599L259.728 16.1008L247.622 23.7278Z" fill="#23384D"/>
<path d="M171.836 263.192C171.594 263.192 171.473 263.071 171.231 262.95C170.868 262.587 170.747 262.103 171.11 261.618L175.105 256.413C175.468 256.049 175.952 255.928 176.437 256.292C176.8 256.655 176.921 257.139 176.558 257.623L172.563 262.829C172.442 263.071 172.199 263.192 171.836 263.192Z" fill="#23384D"/>
<path d="M273.167 23.727C272.804 23.727 272.561 23.606 272.44 23.2428C272.198 22.7586 272.319 22.2743 272.683 22.0322L286 13.9209C286.484 13.6788 286.968 13.7998 287.21 14.163C287.452 14.6473 287.331 15.1315 286.968 15.3737L273.651 23.4849C273.409 23.727 273.288 23.727 273.167 23.727Z" fill="#23384D"/>
<path d="M274.014 130.507C273.892 130.507 273.771 130.507 273.65 130.386C273.166 130.143 273.045 129.659 273.287 129.175L278.856 118.4C279.098 117.916 279.582 117.795 280.067 118.037C280.551 118.279 280.672 118.763 280.43 119.248L274.861 130.022C274.74 130.264 274.377 130.507 274.014 130.507Z" fill="#23384D"/>
<path d="M190.722 248.544C190.601 248.544 190.48 248.544 190.359 248.423L178.495 243.096C178.01 242.854 177.889 242.37 178.01 241.885C178.253 241.401 178.737 241.28 179.221 241.401L191.085 246.728C191.57 246.97 191.691 247.454 191.57 247.939C191.327 248.302 191.085 248.544 190.722 248.544Z" fill="#23384D"/>
<path d="M258.518 200.846C258.276 200.846 257.913 200.724 257.792 200.482C257.55 200.119 257.671 199.514 258.034 199.272L262.756 196.245C263.24 196.003 263.724 196.124 263.966 196.487C264.208 196.85 264.087 197.456 263.724 197.698L259.003 200.724C258.882 200.724 258.639 200.846 258.518 200.846Z" fill="#23384D"/>
<path d="M279.704 240.796C279.462 240.796 279.22 240.675 279.099 240.554L272.561 233.895C272.198 233.532 272.198 232.927 272.561 232.563C272.925 232.2 273.53 232.2 273.893 232.563L280.431 239.222C280.794 239.585 280.794 240.19 280.431 240.554C280.188 240.675 279.946 240.796 279.704 240.796Z" fill="#23384D"/>
<path d="M307.791 144.55C307.427 144.55 307.064 144.308 306.943 143.945L301.132 129.901C300.89 129.417 301.132 128.933 301.616 128.691C302.101 128.449 302.585 128.691 302.827 129.175L308.638 143.218C308.88 143.703 308.638 144.187 308.154 144.429C308.033 144.429 307.912 144.55 307.791 144.55Z" fill="#23384D"/>
<path d="M265.298 9.07982C264.934 9.07982 264.692 8.95873 264.45 8.59554L260.334 1.33171C260.092 0.847451 260.213 0.363195 260.697 0.121068C261.181 -0.12106 261.666 -1.09683e-05 261.908 0.484244L266.024 7.74807C266.266 8.23233 266.145 8.71659 265.661 8.95871C265.661 9.07978 265.419 9.07982 265.298 9.07982Z" fill="#23384D"/>
<path d="M184.427 72.0332C177.768 78.4496 167.478 90.3138 157.671 94.1879C145.444 99.0304 123.895 72.6385 108.641 74.2123L112.515 100.725C112.515 100.725 125.347 127.238 149.076 132.444C172.804 137.65 197.017 96.1249 197.138 96.0038C194.112 88.8611 190.117 76.7547 184.427 72.0332Z" fill="#23384D"/>
<path d="M98.1089 71.5501L96.1719 76.7558L118.932 79.4192L120.021 68.7656L98.1089 71.5501Z" fill="#23384D"/>
<path d="M116.026 77.4814C103.193 67.5541 81.5228 80.2658 75.1064 99.3939C70.2639 113.922 63.2422 185.107 63.2422 185.107L141.086 184.018C141.086 184.018 134.791 107.263 125.711 94.3092C116.631 81.3553 120.384 80.7501 116.026 77.4814Z" fill="#23384D"/>
<path d="M133.096 118.764C132.733 118.764 132.248 118.522 132.248 118.038C132.248 117.917 130.675 110.774 127.406 99.6361C127.285 99.1518 127.527 98.6675 128.011 98.5465C128.495 98.4254 128.98 98.6675 129.101 99.1518C132.491 110.411 133.943 117.554 133.943 117.675C134.064 118.159 133.701 118.643 133.217 118.764H133.096Z" fill="white"/>
<path d="M169.535 85.717C177.162 71.1894 185.879 69.9787 190.721 70.2209C195.564 70.463 194.353 76.5162 194.353 76.5162L169.535 85.717Z" fill="white"/>
<path d="M167.598 87.4114L168.687 85.3533C174.498 74.3365 181.883 69.0097 190.721 69.3729C192.174 69.4939 193.384 69.9782 194.232 71.0678C195.927 73.2469 195.2 76.6367 195.2 76.7577L195.079 77.242L167.598 87.4114ZM189.873 71.0678C182.61 71.0678 176.556 75.305 171.472 84.0215L193.505 75.7892C193.626 74.8207 193.626 73.1258 192.779 72.0363C192.295 71.431 191.568 71.0678 190.6 71.0678C190.479 71.0678 190.116 71.0678 189.873 71.0678Z" fill="#23384D"/>
<path d="M268.444 109.807L191.569 124.093L181.763 71.7931L177.162 47.2172L203.917 42.2535L254.038 32.9316L257.791 53.0282C248.227 54.8442 241.689 62.2291 243.747 73.488C245.563 83.0521 254.764 89.3474 264.207 87.5314L268.444 109.807Z" fill="#E92453"/>
<path d="M263.723 107.506C263.602 107.506 263.36 107.506 263.238 107.385L181.399 51.2116C181.036 50.9694 180.915 50.3641 181.157 50.0009C181.399 49.6377 182.005 49.5166 182.368 49.7588L264.207 105.932C264.57 106.175 264.691 106.78 264.449 107.143C264.328 107.385 264.086 107.506 263.723 107.506Z" fill="white"/>
<path d="M194.716 120.34C194.595 120.34 194.352 120.34 194.231 120.219C193.868 119.977 193.747 119.371 193.989 119.008L250.163 37.1689C250.405 36.8057 251.01 36.6846 251.374 36.9267C251.737 37.1689 251.858 37.7742 251.616 38.1374L195.442 119.976C195.321 120.219 194.958 120.34 194.716 120.34Z" fill="white"/>
<path d="M178.252 47.9442L202.949 43.3438C202.707 55.9344 194.353 66.9512 182.368 70.5831L178.252 47.9442Z" fill="white"/>
<path d="M202.101 44.4331C201.375 55.8131 193.99 65.6193 183.215 69.3722L179.341 48.6703L202.101 44.4331ZM203.917 42.2539L177.162 47.2176L181.763 71.7935C194.474 68.2827 203.917 56.6605 203.917 42.7382C203.917 42.6171 203.917 42.375 203.917 42.2539Z" fill="#23384D"/>
<path d="M201.377 79.4184C201.377 79.4184 203.798 73.2442 197.139 74.0916C190.481 74.9391 176.8 74.5759 163.483 91.0405C162.394 92.3722 161.183 93.825 159.852 95.3988C167.115 101.815 173.774 108.716 180.432 115.738C181.764 112.832 182.733 110.29 183.58 108.595C189.996 95.8831 205.614 102.421 203.192 88.6193C203.192 88.7403 207.309 80.2658 201.377 79.4184Z" fill="white"/>
<path d="M180.795 117.433L179.827 116.465C174.379 110.654 167.115 103.027 159.246 96.1259L158.641 95.5206L159.246 94.7943C160.578 93.2204 161.909 91.6466 162.878 90.436C174.984 75.4241 187.333 74.2134 194.718 73.4871C195.565 73.366 196.413 73.366 197.139 73.2449C199.439 72.8817 201.134 73.366 202.103 74.5766C203.192 75.9083 202.95 77.7242 202.708 78.8138C203.797 79.177 204.524 79.7824 205.008 80.7509C206.461 83.5354 204.766 87.7726 204.282 88.9832C205.613 96.9734 200.892 98.6683 196.049 100.484C192.054 101.937 187.454 103.753 184.669 109.201C184.064 110.29 183.459 111.743 182.732 113.438C182.369 114.286 181.885 115.254 181.522 116.344L180.795 117.433ZM161.183 95.2785C168.326 101.695 174.984 108.596 180.19 114.164C180.432 113.559 180.674 113.075 180.916 112.591C181.643 110.896 182.248 109.443 182.853 108.232C186.001 102.179 191.086 100.242 195.323 98.6683C200.287 96.8524 203.555 95.6417 202.345 88.8621V88.62L202.466 88.3779C203.071 87.1673 204.403 83.4142 203.313 81.5983C202.95 80.8719 202.345 80.5087 201.255 80.3876L200.166 80.2666L200.529 79.177C200.771 78.5717 201.255 76.6347 200.529 75.7872C199.923 74.9398 198.471 74.9398 197.26 75.1819C196.534 75.303 195.686 75.4241 194.839 75.4241C187.696 76.1504 175.832 77.3611 164.21 91.7677C163.362 92.7362 162.273 93.9468 161.183 95.2785Z" fill="#23384D"/>
<path d="M161.666 93.3417C151.497 105.69 129.706 128.934 113.12 117.918C95.3234 106.053 92.9021 93.2207 92.9021 93.2207L79.7062 93.5839C68.4473 117.918 76.9217 157.384 125.953 154.237C164.33 151.694 175.952 126.998 181.521 114.044C175.104 106.78 168.325 100.121 161.666 93.3417Z" fill="#23384D"/>
<path d="M125.348 119.614C108.762 119.614 97.8662 107.749 95.3238 98.1852C95.2028 97.7009 95.4449 97.2167 95.9291 97.0957C96.4134 96.9746 96.8977 97.2167 97.0187 97.701C99.6821 107.991 112.999 121.187 132.854 116.95C146.776 113.923 157.914 96.2482 158.035 96.1271C158.277 95.6428 158.882 95.5218 159.245 95.885C159.73 96.1272 159.851 96.7325 159.488 97.0957C159.003 97.822 147.866 115.618 133.096 118.766C130.432 119.371 127.769 119.614 125.348 119.614Z" fill="white"/>
<path d="M201.254 88.3789C196.29 88.5 191.69 89.7106 187.211 92.0108C186.484 92.374 187.09 93.4635 187.816 93.1004C192.053 90.9212 196.412 89.7106 201.254 89.5895C201.98 89.5895 201.98 88.3789 201.254 88.3789Z" fill="#23384D"/>
<path d="M197.985 80.2683C194.111 80.5104 190.358 81.3578 186.726 82.9317C186 83.1738 186.363 84.3844 187.089 84.1423C190.6 82.6895 194.232 81.8421 197.985 81.5999C198.711 81.3578 198.832 80.1472 197.985 80.2683Z" fill="#23384D"/>
<path d="M128.857 154.359C107.792 154.359 90.3591 139.347 82.3689 124.093C82.1268 123.609 82.369 123.125 82.7322 122.883C83.2164 122.64 83.7007 122.883 83.9428 123.246C92.2962 139.226 111.545 155.086 134.305 152.18C134.79 152.059 135.274 152.422 135.274 152.906C135.395 153.391 135.032 153.875 134.547 153.875C132.61 154.238 130.673 154.359 128.857 154.359Z" fill="white"/>
<path d="M354.521 30.3887V108.596H276.314V85.957C266.629 85.957 258.76 78.0878 258.76 68.4027C258.76 57.0227 266.629 50.8485 276.314 50.8485V30.3887H354.521Z" fill="white"/>
<path d="M355.368 109.443H275.345V86.8043C265.539 86.32 257.67 78.2087 257.67 68.4025C257.67 57.6279 264.692 50.364 275.345 50.0008V29.541H355.368V109.443ZM277.161 107.627H353.552V31.2359H277.161V51.6958H276.193C266.023 51.6958 259.486 58.2332 259.486 68.4025C259.486 77.6034 266.992 85.1093 276.193 85.1093H277.161V86.0778V107.627Z" fill="#23384D"/>
<path d="M316.265 49.5171H291.689C291.205 49.5171 290.721 49.1539 290.721 48.5486C290.721 47.9433 291.084 47.5801 291.689 47.5801H316.265C316.749 47.5801 317.234 47.9433 317.234 48.5486C317.234 49.1539 316.749 49.5171 316.265 49.5171Z" fill="#23384D"/>
<path d="M316.265 57.9917H291.689C291.205 57.9917 290.721 57.6285 290.721 57.0232C290.721 56.4179 291.084 56.0547 291.689 56.0547H316.265C316.749 56.0547 317.234 56.4179 317.234 57.0232C317.234 57.6285 316.749 57.9917 316.265 57.9917Z" fill="#23384D"/>
<path d="M354.521 64.2865V108.475H317.717C314.57 103.753 312.754 98.0633 312.754 92.0101C312.754 72.3978 326.192 61.9863 342.778 61.9863C347.015 61.9863 350.889 62.8337 354.521 64.2865Z" fill="white"/>
<path d="M355.368 109.443H317.233L316.991 109.08C313.722 103.995 311.906 98.1842 311.906 92.131C311.906 73.6082 324.376 61.1387 342.899 61.1387C347.015 61.1387 351.131 61.9861 354.884 63.5599L355.489 63.8021V109.443H355.368ZM318.202 107.627H353.552V64.8916C350.162 63.5599 346.53 62.8335 342.899 62.8335C325.223 62.8335 313.722 74.3346 313.722 92.0099C313.722 97.5789 315.296 103.027 318.202 107.627Z" fill="#23384D"/>
<path d="M123.049 48.4271C119.054 39.5895 109.369 35.3523 101.5 38.9842C93.6304 42.6161 90.3616 52.6644 94.3567 61.502C94.3567 61.502 94.3567 61.502 94.3567 61.623C93.5093 61.9862 92.7829 62.4705 92.2986 62.9548C88.3035 66.3446 89.151 71.3082 93.0251 73.0031C96.4149 74.4558 101.136 74.2137 104.042 70.7028C107.916 72.1556 112.153 72.2767 115.906 70.945C127.528 66.8288 127.044 57.2648 123.049 48.4271Z" fill="white"/>
<path d="M97.0199 74.6975C95.4461 74.6975 93.8722 74.3343 92.5405 73.729C90.4824 72.7605 89.1508 71.0656 88.7876 68.8864C88.4244 66.4651 89.5139 64.0439 91.6931 62.1069C92.1773 61.7437 92.6616 61.3805 93.2669 61.0173C89.5139 51.8164 92.9037 41.6471 101.136 38.0151C105.252 36.1992 109.853 36.1992 114.09 38.1363C118.327 40.0733 121.838 43.463 123.896 47.9424C126.802 54.3588 127.286 59.6856 125.591 63.9228C124.138 67.4337 120.991 70.0971 116.39 71.671C112.637 73.0027 108.4 73.0027 104.405 71.671C102.226 73.8501 99.5622 74.6975 97.0199 74.6975ZM107.431 38.6205C105.494 38.6205 103.678 38.9837 101.862 39.8311C94.3565 43.2209 91.451 52.785 95.2039 61.1384L95.5671 61.8647L94.8408 62.349C94.1144 62.7122 93.388 63.1965 92.9037 63.5597C91.2088 65.0124 90.3614 66.8284 90.7246 68.6444C90.9667 70.2182 91.9352 71.4288 93.388 72.0341C96.2935 73.3658 100.652 73.2448 103.436 69.976L103.799 69.4917L104.405 69.7339C108.037 71.1867 112.032 71.3077 115.664 69.976C119.78 68.5233 122.564 66.2231 123.896 63.1965C125.47 59.4435 124.986 54.601 122.322 48.6688C120.506 44.5527 117.359 41.405 113.485 39.7101C111.426 38.9837 109.368 38.6205 107.431 38.6205Z" fill="#23384D"/>
<path d="M111.741 54.8708C112.409 54.851 112.935 54.2932 112.915 53.6249C112.895 52.9565 112.337 52.4307 111.669 52.4505C111.001 52.4703 110.475 53.0281 110.495 53.6965C110.515 54.3648 111.072 54.8906 111.741 54.8708Z" fill="#23384D"/>
<path d="M121.838 54.7212C120.385 52.421 118.69 50.3629 116.632 48.5469C116.027 48.0627 115.179 48.9101 115.784 49.3944C117.721 51.0893 119.416 53.1474 120.869 55.3266C121.232 56.0529 122.201 55.3266 121.838 54.7212Z" fill="#23384D"/>
<path d="M111.426 41.284C108.763 44.1895 95.5668 50.727 100.53 57.2644C101.741 58.9593 103.194 59.5646 101.862 61.2595C100.288 62.7123 98.8356 60.8963 98.8356 60.8963C96.4143 61.5016 93.7509 62.3491 92.4192 63.5597C86.0029 57.9908 86.0028 50.9691 88.9084 48.6689C88.9084 48.6689 105.857 24.335 113.726 30.7514C120.627 36.5625 111.426 41.284 111.426 41.284Z" fill="#23384D"/>
<path d="M100.651 65.3762C98.1082 64.1655 94.9605 64.8919 93.1446 67.071C92.6603 67.6764 93.5078 68.5238 93.9921 67.9185C95.4448 66.1025 97.8661 65.3761 100.045 66.4657C100.772 66.8289 101.377 65.7394 100.651 65.3762Z" fill="#23384D"/>
</svg>
