<svg width="257" height="325" viewBox="0 0 257 325" fill="none" xmlns="http://www.w3.org/2000/svg">
<path d="M166.565 39.4727H11.8457V311.745H166.565V39.4727Z" fill="white"/>
<path d="M167.534 312.592H10.998V38.625H167.534V312.592ZM12.814 310.776H165.718V40.441H12.814V310.776Z" fill="#030047"/>
<path d="M157.363 120.223H46.2266V235.718H157.363V120.223Z" fill="#E92453"/>
<path d="M35.3318 140.199C34.8475 140.199 34.3633 139.835 34.3633 139.23V106.059H64.0239C64.5082 106.059 64.9924 106.422 64.9924 107.027C64.9924 107.632 64.6292 107.996 64.0239 107.996H36.1792V139.351C36.1792 139.835 35.816 140.199 35.3318 140.199Z" fill="#030047"/>
<path d="M65.8395 250.123H32.668V220.463C32.668 219.978 33.0311 219.494 33.6365 219.494C34.2418 219.494 34.605 219.857 34.605 220.463V248.307H65.9605C66.4448 248.307 66.929 248.671 66.929 249.276C66.929 249.881 66.3237 250.123 65.8395 250.123Z" fill="#030047"/>
<path d="M91.1409 61.1426H37.1465V73.6121H91.1409V61.1426Z" fill="white"/>
<path d="M91.9881 74.5804H36.1777V60.2949H91.9881V74.5804ZM37.9937 72.7645H90.1722V62.1109H37.9937V72.7645Z" fill="#030047"/>
<path d="M100.584 73.128C103.794 73.128 106.396 70.5263 106.396 67.3169C106.396 64.1075 103.794 61.5059 100.584 61.5059C97.3751 61.5059 94.7734 64.1075 94.7734 67.3169C94.7734 70.5263 97.3751 73.128 100.584 73.128Z" fill="#030047"/>
<path d="M6.88147 80.3926H1.43359V144.556H6.88147V80.3926Z" fill="#E92453"/>
<path d="M7.72867 145.404H0.464844V79.4238H7.72867V145.404ZM2.2808 143.588H5.91272V81.2398H2.2808V143.588Z" fill="#E92453"/>
<path d="M62.2071 164.531C61.9649 164.531 61.7228 164.41 61.4806 164.168L57.8487 160.052C57.4855 159.688 57.4856 159.083 57.9698 158.72C58.333 158.357 58.9383 158.357 59.3015 158.841L62.9334 162.957C63.2966 163.32 63.2966 163.926 62.8124 164.289C62.6913 164.41 62.4492 164.531 62.2071 164.531Z" fill="white"/>
<path d="M38.3582 187.655C38.1161 187.655 37.8739 187.534 37.7529 187.412C37.3897 187.049 37.3897 186.444 37.7529 186.081L46.1062 177.364C46.4694 177.001 47.0748 177.001 47.438 177.364C47.8012 177.727 47.8012 178.333 47.438 178.696L39.0845 187.412C38.8424 187.655 38.6003 187.655 38.3582 187.655Z" fill="#E92453"/>
<path d="M69.9556 218.404C69.5924 218.404 69.2292 218.162 69.1081 217.92L67.0501 213.44C66.8079 212.956 67.05 212.472 67.5343 212.23C68.0185 211.988 68.5028 212.23 68.7449 212.714L70.803 217.193C71.0452 217.678 70.803 218.162 70.3187 218.404C70.1977 218.283 70.0766 218.404 69.9556 218.404Z" fill="white"/>
<path d="M237.388 259.809L257.001 284.021L212.812 324.82C212.812 324.82 207.606 319.13 210.996 313.319C212.691 310.292 214.265 304.965 214.628 299.154C214.628 298.791 214.628 298.307 214.749 297.944C214.87 296.491 214.87 295.038 214.749 293.585C214.749 293.222 214.628 292.738 214.628 292.375C214.265 289.106 213.417 285.958 211.965 283.295L237.388 259.809Z" fill="#030047"/>
<path d="M226.128 292.012C222.375 292.496 218.501 293.102 214.748 293.707C214.748 293.344 214.627 292.86 214.627 292.496C218.38 292.012 222.133 291.407 225.886 290.923C226.612 290.802 226.854 292.012 226.128 292.012Z" fill="white"/>
<path d="M225.038 298.791C221.649 298.912 218.138 299.033 214.748 299.154C214.748 298.791 214.748 298.306 214.869 297.943C218.259 297.822 221.77 297.701 225.16 297.58C225.886 297.58 225.765 298.791 225.038 298.791Z" fill="white"/>
<path d="M152.764 290.074L150.706 321.188H90.5371C90.5371 321.188 90.5371 313.561 96.9535 311.503C100.222 310.534 105.065 307.507 109.302 303.633C109.544 303.391 109.907 303.149 110.149 302.786C111.118 301.817 112.208 300.728 113.055 299.638C113.297 299.275 113.539 299.033 113.781 298.67C115.718 296.006 117.292 293.101 117.898 290.195H152.764V290.074Z" fill="#030047"/>
<path d="M217.049 217.437C210.874 195.645 200.826 134.75 200.826 134.75L166.081 142.74C165.112 139.229 164.386 137.05 164.386 137.05L129.277 150.488C129.277 178.817 113.539 291.649 113.539 291.649L159.059 298.065C159.059 298.065 164.265 248.792 167.655 211.141C180.487 254.966 202.158 286.927 210.874 292.375L244.046 265.136C244.167 265.015 223.223 239.228 217.049 217.437Z" fill="white"/>
<path d="M159.906 299.033L112.449 292.375L112.57 291.527C112.691 290.438 128.309 178.333 128.309 150.488V149.883L164.87 135.839L165.112 136.808C165.112 136.808 165.717 138.745 166.565 141.771L201.431 133.781L201.552 134.75C201.673 135.355 211.722 195.887 217.775 217.436C223.828 238.744 244.53 264.409 244.651 264.651L245.256 265.378L210.874 293.586L210.269 293.222C201.915 288.138 181.213 258.235 168.017 215.984C164.628 252.545 159.906 297.823 159.785 298.307L159.906 299.033ZM114.507 290.801L158.211 296.854C158.938 289.833 163.538 245.281 166.686 210.899L167.17 206.177L168.502 210.778C181.213 253.998 202.036 284.99 210.753 291.043L242.714 264.772C239.324 260.414 221.528 237.291 215.959 217.557C210.269 197.461 201.189 143.466 199.857 135.718L165.233 143.587L164.991 142.74C164.386 140.561 163.901 138.987 163.659 138.018L130.125 151.093C130.003 178.696 115.96 280.147 114.507 290.801Z" fill="#030047"/>
<path d="M191.262 143.949C190.899 143.949 190.536 143.707 190.415 143.344C189.931 142.254 189.446 141.165 188.962 140.075C188.72 139.591 188.962 139.107 189.446 138.865C189.931 138.622 190.415 138.864 190.657 139.349C191.141 140.438 191.626 141.528 192.11 142.739C192.352 143.223 192.11 143.707 191.626 143.949C191.505 143.828 191.383 143.949 191.262 143.949Z" fill="#030047"/>
<path d="M225.765 261.261C225.402 261.261 225.16 261.14 224.917 260.777C223.707 258.719 222.496 256.418 221.286 253.997C221.043 253.513 221.286 253.029 221.649 252.786C222.133 252.544 222.617 252.786 222.859 253.15C224.07 255.571 225.281 257.75 226.491 259.808C226.733 260.292 226.612 260.777 226.128 261.019C226.007 261.14 225.886 261.261 225.765 261.261ZM218.743 247.581C218.38 247.581 218.017 247.339 217.896 247.096C216.806 244.796 215.838 242.496 214.748 240.075C214.506 239.591 214.748 239.106 215.232 238.864C215.717 238.622 216.201 238.864 216.443 239.348C217.412 241.77 218.501 244.07 219.47 246.37C219.712 246.854 219.47 247.339 218.985 247.581C218.985 247.46 218.864 247.581 218.743 247.581ZM212.811 233.416C212.448 233.416 212.085 233.174 211.964 232.811C211.116 230.511 210.39 228.09 209.542 225.426C209.421 224.942 209.663 224.458 210.148 224.336C210.632 224.215 211.116 224.458 211.237 224.942C211.964 227.484 212.811 230.026 213.538 232.206C213.659 232.69 213.416 233.174 213.053 233.416C213.053 233.295 212.932 233.416 212.811 233.416ZM208.574 218.646C208.211 218.646 207.847 218.404 207.726 217.92C207.121 215.62 206.637 213.078 206.032 210.414C205.911 209.93 206.274 209.446 206.758 209.325C207.242 209.204 207.726 209.567 207.848 210.051C208.453 212.714 208.937 215.257 209.542 217.557C209.663 218.041 209.3 218.525 208.816 218.646C208.695 218.646 208.574 218.646 208.574 218.646ZM205.426 203.514C204.942 203.514 204.579 203.15 204.579 202.787C204.095 200.245 203.61 197.824 203.247 195.281C203.126 194.797 203.489 194.313 203.973 194.192C204.458 194.071 204.942 194.434 205.063 194.918C205.547 197.46 205.91 200.003 206.395 202.424C206.516 202.908 206.153 203.392 205.668 203.514C205.547 203.514 205.547 203.514 205.426 203.514ZM202.763 188.502C202.279 188.502 201.915 188.138 201.915 187.775C201.431 185.233 200.947 182.691 200.584 180.269C200.463 179.785 200.826 179.301 201.31 179.18C201.794 179.059 202.279 179.422 202.4 179.906C202.884 182.448 203.368 184.991 203.731 187.533C203.852 188.017 203.489 188.502 203.005 188.623C202.884 188.502 202.763 188.502 202.763 188.502ZM199.857 173.369C199.494 173.369 199.01 173.126 199.01 172.642C198.405 169.979 197.92 167.558 197.315 165.136C197.194 164.652 197.557 164.168 198.041 164.047C198.526 163.926 199.01 164.289 199.131 164.773C199.736 167.194 200.221 169.616 200.826 172.279C200.947 172.763 200.584 173.248 200.099 173.369C199.978 173.369 199.978 173.369 199.857 173.369ZM196.225 158.478C195.862 158.478 195.499 158.236 195.378 157.873C194.652 155.33 193.925 152.909 193.078 150.609C192.957 150.124 193.199 149.64 193.683 149.398C194.167 149.277 194.652 149.519 194.894 150.003C195.62 152.304 196.468 154.846 197.194 157.388C197.315 157.872 197.073 158.357 196.589 158.478C196.468 158.357 196.346 158.478 196.225 158.478Z" fill="#030047"/>
<path d="M232.061 270.582C231.819 270.582 231.576 270.461 231.334 270.34C231.334 270.34 230.487 269.371 229.034 267.313C228.792 266.95 228.792 266.345 229.276 266.102C229.639 265.86 230.245 265.86 230.487 266.345C231.819 268.282 232.545 269.129 232.666 269.129C233.029 269.492 233.029 270.098 232.545 270.461C232.424 270.461 232.182 270.582 232.061 270.582Z" fill="#030047"/>
<path d="M122.619 306.176C119.471 303.997 116.323 301.818 113.176 299.638C113.418 299.275 113.66 299.033 113.902 298.67C117.05 300.849 120.197 303.028 123.224 305.086C123.829 305.571 123.224 306.539 122.619 306.176Z" fill="white"/>
<path d="M117.172 310.293C114.63 307.993 111.966 305.814 109.303 303.513C109.545 303.271 109.908 303.029 110.15 302.666C112.693 304.966 115.356 307.145 118.019 309.325C118.625 310.051 117.777 310.898 117.172 310.293Z" fill="white"/>
<path d="M166.808 202.91C166.445 202.91 166.082 202.668 165.961 202.304C163.418 196.13 160.513 169.98 159.908 165.259C158.697 165.138 155.67 164.654 150.222 163.564C149.738 163.443 149.375 162.959 149.496 162.474C149.617 161.99 150.101 161.627 150.586 161.748C157.971 163.201 160.755 163.564 160.755 163.564L161.481 163.685L161.603 164.411C161.603 164.775 164.992 195.283 167.535 201.699C167.777 202.183 167.535 202.668 167.05 202.91C167.05 202.91 166.929 202.91 166.808 202.91Z" fill="#030047"/>
<path d="M140.657 61.8686C128.43 65.9848 118.26 74.3383 120.924 109.447C123.587 144.555 124.313 153.635 124.313 153.635L203.005 142.497C203.005 142.376 180.003 48.5516 140.657 61.8686Z" fill="#E92453"/>
<path d="M123.465 154.604L123.344 153.636C123.344 153.515 122.497 144.193 119.955 109.448C117.412 75.7918 126.25 65.7435 140.293 61.022C147.073 58.7218 153.852 59.4481 160.39 62.959C187.871 78.092 203.247 139.471 203.852 142.135L204.094 143.103L123.465 154.604ZM140.899 62.7168C130.245 66.3488 119.107 73.1283 121.77 109.326C123.95 138.019 124.797 149.399 125.039 152.546L201.794 141.65C199.736 133.66 184.482 78.3341 159.542 64.6539C153.489 61.2641 147.194 60.6588 140.899 62.7168Z" fill="#E92453"/>
<path d="M173.465 109.448C184.119 109.448 194.651 109.327 205.305 109.206C202.278 86.0826 182.787 59.6907 151.311 56.9062V79.182C161.964 79.5452 172.012 96.3731 173.465 109.448Z" fill="#E92453"/>
<path d="M172.617 110.295L172.496 109.448C171.044 96.3728 161.116 80.2713 151.189 79.9081H150.342V55.8164L151.31 55.9375C182.908 58.722 203.126 85.356 206.152 109.084L206.273 110.053H205.305C194.893 110.174 184.119 110.295 173.465 110.295H172.617ZM152.158 78.2132C162.569 79.4239 172.375 95.0411 174.191 108.479C184.24 108.479 194.288 108.358 204.215 108.237C200.825 85.8403 181.697 61.0222 152.158 57.8745V78.2132Z" fill="#E92453"/>
<path d="M182.425 31.4821L190.657 9.44843C194.047 0.368648 182.183 -4.11073 178.793 4.96906L170.682 26.6395C174.677 28.2133 178.551 29.7872 182.425 31.4821Z" fill="#030047"/>
<path d="M65.1143 322.642C63.5405 322.037 62.8141 320.221 63.4195 318.768L70.8043 300.003C71.4096 298.429 73.2256 297.703 74.6784 298.308C76.2522 298.913 76.9786 300.729 76.3732 302.182L68.9884 320.947C68.5041 322.521 66.6881 323.247 65.1143 322.642Z" fill="#030047"/>
<path d="M99.7384 282.933L191.263 37.6576C199.495 15.9872 165.718 3.03338 157.486 24.8249L65.9615 270.1C61.8454 280.996 61.24 308.114 69.5934 311.383C78.189 314.652 95.6222 293.829 99.7384 282.933Z" fill="white"/>
<path d="M71.6515 312.593C70.9251 312.593 70.0776 312.472 69.4723 312.229C60.2715 308.719 60.9979 280.995 65.2351 269.857L156.759 24.5818C161.239 12.8386 172.498 10.9016 180.972 14.1704C189.568 17.4391 196.71 26.2768 192.231 38.0199L100.707 283.295C98.5276 288.985 93.0798 296.854 87.0266 303.15C83.3947 306.903 76.8572 312.593 71.6515 312.593ZM173.466 14.5335C167.413 14.5335 161.36 17.5601 158.454 25.1871L66.9299 270.462C62.5716 281.964 62.6928 307.75 70.0776 310.535C73.3464 311.745 79.2785 308.598 85.8159 301.818C91.627 295.886 97.0748 288.017 99.0119 282.69L190.536 37.4146C194.531 26.761 188.115 18.7707 180.367 15.8652C178.188 15.0178 175.766 14.5335 173.466 14.5335Z" fill="#030047"/>
<path d="M155.548 30.2715L151.432 41.4094C162.57 46.0098 173.707 50.6102 184.724 55.3317L188.961 43.8306C177.945 39.2302 166.807 34.6298 155.548 30.2715Z" fill="#030047"/>
<path d="M94.6545 292.254C96.9547 288.864 98.7707 285.595 99.7392 282.932L130.368 200.971C119.23 196.371 108.093 191.892 96.7126 187.775L65.9624 270.22C65.236 272.278 64.5096 274.941 64.0254 277.847C74.1948 282.811 84.3641 287.653 94.6545 292.254Z" fill="#030047"/>
<path d="M198.285 88.625C189.327 93.3465 180.489 98.189 172.378 104.242C174.436 111.99 174.194 119.375 170.199 122.765C164.872 127.365 157.245 127.002 149.739 124.46C147.56 111.99 141.143 108.722 134.364 106.179C129.037 104.242 128.674 109.448 136.906 115.622L137.027 118.407C135.09 117.317 133.395 116.106 131.821 115.017C121.652 107.753 120.684 116.228 120.684 116.228C114.025 116.833 116.083 123.855 116.083 123.855C111.725 128.818 112.572 131.603 132.306 146.251C155.066 163.079 198.043 161.748 205.065 122.644C207.002 112.353 204.581 99.8839 198.285 88.625Z" fill="white"/>
<path d="M164.265 157.51C152.764 157.51 140.9 153.878 131.82 147.099C117.898 136.687 113.419 132.45 113.055 128.697C112.813 126.76 113.903 125.186 115.114 123.733C114.871 122.644 114.508 119.98 115.961 117.922C116.808 116.59 118.14 115.864 120.077 115.501C120.319 114.411 121.046 112.474 122.983 111.627C125.283 110.537 128.431 111.506 132.426 114.29C133.636 115.138 134.847 115.985 136.179 116.712V115.985C131.336 112.232 128.915 108.237 130.125 105.937C130.489 105.332 131.699 104 134.847 105.21C141.869 107.874 148.406 111.264 150.706 123.612C159.06 126.154 165.476 125.67 169.834 121.917C173.224 119.012 173.951 112.474 171.65 104.242L171.529 103.637L172.014 103.273C180.609 96.9781 189.931 91.8935 198.042 87.6562L198.89 87.293L199.374 88.0194C205.669 99.5205 208.212 112.111 206.275 122.765C202.764 142.135 191.021 150.609 181.941 154.241C176.251 156.42 170.319 157.51 164.265 157.51ZM124.92 113.201C124.435 113.201 123.951 113.322 123.588 113.443C121.893 114.169 121.651 116.469 121.651 116.469L121.53 117.196L120.804 117.317C119.23 117.438 118.019 118.043 117.414 119.012C116.203 120.828 116.929 123.733 116.929 123.733L117.051 124.217L116.687 124.581C115.114 126.276 114.629 127.365 114.75 128.576C115.114 131.602 119.835 136.082 132.789 145.646C146.227 155.694 166.081 158.6 180.851 152.667C189.568 149.157 200.706 141.166 204.095 122.644C205.911 112.595 203.611 100.731 197.8 89.8354C190.052 93.8305 181.335 98.673 173.224 104.605C175.524 113.322 174.556 120.222 170.682 123.491C165.718 127.728 158.333 128.334 149.254 125.428L148.769 125.307L148.648 124.823C146.59 112.958 140.779 109.811 133.878 107.269C132.426 106.663 131.578 106.905 131.336 107.269C130.852 107.995 131.82 111.143 137.268 115.259L137.631 115.501L137.752 120.343L136.3 119.496C134.484 118.406 132.668 117.196 131.094 116.106C128.673 114.048 126.494 113.201 124.92 113.201Z" fill="#030047"/>
<path d="M124.921 120.585C123.71 119.617 122.862 118.406 122.378 116.832C122.136 116.106 121.046 116.348 121.168 117.196C121.652 118.891 122.62 120.343 123.952 121.433C124.678 121.917 125.526 121.07 124.921 120.585Z" fill="#030047"/>
<path d="M120.44 127.97C118.987 127.607 117.898 126.518 117.534 125.065C117.292 124.338 116.203 124.581 116.324 125.428C116.808 127.244 118.261 128.697 120.077 129.181C120.924 129.302 121.287 128.092 120.44 127.97Z" fill="#030047"/>
<path d="M111.36 159.931C105.186 144.798 103.491 121.191 125.162 97.3414C126.009 96.4939 126.736 95.6464 127.462 94.799C129.641 84.7507 132.305 74.9446 136.905 65.6226C136.179 64.5331 135.452 64.0488 135.452 64.0488C113.903 73.855 85.816 89.109 77.8258 129.423C72.7411 154.605 81.8209 175.428 94.7747 183.902C102.765 189.108 109.181 196.008 113.782 194.192C113.782 194.192 119.351 195.04 122.862 189.35C122.862 189.35 128.673 189.229 128.067 183.539C127.704 180.512 124.193 176.396 120.561 172.159L122.741 170.827C126.493 174.096 134.242 176.759 132.183 170.706C130.125 165.258 123.467 161.747 111.36 159.931Z" fill="white"/>
<path d="M112.087 195.403C108.697 195.403 104.823 192.497 100.465 189.107C98.5276 187.655 96.4695 186.081 94.1693 184.628C81.6998 176.396 71.4093 156.057 76.8572 129.181C84.4842 91.0458 109.302 74.9443 134.968 63.2011L135.452 62.959L135.815 63.2011C135.936 63.2011 136.663 63.8064 137.51 65.0171L137.873 65.5013L137.631 65.9856C132.789 75.7917 130.246 86.0822 128.309 94.9199V95.1619L128.188 95.283C127.462 96.1305 126.736 96.9779 125.888 97.9465C102.038 124.338 108.092 149.156 112.087 159.084C124.314 160.9 130.973 164.653 132.91 170.464C133.757 173.006 133.031 174.217 132.183 174.822C130.004 176.275 125.283 174.217 122.498 172.037L121.651 172.522C125.283 176.638 128.43 180.512 128.673 183.539C128.915 185.476 128.43 187.049 127.341 188.26C126.009 189.834 123.951 190.197 123.104 190.318C119.835 195.403 114.871 195.282 113.661 195.282C113.176 195.282 112.571 195.403 112.087 195.403ZM135.21 65.1381C110.15 76.6392 86.0581 92.4986 78.5521 129.544C73.3464 155.452 83.5157 175.548 95.1378 183.175C97.438 184.628 99.4962 186.202 101.554 187.776C106.397 191.408 110.513 194.555 113.419 193.466L113.661 193.345H113.903C114.145 193.345 118.987 193.95 122.014 188.865L122.256 188.381H122.74C122.74 188.381 124.92 188.26 126.251 186.928C126.978 186.081 127.22 184.991 127.099 183.66C126.857 180.996 123.346 176.88 119.714 172.764L118.987 171.916L122.74 169.737L123.225 170.221C126.009 172.643 130.125 174.096 131.215 173.369C131.82 173.006 131.457 171.674 131.215 171.19C129.52 165.984 122.983 162.595 111.36 160.9L110.876 160.779L110.634 160.294C106.518 150.367 99.7383 124.338 124.556 96.7358C125.283 95.8884 126.009 95.162 126.614 94.3145C128.43 85.5979 131.094 75.4285 135.815 65.7434C135.573 65.5013 135.331 65.2592 135.21 65.1381Z" fill="#030047"/>
<path d="M112.813 115.501C115.598 109.569 119.593 105.574 125.162 99.5205C126.009 98.6731 127.099 99.5205 127.825 98.552C130.004 88.5037 132.183 74.8235 136.784 65.6226C136.057 64.5331 135.331 64.0488 135.331 64.0488C121.167 70.4652 104.097 79.4239 91.8691 96.2518C98.6487 102.789 105.791 109.085 112.813 115.501Z" fill="#E92453"/>
<path d="M113.176 116.953L112.329 116.106C110.876 114.774 109.423 113.564 108.091 112.232C102.522 107.268 96.8325 102.063 91.3846 96.8569L90.7793 96.2515L91.2636 95.6462C103.249 79.3026 119.35 70.3439 135.089 63.2011L135.573 62.959L135.936 63.2011C136.057 63.2011 136.784 63.8064 137.631 65.0171L137.994 65.5013L137.752 65.9856C133.999 73.6126 131.82 84.1452 129.883 93.4671C129.52 95.283 129.157 96.9779 128.793 98.6728V98.915L128.672 99.036C128.067 99.7624 127.22 99.7624 126.735 99.7624C126.251 99.7624 126.13 99.7624 126.009 99.8834C125.282 100.61 124.677 101.336 123.951 102.063C119.471 107.026 116.203 110.537 113.781 115.622L113.176 116.953ZM93.0795 96.1305C98.2853 101.215 103.854 106.179 109.181 110.9C110.271 111.869 111.481 112.958 112.571 113.927C114.992 109.205 118.382 105.573 122.498 100.973C123.103 100.247 123.83 99.5202 124.556 98.7938C125.283 98.0675 126.009 98.0675 126.614 98.0675C126.856 98.0675 126.977 98.0675 127.098 98.0675C127.462 96.4937 127.704 94.9198 128.067 93.2249C129.883 84.0241 132.062 73.4915 135.815 65.7434C135.573 65.5013 135.452 65.2592 135.21 65.1381C120.077 72.0388 104.581 80.6343 93.0795 96.1305Z" fill="#E92453"/>
<path d="M122.135 188.623C119.713 184.143 116.929 179.785 113.781 175.669C113.297 175.063 112.207 175.669 112.692 176.274C115.839 180.39 118.503 184.627 121.045 189.228C121.529 189.954 122.498 189.349 122.135 188.623Z" fill="#030047"/>
<path d="M115.113 192.86C112.934 187.776 109.665 183.417 105.186 180.149C104.581 179.664 103.975 180.754 104.581 181.238C108.818 184.265 111.966 188.381 114.024 193.224C114.266 193.829 115.355 193.587 115.113 192.86Z" fill="#030047"/>
<path d="M120.318 100.974C119.834 100.974 119.47 100.611 119.47 100.248L118.26 93.2263C118.139 92.7421 118.502 92.2578 118.986 92.1367C119.47 92.0157 119.955 92.3789 120.076 92.8632L121.286 99.8849C121.407 100.369 121.044 100.853 120.56 100.974C120.318 100.974 120.318 100.974 120.318 100.974Z" fill="#030047"/>
<path d="M55.3078 323.247C55.0657 323.247 54.7024 323.126 54.5814 322.884L32.911 292.012C32.6689 291.649 32.6689 291.044 33.1531 290.802C33.5163 290.559 34.1216 290.56 34.3638 291.044L56.0342 321.915C56.2763 322.278 56.2763 322.884 55.792 323.126C55.6709 323.247 55.4289 323.247 55.3078 323.247Z" fill="#E92453"/>
<path d="M46.2274 323.248C46.1063 323.248 45.8642 323.248 45.7431 323.127L30.0048 312.473C29.6416 312.231 29.5206 311.626 29.7627 311.263C30.0048 310.899 30.6101 310.778 30.9733 311.021L46.7116 321.674C47.0748 321.916 47.1959 322.522 46.9538 322.885C46.8327 323.127 46.5906 323.248 46.2274 323.248Z" fill="#E92453"/>
<path d="M145.499 41.5282C145.378 37.291 141.141 34.7486 136.419 37.0489C135.693 37.412 135.087 37.8963 134.361 38.5016C134.361 38.5016 134.361 38.5017 134.24 38.3806C127.581 31.3589 117.049 30.3904 110.754 36.3225C104.458 42.2546 105.911 51.8187 111.238 59.9299C116.201 67.1938 126.492 71.0678 134.724 61.988C137.388 58.9615 138.961 54.9663 139.083 50.8502C143.441 49.5185 145.499 45.2812 145.499 41.5282Z" fill="white"/>
<path d="M124.071 68.284C123.707 68.284 123.465 68.284 123.102 68.284C118.259 67.9208 113.659 65.0152 110.632 60.5359C104.337 51.214 104.216 41.5288 110.269 35.8388C113.538 32.8122 117.896 31.3595 122.618 31.7227C127.097 32.0859 131.213 34.144 134.482 37.4127C134.966 37.0495 135.572 36.6863 136.056 36.4441C138.598 35.1124 141.262 35.1125 143.32 36.3231C145.136 37.4127 146.346 39.3497 146.346 41.6499C146.467 45.2819 144.53 49.8823 139.93 51.6982C139.688 55.8144 138.114 59.6884 135.451 62.715C131.334 67.1944 127.097 68.284 124.071 68.284ZM120.923 33.4175C117.291 33.4175 113.901 34.7492 111.359 37.0495C104.821 43.2237 107.606 52.9088 111.964 59.4463C114.749 63.5624 118.865 66.1048 123.102 66.3469C127.097 66.589 130.85 64.8942 133.998 61.3833C136.54 58.5989 137.993 54.8459 138.114 50.8508V50.2454L138.719 50.0033C142.714 48.6716 144.53 44.6765 144.409 41.5288C144.409 39.955 143.562 38.5023 142.23 37.7759C140.656 36.8074 138.598 36.9284 136.661 37.8969C136.056 38.2601 135.45 38.6233 134.724 39.2287L134.119 39.834L133.513 39.2287C130.366 35.9599 126.371 33.9018 122.134 33.5387C121.891 33.4176 121.407 33.4175 120.923 33.4175Z" fill="#030047"/>
<path d="M121.554 51.9393C121.828 51.3291 121.554 50.6128 120.944 50.3396C120.334 50.0663 119.618 50.3395 119.344 50.9497C119.071 51.56 119.344 52.2762 119.955 52.5495C120.565 52.8227 121.281 52.5496 121.554 51.9393Z" fill="#030047"/>
<path d="M117.534 61.2637C115.96 59.0845 114.749 56.6633 113.781 54.1209C113.539 53.3946 114.628 52.9103 114.871 53.6367C115.718 56.0579 116.929 58.3582 118.381 60.5373C118.987 61.1426 118.018 61.869 117.534 61.2637Z" fill="#030047"/>
<path d="M109.181 46.4936C112.812 45.1619 123.95 35.4767 128.188 42.4984C129.277 44.3144 129.277 45.7672 131.335 45.2829C133.272 44.4355 132.909 42.0142 132.909 42.0142C134.362 39.9561 134.846 37.898 136.42 37.0505C140.778 30.0288 130.004 21.3123 123.95 26.518C123.95 26.518 110.512 23.2493 106.638 31.6027C99.7375 34.3871 97.1952 39.714 98.648 44.6776C101.19 53.1521 109.181 46.4936 109.181 46.4936Z" fill="#030047"/>
<path d="M135.572 45.7667C135.451 42.8612 137.267 40.3188 140.051 39.4714C140.778 39.2293 141.262 40.4399 140.536 40.561C138.357 41.1663 136.783 43.2244 136.904 45.5246C136.783 46.4931 135.572 46.6142 135.572 45.7667Z" fill="#030047"/>
</svg>
