<svg width="284" height="386" viewBox="0 0 284 386" fill="none" xmlns="http://www.w3.org/2000/svg">
<path d="M126.359 344.669L125.512 380.262L187.254 380.867C187.254 380.867 187.617 373.603 175.874 368.155C164.131 362.708 161.71 341.158 161.71 341.158L126.359 344.669Z" fill="#E92453"/>
<path d="M188.101 381.714L124.543 381.109L125.39 343.821L162.436 340.189L162.557 341.037C162.557 341.279 165.099 362.102 176.237 367.308C188.344 372.877 188.223 380.504 188.223 380.867L188.101 381.714ZM126.48 379.293L186.286 379.898C185.922 377.961 184.227 372.998 175.511 369.003C164.736 364.039 161.588 346.364 160.983 342.248L127.327 345.637L126.48 379.293Z" fill="#E92453"/>
<path d="M15.2233 329.658L2.02734 362.709L59.6537 384.742C59.6537 384.742 62.4382 378.084 53.3584 368.883C44.2786 359.682 49.4844 338.617 49.4844 338.617L15.2233 329.658Z" fill="#E92453"/>
<path d="M60.2587 385.953L0.9375 363.193L14.7388 328.568L50.6947 338.011L50.4526 338.859C50.4526 339.101 45.489 359.561 54.0845 368.277C63.5275 377.72 60.6219 384.863 60.5009 385.105L60.2587 385.953ZM3.23771 362.103L59.0481 383.531C59.4113 381.594 59.5324 376.268 52.7528 369.488C44.3994 361.014 47.5471 343.459 48.3945 339.343L15.7073 330.748L3.23771 362.103Z" fill="#E92453"/>
<path d="M59.7748 184.745C49.8476 201.452 45.6104 248.061 34.3514 271.911C23.0925 295.76 10.1387 334.259 10.1387 334.259L55.7798 353.629C55.7798 353.629 86.8931 284.017 90.404 247.698C93.9148 211.379 93.0674 179.902 93.0674 179.902L59.7748 184.745Z" fill="#23384D"/>
<path d="M79.1445 202.903C80.113 222.274 104.931 258.835 108.926 284.985C112.921 311.134 123.333 358.228 123.333 358.228L172.122 349.027C172.122 349.027 165.705 275.905 144.519 230.748C129.023 197.698 106.747 175.785 106.747 175.785L79.1445 202.903Z" fill="#23384D"/>
<path d="M89.4357 234.38C89.0725 234.38 88.8304 234.259 88.5883 233.895L85.5617 228.448L76.4819 225.179C75.9976 225.058 75.7555 224.452 75.8766 223.968C75.9976 223.484 76.6029 223.242 77.0872 223.363L86.7723 226.753L90.041 232.806C90.2832 233.29 90.1621 233.774 89.6779 234.016C89.6779 234.38 89.5568 234.38 89.4357 234.38Z" fill="white"/>
<path d="M49.3636 356.897C47.5477 357.866 45.6107 358.955 43.7947 359.924C43.0683 360.287 43.6736 361.377 44.4 361.014C46.216 360.045 48.153 358.955 49.969 357.987C50.6953 357.624 50.09 356.534 49.3636 356.897Z" fill="#23384D"/>
<path d="M50.3316 360.77C48.8789 361.98 47.3051 363.07 45.8523 364.281C45.247 364.765 45.8523 365.854 46.4576 365.37L50.937 361.859C51.5423 361.254 50.937 360.286 50.3316 360.77Z" fill="#23384D"/>
<path d="M168.127 359.318C167.401 360.892 166.674 362.345 165.827 363.919C165.464 364.645 166.553 365.25 166.917 364.524L169.217 359.923C169.459 359.197 168.369 358.592 168.127 359.318Z" fill="#23384D"/>
<path d="M171.516 363.313C170.79 364.887 170.063 366.34 169.216 367.914C168.852 368.64 169.942 369.245 170.305 368.519L172.606 363.919C172.969 363.313 171.879 362.708 171.516 363.313Z" fill="#23384D"/>
<path d="M162.678 347.453C162.194 347.453 161.831 347.09 161.831 346.606C159.894 276.389 118.127 199.998 117.764 199.271C117.521 198.787 117.643 198.303 118.127 198.061C118.611 197.818 119.095 197.939 119.338 198.424C119.701 199.15 161.589 275.905 163.647 346.606C163.647 347.09 163.163 347.453 162.678 347.453Z" fill="white"/>
<path d="M126.116 215.011C125.995 215.011 125.874 215.011 125.753 215.011C125.269 214.89 125.027 214.285 125.269 213.8C127.569 207.626 124.785 199.152 124.785 199.031C124.664 198.546 124.906 198.062 125.39 197.82C125.874 197.699 126.359 197.941 126.601 198.425C126.722 198.788 129.748 207.626 127.085 214.406C126.843 214.769 126.48 215.011 126.116 215.011Z" fill="white"/>
<path d="M119.944 78.3284C123.697 87.2871 123.939 96.8511 112.196 100.604C104.206 103.146 94.642 99.3935 90.8891 90.4348C87.1361 81.476 90.6469 71.5488 98.6371 68.159C106.627 64.7692 116.191 69.3696 119.944 78.3284Z" fill="white"/>
<path d="M107.111 102.299C99.9683 102.299 92.9466 97.9411 90.0411 90.7983C86.167 81.3553 89.7989 70.9438 98.2734 67.3119C106.748 63.801 116.796 68.5225 120.791 77.9655C123.455 84.3819 123.818 89.8298 122.002 93.9459C120.428 97.4568 117.159 99.8781 112.559 101.452C110.622 102.057 108.806 102.299 107.111 102.299ZM104.084 68.0383C102.39 68.0383 100.574 68.4015 98.8787 69.1279C91.3727 72.2755 88.104 81.7185 91.6149 90.193C95.3679 99.0307 104.811 102.057 111.833 99.757C116.07 98.4253 118.854 96.2462 120.186 93.2196C121.881 89.5877 121.518 84.6241 118.975 78.6919C116.312 72.1545 110.259 68.0383 104.084 68.0383Z" fill="#23384D"/>
<path d="M113.285 78.6908C113.953 78.6908 114.495 78.1488 114.495 77.4802C114.495 76.8116 113.953 76.2695 113.285 76.2695C112.616 76.2695 112.074 76.8116 112.074 77.4802C112.074 78.1488 112.616 78.6908 113.285 78.6908Z" fill="#23384D"/>
<path d="M114.133 66.2209C114.133 58.2306 100.937 67.1893 98.6364 68.2789C91.4937 69.6106 85.1984 79.0536 87.3775 87.407C89.1935 94.5498 97.4258 103.024 101.784 100.966C108.927 96.7289 110.016 89.7072 106.748 83.0487C107.958 81.5959 106.506 79.4168 107.111 77.7219C107.958 74.9375 114.254 69.0053 114.133 66.2209Z" fill="#23384D"/>
<path d="M104.205 82.3221C90.8879 81.1114 92.4617 91.765 97.4253 94.1863C101.541 96.1233 107.837 95.397 110.379 89.3438C112.921 83.4116 104.205 82.3221 104.205 82.3221Z" fill="white"/>
<path d="M105.416 86.9234C102.874 85.5917 99.7262 86.197 97.9102 88.4972C97.426 89.1025 98.2734 89.95 98.7577 89.3447C100.21 87.5287 102.753 86.9234 104.811 88.013C105.537 88.3762 106.143 87.2866 105.416 86.9234Z" fill="#23384D"/>
<path d="M120.912 81.354C119.58 79.0538 117.885 76.8746 115.827 75.0587C115.222 74.5744 114.374 75.4219 114.98 75.9061C116.917 77.7221 118.491 79.6591 119.822 81.9593C120.307 82.5646 121.275 81.9593 120.912 81.354Z" fill="#23384D"/>
<path d="M211.711 52.7832H172.729V91.7658H211.711V52.7832Z" fill="#E92453"/>
<path d="M212.679 92.734H171.881V51.8145H212.679V92.734ZM173.697 90.9181H210.863V53.7514H173.697V90.9181Z" fill="#E92453"/>
<path d="M192.22 81.5968C188.709 81.5968 185.562 79.7808 183.867 76.7543C183.625 76.27 183.746 75.7857 184.23 75.5436C184.714 75.3015 185.199 75.4226 185.441 75.9069C186.772 78.3281 189.436 79.902 192.22 79.902C196.457 79.902 199.968 76.3911 199.968 72.1538C199.968 67.9166 196.457 64.4058 192.22 64.4058C187.983 64.4058 184.472 67.9166 184.472 72.1538C184.472 72.6381 184.109 73.1223 183.504 73.1223C182.898 73.1223 182.535 72.7592 182.535 72.1538C182.535 66.827 186.893 62.5898 192.099 62.5898C197.305 62.5898 201.663 66.9481 201.663 72.1538C201.663 77.3596 197.547 81.5968 192.22 81.5968Z" fill="white"/>
<path d="M192.219 86.9223C183.987 86.9223 177.207 80.1426 177.207 71.9103C177.207 63.678 183.987 56.8984 192.219 56.8984C196.335 56.8984 200.451 58.7144 203.236 61.741C203.599 62.1042 203.599 62.7095 203.236 63.0727C202.873 63.4359 202.267 63.4359 201.904 63.0727C199.362 60.4093 195.851 58.8354 192.219 58.8354C184.955 58.8354 179.023 64.7676 179.023 72.0314C179.023 79.2952 184.955 85.2273 192.219 85.2273C199.483 85.2273 205.415 79.2952 205.415 72.0314C205.415 70.3365 205.052 68.7627 204.446 67.1889C204.204 66.7046 204.446 66.2204 204.931 65.9782C205.415 65.7361 205.899 65.9782 206.141 66.4624C206.868 68.2784 207.231 70.0944 207.231 72.0314C207.231 80.2638 200.572 86.9223 192.219 86.9223Z" fill="white"/>
<path d="M25.6357 138.254C20.7931 154.477 30.8414 174.089 44.7638 182.564L46.4587 180.142C49.9695 182.079 66.4342 170.699 70.7925 163.92C65.2235 161.741 60.26 160.046 59.1704 153.75C56.0227 136.802 76.1193 140.433 89.4363 144.429C92.7051 131.354 93.9157 110.894 93.9157 110.894C61.7127 102.54 33.2627 112.71 25.6357 138.254Z" fill="#E92453"/>
<path d="M45.0056 183.773L44.2792 183.289C30.8411 175.057 19.5821 155.323 24.7879 137.89C32.4149 112.346 60.2596 101.087 94.1574 109.803L94.8839 110.045V110.772C94.8839 111.014 93.6732 131.474 90.4045 144.428L90.1623 145.396L89.1938 145.154C75.5136 141.038 66.1917 140.796 62.1966 144.307C60.1385 146.244 59.4122 149.27 60.1385 153.386C61.2281 159.076 65.5864 160.771 71.0343 162.829L72.1239 163.193L71.6396 164.161C67.6445 170.335 52.2694 181.715 46.9426 180.989L45.0056 183.773ZM72.3659 108.835C49.606 108.835 32.1728 119.61 26.4828 138.495C21.6403 154.839 31.9307 173.241 44.5213 181.352L46.2162 178.931L46.9426 179.294C49.4849 180.626 64.1337 171.304 69.4605 164.282C64.2547 162.224 59.5332 160.166 58.3226 153.75C57.4751 148.907 58.3225 145.275 60.8649 142.975C65.3442 138.98 74.6662 138.98 88.7096 143.096C91.373 131.716 92.5836 115.13 92.9468 111.377C85.683 109.682 78.7823 108.835 72.3659 108.835Z" fill="#E92453"/>
<path d="M56.8707 184.621C53.7231 183.895 50.5754 182.684 47.5488 181.11C50.3333 177.236 52.6335 172.515 54.9337 167.914C56.6286 164.282 58.3235 161.014 60.2605 157.987L60.3816 157.745C60.9869 156.776 62.0765 156.292 63.8924 156.05H64.3767L64.6188 155.566C65.5873 153.629 66.4348 153.266 67.4033 153.266C68.1297 153.266 69.0982 153.508 70.3088 154.113C70.7931 154.355 71.0352 154.597 71.1562 155.082C71.5194 156.655 70.1877 159.682 67.5243 163.556L66.798 164.404L67.6454 164.888C68.1297 165.251 68.735 165.493 69.2192 165.735C67.8875 167.672 66.5558 169.73 65.3452 171.667C62.4397 175.784 59.5341 180.263 56.8707 184.621Z" fill="white"/>
<path d="M67.282 154.234C67.8873 154.234 68.7347 154.476 69.8243 154.96C70.0664 155.081 70.1874 155.202 70.1874 155.324C70.3085 155.687 70.5507 157.624 66.6766 162.951L65.587 164.524L67.282 165.493C67.5241 165.614 67.7662 165.735 68.0083 165.856C66.9187 167.551 65.7081 169.246 64.6185 170.941C61.9551 175.057 59.1706 179.173 56.6283 183.41C54.0859 182.805 51.5436 181.837 49.1223 180.626C51.6647 176.873 53.8438 172.394 55.9019 168.156C57.5968 164.645 59.2917 161.256 61.1077 158.35L61.2288 158.108C61.592 157.624 62.0762 157.018 64.0132 156.776L64.9817 156.655L65.466 155.808C66.3134 154.234 66.7977 154.234 67.282 154.234ZM67.282 152.418C65.7081 152.418 64.7396 153.387 63.7711 155.202C61.713 155.445 60.3813 156.171 59.6549 157.382C55.0544 164.767 51.6647 174.573 46.3379 181.473C49.8487 183.41 53.6017 184.863 57.4757 185.711C61.5919 178.689 66.3134 172.151 70.6717 165.251C69.9453 165.009 69.0979 164.524 68.2505 164.04C71.0349 160.166 73.9405 154.839 70.6717 153.265C69.219 152.66 68.1294 152.418 67.282 152.418Z" fill="#23384D"/>
<path d="M103.6 111.014C84.7145 106.898 77.0875 115.856 70.3079 143.459C63.5283 171.061 51.4219 187.042 51.4219 187.042C51.4219 187.042 106.385 202.538 129.75 199.148C129.629 199.269 143.673 119.73 103.6 111.014Z" fill="#E92453"/>
<path d="M121.76 200.722C96.2151 200.722 52.9953 188.616 51.0583 188.011L49.7266 187.647L50.574 186.558C50.6951 186.437 62.6804 170.335 69.3389 143.217C76.4816 114.041 84.8351 105.929 103.721 110.045C120.549 113.677 130.476 130.384 132.534 158.229C133.987 179.052 130.597 199.148 130.476 199.269L130.355 199.875L129.75 199.996C127.328 200.601 124.665 200.722 121.76 200.722ZM52.7532 186.679C60.9855 188.858 107.595 201.207 128.781 198.543C129.992 190.916 140.161 119.973 103.358 111.983C85.5615 108.108 78.0555 115.493 71.1548 143.822C65.3438 167.188 55.5376 182.563 52.7532 186.679Z" fill="#E92453"/>
<path d="M88.4668 114.162L90.4038 104.719L116.19 107.624L113.164 119.246L88.4668 114.162Z" fill="#E92453"/>
<path d="M113.769 120.336L87.498 114.888L89.7983 103.629L117.401 106.777L113.769 120.336ZM89.5561 113.556L112.437 118.278L114.98 108.471L91.13 105.808L89.5561 113.556Z" fill="#E92453"/>
<path d="M70.7921 139.223C70.671 139.223 70.5499 139.223 70.4289 139.101C69.9446 138.859 69.7025 138.375 69.9446 137.891L74.6661 126.269C74.9082 125.784 75.3925 125.542 75.8767 125.784C76.361 126.027 76.6032 126.511 76.361 126.995L71.6395 138.617C71.5185 138.98 71.1552 139.223 70.7921 139.223Z" fill="white"/>
<path d="M203.599 95.1556C203.236 88.9813 198.636 87.8917 198.636 87.8917C198.272 84.2598 193.067 83.1703 193.067 83.1703C194.519 76.2697 196.699 73.9694 195.609 71.9113C193.914 68.6426 190.887 71.0639 187.498 78.5698C187.134 79.4173 186.771 80.2647 186.408 81.1122C185.561 80.5069 184.471 80.6279 183.018 82.3228C179.628 86.5601 177.813 91.0394 179.265 101.209C178.902 102.056 178.539 102.783 178.055 103.509L194.398 124.937C194.398 124.937 198.151 122.637 199.12 115.01C199.725 110.773 200.451 104.599 201.057 101.451C204.568 101.935 203.72 98.3032 203.599 95.1556Z" fill="white"/>
<path d="M194.277 126.027L176.965 103.509L177.207 103.025C177.57 102.42 177.933 101.814 178.175 101.088C176.723 90.7975 178.539 86.1971 182.171 81.7177C183.502 80.0228 184.834 79.7807 185.681 79.9018C185.924 79.2964 186.166 78.6911 186.408 78.2068C189.071 72.5168 191.371 69.7324 193.551 69.6113C194.277 69.6113 195.367 69.9745 196.214 71.5483C196.94 73.1221 196.456 74.5749 195.609 76.8752C195.124 78.3279 194.398 80.1439 193.914 82.6862C195.488 83.1705 198.635 84.5022 199.241 87.4077C200.572 88.013 203.962 89.829 204.204 95.2769C204.204 95.7611 204.325 96.1243 204.325 96.6085C204.446 98.6666 204.688 100.725 203.478 101.814C202.994 102.299 202.388 102.42 201.662 102.42C201.178 104.841 200.693 108.473 200.33 111.62C200.209 112.831 199.967 114.042 199.846 115.131C198.756 123.122 194.882 125.664 194.64 125.785L194.277 126.027ZM179.144 103.267L194.519 123.485C195.488 122.516 197.546 119.853 198.272 114.768C198.393 113.679 198.514 112.589 198.756 111.378C199.241 107.746 199.725 103.509 200.33 101.209L200.572 100.361L201.42 100.483C201.783 100.604 202.388 100.604 202.63 100.361C203.115 99.8772 202.994 98.0613 202.873 96.6085C202.873 96.1243 202.751 95.6401 202.751 95.2769C202.509 89.9501 198.635 88.8604 198.514 88.8604L197.909 88.7394L197.788 88.1341C197.546 85.2285 192.945 84.2601 192.945 84.139L192.098 83.8968L192.219 83.0494C192.824 80.0228 193.672 77.8436 194.156 76.1487C194.882 74.0906 195.245 73.1222 194.761 72.2747C194.398 71.6694 194.156 71.3062 193.793 71.3062C193.43 71.3062 191.614 71.6694 188.224 78.8122C187.861 79.6596 187.497 80.5071 187.134 81.3545L186.771 82.323L185.802 81.7177C185.56 81.5966 184.955 81.1124 183.623 82.6862C180.355 86.8024 178.66 91.0396 180.112 100.846V101.088L179.991 101.33C179.749 102.178 179.507 102.783 179.144 103.267Z" fill="#23384D"/>
<path d="M178.539 102.541C172.123 115.374 168.007 120.095 160.38 122.274C148.879 125.664 121.397 110.531 104.206 113.316L100.09 148.545C100.09 148.545 125.029 164.768 153.842 162.468C178.781 160.41 195.367 134.865 198.394 122.274C195.367 113.921 185.44 107.141 178.539 102.541Z" fill="#E92453"/>
<path d="M148.152 163.678C121.881 163.678 99.8474 149.513 99.6053 149.392L99.1211 149.029L103.358 112.589L104.085 112.468C113.164 110.894 124.787 114.284 135.924 117.432C145.61 120.216 154.81 122.879 160.137 121.306C167.401 119.247 171.396 114.889 177.813 102.056L178.297 101.088L179.144 101.693C185.924 106.294 196.214 113.194 199.362 121.911L199.483 122.153L199.362 122.395C196.214 135.228 179.265 161.257 154.084 163.315C151.905 163.557 149.968 163.678 148.152 163.678ZM101.058 148.061C104.569 150.24 127.692 163.678 153.721 161.499C177.934 159.562 194.277 134.744 197.425 122.274C194.519 114.526 185.44 108.231 178.902 103.751C172.607 116.342 168.249 120.821 160.622 123C154.81 124.695 145.367 121.911 135.319 119.126C125.15 116.221 113.649 112.831 104.932 114.042L101.058 148.061Z" fill="#E92453"/>
<path d="M126.966 160.167C126.845 160.167 126.724 160.167 126.603 160.046C126.603 160.046 122.366 158.23 118.25 158.23C117.765 158.23 117.402 157.867 117.281 157.383C117.281 156.898 117.644 156.414 118.25 156.414C122.729 156.414 127.087 158.23 127.33 158.351C127.814 158.593 128.056 159.077 127.814 159.562C127.693 159.925 127.33 160.167 126.966 160.167Z" fill="#23384D"/>
<path d="M192.099 84.2602L191.252 86.6815C191.009 87.4078 192.099 87.771 192.462 87.0446C192.704 86.1972 193.068 85.4708 193.31 84.6234C193.552 83.7759 192.341 83.5338 192.099 84.2602Z" fill="#23384D"/>
<path d="M202.509 95.5199C202.388 94.7935 201.177 95.0357 201.298 95.8832C201.419 96.8517 201.298 97.8202 200.935 98.7887C200.693 99.515 201.783 99.8782 202.146 99.1518C202.63 97.8201 202.751 96.7306 202.509 95.5199Z" fill="#23384D"/>
<path d="M185.439 82.8064C183.987 85.5909 183.018 88.4965 182.534 91.6441C182.413 92.3705 183.623 92.7337 183.745 92.0073C184.229 88.9807 185.076 86.1962 186.529 83.4117C186.771 82.6854 185.803 82.08 185.439 82.8064Z" fill="#23384D"/>
<path d="M197.91 88.6186C197.667 89.1029 197.546 89.7082 197.304 90.1924C197.062 90.9188 198.152 91.282 198.515 90.5556C198.757 90.0713 198.878 89.466 199.12 88.9818C199.362 88.2554 198.152 87.8922 197.91 88.6186Z" fill="#23384D"/>
<path d="M256.019 158.957H175.754V209.683H256.019V158.957Z" fill="white"/>
<path d="M256.988 210.53H174.906V157.988H256.988V210.53ZM176.722 208.714H255.172V159.804H176.722V208.714Z" fill="#23384D"/>
<path d="M210.983 0.847656H190.887V20.9443H210.983V0.847656Z" fill="white"/>
<path d="M211.952 21.9125H190.039V0H211.952V21.9125ZM191.855 20.0966H210.136V1.81596H191.855V20.0966Z" fill="#23384D"/>
<path d="M283.015 0.847656H249.844V34.0191H283.015V0.847656Z" fill="white"/>
<path d="M283.862 34.9874H248.875V0H283.862V34.9874ZM250.691 33.1714H282.046V1.81596H250.691V33.1714Z" fill="#23384D"/>
<path d="M283.016 68.2812H229.264V122.034H283.016V68.2812Z" fill="white"/>
<path d="M283.863 123.002H228.295V67.4336H283.863V123.002ZM230.111 121.186H282.047V69.2496H230.111V121.186Z" fill="#23384D"/>
<path d="M180.475 0.847656H141.25V25.0605H180.475V0.847656Z" fill="white"/>
<path d="M181.443 26.0287H140.402V0H181.443V26.0287ZM142.218 24.2128H179.627V1.81596H142.218V24.2128Z" fill="#23384D"/>
<path d="M172.121 13.9234H149.24C148.756 13.9234 148.271 13.5602 148.271 12.9549C148.271 12.3496 148.635 11.9863 149.24 11.9863H172.121C172.605 11.9863 173.09 12.3496 173.09 12.9549C173.09 13.5602 172.605 13.9234 172.121 13.9234Z" fill="#23384D"/>
<path d="M223.331 16.223C225.07 16.223 226.479 14.8138 226.479 13.0754C226.479 11.337 225.07 9.92773 223.331 9.92773C221.593 9.92773 220.184 11.337 220.184 13.0754C220.184 14.8138 221.593 16.223 223.331 16.223Z" fill="white"/>
<path d="M223.331 17.0703C221.152 17.0703 219.336 15.2543 219.336 13.0752C219.336 10.896 221.152 9.08008 223.331 9.08008C225.51 9.08008 227.326 10.896 227.326 13.0752C227.326 15.2543 225.51 17.0703 223.331 17.0703ZM223.331 10.896C222.12 10.896 221.152 11.8645 221.152 13.0752C221.152 14.2858 222.12 15.2543 223.331 15.2543C224.542 15.2543 225.51 14.2858 225.51 13.0752C225.51 11.8645 224.542 10.896 223.331 10.896Z" fill="#23384D"/>
<path d="M223.331 28.3285C225.07 28.3285 226.479 26.9192 226.479 25.1808C226.479 23.4424 225.07 22.0332 223.331 22.0332C221.593 22.0332 220.184 23.4424 220.184 25.1808C220.184 26.9192 221.593 28.3285 223.331 28.3285Z" fill="white"/>
<path d="M223.331 29.1757C221.152 29.1757 219.336 27.3598 219.336 25.1806C219.336 23.0015 221.152 21.1855 223.331 21.1855C225.51 21.1855 227.326 23.0015 227.326 25.1806C227.326 27.3598 225.51 29.1757 223.331 29.1757ZM223.331 23.0015C222.12 23.0015 221.152 23.97 221.152 25.1806C221.152 26.3913 222.12 27.3598 223.331 27.3598C224.542 27.3598 225.51 26.3913 225.51 25.1806C225.51 23.97 224.542 23.0015 223.331 23.0015Z" fill="#23384D"/>
<path d="M233.863 172.394H195.365C194.881 172.394 194.396 172.031 194.396 171.426C194.396 170.82 194.76 170.457 195.365 170.457H233.863C234.348 170.457 234.832 170.82 234.832 171.426C234.832 172.031 234.348 172.394 233.863 172.394Z" fill="#23384D"/>
<path d="M233.863 182.927H210.256C209.771 182.927 209.287 182.564 209.287 181.959C209.287 181.353 209.65 180.99 210.256 180.99H233.863C234.347 180.99 234.832 181.353 234.832 181.959C234.832 182.564 234.347 182.927 233.863 182.927Z" fill="#23384D"/>
<path d="M204.324 182.927H195.365C194.881 182.927 194.396 182.564 194.396 181.959C194.396 181.353 194.76 180.99 195.365 180.99H204.324C204.808 180.99 205.292 181.353 205.292 181.959C205.292 182.564 204.808 182.927 204.324 182.927Z" fill="#23384D"/>
<path d="M248.029 82.8066V109.199L269.458 96.0026L248.029 82.8066Z" fill="white"/>
<path d="M247.061 110.772V81.2324L271.273 96.0022L247.061 110.772ZM248.877 84.5012V107.503L267.762 96.0022L248.877 84.5012Z" fill="#23384D"/>
</svg>
