<svg width="366" height="290" viewBox="0 0 366 290" fill="none" xmlns="http://www.w3.org/2000/svg">
<path d="M346.905 226.582L365.757 249.856L323.281 289.073C323.281 289.073 318.277 283.604 321.536 278.018C323.165 275.109 324.678 269.988 325.027 264.403C325.027 264.054 325.027 263.588 325.143 263.239C325.26 261.843 325.26 260.446 325.143 259.05C325.143 258.701 325.027 258.235 325.027 257.886C324.678 254.744 323.863 251.718 322.467 249.158L346.905 226.582Z" fill="#030047"/>
<path d="M336.083 257.537C332.475 258.002 328.751 258.584 325.144 259.166C325.144 258.817 325.027 258.351 325.027 258.002C328.635 257.537 332.242 256.955 335.85 256.489C336.548 256.373 336.781 257.42 336.083 257.537Z" fill="white"/>
<path d="M335.036 264.052C331.778 264.169 328.403 264.285 325.145 264.401C325.145 264.052 325.145 263.587 325.261 263.238C328.519 263.121 331.894 263.005 335.152 262.889C335.851 262.889 335.734 264.052 335.036 264.052Z" fill="white"/>
<path d="M265.563 255.674L263.585 285.581H205.748C205.748 285.581 205.748 278.25 211.916 276.272C215.058 275.341 219.713 272.431 223.786 268.707C224.018 268.475 224.367 268.242 224.6 267.893C225.531 266.962 226.579 265.915 227.393 264.867C227.626 264.518 227.859 264.285 228.091 263.936C229.953 261.376 231.466 258.583 232.048 255.79H265.563V255.674Z" fill="#030047"/>
<path d="M327.355 185.851C321.42 164.904 311.761 106.369 311.761 106.369L278.363 114.05C277.432 110.675 276.733 108.58 276.733 108.58L242.986 121.497C242.986 148.728 227.857 257.186 227.857 257.186L271.613 263.354C271.613 263.354 276.617 215.991 279.875 179.799C292.211 221.926 313.041 252.648 321.42 257.884L353.306 231.701C353.306 231.585 333.173 206.797 327.355 185.851Z" fill="white"/>
<path d="M272.428 264.286L226.811 257.886L226.927 257.071C227.043 256.024 242.055 148.264 242.055 121.499V120.917L277.199 107.418L277.432 108.349C277.432 108.349 278.014 110.211 278.828 113.12L312.343 105.439L312.46 106.37C312.576 106.952 322.235 165.138 328.054 185.852C333.872 206.333 353.772 231.004 353.888 231.237L354.47 231.935L321.42 259.049L320.838 258.7C312.809 253.813 292.909 225.069 280.225 184.455C276.967 219.6 272.428 263.122 272.312 263.588L272.428 264.286ZM228.789 256.373L270.799 262.192C271.497 255.442 275.919 212.617 278.945 179.568L279.41 175.029L280.69 179.452C292.909 220.996 312.925 250.787 321.304 256.606L352.026 231.353C348.768 227.164 331.661 204.937 326.308 185.968C320.839 166.651 312.111 114.749 310.831 107.301L277.548 114.865L277.316 114.051C276.734 111.956 276.268 110.443 276.036 109.512L243.801 122.081C243.568 148.613 230.185 246.132 228.789 256.373Z" fill="#030047"/>
<path d="M302.568 115.213C302.219 115.213 301.87 114.98 301.753 114.631C301.288 113.584 300.822 112.537 300.357 111.489C300.124 111.024 300.357 110.558 300.822 110.326C301.288 110.093 301.753 110.326 301.986 110.791C302.452 111.838 302.917 112.886 303.383 114.05C303.615 114.515 303.383 114.98 302.917 115.213C302.801 115.097 302.684 115.213 302.568 115.213Z" fill="#030047"/>
<path d="M335.735 227.977C335.386 227.977 335.153 227.86 334.92 227.511C333.757 225.533 332.593 223.322 331.429 220.994C331.197 220.529 331.429 220.063 331.778 219.831C332.244 219.598 332.709 219.831 332.942 220.18C334.106 222.507 335.27 224.602 336.433 226.58C336.666 227.046 336.55 227.511 336.084 227.744C335.968 227.86 335.851 227.977 335.735 227.977ZM328.986 214.827C328.636 214.827 328.287 214.594 328.171 214.361C327.124 212.15 326.193 209.939 325.145 207.612C324.913 207.146 325.145 206.681 325.611 206.448C326.076 206.215 326.542 206.448 326.774 206.913C327.705 209.241 328.753 211.452 329.684 213.663C329.917 214.128 329.684 214.594 329.218 214.827C329.218 214.71 329.102 214.827 328.986 214.827ZM323.283 201.211C322.934 201.211 322.585 200.978 322.469 200.629C321.654 198.418 320.956 196.091 320.141 193.531C320.025 193.065 320.258 192.6 320.723 192.483C321.189 192.367 321.654 192.6 321.77 193.065C322.469 195.509 323.283 197.953 323.982 200.048C324.098 200.513 323.865 200.978 323.516 201.211C323.516 201.095 323.4 201.211 323.283 201.211ZM319.21 187.014C318.861 187.014 318.512 186.781 318.396 186.316C317.814 184.105 317.348 181.661 316.767 179.101C316.65 178.635 316.999 178.17 317.465 178.053C317.93 177.937 318.396 178.286 318.512 178.752C319.094 181.312 319.559 183.756 320.141 185.967C320.258 186.432 319.909 186.898 319.443 187.014C319.327 187.014 319.21 187.014 319.21 187.014ZM316.185 172.468C315.719 172.468 315.37 172.118 315.37 171.769C314.905 169.326 314.439 166.998 314.09 164.554C313.974 164.089 314.323 163.623 314.788 163.507C315.254 163.391 315.719 163.74 315.836 164.205C316.301 166.649 316.65 169.093 317.116 171.42C317.232 171.886 316.883 172.351 316.417 172.468C316.301 172.468 316.301 172.468 316.185 172.468ZM313.625 158.038C313.159 158.038 312.81 157.688 312.81 157.339C312.344 154.895 311.879 152.452 311.53 150.124C311.413 149.659 311.763 149.193 312.228 149.077C312.694 148.961 313.159 149.31 313.275 149.775C313.741 152.219 314.206 154.663 314.556 157.107C314.672 157.572 314.323 158.038 313.857 158.154C313.625 157.921 313.625 158.038 313.625 158.038ZM310.832 143.491C310.482 143.491 310.017 143.258 310.017 142.793C309.435 140.233 308.97 137.905 308.388 135.578C308.271 135.112 308.621 134.647 309.086 134.531C309.552 134.414 310.017 134.763 310.133 135.229C310.715 137.556 311.181 139.884 311.763 142.444C311.879 142.909 311.53 143.375 311.064 143.491C310.948 143.491 310.832 143.491 310.832 143.491ZM307.34 129.177C306.991 129.177 306.642 128.945 306.526 128.596C305.828 126.152 305.129 123.824 304.315 121.613C304.198 121.148 304.431 120.682 304.897 120.45C305.362 120.333 305.828 120.566 306.06 121.031C306.759 123.242 307.573 125.686 308.271 128.13C308.388 128.596 308.155 129.061 307.69 129.177C307.573 129.061 307.457 129.177 307.34 129.177Z" fill="#030047"/>
<path d="M341.668 236.937C341.435 236.937 341.202 236.821 340.969 236.704C340.969 236.704 340.155 235.773 338.758 233.795C338.526 233.446 338.526 232.864 338.991 232.631C339.34 232.399 339.922 232.399 340.155 232.864C341.435 234.726 342.133 235.541 342.249 235.541C342.599 235.89 342.482 236.472 342.133 236.821C342.133 236.821 341.9 236.937 341.668 236.937Z" fill="#030047"/>
<path d="M236.587 271.152C233.561 269.058 230.535 266.963 227.51 264.868C227.743 264.519 227.975 264.287 228.208 263.938C231.234 266.032 234.259 268.127 237.169 270.105C237.75 270.571 237.169 271.502 236.587 271.152Z" fill="white"/>
<path d="M231.349 275.109C228.905 272.898 226.345 270.803 223.785 268.592C224.018 268.359 224.367 268.126 224.6 267.777C227.044 269.988 229.604 272.083 232.164 274.178C232.746 274.876 231.931 275.691 231.349 275.109Z" fill="white"/>
<path d="M279.062 171.888C278.713 171.888 278.364 171.655 278.247 171.306C275.804 165.371 273.011 140.235 272.429 135.696C271.265 135.58 268.356 135.114 263.119 134.067C262.654 133.951 262.305 133.485 262.421 133.02C262.537 132.554 263.003 132.205 263.468 132.321C270.567 133.718 273.244 134.067 273.244 134.067L273.942 134.183L274.058 134.882C274.058 135.231 277.317 164.556 279.76 170.724C279.993 171.189 279.76 171.655 279.295 171.888C279.295 171.888 279.178 171.888 279.062 171.888Z" fill="#030047"/>
<path d="M118.702 94.4995C118.353 94.4995 118.004 94.2667 117.887 93.9176L112.185 80.0695C111.952 79.604 112.185 79.1385 112.651 78.9058C113.116 78.673 113.582 78.9057 113.814 79.3712L119.516 93.2194C119.749 93.6849 119.516 94.1504 119.051 94.3831C118.935 94.4995 118.818 94.4995 118.702 94.4995Z" fill="#030047"/>
<path d="M129.873 92.1716C129.408 92.1716 129.059 91.8225 129.059 91.357L127.546 79.8363C127.43 79.3708 127.779 78.9054 128.244 78.9054C128.71 78.789 129.175 79.1381 129.175 79.6036L130.688 91.1243C130.804 91.7062 130.455 92.0553 129.873 92.1716Z" fill="#030047"/>
<path d="M143.023 248.458C142.441 248.458 142.092 247.992 142.092 247.527L143.372 227.395C143.372 226.929 143.837 226.58 144.303 226.58C144.768 226.58 145.117 227.046 145.117 227.511L143.837 247.643C143.954 248.109 143.488 248.458 143.023 248.458Z" fill="#030047"/>
<path d="M167.693 238.335C167.344 238.335 167.111 238.219 166.878 237.869L160.245 226.116C160.013 225.651 160.129 225.185 160.594 224.952C161.06 224.72 161.525 224.836 161.758 225.301L168.391 237.055C168.624 237.52 168.508 237.986 168.042 238.219C167.926 238.335 167.809 238.335 167.693 238.335Z" fill="#030047"/>
<path d="M195.158 210.288H10.5935C1.98201 210.288 -2.32372 199.815 3.84396 193.763L58.7712 139.418C60.6331 137.672 62.9605 136.625 65.5207 136.625H250.085C258.697 136.625 263.003 147.098 256.835 153.15L201.908 207.495C200.162 209.357 197.718 210.288 195.158 210.288Z" fill="white"/>
<path d="M195.159 211.219H10.5941C6.2884 211.219 2.56453 208.775 0.818961 204.702C-0.810236 200.629 0.00436208 196.324 3.14638 193.182L58.0736 138.836C60.0519 136.858 62.7285 135.811 65.5214 135.811H250.086C254.392 135.811 258.116 138.254 259.861 142.327C261.49 146.4 260.676 150.706 257.534 153.848L202.607 208.193C200.628 210.172 197.952 211.219 195.159 211.219ZM65.5214 137.556C63.1939 137.556 60.9829 138.487 59.3537 140.116L4.42647 194.462C1.8663 197.022 1.0517 200.629 2.44816 204.004C3.84461 207.379 6.98663 209.474 10.5941 209.474H195.159C197.486 209.474 199.697 208.543 201.327 206.913L256.254 152.568C258.814 150.008 259.629 146.4 258.232 143.026C256.836 139.651 253.694 137.556 250.086 137.556H65.5214Z" fill="#030047"/>
<path d="M180.496 197.138H16.5293L74.1331 140.232H238.1L180.496 197.138Z" fill="#030047"/>
<path d="M90.3083 173.166H62.1465L72.038 163.391H100.2L90.3083 173.166Z" fill="white"/>
<path d="M121.03 191.435H96.127L104.855 182.707H129.875L121.03 191.435Z" fill="white"/>
<path d="M78.2056 190.156H57.957L66.8012 181.545H86.9335L78.2056 190.156Z" fill="white"/>
<path d="M159.666 152.918C142.676 152.918 127.897 148.496 122.66 141.863C122.311 141.514 122.427 140.932 122.776 140.583C123.126 140.234 123.707 140.35 124.056 140.699C128.828 146.751 143.49 151.056 159.666 151.056C179.798 151.056 196.788 144.423 196.788 136.626C196.788 136.161 197.138 135.695 197.719 135.695C198.301 135.695 198.65 136.044 198.65 136.626C198.534 145.82 181.427 152.918 159.666 152.918Z" fill="#E92453"/>
<path d="M126.5 129.991C126.267 129.991 125.918 129.875 125.801 129.642C125.569 129.293 125.569 128.711 126.034 128.479C131.736 124.522 141.279 121.729 152.334 120.914C154.661 120.682 157.105 120.682 159.549 120.682C160.014 120.682 160.48 121.031 160.48 121.613C160.48 122.194 160.131 122.544 159.549 122.544C157.105 122.544 154.778 122.66 152.45 122.776C141.628 123.591 132.434 126.268 126.965 130.108C126.849 129.991 126.732 129.991 126.5 129.991Z" fill="#E92453"/>
<path d="M191.203 157.34C190.854 157.34 190.505 157.108 190.389 156.642C190.272 156.177 190.505 155.711 190.97 155.595C195.625 154.431 199.815 152.918 203.422 151.289C212.383 147.216 217.27 141.979 217.27 136.626C217.27 124.175 191.436 114.05 159.667 114.05C143.607 114.05 128.595 116.61 117.54 121.265C117.075 121.498 116.609 121.265 116.376 120.8C116.144 120.334 116.376 119.869 116.842 119.636C128.13 114.865 143.258 112.305 159.55 112.305C192.832 112.305 218.899 123.011 218.899 136.626C218.899 142.678 213.663 148.38 204.004 152.802C200.28 154.548 195.974 155.944 191.32 157.224C191.32 157.34 191.203 157.34 191.203 157.34Z" fill="#E92453"/>
<path d="M159.666 161.064C156.291 161.064 153.033 160.948 149.774 160.715C121.147 158.737 100.316 148.613 100.316 136.626C100.316 136.161 100.666 135.695 101.247 135.695C101.829 135.695 102.178 136.044 102.178 136.626C102.178 147.449 122.776 157.108 150.007 158.97C153.265 159.202 156.524 159.319 159.782 159.319C160.248 159.319 160.713 159.668 160.713 160.25C160.713 160.831 160.131 161.064 159.666 161.064Z" fill="#E92453"/>
<path d="M169.906 160.714C169.441 160.714 169.092 160.365 169.092 159.899C169.092 159.434 169.441 158.969 169.906 158.969C174.91 158.619 179.914 157.921 184.453 157.107C184.918 156.99 185.384 157.339 185.5 157.805C185.617 158.27 185.267 158.736 184.802 158.852C180.031 159.667 175.143 160.365 169.906 160.714C170.023 160.714 169.906 160.714 169.906 160.714Z" fill="#E92453"/>
<path d="M180.381 168.045C179.915 168.045 179.566 167.696 179.566 167.23C179.566 166.765 179.915 166.299 180.381 166.299C207.495 163.274 228.442 154.779 235.192 143.84C236.588 141.512 237.287 139.185 237.287 136.741C237.287 132.435 235.657 128.595 232.515 126.035C232.166 125.686 232.05 125.22 232.399 124.755C232.748 124.406 233.214 124.289 233.679 124.639C237.17 127.548 239.148 131.854 239.148 136.741C239.148 139.534 238.334 142.211 236.705 144.771C229.606 156.059 208.077 164.903 180.381 168.045C180.381 167.929 180.381 168.045 180.381 168.045Z" fill="#E92453"/>
<path d="M85.421 127.316C85.1882 127.316 85.0719 127.199 84.8391 127.083C84.49 126.734 84.49 126.268 84.7228 125.803C90.0758 119.635 99.7346 114.398 112.652 110.442C113.117 110.325 113.583 110.558 113.699 111.024C113.816 111.489 113.583 111.955 113.117 112.071C100.433 115.795 91.1232 120.915 86.0028 126.85C85.8865 127.199 85.6537 127.316 85.421 127.316Z" fill="#E92453"/>
<path d="M116.143 163.856C116.027 163.856 116.027 163.856 115.91 163.856C93.5671 157.921 80.3008 147.797 80.3008 136.742C80.3008 136.276 80.6499 135.811 81.2318 135.811C81.8136 135.811 82.1627 136.16 82.1627 136.742C82.1627 146.866 94.9635 156.408 116.492 162.11C116.958 162.227 117.19 162.692 117.074 163.158C116.841 163.623 116.492 163.856 116.143 163.856Z" fill="#E92453"/>
<path d="M159.667 144.306C170.078 144.306 178.519 140.919 178.519 136.742C178.519 132.564 170.078 129.178 159.667 129.178C149.255 129.178 140.814 132.564 140.814 136.742C140.814 140.919 149.255 144.306 159.667 144.306Z" fill="#E92453"/>
<path d="M254.043 36.3145C231.816 43.4131 221.459 71.9241 216.223 79.6046C203.189 98.4567 170.489 100.9 162.343 108.116C154.662 114.865 159.666 118.822 159.666 118.822C159.666 118.822 158.735 122.778 161.645 124.64C161.645 124.64 155.36 131.273 158.386 134.183C161.295 137.092 170.605 124.757 174.678 124.058L175.842 126.851C175.493 128.597 170.838 132.437 173.049 134.648C175.144 136.976 182.94 129.179 185.035 126.619C187.13 124.058 191.086 124.64 195.159 120.8C199.232 116.96 217.852 118.123 230.42 105.09C242.872 92.0563 261.724 52.9555 261.724 52.9555L254.043 36.3145Z" fill="white"/>
<path d="M173.863 135.812C173.049 135.812 172.467 135.462 172.118 135.113C170.14 133.019 172.118 130.342 173.514 128.364C173.98 127.782 174.445 127.084 174.678 126.618L173.98 124.873C172.467 125.571 170.14 127.666 168.045 129.527C163.856 133.251 159.899 136.859 157.572 134.531C154.662 131.622 158.502 126.502 160.248 124.523C158.386 122.662 158.502 119.985 158.619 118.938C158.037 118.356 157.222 117.076 157.106 115.214C157.106 112.654 158.619 109.977 161.645 107.301C164.67 104.624 170.954 102.646 178.169 100.202C191.086 96.0126 207.262 90.7759 215.408 78.906C216.455 77.3932 217.735 74.833 219.365 72.0401C225.532 60.5193 235.773 41.0853 253.694 35.3831L254.392 35.1504L262.306 52.7225L262.189 53.0716C261.375 54.7008 243.221 92.5214 230.769 105.439C222.507 114.05 211.684 116.494 203.887 118.356C200.047 119.287 196.789 119.985 195.509 121.149C193.181 123.36 190.854 124.174 188.992 124.873C187.479 125.455 186.315 125.92 185.501 126.851C185.501 127.2 177.936 135.695 173.863 135.812C173.98 135.812 173.863 135.812 173.863 135.812ZM175.144 122.894L176.656 126.502V126.735C176.54 127.433 175.842 128.364 175.144 129.295C173.747 131.273 172.7 132.902 173.514 133.833C173.514 133.833 173.631 133.95 173.98 133.95C176.307 133.95 181.777 128.713 184.221 125.804C185.384 124.524 186.897 123.942 188.526 123.243C190.272 122.545 192.366 121.847 194.345 119.869C195.974 118.356 199.116 117.658 203.538 116.61C211.219 114.865 221.692 112.421 229.605 104.159C241.242 92.0559 258.582 56.5627 260.56 52.6061L253.694 37.2451C236.82 43.0636 227.045 61.6831 221.11 72.8547C219.481 75.8803 218.201 78.3241 217.154 79.9533C208.658 92.2887 192.134 97.6418 178.984 101.948C172.002 104.275 165.95 106.253 163.157 108.697C160.481 111.024 159.084 113.235 159.201 115.214C159.201 116.959 160.481 118.007 160.481 118.007L160.946 118.356L160.83 118.938C160.83 118.938 160.132 122.312 162.343 123.825L163.274 124.407L162.575 125.222C161.063 126.735 157.339 131.622 159.201 133.484C160.364 134.648 164.554 130.808 167.23 128.364C170.023 125.804 172.7 123.476 174.678 123.127L175.144 122.894Z" fill="#030047"/>
<path d="M236.239 88.5643C237.635 89.4953 239.032 90.4262 240.312 91.2408C250.901 74.7161 261.375 52.722 261.375 52.722L254.044 36.1973C234.26 42.4813 223.903 65.7555 218.201 76.2289C224.369 80.0692 230.304 84.6077 236.239 88.5643Z" fill="#E92453"/>
<path d="M240.661 92.5211L239.963 92.0556C238.567 91.1246 237.287 90.1937 235.89 89.3791C233.33 87.7499 230.886 86.0043 228.442 84.2587C225.068 81.8149 221.46 79.3712 217.853 77.1601L217.154 76.6946L217.503 75.9964C218.085 74.8327 218.783 73.669 219.482 72.2725C225.649 60.7518 235.89 41.3178 253.811 35.6156L254.509 35.3828L262.423 52.9548L262.306 53.304C262.19 53.5368 251.6 75.5309 241.127 91.8229L240.661 92.5211ZM219.365 75.9964C222.74 78.0911 226.115 80.4185 229.257 82.7459C231.701 84.4915 234.261 86.237 236.705 87.8662C237.868 88.5644 238.916 89.3791 240.079 90.0773C249.622 75.0654 259.048 55.7478 260.444 52.8385L253.579 37.4775C236.705 43.296 226.93 61.9155 220.995 73.0871C220.413 74.1345 219.947 75.0654 219.365 75.9964Z" fill="#E92453"/>
<path d="M168.162 118.471C165.601 119.635 163.507 121.38 161.645 123.475C161.179 124.057 161.994 124.871 162.459 124.29C164.205 122.195 166.3 120.566 168.743 119.402C169.442 119.169 168.86 118.122 168.162 118.471Z" fill="#030047"/>
<path d="M165.6 113.236C163.156 113.934 161.178 115.447 159.782 117.541C159.433 118.123 160.364 118.705 160.829 118.123C161.993 116.261 163.855 114.865 165.949 114.283C166.531 114.167 166.298 113.003 165.6 113.236Z" fill="#030047"/>
<path d="M254.043 36.314C242.289 40.2706 233.678 46.5547 236.238 80.3023C238.798 114.05 238.333 124.407 238.333 124.407L313.974 113.701C313.974 113.701 291.98 23.6295 254.043 36.314Z" fill="#E92453"/>
<path d="M237.518 125.455V124.408C237.518 124.291 237.867 113.701 235.423 80.4193C232.863 45.5079 242.173 39.4565 253.81 35.4999L254.042 36.3145L253.81 35.4999C260.326 33.2889 266.843 33.9871 273.127 37.3619C299.544 51.9083 314.323 110.908 314.905 113.469L315.137 114.4L237.518 125.455ZM261.374 35.9654C259.046 35.9654 256.719 36.3145 254.392 37.1291C243.104 40.9694 234.608 46.5552 237.169 80.3028C239.263 107.999 239.38 120.102 239.263 123.477L312.926 113.003C310.948 105.323 296.285 52.141 272.313 38.9911C268.705 37.0127 265.098 35.9654 261.374 35.9654Z" fill="#E92453"/>
<path d="M236.587 86.4693C236.122 86.4693 235.772 86.1202 235.772 85.6547L235.074 65.7552C235.074 65.2897 235.423 64.8242 235.889 64.8242C236.354 64.8242 236.82 65.1733 236.82 65.6388L237.518 85.5383C237.518 86.1201 237.169 86.4693 236.587 86.4693C236.703 86.4693 236.587 86.4693 236.587 86.4693Z" fill="#030047"/>
<path d="M324.098 83.6764C312.112 53.4199 282.438 27.3527 254.043 36.3133C254.043 36.3133 282.554 66.6862 295.122 83.3273C304.083 95.1972 311.414 119.402 315.371 133.6C307.69 141.978 310.599 158.038 312.229 158.503C316.883 160.016 317.465 149.775 317.465 149.775L319.211 148.844C319.909 153.034 320.607 158.27 322.469 159.783C325.262 161.994 328.055 158.736 328.055 158.736C331.43 160.249 334.805 157.805 334.805 157.805C350.631 156.758 336.085 113.933 324.098 83.6764Z" fill="white"/>
<path d="M324.564 161.529C323.749 161.529 322.818 161.296 322.004 160.598C320.025 158.968 319.211 154.43 318.629 150.357L318.396 150.473C318.28 152.219 317.582 157.339 315.021 159.085C314.09 159.667 313.043 159.783 311.996 159.434C311.53 159.318 310.832 158.736 310.25 156.292C309.203 152.335 308.039 140.698 314.44 133.367C307.69 109.162 301.057 92.5205 294.54 83.909C282.205 67.5007 253.81 37.2442 253.577 37.0115L252.646 35.9641L253.927 35.4986C282.903 26.3052 312.81 52.6052 325.029 83.3272C340.74 122.777 345.976 146.982 340.74 155.361C339.459 157.339 337.597 158.503 335.154 158.736C334.339 159.201 331.43 160.83 328.404 159.783C327.357 160.714 326.077 161.529 324.564 161.529ZM319.909 147.564L320.142 149.426C320.724 153.034 321.422 158.037 323.051 159.318C325.146 160.947 327.357 158.503 327.357 158.387L327.822 157.921L328.404 158.154C331.197 159.434 334.223 157.339 334.223 157.339L334.455 157.223H334.688C336.667 157.107 338.179 156.176 339.11 154.546C342.485 149.077 342.485 132.436 323.284 84.1418C311.53 54.5835 283.252 29.2145 255.672 36.895C260.792 42.3645 284.765 68.1989 295.82 82.8617C302.453 91.7059 309.319 108.696 316.185 133.367L316.302 133.832L315.952 134.181C308.854 141.862 311.181 156.176 312.578 157.805C313.16 157.921 313.509 157.921 313.974 157.572C315.836 156.292 316.534 151.404 316.534 149.775V149.31L319.909 147.564Z" fill="#030047"/>
<path d="M299.311 71.225C303.501 68.083 307.341 64.7082 311.298 61.3335C296.635 42.1322 274.99 29.6805 254.043 36.3136C254.043 36.3136 276.735 60.4025 290.467 77.3927C293.493 75.4144 296.402 73.3197 299.311 71.225Z" fill="#E92453"/>
<path d="M290.35 78.6736L289.884 78.0917C276.269 61.3343 253.693 37.2455 253.46 37.0127L252.529 35.9654L253.809 35.4998C273.011 29.3322 295.354 39.1074 311.995 60.7524L312.46 61.4507L311.879 62.0325C311.064 62.7308 310.249 63.429 309.318 64.1272C306.293 66.8037 303.034 69.4803 299.776 71.9241C297.216 73.9024 294.423 75.8807 290.932 78.2081L290.35 78.6736ZM255.671 36.78C260.093 41.5512 278.596 61.567 290.699 76.3462C293.841 74.1351 296.401 72.3896 298.845 70.5276C302.103 68.0838 305.245 65.4072 308.271 62.8471C308.853 62.2652 309.551 61.7998 310.133 61.2179C297.681 45.2751 277.084 30.845 255.671 36.78Z" fill="#E92453"/>
<path d="M327.241 145.585C327.008 144.887 325.845 145.12 326.077 145.934C327.241 149.775 327.59 153.615 327.008 157.572C326.892 158.27 328.056 158.27 328.172 157.572C328.87 153.499 328.521 149.542 327.241 145.585Z" fill="#030047"/>
<path d="M334.337 143.839C334.104 143.141 333.057 143.374 333.173 144.188C334.22 148.145 334.453 152.218 334.104 156.291C333.988 156.989 335.151 156.989 335.268 156.291C335.733 151.985 335.384 147.912 334.337 143.839Z" fill="#030047"/>
<path d="M287.206 74.366C286.973 74.366 286.624 74.2496 286.508 74.0169C280.34 65.8709 277.664 61.9142 277.547 61.9142C277.315 61.5651 277.315 60.9833 277.78 60.7505C278.129 60.5178 278.711 60.5178 278.944 60.9833C278.944 60.9833 281.737 64.9399 287.788 73.0859C288.137 73.435 288.021 74.0169 287.672 74.366C287.555 74.2496 287.439 74.366 287.206 74.366Z" fill="#030047"/>
<path d="M258.464 16.7634C258.348 12.6904 254.275 10.2466 249.736 12.4576C249.038 12.8067 248.456 13.2722 247.758 13.8541C247.758 13.8541 247.758 13.8541 247.642 13.7377C241.241 6.98822 231.117 6.05723 225.066 11.7594C219.014 17.4616 220.411 26.6549 225.531 34.4518C230.302 41.4341 240.194 45.158 248.107 36.4301C250.667 33.5209 252.18 29.6806 252.296 25.724C256.602 24.4439 258.58 20.3709 258.464 16.7634Z" fill="white"/>
<path d="M237.867 42.4816C237.518 42.4816 237.285 42.4816 236.936 42.4816C232.281 42.1325 227.859 39.3397 224.95 35.0339C218.898 26.0733 218.782 16.7636 224.601 11.2942C230.885 5.35923 241.242 6.05744 247.875 12.807C248.34 12.4579 248.922 12.1088 249.388 11.876C251.831 10.5959 254.392 10.596 256.37 11.7597C258.116 12.807 259.279 14.6689 259.279 16.88C259.396 20.3711 257.534 24.7933 253.112 26.5388C252.879 30.4955 251.366 34.2193 248.806 37.1286C244.966 41.4343 240.893 42.4816 237.867 42.4816ZM234.958 8.96674C231.583 8.96674 228.324 10.1305 225.764 12.4579C219.48 18.3928 222.157 27.7025 226.346 33.9866C229.023 37.9432 232.979 40.387 237.052 40.6197C240.893 40.8525 244.5 39.2233 247.526 35.8485C249.97 33.172 251.366 29.5645 251.482 25.7242V25.1424L252.064 24.9096C255.904 23.6295 257.65 19.7893 257.534 16.7636C257.534 15.2508 256.719 13.8544 255.439 13.1561C253.926 12.2252 251.948 12.3415 250.086 13.2725C249.504 13.6216 248.922 13.9707 248.224 14.5525L247.642 15.1344L247.06 14.5525C243.802 10.8287 239.263 8.96674 234.958 8.96674Z" fill="#030047"/>
<path d="M235.555 26.7661C235.818 26.1795 235.555 25.491 234.968 25.2283C234.382 24.9657 233.693 25.2282 233.431 25.8148C233.168 26.4014 233.431 27.0899 234.017 27.3526C234.604 27.6152 235.292 27.3526 235.555 26.7661Z" fill="#030047"/>
<path d="M231.7 35.7314C230.187 33.6368 229.023 31.3094 228.092 28.8656C227.859 28.1674 228.907 27.7018 229.139 28.4001C229.954 30.7275 231.118 32.9386 232.514 35.0332C233.096 35.6151 232.165 36.3133 231.7 35.7314Z" fill="#030047"/>
<path d="M223.554 21.5349C227.045 20.2548 237.751 10.9451 241.824 17.6947C242.871 19.4402 242.871 20.8367 244.85 20.3712C246.712 19.5566 246.363 17.2292 246.363 17.2292C247.759 15.2509 248.225 13.2726 249.737 12.458C253.927 5.70842 243.57 -2.67032 237.751 2.33364C237.751 2.33364 224.834 -0.808369 221.11 7.22125C214.477 9.89778 212.033 15.0181 213.43 19.7893C215.99 27.9353 223.554 21.5349 223.554 21.5349Z" fill="#030047"/>
<path d="M248.923 20.8359C248.807 18.043 250.553 15.5992 253.229 14.7846C253.927 14.5519 254.393 15.7156 253.695 15.832C251.6 16.4138 250.087 18.3921 250.204 20.6032C250.204 21.5341 249.04 21.6505 248.923 20.8359Z" fill="#030047"/>
<path d="M160.946 190.971C160.713 190.971 160.48 190.854 160.364 190.738L145.701 176.075C145.352 175.726 145.352 175.144 145.701 174.795C146.05 174.446 146.632 174.446 146.981 174.795L161.644 189.458C161.993 189.807 161.993 190.389 161.644 190.738C161.411 190.854 161.179 190.971 160.946 190.971Z" fill="#E92453"/>
<path d="M146.4 190.971C146.168 190.971 145.935 190.854 145.818 190.738C145.469 190.389 145.469 189.807 145.818 189.458L160.481 174.795C160.83 174.446 161.412 174.446 161.761 174.795C162.11 175.144 162.11 175.726 161.761 176.075L147.099 190.738C146.749 190.854 146.633 190.971 146.4 190.971Z" fill="#E92453"/>
</svg>
