<svg width="174" height="174" viewBox="0 0 174 174" fill="none" xmlns="http://www.w3.org/2000/svg">
<circle cx="87" cy="87" r="87" fill="#FFCC3E" fill-opacity="0.2"/>
<path d="M51.8593 129.001H122.139C129.326 129.001 133.806 121.208 130.213 115.001L95.0726 54.2878C91.4793 48.0811 82.5193 48.0811 78.9259 54.2878L43.7859 115.001C40.1926 121.208 44.6726 129.001 51.8593 129.001ZM86.9993 96.3345C84.4326 96.3345 82.3326 94.2345 82.3326 91.6678V82.3345C82.3326 79.7678 84.4326 77.6678 86.9993 77.6678C89.5659 77.6678 91.6659 79.7678 91.6659 82.3345V91.6678C91.6659 94.2345 89.5659 96.3345 86.9993 96.3345ZM91.6659 115.001H82.3326V105.668H91.6659V115.001Z" fill="#FFCC3E"/>
</svg>
